<?xml version="1.0" encoding="utf-8" standalone="no"?>
<!DOCTYPE svg PUBLIC "-//W3C//DTD SVG 1.1//EN"
  "http://www.w3.org/Graphics/SVG/1.1/DTD/svg11.dtd">
<svg xmlns:xlink="http://www.w3.org/1999/xlink" width="720pt" height="432pt" viewBox="0 0 720 432" xmlns="http://www.w3.org/2000/svg" version="1.1">
 <metadata>
  <rdf:RDF xmlns:dc="http://purl.org/dc/elements/1.1/" xmlns:cc="http://creativecommons.org/ns#" xmlns:rdf="http://www.w3.org/1999/02/22-rdf-syntax-ns#">
   <cc:Work>
    <dc:type rdf:resource="http://purl.org/dc/dcmitype/StillImage"/>
    <dc:date>2024-09-13T01:28:30.586643</dc:date>
    <dc:format>image/svg+xml</dc:format>
    <dc:creator>
     <cc:Agent>
      <dc:title>Matplotlib v3.9.2, https://matplotlib.org/</dc:title>
     </cc:Agent>
    </dc:creator>
   </cc:Work>
  </rdf:RDF>
 </metadata>
 <defs>
  <style type="text/css">*{stroke-linejoin: round; stroke-linecap: butt}</style>
 </defs>
 <g id="figure_1">
  <g id="patch_1">
   <path d="M 0 432 
L 720 432 
L 720 0 
L 0 0 
z
" style="fill: #ffffff"/>
  </g>
  <g id="axes_1">
   <g id="patch_2">
    <path d="M 50.87 333.552968 
L 612 333.552968 
L 612 26.88 
L 50.87 26.88 
z
" style="fill: #ffffff"/>
   </g>
   <g id="PolyCollection_1">
    <path d="M 127.387727 264.541958 
L 104.237662 264.541958 
L 104.002948 263.488203 
L 103.781014 262.434448 
L 103.57195 261.380693 
L 103.375807 260.326937 
L 103.192593 259.273182 
L 103.022276 258.219427 
L 102.864782 257.165672 
L 102.720002 256.111917 
L 102.587785 255.058162 
L 102.467946 254.004406 
L 102.360263 252.950651 
L 102.264482 251.896896 
L 102.180315 250.843141 
L 102.107446 249.789386 
L 102.045529 248.735631 
L 101.994196 247.681875 
L 101.953052 246.62812 
L 101.921684 245.574365 
L 101.899656 244.52061 
L 101.886522 243.466855 
L 101.881818 242.4131 
L 101.885071 241.359344 
L 101.8958 240.305589 
L 101.913518 239.251834 
L 101.937734 238.198079 
L 101.967958 237.144324 
L 102.003702 236.090569 
L 102.044482 235.036813 
L 102.089821 233.983058 
L 102.139252 232.929303 
L 102.192317 231.875548 
L 102.248575 230.821793 
L 102.307599 229.768038 
L 102.368978 228.714283 
L 102.432323 227.660527 
L 102.497265 226.606772 
L 102.563456 225.553017 
L 102.630572 224.499262 
L 102.698316 223.445507 
L 102.766415 222.391752 
L 102.834623 221.337996 
L 102.902722 220.284241 
L 102.970522 219.230486 
L 103.037861 218.176731 
L 103.104609 217.122976 
L 103.17066 216.069221 
L 103.23594 215.015465 
L 103.300405 213.96171 
L 103.364037 212.907955 
L 103.426847 211.8542 
L 103.488875 210.800445 
L 103.550185 209.74669 
L 103.61087 208.692934 
L 103.671047 207.639179 
L 103.730856 206.585424 
L 103.790462 205.531669 
L 103.850049 204.477914 
L 103.909825 203.424159 
L 103.970014 202.370403 
L 104.030858 201.316648 
L 104.092617 200.262893 
L 104.155562 199.209138 
L 104.219978 198.155383 
L 104.286163 197.101628 
L 104.35442 196.047872 
L 104.425064 194.994117 
L 104.498411 193.940362 
L 104.574784 192.886607 
L 104.654506 191.832852 
L 104.7379 190.779097 
L 104.825289 189.725341 
L 104.916991 188.671586 
L 105.013317 187.617831 
L 105.114575 186.564076 
L 105.22106 185.510321 
L 105.333058 184.456566 
L 105.450843 183.40281 
L 105.574676 182.349055 
L 105.704801 181.2953 
L 105.841447 180.241545 
L 105.984823 179.18779 
L 106.135122 178.134035 
L 106.292514 177.080279 
L 106.457148 176.026524 
L 106.629151 174.972769 
L 106.808628 173.919014 
L 106.995659 172.865259 
L 107.1903 171.811504 
L 107.39258 170.757749 
L 107.602506 169.703993 
L 107.820058 168.650238 
L 108.045189 167.596483 
L 108.277828 166.542728 
L 108.517877 165.488973 
L 108.765215 164.435218 
L 109.019693 163.381462 
L 109.281139 162.327707 
L 109.549357 161.273952 
L 109.824129 160.220197 
L 127.387727 160.220197 
L 127.387727 160.220197 
L 127.387727 161.273952 
L 127.387727 162.327707 
L 127.387727 163.381462 
L 127.387727 164.435218 
L 127.387727 165.488973 
L 127.387727 166.542728 
L 127.387727 167.596483 
L 127.387727 168.650238 
L 127.387727 169.703993 
L 127.387727 170.757749 
L 127.387727 171.811504 
L 127.387727 172.865259 
L 127.387727 173.919014 
L 127.387727 174.972769 
L 127.387727 176.026524 
L 127.387727 177.080279 
L 127.387727 178.134035 
L 127.387727 179.18779 
L 127.387727 180.241545 
L 127.387727 181.2953 
L 127.387727 182.349055 
L 127.387727 183.40281 
L 127.387727 184.456566 
L 127.387727 185.510321 
L 127.387727 186.564076 
L 127.387727 187.617831 
L 127.387727 188.671586 
L 127.387727 189.725341 
L 127.387727 190.779097 
L 127.387727 191.832852 
L 127.387727 192.886607 
L 127.387727 193.940362 
L 127.387727 194.994117 
L 127.387727 196.047872 
L 127.387727 197.101628 
L 127.387727 198.155383 
L 127.387727 199.209138 
L 127.387727 200.262893 
L 127.387727 201.316648 
L 127.387727 202.370403 
L 127.387727 203.424159 
L 127.387727 204.477914 
L 127.387727 205.531669 
L 127.387727 206.585424 
L 127.387727 207.639179 
L 127.387727 208.692934 
L 127.387727 209.74669 
L 127.387727 210.800445 
L 127.387727 211.8542 
L 127.387727 212.907955 
L 127.387727 213.96171 
L 127.387727 215.015465 
L 127.387727 216.069221 
L 127.387727 217.122976 
L 127.387727 218.176731 
L 127.387727 219.230486 
L 127.387727 220.284241 
L 127.387727 221.337996 
L 127.387727 222.391752 
L 127.387727 223.445507 
L 127.387727 224.499262 
L 127.387727 225.553017 
L 127.387727 226.606772 
L 127.387727 227.660527 
L 127.387727 228.714283 
L 127.387727 229.768038 
L 127.387727 230.821793 
L 127.387727 231.875548 
L 127.387727 232.929303 
L 127.387727 233.983058 
L 127.387727 235.036813 
L 127.387727 236.090569 
L 127.387727 237.144324 
L 127.387727 238.198079 
L 127.387727 239.251834 
L 127.387727 240.305589 
L 127.387727 241.359344 
L 127.387727 242.4131 
L 127.387727 243.466855 
L 127.387727 244.52061 
L 127.387727 245.574365 
L 127.387727 246.62812 
L 127.387727 247.681875 
L 127.387727 248.735631 
L 127.387727 249.789386 
L 127.387727 250.843141 
L 127.387727 251.896896 
L 127.387727 252.950651 
L 127.387727 254.004406 
L 127.387727 255.058162 
L 127.387727 256.111917 
L 127.387727 257.165672 
L 127.387727 258.219427 
L 127.387727 259.273182 
L 127.387727 260.326937 
L 127.387727 261.380693 
L 127.387727 262.434448 
L 127.387727 263.488203 
L 127.387727 264.541958 
z
" clip-path="url(#p9e74abbaa5)" style="fill: #1f77b4; fill-opacity: 0.3"/>
   </g>
   <g id="PolyCollection_2">
    <path d="M 229.411364 298.304429 
L 218.572251 298.304429 
L 218.382418 297.195407 
L 218.192963 296.086386 
L 218.003611 294.977364 
L 217.814072 293.868343 
L 217.624036 292.759321 
L 217.433184 291.6503 
L 217.241185 290.541279 
L 217.047703 289.432257 
L 216.852401 288.323236 
L 216.654942 287.214214 
L 216.454993 286.105193 
L 216.252231 284.996171 
L 216.046348 283.88715 
L 215.837048 282.778128 
L 215.624059 281.669107 
L 215.40713 280.560085 
L 215.186038 279.451064 
L 214.960592 278.342042 
L 214.73063 277.233021 
L 214.496029 276.124 
L 214.256704 275.014978 
L 214.01261 273.905957 
L 213.763742 272.796935 
L 213.510141 271.687914 
L 213.251892 270.578892 
L 212.989123 269.469871 
L 212.722009 268.360849 
L 212.450769 267.251828 
L 212.175667 266.142806 
L 211.897011 265.033785 
L 211.615149 263.924764 
L 211.330472 262.815742 
L 211.043408 261.706721 
L 210.754422 260.597699 
L 210.46401 259.488678 
L 210.172703 258.379656 
L 209.881056 257.270635 
L 209.58965 256.161613 
L 209.299087 255.052592 
L 209.009984 253.94357 
L 208.722974 252.834549 
L 208.438701 251.725527 
L 208.157814 250.616506 
L 207.880964 249.507485 
L 207.608802 248.398463 
L 207.341977 247.289442 
L 207.081128 246.18042 
L 206.826884 245.071399 
L 206.579862 243.962377 
L 206.340662 242.853356 
L 206.109865 241.744334 
L 205.888032 240.635313 
L 205.675701 239.526291 
L 205.473386 238.41727 
L 205.281574 237.308248 
L 205.100726 236.199227 
L 204.931275 235.090206 
L 204.773625 233.981184 
L 204.628153 232.872163 
L 204.495205 231.763141 
L 204.375098 230.65412 
L 204.268122 229.545098 
L 204.174537 228.436077 
L 204.094576 227.327055 
L 204.028446 226.218034 
L 203.976326 225.109012 
L 203.938371 223.999991 
L 203.914712 222.890969 
L 203.905455 221.781948 
L 203.910683 220.672927 
L 203.930461 219.563905 
L 203.964829 218.454884 
L 204.013809 217.345862 
L 204.077405 216.236841 
L 204.155598 215.127819 
L 204.248355 214.018798 
L 204.355624 212.909776 
L 204.477334 211.800755 
L 204.613398 210.691733 
L 204.763712 209.582712 
L 204.928153 208.47369 
L 205.106581 207.364669 
L 205.298838 206.255648 
L 205.504749 205.146626 
L 205.724117 204.037605 
L 205.956728 202.928583 
L 206.202348 201.819562 
L 206.460721 200.71054 
L 206.731573 199.601519 
L 207.014605 198.492497 
L 207.309499 197.383476 
L 207.615911 196.274454 
L 207.933477 195.165433 
L 208.26181 194.056412 
L 208.600498 192.94739 
L 208.949107 191.838369 
L 209.30718 190.729347 
L 209.674236 189.620326 
L 210.049774 188.511304 
L 229.411364 188.511304 
L 229.411364 188.511304 
L 229.411364 189.620326 
L 229.411364 190.729347 
L 229.411364 191.838369 
L 229.411364 192.94739 
L 229.411364 194.056412 
L 229.411364 195.165433 
L 229.411364 196.274454 
L 229.411364 197.383476 
L 229.411364 198.492497 
L 229.411364 199.601519 
L 229.411364 200.71054 
L 229.411364 201.819562 
L 229.411364 202.928583 
L 229.411364 204.037605 
L 229.411364 205.146626 
L 229.411364 206.255648 
L 229.411364 207.364669 
L 229.411364 208.47369 
L 229.411364 209.582712 
L 229.411364 210.691733 
L 229.411364 211.800755 
L 229.411364 212.909776 
L 229.411364 214.018798 
L 229.411364 215.127819 
L 229.411364 216.236841 
L 229.411364 217.345862 
L 229.411364 218.454884 
L 229.411364 219.563905 
L 229.411364 220.672927 
L 229.411364 221.781948 
L 229.411364 222.890969 
L 229.411364 223.999991 
L 229.411364 225.109012 
L 229.411364 226.218034 
L 229.411364 227.327055 
L 229.411364 228.436077 
L 229.411364 229.545098 
L 229.411364 230.65412 
L 229.411364 231.763141 
L 229.411364 232.872163 
L 229.411364 233.981184 
L 229.411364 235.090206 
L 229.411364 236.199227 
L 229.411364 237.308248 
L 229.411364 238.41727 
L 229.411364 239.526291 
L 229.411364 240.635313 
L 229.411364 241.744334 
L 229.411364 242.853356 
L 229.411364 243.962377 
L 229.411364 245.071399 
L 229.411364 246.18042 
L 229.411364 247.289442 
L 229.411364 248.398463 
L 229.411364 249.507485 
L 229.411364 250.616506 
L 229.411364 251.725527 
L 229.411364 252.834549 
L 229.411364 253.94357 
L 229.411364 255.052592 
L 229.411364 256.161613 
L 229.411364 257.270635 
L 229.411364 258.379656 
L 229.411364 259.488678 
L 229.411364 260.597699 
L 229.411364 261.706721 
L 229.411364 262.815742 
L 229.411364 263.924764 
L 229.411364 265.033785 
L 229.411364 266.142806 
L 229.411364 267.251828 
L 229.411364 268.360849 
L 229.411364 269.469871 
L 229.411364 270.578892 
L 229.411364 271.687914 
L 229.411364 272.796935 
L 229.411364 273.905957 
L 229.411364 275.014978 
L 229.411364 276.124 
L 229.411364 277.233021 
L 229.411364 278.342042 
L 229.411364 279.451064 
L 229.411364 280.560085 
L 229.411364 281.669107 
L 229.411364 282.778128 
L 229.411364 283.88715 
L 229.411364 284.996171 
L 229.411364 286.105193 
L 229.411364 287.214214 
L 229.411364 288.323236 
L 229.411364 289.432257 
L 229.411364 290.541279 
L 229.411364 291.6503 
L 229.411364 292.759321 
L 229.411364 293.868343 
L 229.411364 294.977364 
L 229.411364 296.086386 
L 229.411364 297.195407 
L 229.411364 298.304429 
z
" clip-path="url(#p9e74abbaa5)" style="fill: #1f77b4; fill-opacity: 0.3"/>
   </g>
   <g id="PolyCollection_3">
    <path d="M 331.435 291.237491 
L 313.07578 291.237491 
L 312.929443 290.566195 
L 312.792814 289.894898 
L 312.665801 289.223602 
L 312.548268 288.552306 
L 312.440044 287.88101 
L 312.340918 287.209713 
L 312.250638 286.538417 
L 312.168918 285.867121 
L 312.095435 285.195824 
L 312.029829 284.524528 
L 311.971711 283.853232 
L 311.920656 283.181935 
L 311.876213 282.510639 
L 311.837902 281.839343 
L 311.805218 281.168046 
L 311.777634 280.49675 
L 311.754603 279.825454 
L 311.735559 279.154157 
L 311.719925 278.482861 
L 311.70711 277.811565 
L 311.696515 277.140268 
L 311.687535 276.468972 
L 311.679566 275.797676 
L 311.672001 275.126379 
L 311.66424 274.455083 
L 311.65569 273.783787 
L 311.645769 273.112491 
L 311.633907 272.441194 
L 311.619555 271.769898 
L 311.60218 271.098602 
L 311.581275 270.427305 
L 311.556358 269.756009 
L 311.526975 269.084713 
L 311.492704 268.413416 
L 311.453158 267.74212 
L 311.407986 267.070824 
L 311.356872 266.399527 
L 311.299544 265.728231 
L 311.235772 265.056935 
L 311.165366 264.385638 
L 311.088185 263.714342 
L 311.004131 263.043046 
L 310.913155 262.371749 
L 310.815254 261.700453 
L 310.710473 261.029157 
L 310.598906 260.35786 
L 310.480694 259.686564 
L 310.356025 259.015268 
L 310.225136 258.343972 
L 310.088309 257.672675 
L 309.945871 257.001379 
L 309.798192 256.330083 
L 309.645687 255.658786 
L 309.488809 254.98749 
L 309.328052 254.316194 
L 309.163945 253.644897 
L 308.997051 252.973601 
L 308.827967 252.302305 
L 308.657319 251.631008 
L 308.485756 250.959712 
L 308.313956 250.288416 
L 308.142614 249.617119 
L 307.972442 248.945823 
L 307.80417 248.274527 
L 307.638537 247.60323 
L 307.476288 246.931934 
L 307.318175 246.260638 
L 307.16495 245.589341 
L 307.017365 244.918045 
L 306.876162 244.246749 
L 306.742077 243.575453 
L 306.615834 242.904156 
L 306.498142 242.23286 
L 306.389689 241.561564 
L 306.291144 240.890267 
L 306.203151 240.218971 
L 306.126326 239.547675 
L 306.061256 238.876378 
L 306.008496 238.205082 
L 305.968566 237.533786 
L 305.94195 236.862489 
L 305.929091 236.191193 
L 305.930394 235.519897 
L 305.94622 234.8486 
L 305.976888 234.177304 
L 306.022672 233.506008 
L 306.083798 232.834711 
L 306.160449 232.163415 
L 306.252758 231.492119 
L 306.360811 230.820822 
L 306.484649 230.149526 
L 306.624262 229.47823 
L 306.779596 228.806934 
L 306.950547 228.135637 
L 307.136967 227.464341 
L 307.338662 226.793045 
L 307.555396 226.121748 
L 307.786887 225.450452 
L 308.032814 224.779156 
L 331.435 224.779156 
L 331.435 224.779156 
L 331.435 225.450452 
L 331.435 226.121748 
L 331.435 226.793045 
L 331.435 227.464341 
L 331.435 228.135637 
L 331.435 228.806934 
L 331.435 229.47823 
L 331.435 230.149526 
L 331.435 230.820822 
L 331.435 231.492119 
L 331.435 232.163415 
L 331.435 232.834711 
L 331.435 233.506008 
L 331.435 234.177304 
L 331.435 234.8486 
L 331.435 235.519897 
L 331.435 236.191193 
L 331.435 236.862489 
L 331.435 237.533786 
L 331.435 238.205082 
L 331.435 238.876378 
L 331.435 239.547675 
L 331.435 240.218971 
L 331.435 240.890267 
L 331.435 241.561564 
L 331.435 242.23286 
L 331.435 242.904156 
L 331.435 243.575453 
L 331.435 244.246749 
L 331.435 244.918045 
L 331.435 245.589341 
L 331.435 246.260638 
L 331.435 246.931934 
L 331.435 247.60323 
L 331.435 248.274527 
L 331.435 248.945823 
L 331.435 249.617119 
L 331.435 250.288416 
L 331.435 250.959712 
L 331.435 251.631008 
L 331.435 252.302305 
L 331.435 252.973601 
L 331.435 253.644897 
L 331.435 254.316194 
L 331.435 254.98749 
L 331.435 255.658786 
L 331.435 256.330083 
L 331.435 257.001379 
L 331.435 257.672675 
L 331.435 258.343972 
L 331.435 259.015268 
L 331.435 259.686564 
L 331.435 260.35786 
L 331.435 261.029157 
L 331.435 261.700453 
L 331.435 262.371749 
L 331.435 263.043046 
L 331.435 263.714342 
L 331.435 264.385638 
L 331.435 265.056935 
L 331.435 265.728231 
L 331.435 266.399527 
L 331.435 267.070824 
L 331.435 267.74212 
L 331.435 268.413416 
L 331.435 269.084713 
L 331.435 269.756009 
L 331.435 270.427305 
L 331.435 271.098602 
L 331.435 271.769898 
L 331.435 272.441194 
L 331.435 273.112491 
L 331.435 273.783787 
L 331.435 274.455083 
L 331.435 275.126379 
L 331.435 275.797676 
L 331.435 276.468972 
L 331.435 277.140268 
L 331.435 277.811565 
L 331.435 278.482861 
L 331.435 279.154157 
L 331.435 279.825454 
L 331.435 280.49675 
L 331.435 281.168046 
L 331.435 281.839343 
L 331.435 282.510639 
L 331.435 283.181935 
L 331.435 283.853232 
L 331.435 284.524528 
L 331.435 285.195824 
L 331.435 285.867121 
L 331.435 286.538417 
L 331.435 287.209713 
L 331.435 287.88101 
L 331.435 288.552306 
L 331.435 289.223602 
L 331.435 289.894898 
L 331.435 290.566195 
L 331.435 291.237491 
z
" clip-path="url(#p9e74abbaa5)" style="fill: #1f77b4; fill-opacity: 0.3"/>
   </g>
   <g id="PolyCollection_4">
    <path d="M 433.458636 194.112909 
L 418.100511 194.112909 
L 417.729146 193.677572 
L 417.359036 193.242236 
L 416.990486 192.806899 
L 416.623802 192.371563 
L 416.259292 191.936226 
L 415.897272 191.50089 
L 415.538062 191.065554 
L 415.181989 190.630217 
L 414.829389 190.194881 
L 414.480609 189.759544 
L 414.136007 189.324208 
L 413.79595 188.888872 
L 413.460821 188.453535 
L 413.131017 188.018199 
L 412.806947 187.582862 
L 412.489035 187.147526 
L 412.17772 186.712189 
L 411.873455 186.276853 
L 411.576707 185.841517 
L 411.287957 185.40618 
L 411.007696 184.970844 
L 410.736426 184.535507 
L 410.474659 184.100171 
L 410.222914 183.664835 
L 409.981712 183.229498 
L 409.751579 182.794162 
L 409.533038 182.358825 
L 409.32661 181.923489 
L 409.132808 181.488152 
L 408.952133 181.052816 
L 408.785074 180.61748 
L 408.632099 180.182143 
L 408.493657 179.746807 
L 408.37017 179.31147 
L 408.262029 178.876134 
L 408.169593 178.440798 
L 408.093182 178.005461 
L 408.033079 177.570125 
L 407.989518 177.134788 
L 407.962688 176.699452 
L 407.952727 176.264116 
L 407.959722 175.828779 
L 407.983702 175.393443 
L 408.024642 174.958106 
L 408.082457 174.52277 
L 408.157004 174.087433 
L 408.248079 173.652097 
L 408.355421 173.216761 
L 408.478709 172.781424 
L 408.617563 172.346088 
L 408.771548 171.910751 
L 408.940176 171.475415 
L 409.122907 171.040079 
L 409.319151 170.604742 
L 409.528275 170.169406 
L 409.749605 169.734069 
L 409.98243 169.298733 
L 410.226007 168.863396 
L 410.479568 168.42806 
L 410.74232 167.992724 
L 411.013457 167.557387 
L 411.29216 167.122051 
L 411.577608 166.686714 
L 411.868977 166.251378 
L 412.165452 165.816042 
L 412.466229 165.380705 
L 412.770522 164.945369 
L 413.077567 164.510032 
L 413.386628 164.074696 
L 413.697001 163.63936 
L 414.008017 163.204023 
L 414.319049 162.768687 
L 414.629515 162.33335 
L 414.938876 161.898014 
L 415.246645 161.462677 
L 415.552385 161.027341 
L 415.855712 160.592005 
L 416.156296 160.156668 
L 416.453859 159.721332 
L 416.748178 159.285995 
L 417.039082 158.850659 
L 417.32645 158.415323 
L 417.610214 157.979986 
L 417.89035 157.54465 
L 418.166881 157.109313 
L 418.439871 156.673977 
L 418.70942 156.23864 
L 418.975667 155.803304 
L 419.238777 155.367968 
L 419.498944 154.932631 
L 419.756383 154.497295 
L 420.011328 154.061958 
L 420.264022 153.626622 
L 420.514723 153.191286 
L 420.763686 152.755949 
L 421.011172 152.320613 
L 421.257434 151.885276 
L 421.502718 151.44994 
L 421.747258 151.014604 
L 433.458636 151.014604 
L 433.458636 151.014604 
L 433.458636 151.44994 
L 433.458636 151.885276 
L 433.458636 152.320613 
L 433.458636 152.755949 
L 433.458636 153.191286 
L 433.458636 153.626622 
L 433.458636 154.061958 
L 433.458636 154.497295 
L 433.458636 154.932631 
L 433.458636 155.367968 
L 433.458636 155.803304 
L 433.458636 156.23864 
L 433.458636 156.673977 
L 433.458636 157.109313 
L 433.458636 157.54465 
L 433.458636 157.979986 
L 433.458636 158.415323 
L 433.458636 158.850659 
L 433.458636 159.285995 
L 433.458636 159.721332 
L 433.458636 160.156668 
L 433.458636 160.592005 
L 433.458636 161.027341 
L 433.458636 161.462677 
L 433.458636 161.898014 
L 433.458636 162.33335 
L 433.458636 162.768687 
L 433.458636 163.204023 
L 433.458636 163.63936 
L 433.458636 164.074696 
L 433.458636 164.510032 
L 433.458636 164.945369 
L 433.458636 165.380705 
L 433.458636 165.816042 
L 433.458636 166.251378 
L 433.458636 166.686714 
L 433.458636 167.122051 
L 433.458636 167.557387 
L 433.458636 167.992724 
L 433.458636 168.42806 
L 433.458636 168.863396 
L 433.458636 169.298733 
L 433.458636 169.734069 
L 433.458636 170.169406 
L 433.458636 170.604742 
L 433.458636 171.040079 
L 433.458636 171.475415 
L 433.458636 171.910751 
L 433.458636 172.346088 
L 433.458636 172.781424 
L 433.458636 173.216761 
L 433.458636 173.652097 
L 433.458636 174.087433 
L 433.458636 174.52277 
L 433.458636 174.958106 
L 433.458636 175.393443 
L 433.458636 175.828779 
L 433.458636 176.264116 
L 433.458636 176.699452 
L 433.458636 177.134788 
L 433.458636 177.570125 
L 433.458636 178.005461 
L 433.458636 178.440798 
L 433.458636 178.876134 
L 433.458636 179.31147 
L 433.458636 179.746807 
L 433.458636 180.182143 
L 433.458636 180.61748 
L 433.458636 181.052816 
L 433.458636 181.488152 
L 433.458636 181.923489 
L 433.458636 182.358825 
L 433.458636 182.794162 
L 433.458636 183.229498 
L 433.458636 183.664835 
L 433.458636 184.100171 
L 433.458636 184.535507 
L 433.458636 184.970844 
L 433.458636 185.40618 
L 433.458636 185.841517 
L 433.458636 186.276853 
L 433.458636 186.712189 
L 433.458636 187.147526 
L 433.458636 187.582862 
L 433.458636 188.018199 
L 433.458636 188.453535 
L 433.458636 188.888872 
L 433.458636 189.324208 
L 433.458636 189.759544 
L 433.458636 190.194881 
L 433.458636 190.630217 
L 433.458636 191.065554 
L 433.458636 191.50089 
L 433.458636 191.936226 
L 433.458636 192.371563 
L 433.458636 192.806899 
L 433.458636 193.242236 
L 433.458636 193.677572 
L 433.458636 194.112909 
z
" clip-path="url(#p9e74abbaa5)" style="fill: #1f77b4; fill-opacity: 0.3"/>
   </g>
   <g id="PolyCollection_5">
    <path d="M 535.482273 217.502817 
L 523.452577 217.502817 
L 523.243462 216.994953 
L 523.041482 216.487088 
L 522.846742 215.979223 
L 522.65929 215.471358 
L 522.47912 214.963493 
L 522.306167 214.455629 
L 522.140309 213.947764 
L 521.981368 213.439899 
L 521.829104 212.932034 
L 521.683224 212.42417 
L 521.543376 211.916305 
L 521.409155 211.40844 
L 521.280102 210.900575 
L 521.155711 210.392711 
L 521.035427 209.884846 
L 520.918654 209.376981 
L 520.804753 208.869116 
L 520.693056 208.361251 
L 520.582861 207.853387 
L 520.473444 207.345522 
L 520.364061 206.837657 
L 520.253956 206.329792 
L 520.142366 205.821928 
L 520.028529 205.314063 
L 519.911689 204.806198 
L 519.791105 204.298333 
L 519.666054 203.790468 
L 519.535842 203.282604 
L 519.399811 202.774739 
L 519.257342 202.266874 
L 519.107864 201.759009 
L 518.950862 201.251145 
L 518.78588 200.74328 
L 518.61253 200.235415 
L 518.430493 199.72755 
L 518.23953 199.219686 
L 518.03948 198.711821 
L 517.83027 198.203956 
L 517.611912 197.696091 
L 517.38451 197.188226 
L 517.148262 196.680362 
L 516.903459 196.172497 
L 516.650483 195.664632 
L 516.389815 195.156767 
L 516.122023 194.648903 
L 515.84777 194.141038 
L 515.567805 193.633173 
L 515.28296 193.125308 
L 514.99415 192.617443 
L 514.702362 192.109579 
L 514.408654 191.601714 
L 514.114147 191.093849 
L 513.820019 190.585984 
L 513.527497 190.07812 
L 513.237847 189.570255 
L 512.952369 189.06239 
L 512.672389 188.554525 
L 512.399248 188.04666 
L 512.134291 187.538796 
L 511.878863 187.030931 
L 511.634297 186.523066 
L 511.401905 186.015201 
L 511.18297 185.507337 
L 510.978738 184.999472 
L 510.790405 184.491607 
L 510.619118 183.983742 
L 510.465958 183.475878 
L 510.331938 182.968013 
L 510.217997 182.460148 
L 510.124992 181.952283 
L 510.053694 181.444418 
L 510.004782 180.936554 
L 509.978843 180.428689 
L 509.976364 179.920824 
L 509.997731 179.412959 
L 510.043231 178.905095 
L 510.113047 178.39723 
L 510.207259 177.889365 
L 510.325846 177.3815 
L 510.468685 176.873635 
L 510.635556 176.365771 
L 510.82614 175.857906 
L 511.040029 175.350041 
L 511.276721 174.842176 
L 511.535633 174.334312 
L 511.816098 173.826447 
L 512.117378 173.318582 
L 512.438661 172.810717 
L 512.779073 172.302853 
L 513.137682 171.794988 
L 513.513501 171.287123 
L 513.905502 170.779258 
L 514.312612 170.271393 
L 514.733729 169.763529 
L 515.167721 169.255664 
L 515.613437 168.747799 
L 516.06971 168.239934 
L 516.535366 167.73207 
L 517.009226 167.224205 
L 535.482273 167.224205 
L 535.482273 167.224205 
L 535.482273 167.73207 
L 535.482273 168.239934 
L 535.482273 168.747799 
L 535.482273 169.255664 
L 535.482273 169.763529 
L 535.482273 170.271393 
L 535.482273 170.779258 
L 535.482273 171.287123 
L 535.482273 171.794988 
L 535.482273 172.302853 
L 535.482273 172.810717 
L 535.482273 173.318582 
L 535.482273 173.826447 
L 535.482273 174.334312 
L 535.482273 174.842176 
L 535.482273 175.350041 
L 535.482273 175.857906 
L 535.482273 176.365771 
L 535.482273 176.873635 
L 535.482273 177.3815 
L 535.482273 177.889365 
L 535.482273 178.39723 
L 535.482273 178.905095 
L 535.482273 179.412959 
L 535.482273 179.920824 
L 535.482273 180.428689 
L 535.482273 180.936554 
L 535.482273 181.444418 
L 535.482273 181.952283 
L 535.482273 182.460148 
L 535.482273 182.968013 
L 535.482273 183.475878 
L 535.482273 183.983742 
L 535.482273 184.491607 
L 535.482273 184.999472 
L 535.482273 185.507337 
L 535.482273 186.015201 
L 535.482273 186.523066 
L 535.482273 187.030931 
L 535.482273 187.538796 
L 535.482273 188.04666 
L 535.482273 188.554525 
L 535.482273 189.06239 
L 535.482273 189.570255 
L 535.482273 190.07812 
L 535.482273 190.585984 
L 535.482273 191.093849 
L 535.482273 191.601714 
L 535.482273 192.109579 
L 535.482273 192.617443 
L 535.482273 193.125308 
L 535.482273 193.633173 
L 535.482273 194.141038 
L 535.482273 194.648903 
L 535.482273 195.156767 
L 535.482273 195.664632 
L 535.482273 196.172497 
L 535.482273 196.680362 
L 535.482273 197.188226 
L 535.482273 197.696091 
L 535.482273 198.203956 
L 535.482273 198.711821 
L 535.482273 199.219686 
L 535.482273 199.72755 
L 535.482273 200.235415 
L 535.482273 200.74328 
L 535.482273 201.251145 
L 535.482273 201.759009 
L 535.482273 202.266874 
L 535.482273 202.774739 
L 535.482273 203.282604 
L 535.482273 203.790468 
L 535.482273 204.298333 
L 535.482273 204.806198 
L 535.482273 205.314063 
L 535.482273 205.821928 
L 535.482273 206.329792 
L 535.482273 206.837657 
L 535.482273 207.345522 
L 535.482273 207.853387 
L 535.482273 208.361251 
L 535.482273 208.869116 
L 535.482273 209.376981 
L 535.482273 209.884846 
L 535.482273 210.392711 
L 535.482273 210.900575 
L 535.482273 211.40844 
L 535.482273 211.916305 
L 535.482273 212.42417 
L 535.482273 212.932034 
L 535.482273 213.439899 
L 535.482273 213.947764 
L 535.482273 214.455629 
L 535.482273 214.963493 
L 535.482273 215.471358 
L 535.482273 215.979223 
L 535.482273 216.487088 
L 535.482273 216.994953 
L 535.482273 217.502817 
z
" clip-path="url(#p9e74abbaa5)" style="fill: #1f77b4; fill-opacity: 0.3"/>
   </g>
   <g id="PolyCollection_6">
    <path d="M 152.332271 191.599049 
L 127.387727 191.599049 
L 127.387727 190.49782 
L 127.387727 189.396591 
L 127.387727 188.295362 
L 127.387727 187.194132 
L 127.387727 186.092903 
L 127.387727 184.991674 
L 127.387727 183.890445 
L 127.387727 182.789215 
L 127.387727 181.687986 
L 127.387727 180.586757 
L 127.387727 179.485528 
L 127.387727 178.384299 
L 127.387727 177.283069 
L 127.387727 176.18184 
L 127.387727 175.080611 
L 127.387727 173.979382 
L 127.387727 172.878152 
L 127.387727 171.776923 
L 127.387727 170.675694 
L 127.387727 169.574465 
L 127.387727 168.473235 
L 127.387727 167.372006 
L 127.387727 166.270777 
L 127.387727 165.169548 
L 127.387727 164.068318 
L 127.387727 162.967089 
L 127.387727 161.86586 
L 127.387727 160.764631 
L 127.387727 159.663401 
L 127.387727 158.562172 
L 127.387727 157.460943 
L 127.387727 156.359714 
L 127.387727 155.258484 
L 127.387727 154.157255 
L 127.387727 153.056026 
L 127.387727 151.954797 
L 127.387727 150.853568 
L 127.387727 149.752338 
L 127.387727 148.651109 
L 127.387727 147.54988 
L 127.387727 146.448651 
L 127.387727 145.347421 
L 127.387727 144.246192 
L 127.387727 143.144963 
L 127.387727 142.043734 
L 127.387727 140.942504 
L 127.387727 139.841275 
L 127.387727 138.740046 
L 127.387727 137.638817 
L 127.387727 136.537587 
L 127.387727 135.436358 
L 127.387727 134.335129 
L 127.387727 133.2339 
L 127.387727 132.13267 
L 127.387727 131.031441 
L 127.387727 129.930212 
L 127.387727 128.828983 
L 127.387727 127.727753 
L 127.387727 126.626524 
L 127.387727 125.525295 
L 127.387727 124.424066 
L 127.387727 123.322837 
L 127.387727 122.221607 
L 127.387727 121.120378 
L 127.387727 120.019149 
L 127.387727 118.91792 
L 127.387727 117.81669 
L 127.387727 116.715461 
L 127.387727 115.614232 
L 127.387727 114.513003 
L 127.387727 113.411773 
L 127.387727 112.310544 
L 127.387727 111.209315 
L 127.387727 110.108086 
L 127.387727 109.006856 
L 127.387727 107.905627 
L 127.387727 106.804398 
L 127.387727 105.703169 
L 127.387727 104.601939 
L 127.387727 103.50071 
L 127.387727 102.399481 
L 127.387727 101.298252 
L 127.387727 100.197022 
L 127.387727 99.095793 
L 127.387727 97.994564 
L 127.387727 96.893335 
L 127.387727 95.792106 
L 127.387727 94.690876 
L 127.387727 93.589647 
L 127.387727 92.488418 
L 127.387727 91.387189 
L 127.387727 90.285959 
L 127.387727 89.18473 
L 127.387727 88.083501 
L 127.387727 86.982272 
L 127.387727 85.881042 
L 127.387727 84.779813 
L 127.387727 83.678584 
L 127.387727 82.577355 
L 134.330936 82.577355 
L 134.330936 82.577355 
L 134.362075 83.678584 
L 134.389009 84.779813 
L 134.411965 85.881042 
L 134.431202 86.982272 
L 134.44701 88.083501 
L 134.459708 89.18473 
L 134.469646 90.285959 
L 134.477204 91.387189 
L 134.482788 92.488418 
L 134.486832 93.589647 
L 134.489794 94.690876 
L 134.492158 95.792106 
L 134.494429 96.893335 
L 134.497134 97.994564 
L 134.500816 99.095793 
L 134.506038 100.197022 
L 134.513376 101.298252 
L 134.523417 102.399481 
L 134.536759 103.50071 
L 134.554007 104.601939 
L 134.575772 105.703169 
L 134.602664 106.804398 
L 134.635295 107.905627 
L 134.674271 109.006856 
L 134.720195 110.108086 
L 134.773657 111.209315 
L 134.835236 112.310544 
L 134.905497 113.411773 
L 134.984984 114.513003 
L 135.074222 115.614232 
L 135.173712 116.715461 
L 135.283926 117.81669 
L 135.405309 118.91792 
L 135.53827 120.019149 
L 135.683184 121.120378 
L 135.84039 122.221607 
L 136.010184 123.322837 
L 136.19282 124.424066 
L 136.388506 125.525295 
L 136.597403 126.626524 
L 136.819623 127.727753 
L 137.055227 128.828983 
L 137.304222 129.930212 
L 137.566561 131.031441 
L 137.842141 132.13267 
L 138.130803 133.2339 
L 138.432329 134.335129 
L 138.746446 135.436358 
L 139.072818 136.537587 
L 139.411052 137.638817 
L 139.760698 138.740046 
L 140.121245 139.841275 
L 140.492126 140.942504 
L 140.872717 142.043734 
L 141.262338 143.144963 
L 141.660256 144.246192 
L 142.065682 145.347421 
L 142.477783 146.448651 
L 142.895671 147.54988 
L 143.318418 148.651109 
L 143.745049 149.752338 
L 144.174553 150.853568 
L 144.60588 151.954797 
L 145.037949 153.056026 
L 145.469649 154.157255 
L 145.899843 155.258484 
L 146.327375 156.359714 
L 146.751071 157.460943 
L 147.169747 158.562172 
L 147.582209 159.663401 
L 147.987263 160.764631 
L 148.383714 161.86586 
L 148.770378 162.967089 
L 149.14608 164.068318 
L 149.509663 165.169548 
L 149.859992 166.270777 
L 150.19596 167.372006 
L 150.51649 168.473235 
L 150.820543 169.574465 
L 151.107121 170.675694 
L 151.375271 171.776923 
L 151.624089 172.878152 
L 151.852728 173.979382 
L 152.060396 175.080611 
L 152.246364 176.18184 
L 152.409969 177.283069 
L 152.550613 178.384299 
L 152.667772 179.485528 
L 152.760993 180.586757 
L 152.829898 181.687986 
L 152.874186 182.789215 
L 152.893636 183.890445 
L 152.888104 184.991674 
L 152.857527 186.092903 
L 152.801919 187.194132 
L 152.721377 188.295362 
L 152.616074 189.396591 
L 152.486263 190.49782 
L 152.332271 191.599049 
z
" clip-path="url(#p9e74abbaa5)" style="fill: #ff7f0e; fill-opacity: 0.3"/>
   </g>
   <g id="PolyCollection_7">
    <path d="M 236.551089 253.77352 
L 229.411364 253.77352 
L 229.411364 253.183376 
L 229.411364 252.593233 
L 229.411364 252.00309 
L 229.411364 251.412946 
L 229.411364 250.822803 
L 229.411364 250.232659 
L 229.411364 249.642516 
L 229.411364 249.052372 
L 229.411364 248.462229 
L 229.411364 247.872085 
L 229.411364 247.281942 
L 229.411364 246.691798 
L 229.411364 246.101655 
L 229.411364 245.511511 
L 229.411364 244.921368 
L 229.411364 244.331225 
L 229.411364 243.741081 
L 229.411364 243.150938 
L 229.411364 242.560794 
L 229.411364 241.970651 
L 229.411364 241.380507 
L 229.411364 240.790364 
L 229.411364 240.20022 
L 229.411364 239.610077 
L 229.411364 239.019933 
L 229.411364 238.42979 
L 229.411364 237.839646 
L 229.411364 237.249503 
L 229.411364 236.65936 
L 229.411364 236.069216 
L 229.411364 235.479073 
L 229.411364 234.888929 
L 229.411364 234.298786 
L 229.411364 233.708642 
L 229.411364 233.118499 
L 229.411364 232.528355 
L 229.411364 231.938212 
L 229.411364 231.348068 
L 229.411364 230.757925 
L 229.411364 230.167781 
L 229.411364 229.577638 
L 229.411364 228.987495 
L 229.411364 228.397351 
L 229.411364 227.807208 
L 229.411364 227.217064 
L 229.411364 226.626921 
L 229.411364 226.036777 
L 229.411364 225.446634 
L 229.411364 224.85649 
L 229.411364 224.266347 
L 229.411364 223.676203 
L 229.411364 223.08606 
L 229.411364 222.495917 
L 229.411364 221.905773 
L 229.411364 221.31563 
L 229.411364 220.725486 
L 229.411364 220.135343 
L 229.411364 219.545199 
L 229.411364 218.955056 
L 229.411364 218.364912 
L 229.411364 217.774769 
L 229.411364 217.184625 
L 229.411364 216.594482 
L 229.411364 216.004338 
L 229.411364 215.414195 
L 229.411364 214.824052 
L 229.411364 214.233908 
L 229.411364 213.643765 
L 229.411364 213.053621 
L 229.411364 212.463478 
L 229.411364 211.873334 
L 229.411364 211.283191 
L 229.411364 210.693047 
L 229.411364 210.102904 
L 229.411364 209.51276 
L 229.411364 208.922617 
L 229.411364 208.332473 
L 229.411364 207.74233 
L 229.411364 207.152187 
L 229.411364 206.562043 
L 229.411364 205.9719 
L 229.411364 205.381756 
L 229.411364 204.791613 
L 229.411364 204.201469 
L 229.411364 203.611326 
L 229.411364 203.021182 
L 229.411364 202.431039 
L 229.411364 201.840895 
L 229.411364 201.250752 
L 229.411364 200.660609 
L 229.411364 200.070465 
L 229.411364 199.480322 
L 229.411364 198.890178 
L 229.411364 198.300035 
L 229.411364 197.709891 
L 229.411364 197.119748 
L 229.411364 196.529604 
L 229.411364 195.939461 
L 229.411364 195.349317 
L 253.725729 195.349317 
L 253.725729 195.349317 
L 253.953929 195.939461 
L 254.159023 196.529604 
L 254.340455 197.119748 
L 254.497745 197.709891 
L 254.630487 198.300035 
L 254.738351 198.890178 
L 254.82109 199.480322 
L 254.878534 200.070465 
L 254.910596 200.660609 
L 254.917273 201.250752 
L 254.898641 201.840895 
L 254.854861 202.431039 
L 254.786175 203.021182 
L 254.692906 203.611326 
L 254.575453 204.201469 
L 254.434297 204.791613 
L 254.26999 205.381756 
L 254.08316 205.9719 
L 253.8745 206.562043 
L 253.644773 207.152187 
L 253.394804 207.74233 
L 253.125475 208.332473 
L 252.837724 208.922617 
L 252.53254 209.51276 
L 252.210957 210.102904 
L 251.874051 210.693047 
L 251.522931 211.283191 
L 251.158742 211.873334 
L 250.782652 212.463478 
L 250.395851 213.053621 
L 249.999544 213.643765 
L 249.594948 214.233908 
L 249.183285 214.824052 
L 248.765777 215.414195 
L 248.343642 216.004338 
L 247.918088 216.594482 
L 247.490307 217.184625 
L 247.061476 217.774769 
L 246.632744 218.364912 
L 246.205235 218.955056 
L 245.780041 219.545199 
L 245.358215 220.135343 
L 244.940775 220.725486 
L 244.528693 221.31563 
L 244.122896 221.905773 
L 243.724261 222.495917 
L 243.333616 223.08606 
L 242.951733 223.676203 
L 242.579329 224.266347 
L 242.217062 224.85649 
L 241.865535 225.446634 
L 241.525285 226.036777 
L 241.196793 226.626921 
L 240.880477 227.217064 
L 240.576692 227.807208 
L 240.285731 228.397351 
L 240.007829 228.987495 
L 239.743155 229.577638 
L 239.491822 230.167781 
L 239.253882 230.757925 
L 239.029328 231.348068 
L 238.818098 231.938212 
L 238.620077 232.528355 
L 238.435094 233.118499 
L 238.262929 233.708642 
L 238.103314 234.298786 
L 237.955936 234.888929 
L 237.820436 235.479073 
L 237.696418 236.069216 
L 237.583445 236.65936 
L 237.481049 237.249503 
L 237.388728 237.839646 
L 237.305953 238.42979 
L 237.232168 239.019933 
L 237.166798 239.610077 
L 237.109247 240.20022 
L 237.058905 240.790364 
L 237.01515 241.380507 
L 236.977351 241.970651 
L 236.94487 242.560794 
L 236.917071 243.150938 
L 236.893314 243.741081 
L 236.872967 244.331225 
L 236.855403 244.921368 
L 236.840004 245.511511 
L 236.826168 246.101655 
L 236.813304 246.691798 
L 236.800843 247.281942 
L 236.788233 247.872085 
L 236.774945 248.462229 
L 236.760477 249.052372 
L 236.744349 249.642516 
L 236.726113 250.232659 
L 236.705347 250.822803 
L 236.681664 251.412946 
L 236.654704 252.00309 
L 236.624144 252.593233 
L 236.589691 253.183376 
L 236.551089 253.77352 
z
" clip-path="url(#p9e74abbaa5)" style="fill: #ff7f0e; fill-opacity: 0.3"/>
   </g>
   <g id="PolyCollection_8">
    <path d="M 355.271811 147.79906 
L 331.435 147.79906 
L 331.435 146.671672 
L 331.435 145.544285 
L 331.435 144.416897 
L 331.435 143.28951 
L 331.435 142.162122 
L 331.435 141.034735 
L 331.435 139.907347 
L 331.435 138.77996 
L 331.435 137.652572 
L 331.435 136.525185 
L 331.435 135.397797 
L 331.435 134.27041 
L 331.435 133.143022 
L 331.435 132.015635 
L 331.435 130.888247 
L 331.435 129.76086 
L 331.435 128.633472 
L 331.435 127.506085 
L 331.435 126.378697 
L 331.435 125.25131 
L 331.435 124.123922 
L 331.435 122.996535 
L 331.435 121.869147 
L 331.435 120.74176 
L 331.435 119.614372 
L 331.435 118.486985 
L 331.435 117.359597 
L 331.435 116.23221 
L 331.435 115.104822 
L 331.435 113.977435 
L 331.435 112.850047 
L 331.435 111.722659 
L 331.435 110.595272 
L 331.435 109.467884 
L 331.435 108.340497 
L 331.435 107.213109 
L 331.435 106.085722 
L 331.435 104.958334 
L 331.435 103.830947 
L 331.435 102.703559 
L 331.435 101.576172 
L 331.435 100.448784 
L 331.435 99.321397 
L 331.435 98.194009 
L 331.435 97.066622 
L 331.435 95.939234 
L 331.435 94.811847 
L 331.435 93.684459 
L 331.435 92.557072 
L 331.435 91.429684 
L 331.435 90.302297 
L 331.435 89.174909 
L 331.435 88.047522 
L 331.435 86.920134 
L 331.435 85.792747 
L 331.435 84.665359 
L 331.435 83.537972 
L 331.435 82.410584 
L 331.435 81.283197 
L 331.435 80.155809 
L 331.435 79.028422 
L 331.435 77.901034 
L 331.435 76.773647 
L 331.435 75.646259 
L 331.435 74.518872 
L 331.435 73.391484 
L 331.435 72.264096 
L 331.435 71.136709 
L 331.435 70.009321 
L 331.435 68.881934 
L 331.435 67.754546 
L 331.435 66.627159 
L 331.435 65.499771 
L 331.435 64.372384 
L 331.435 63.244996 
L 331.435 62.117609 
L 331.435 60.990221 
L 331.435 59.862834 
L 331.435 58.735446 
L 331.435 57.608059 
L 331.435 56.480671 
L 331.435 55.353284 
L 331.435 54.225896 
L 331.435 53.098509 
L 331.435 51.971121 
L 331.435 50.843734 
L 331.435 49.716346 
L 331.435 48.588959 
L 331.435 47.461571 
L 331.435 46.334184 
L 331.435 45.206796 
L 331.435 44.079409 
L 331.435 42.952021 
L 331.435 41.824634 
L 331.435 40.697246 
L 331.435 39.569859 
L 331.435 38.442471 
L 331.435 37.315084 
L 331.435 36.187696 
L 340.419625 36.187696 
L 340.419625 36.187696 
L 340.524087 37.315084 
L 340.62583 38.442471 
L 340.725056 39.569859 
L 340.821987 40.697246 
L 340.916871 41.824634 
L 341.009976 42.952021 
L 341.101594 44.079409 
L 341.192033 45.206796 
L 341.28162 46.334184 
L 341.370701 47.461571 
L 341.459633 48.588959 
L 341.548788 49.716346 
L 341.638548 50.843734 
L 341.729307 51.971121 
L 341.821462 53.098509 
L 341.915417 54.225896 
L 342.011579 55.353284 
L 342.110355 56.480671 
L 342.21215 57.608059 
L 342.317368 58.735446 
L 342.426405 59.862834 
L 342.539648 60.990221 
L 342.657476 62.117609 
L 342.780256 63.244996 
L 342.90834 64.372384 
L 343.042064 65.499771 
L 343.181745 66.627159 
L 343.327681 67.754546 
L 343.48015 68.881934 
L 343.639403 70.009321 
L 343.80567 71.136709 
L 343.979152 72.264096 
L 344.160022 73.391484 
L 344.348425 74.518872 
L 344.544475 75.646259 
L 344.748254 76.773647 
L 344.959813 77.901034 
L 345.179167 79.028422 
L 345.406299 80.155809 
L 345.641154 81.283197 
L 345.883643 82.410584 
L 346.133642 83.537972 
L 346.390988 84.665359 
L 346.655481 85.792747 
L 346.926884 86.920134 
L 347.204925 88.047522 
L 347.48929 89.174909 
L 347.779632 90.302297 
L 348.075566 91.429684 
L 348.376667 92.557072 
L 348.682479 93.684459 
L 348.992506 94.811847 
L 349.306221 95.939234 
L 349.62306 97.066622 
L 349.942427 98.194009 
L 350.263696 99.321397 
L 350.586208 100.448784 
L 350.909277 101.576172 
L 351.232188 102.703559 
L 351.554202 103.830947 
L 351.874555 104.958334 
L 352.192464 106.085722 
L 352.507123 107.213109 
L 352.817711 108.340497 
L 353.123393 109.467884 
L 353.423323 110.595272 
L 353.716644 111.722659 
L 354.002494 112.850047 
L 354.280009 113.977435 
L 354.548326 115.104822 
L 354.806583 116.23221 
L 355.053928 117.359597 
L 355.289519 118.486985 
L 355.512527 119.614372 
L 355.722143 120.74176 
L 355.917578 121.869147 
L 356.098068 122.996535 
L 356.262878 124.123922 
L 356.411306 125.25131 
L 356.542685 126.378697 
L 356.656386 127.506085 
L 356.751825 128.633472 
L 356.828462 129.76086 
L 356.885806 130.888247 
L 356.923417 132.015635 
L 356.940909 133.143022 
L 356.937953 134.27041 
L 356.914279 135.397797 
L 356.869676 136.525185 
L 356.803996 137.652572 
L 356.717155 138.77996 
L 356.609131 139.907347 
L 356.47997 141.034735 
L 356.329781 142.162122 
L 356.15874 143.28951 
L 355.967086 144.416897 
L 355.755125 145.544285 
L 355.523223 146.671672 
L 355.271811 147.79906 
z
" clip-path="url(#p9e74abbaa5)" style="fill: #ff7f0e; fill-opacity: 0.3"/>
   </g>
   <g id="PolyCollection_9">
    <path d="M 454.428749 135.927786 
L 433.458636 135.927786 
L 433.458636 135.318973 
L 433.458636 134.710161 
L 433.458636 134.101348 
L 433.458636 133.492535 
L 433.458636 132.883722 
L 433.458636 132.274909 
L 433.458636 131.666097 
L 433.458636 131.057284 
L 433.458636 130.448471 
L 433.458636 129.839658 
L 433.458636 129.230845 
L 433.458636 128.622033 
L 433.458636 128.01322 
L 433.458636 127.404407 
L 433.458636 126.795594 
L 433.458636 126.186781 
L 433.458636 125.577969 
L 433.458636 124.969156 
L 433.458636 124.360343 
L 433.458636 123.75153 
L 433.458636 123.142717 
L 433.458636 122.533905 
L 433.458636 121.925092 
L 433.458636 121.316279 
L 433.458636 120.707466 
L 433.458636 120.098653 
L 433.458636 119.48984 
L 433.458636 118.881028 
L 433.458636 118.272215 
L 433.458636 117.663402 
L 433.458636 117.054589 
L 433.458636 116.445776 
L 433.458636 115.836964 
L 433.458636 115.228151 
L 433.458636 114.619338 
L 433.458636 114.010525 
L 433.458636 113.401712 
L 433.458636 112.7929 
L 433.458636 112.184087 
L 433.458636 111.575274 
L 433.458636 110.966461 
L 433.458636 110.357648 
L 433.458636 109.748836 
L 433.458636 109.140023 
L 433.458636 108.53121 
L 433.458636 107.922397 
L 433.458636 107.313584 
L 433.458636 106.704772 
L 433.458636 106.095959 
L 433.458636 105.487146 
L 433.458636 104.878333 
L 433.458636 104.26952 
L 433.458636 103.660707 
L 433.458636 103.051895 
L 433.458636 102.443082 
L 433.458636 101.834269 
L 433.458636 101.225456 
L 433.458636 100.616643 
L 433.458636 100.007831 
L 433.458636 99.399018 
L 433.458636 98.790205 
L 433.458636 98.181392 
L 433.458636 97.572579 
L 433.458636 96.963767 
L 433.458636 96.354954 
L 433.458636 95.746141 
L 433.458636 95.137328 
L 433.458636 94.528515 
L 433.458636 93.919703 
L 433.458636 93.31089 
L 433.458636 92.702077 
L 433.458636 92.093264 
L 433.458636 91.484451 
L 433.458636 90.875639 
L 433.458636 90.266826 
L 433.458636 89.658013 
L 433.458636 89.0492 
L 433.458636 88.440387 
L 433.458636 87.831574 
L 433.458636 87.222762 
L 433.458636 86.613949 
L 433.458636 86.005136 
L 433.458636 85.396323 
L 433.458636 84.78751 
L 433.458636 84.178698 
L 433.458636 83.569885 
L 433.458636 82.961072 
L 433.458636 82.352259 
L 433.458636 81.743446 
L 433.458636 81.134634 
L 433.458636 80.525821 
L 433.458636 79.917008 
L 433.458636 79.308195 
L 433.458636 78.699382 
L 433.458636 78.09057 
L 433.458636 77.481757 
L 433.458636 76.872944 
L 433.458636 76.264131 
L 433.458636 75.655318 
L 440.927145 75.655318 
L 440.927145 75.655318 
L 440.98049 76.264131 
L 441.029665 76.872944 
L 441.075044 77.481757 
L 441.117049 78.09057 
L 441.156147 78.699382 
L 441.192848 79.308195 
L 441.227705 79.917008 
L 441.261309 80.525821 
L 441.294292 81.134634 
L 441.327315 81.743446 
L 441.361074 82.352259 
L 441.396291 82.961072 
L 441.433711 83.569885 
L 441.4741 84.178698 
L 441.518236 84.78751 
L 441.566912 85.396323 
L 441.620923 86.005136 
L 441.681066 86.613949 
L 441.748136 87.222762 
L 441.822915 87.831574 
L 441.906172 88.440387 
L 441.998658 89.0492 
L 442.101095 89.658013 
L 442.214178 90.266826 
L 442.338563 90.875639 
L 442.474868 91.484451 
L 442.623663 92.093264 
L 442.785468 92.702077 
L 442.960748 93.31089 
L 443.149908 93.919703 
L 443.353288 94.528515 
L 443.571161 95.137328 
L 443.803728 95.746141 
L 444.051116 96.354954 
L 444.313375 96.963767 
L 444.590473 97.572579 
L 444.882297 98.181392 
L 445.188653 98.790205 
L 445.509259 99.399018 
L 445.843749 100.007831 
L 446.191673 100.616643 
L 446.552495 101.225456 
L 446.925594 101.834269 
L 447.31027 102.443082 
L 447.705739 103.051895 
L 448.111139 103.660707 
L 448.525535 104.26952 
L 448.947918 104.878333 
L 449.377211 105.487146 
L 449.812275 106.095959 
L 450.25191 106.704772 
L 450.694864 107.313584 
L 451.139835 107.922397 
L 451.58548 108.53121 
L 452.030419 109.140023 
L 452.473243 109.748836 
L 452.91252 110.357648 
L 453.346801 110.966461 
L 453.774629 111.575274 
L 454.194546 112.184087 
L 454.605097 112.7929 
L 455.004843 113.401712 
L 455.392362 114.010525 
L 455.766261 114.619338 
L 456.125181 115.228151 
L 456.467804 115.836964 
L 456.792861 116.445776 
L 457.099135 117.054589 
L 457.38547 117.663402 
L 457.650779 118.272215 
L 457.894042 118.881028 
L 458.114319 119.48984 
L 458.31075 120.098653 
L 458.482561 120.707466 
L 458.629065 121.316279 
L 458.749669 121.925092 
L 458.843872 122.533905 
L 458.911273 123.142717 
L 458.951566 123.75153 
L 458.964545 124.360343 
L 458.950103 124.969156 
L 458.908231 125.577969 
L 458.83902 126.186781 
L 458.742656 126.795594 
L 458.619421 127.404407 
L 458.46969 128.01322 
L 458.293926 128.622033 
L 458.092682 129.230845 
L 457.86659 129.839658 
L 457.616365 130.448471 
L 457.342792 131.057284 
L 457.046729 131.666097 
L 456.729097 132.274909 
L 456.390879 132.883722 
L 456.033107 133.492535 
L 455.656865 134.101348 
L 455.263279 134.710161 
L 454.853509 135.318973 
L 454.428749 135.927786 
z
" clip-path="url(#p9e74abbaa5)" style="fill: #ff7f0e; fill-opacity: 0.3"/>
   </g>
   <g id="PolyCollection_10">
    <path d="M 558.359016 132.310919 
L 535.482273 132.310919 
L 535.482273 131.350686 
L 535.482273 130.390453 
L 535.482273 129.43022 
L 535.482273 128.469987 
L 535.482273 127.509755 
L 535.482273 126.549522 
L 535.482273 125.589289 
L 535.482273 124.629056 
L 535.482273 123.668823 
L 535.482273 122.70859 
L 535.482273 121.748358 
L 535.482273 120.788125 
L 535.482273 119.827892 
L 535.482273 118.867659 
L 535.482273 117.907426 
L 535.482273 116.947194 
L 535.482273 115.986961 
L 535.482273 115.026728 
L 535.482273 114.066495 
L 535.482273 113.106262 
L 535.482273 112.14603 
L 535.482273 111.185797 
L 535.482273 110.225564 
L 535.482273 109.265331 
L 535.482273 108.305098 
L 535.482273 107.344866 
L 535.482273 106.384633 
L 535.482273 105.4244 
L 535.482273 104.464167 
L 535.482273 103.503934 
L 535.482273 102.543702 
L 535.482273 101.583469 
L 535.482273 100.623236 
L 535.482273 99.663003 
L 535.482273 98.70277 
L 535.482273 97.742538 
L 535.482273 96.782305 
L 535.482273 95.822072 
L 535.482273 94.861839 
L 535.482273 93.901606 
L 535.482273 92.941374 
L 535.482273 91.981141 
L 535.482273 91.020908 
L 535.482273 90.060675 
L 535.482273 89.100442 
L 535.482273 88.14021 
L 535.482273 87.179977 
L 535.482273 86.219744 
L 535.482273 85.259511 
L 535.482273 84.299278 
L 535.482273 83.339046 
L 535.482273 82.378813 
L 535.482273 81.41858 
L 535.482273 80.458347 
L 535.482273 79.498114 
L 535.482273 78.537881 
L 535.482273 77.577649 
L 535.482273 76.617416 
L 535.482273 75.657183 
L 535.482273 74.69695 
L 535.482273 73.736717 
L 535.482273 72.776485 
L 535.482273 71.816252 
L 535.482273 70.856019 
L 535.482273 69.895786 
L 535.482273 68.935553 
L 535.482273 67.975321 
L 535.482273 67.015088 
L 535.482273 66.054855 
L 535.482273 65.094622 
L 535.482273 64.134389 
L 535.482273 63.174157 
L 535.482273 62.213924 
L 535.482273 61.253691 
L 535.482273 60.293458 
L 535.482273 59.333225 
L 535.482273 58.372993 
L 535.482273 57.41276 
L 535.482273 56.452527 
L 535.482273 55.492294 
L 535.482273 54.532061 
L 535.482273 53.571829 
L 535.482273 52.611596 
L 535.482273 51.651363 
L 535.482273 50.69113 
L 535.482273 49.730897 
L 535.482273 48.770665 
L 535.482273 47.810432 
L 535.482273 46.850199 
L 535.482273 45.889966 
L 535.482273 44.929733 
L 535.482273 43.969501 
L 535.482273 43.009268 
L 535.482273 42.049035 
L 535.482273 41.088802 
L 535.482273 40.128569 
L 535.482273 39.168337 
L 535.482273 38.208104 
L 535.482273 37.247871 
L 543.645471 37.247871 
L 543.645471 37.247871 
L 543.723523 38.208104 
L 543.798365 39.168337 
L 543.870287 40.128569 
L 543.939611 41.088802 
L 544.006691 42.049035 
L 544.07191 43.009268 
L 544.135682 43.969501 
L 544.198445 44.929733 
L 544.260665 45.889966 
L 544.322828 46.850199 
L 544.385443 47.810432 
L 544.449033 48.770665 
L 544.514139 49.730897 
L 544.581311 50.69113 
L 544.651111 51.651363 
L 544.724105 52.611596 
L 544.80086 53.571829 
L 544.881945 54.532061 
L 544.967924 55.492294 
L 545.059352 56.452527 
L 545.156775 57.41276 
L 545.260725 58.372993 
L 545.371714 59.333225 
L 545.490237 60.293458 
L 545.616762 61.253691 
L 545.75173 62.213924 
L 545.895554 63.174157 
L 546.048613 64.134389 
L 546.211249 65.094622 
L 546.383767 66.054855 
L 546.566431 67.015088 
L 546.759462 67.975321 
L 546.963037 68.935553 
L 547.177283 69.895786 
L 547.402281 70.856019 
L 547.63806 71.816252 
L 547.8846 72.776485 
L 548.141826 73.736717 
L 548.409612 74.69695 
L 548.687776 75.657183 
L 548.976085 76.617416 
L 549.274247 77.577649 
L 549.581921 78.537881 
L 549.89871 79.498114 
L 550.224164 80.458347 
L 550.557781 81.41858 
L 550.899007 82.378813 
L 551.247241 83.339046 
L 551.601831 84.299278 
L 551.962079 85.259511 
L 552.327243 86.219744 
L 552.696539 87.179977 
L 553.069143 88.14021 
L 553.444194 89.100442 
L 553.820794 90.060675 
L 554.198017 91.020908 
L 554.574906 91.981141 
L 554.950481 92.941374 
L 555.323737 93.901606 
L 555.693654 94.861839 
L 556.059196 95.822072 
L 556.419317 96.782305 
L 556.772965 97.742538 
L 557.119084 98.70277 
L 557.456621 99.663003 
L 557.784526 100.623236 
L 558.101763 101.583469 
L 558.407307 102.543702 
L 558.700151 103.503934 
L 558.979314 104.464167 
L 559.243838 105.4244 
L 559.492797 106.384633 
L 559.725302 107.344866 
L 559.940499 108.305098 
L 560.137581 109.265331 
L 560.315784 110.225564 
L 560.474395 111.185797 
L 560.612756 112.14603 
L 560.730262 113.106262 
L 560.826371 114.066495 
L 560.900601 115.026728 
L 560.952535 115.986961 
L 560.981823 116.947194 
L 560.988182 117.907426 
L 560.971401 118.867659 
L 560.93134 119.827892 
L 560.86793 120.788125 
L 560.781176 121.748358 
L 560.671154 122.70859 
L 560.538016 123.668823 
L 560.381982 124.629056 
L 560.203348 125.589289 
L 560.002476 126.549522 
L 559.7798 127.509755 
L 559.535818 128.469987 
L 559.271095 129.43022 
L 558.986254 130.390453 
L 558.681981 131.350686 
L 558.359016 132.310919 
z
" clip-path="url(#p9e74abbaa5)" style="fill: #ff7f0e; fill-opacity: 0.3"/>
   </g>
   <g id="matplotlib.axis_1">
    <g id="xtick_1">
     <g id="line2d_1">
      <defs>
       <path id="m5b472153d9" d="M 0 0 
L 0 3.5 
" style="stroke: #000000; stroke-width: 0.8"/>
      </defs>
      <g>
       <use xlink:href="#m5b472153d9" x="127.387727" y="333.552968" style="stroke: #000000; stroke-width: 0.8"/>
      </g>
     </g>
     <g id="text_1">
      <!-- amputate_L3 -->
      <g transform="translate(105.981174 392.194965) rotate(-45) scale(0.1 -0.1)">
       <defs>
        <path id="DejaVuSans-61" d="M 2194 1759 
Q 1497 1759 1228 1600 
Q 959 1441 959 1056 
Q 959 750 1161 570 
Q 1363 391 1709 391 
Q 2188 391 2477 730 
Q 2766 1069 2766 1631 
L 2766 1759 
L 2194 1759 
z
M 3341 1997 
L 3341 0 
L 2766 0 
L 2766 531 
Q 2569 213 2275 61 
Q 1981 -91 1556 -91 
Q 1019 -91 701 211 
Q 384 513 384 1019 
Q 384 1609 779 1909 
Q 1175 2209 1959 2209 
L 2766 2209 
L 2766 2266 
Q 2766 2663 2505 2880 
Q 2244 3097 1772 3097 
Q 1472 3097 1187 3025 
Q 903 2953 641 2809 
L 641 3341 
Q 956 3463 1253 3523 
Q 1550 3584 1831 3584 
Q 2591 3584 2966 3190 
Q 3341 2797 3341 1997 
z
" transform="scale(0.015625)"/>
        <path id="DejaVuSans-6d" d="M 3328 2828 
Q 3544 3216 3844 3400 
Q 4144 3584 4550 3584 
Q 5097 3584 5394 3201 
Q 5691 2819 5691 2113 
L 5691 0 
L 5113 0 
L 5113 2094 
Q 5113 2597 4934 2840 
Q 4756 3084 4391 3084 
Q 3944 3084 3684 2787 
Q 3425 2491 3425 1978 
L 3425 0 
L 2847 0 
L 2847 2094 
Q 2847 2600 2669 2842 
Q 2491 3084 2119 3084 
Q 1678 3084 1418 2786 
Q 1159 2488 1159 1978 
L 1159 0 
L 581 0 
L 581 3500 
L 1159 3500 
L 1159 2956 
Q 1356 3278 1631 3431 
Q 1906 3584 2284 3584 
Q 2666 3584 2933 3390 
Q 3200 3197 3328 2828 
z
" transform="scale(0.015625)"/>
        <path id="DejaVuSans-70" d="M 1159 525 
L 1159 -1331 
L 581 -1331 
L 581 3500 
L 1159 3500 
L 1159 2969 
Q 1341 3281 1617 3432 
Q 1894 3584 2278 3584 
Q 2916 3584 3314 3078 
Q 3713 2572 3713 1747 
Q 3713 922 3314 415 
Q 2916 -91 2278 -91 
Q 1894 -91 1617 61 
Q 1341 213 1159 525 
z
M 3116 1747 
Q 3116 2381 2855 2742 
Q 2594 3103 2138 3103 
Q 1681 3103 1420 2742 
Q 1159 2381 1159 1747 
Q 1159 1113 1420 752 
Q 1681 391 2138 391 
Q 2594 391 2855 752 
Q 3116 1113 3116 1747 
z
" transform="scale(0.015625)"/>
        <path id="DejaVuSans-75" d="M 544 1381 
L 544 3500 
L 1119 3500 
L 1119 1403 
Q 1119 906 1312 657 
Q 1506 409 1894 409 
Q 2359 409 2629 706 
Q 2900 1003 2900 1516 
L 2900 3500 
L 3475 3500 
L 3475 0 
L 2900 0 
L 2900 538 
Q 2691 219 2414 64 
Q 2138 -91 1772 -91 
Q 1169 -91 856 284 
Q 544 659 544 1381 
z
M 1991 3584 
L 1991 3584 
z
" transform="scale(0.015625)"/>
        <path id="DejaVuSans-74" d="M 1172 4494 
L 1172 3500 
L 2356 3500 
L 2356 3053 
L 1172 3053 
L 1172 1153 
Q 1172 725 1289 603 
Q 1406 481 1766 481 
L 2356 481 
L 2356 0 
L 1766 0 
Q 1100 0 847 248 
Q 594 497 594 1153 
L 594 3053 
L 172 3053 
L 172 3500 
L 594 3500 
L 594 4494 
L 1172 4494 
z
" transform="scale(0.015625)"/>
        <path id="DejaVuSans-65" d="M 3597 1894 
L 3597 1613 
L 953 1613 
Q 991 1019 1311 708 
Q 1631 397 2203 397 
Q 2534 397 2845 478 
Q 3156 559 3463 722 
L 3463 178 
Q 3153 47 2828 -22 
Q 2503 -91 2169 -91 
Q 1331 -91 842 396 
Q 353 884 353 1716 
Q 353 2575 817 3079 
Q 1281 3584 2069 3584 
Q 2775 3584 3186 3129 
Q 3597 2675 3597 1894 
z
M 3022 2063 
Q 3016 2534 2758 2815 
Q 2500 3097 2075 3097 
Q 1594 3097 1305 2825 
Q 1016 2553 972 2059 
L 3022 2063 
z
" transform="scale(0.015625)"/>
        <path id="DejaVuSans-5f" d="M 3263 -1063 
L 3263 -1509 
L -63 -1509 
L -63 -1063 
L 3263 -1063 
z
" transform="scale(0.015625)"/>
        <path id="DejaVuSans-4c" d="M 628 4666 
L 1259 4666 
L 1259 531 
L 3531 531 
L 3531 0 
L 628 0 
L 628 4666 
z
" transform="scale(0.015625)"/>
        <path id="DejaVuSans-33" d="M 2597 2516 
Q 3050 2419 3304 2112 
Q 3559 1806 3559 1356 
Q 3559 666 3084 287 
Q 2609 -91 1734 -91 
Q 1441 -91 1130 -33 
Q 819 25 488 141 
L 488 750 
Q 750 597 1062 519 
Q 1375 441 1716 441 
Q 2309 441 2620 675 
Q 2931 909 2931 1356 
Q 2931 1769 2642 2001 
Q 2353 2234 1838 2234 
L 1294 2234 
L 1294 2753 
L 1863 2753 
Q 2328 2753 2575 2939 
Q 2822 3125 2822 3475 
Q 2822 3834 2567 4026 
Q 2313 4219 1838 4219 
Q 1578 4219 1281 4162 
Q 984 4106 628 3988 
L 628 4550 
Q 988 4650 1302 4700 
Q 1616 4750 1894 4750 
Q 2613 4750 3031 4423 
Q 3450 4097 3450 3541 
Q 3450 3153 3228 2886 
Q 3006 2619 2597 2516 
z
" transform="scale(0.015625)"/>
       </defs>
       <use xlink:href="#DejaVuSans-61"/>
       <use xlink:href="#DejaVuSans-6d" x="61.279297"/>
       <use xlink:href="#DejaVuSans-70" x="158.691406"/>
       <use xlink:href="#DejaVuSans-75" x="222.167969"/>
       <use xlink:href="#DejaVuSans-74" x="285.546875"/>
       <use xlink:href="#DejaVuSans-61" x="324.755859"/>
       <use xlink:href="#DejaVuSans-74" x="386.035156"/>
       <use xlink:href="#DejaVuSans-65" x="425.244141"/>
       <use xlink:href="#DejaVuSans-5f" x="486.767578"/>
       <use xlink:href="#DejaVuSans-4c" x="536.767578"/>
       <use xlink:href="#DejaVuSans-33" x="592.480469"/>
      </g>
     </g>
    </g>
    <g id="xtick_2">
     <g id="line2d_2">
      <g>
       <use xlink:href="#m5b472153d9" x="229.411364" y="333.552968" style="stroke: #000000; stroke-width: 0.8"/>
      </g>
     </g>
     <g id="text_2">
      <!-- amputate_R2 -->
      <g transform="translate(207.518122 393.168341) rotate(-45) scale(0.1 -0.1)">
       <defs>
        <path id="DejaVuSans-52" d="M 2841 2188 
Q 3044 2119 3236 1894 
Q 3428 1669 3622 1275 
L 4263 0 
L 3584 0 
L 2988 1197 
Q 2756 1666 2539 1819 
Q 2322 1972 1947 1972 
L 1259 1972 
L 1259 0 
L 628 0 
L 628 4666 
L 2053 4666 
Q 2853 4666 3247 4331 
Q 3641 3997 3641 3322 
Q 3641 2881 3436 2590 
Q 3231 2300 2841 2188 
z
M 1259 4147 
L 1259 2491 
L 2053 2491 
Q 2509 2491 2742 2702 
Q 2975 2913 2975 3322 
Q 2975 3731 2742 3939 
Q 2509 4147 2053 4147 
L 1259 4147 
z
" transform="scale(0.015625)"/>
        <path id="DejaVuSans-32" d="M 1228 531 
L 3431 531 
L 3431 0 
L 469 0 
L 469 531 
Q 828 903 1448 1529 
Q 2069 2156 2228 2338 
Q 2531 2678 2651 2914 
Q 2772 3150 2772 3378 
Q 2772 3750 2511 3984 
Q 2250 4219 1831 4219 
Q 1534 4219 1204 4116 
Q 875 4013 500 3803 
L 500 4441 
Q 881 4594 1212 4672 
Q 1544 4750 1819 4750 
Q 2544 4750 2975 4387 
Q 3406 4025 3406 3419 
Q 3406 3131 3298 2873 
Q 3191 2616 2906 2266 
Q 2828 2175 2409 1742 
Q 1991 1309 1228 531 
z
" transform="scale(0.015625)"/>
       </defs>
       <use xlink:href="#DejaVuSans-61"/>
       <use xlink:href="#DejaVuSans-6d" x="61.279297"/>
       <use xlink:href="#DejaVuSans-70" x="158.691406"/>
       <use xlink:href="#DejaVuSans-75" x="222.167969"/>
       <use xlink:href="#DejaVuSans-74" x="285.546875"/>
       <use xlink:href="#DejaVuSans-61" x="324.755859"/>
       <use xlink:href="#DejaVuSans-74" x="386.035156"/>
       <use xlink:href="#DejaVuSans-65" x="425.244141"/>
       <use xlink:href="#DejaVuSans-5f" x="486.767578"/>
       <use xlink:href="#DejaVuSans-52" x="536.767578"/>
       <use xlink:href="#DejaVuSans-32" x="606.25"/>
      </g>
     </g>
    </g>
    <g id="xtick_3">
     <g id="line2d_3">
      <g>
       <use xlink:href="#m5b472153d9" x="331.435" y="333.552968" style="stroke: #000000; stroke-width: 0.8"/>
      </g>
     </g>
     <g id="text_3">
      <!-- terrain -->
      <g transform="translate(321.590195 369.517829) rotate(-45) scale(0.1 -0.1)">
       <defs>
        <path id="DejaVuSans-72" d="M 2631 2963 
Q 2534 3019 2420 3045 
Q 2306 3072 2169 3072 
Q 1681 3072 1420 2755 
Q 1159 2438 1159 1844 
L 1159 0 
L 581 0 
L 581 3500 
L 1159 3500 
L 1159 2956 
Q 1341 3275 1631 3429 
Q 1922 3584 2338 3584 
Q 2397 3584 2469 3576 
Q 2541 3569 2628 3553 
L 2631 2963 
z
" transform="scale(0.015625)"/>
        <path id="DejaVuSans-69" d="M 603 3500 
L 1178 3500 
L 1178 0 
L 603 0 
L 603 3500 
z
M 603 4863 
L 1178 4863 
L 1178 4134 
L 603 4134 
L 603 4863 
z
" transform="scale(0.015625)"/>
        <path id="DejaVuSans-6e" d="M 3513 2113 
L 3513 0 
L 2938 0 
L 2938 2094 
Q 2938 2591 2744 2837 
Q 2550 3084 2163 3084 
Q 1697 3084 1428 2787 
Q 1159 2491 1159 1978 
L 1159 0 
L 581 0 
L 581 3500 
L 1159 3500 
L 1159 2956 
Q 1366 3272 1645 3428 
Q 1925 3584 2291 3584 
Q 2894 3584 3203 3211 
Q 3513 2838 3513 2113 
z
" transform="scale(0.015625)"/>
       </defs>
       <use xlink:href="#DejaVuSans-74"/>
       <use xlink:href="#DejaVuSans-65" x="39.208984"/>
       <use xlink:href="#DejaVuSans-72" x="100.732422"/>
       <use xlink:href="#DejaVuSans-72" x="140.095703"/>
       <use xlink:href="#DejaVuSans-61" x="181.208984"/>
       <use xlink:href="#DejaVuSans-69" x="242.488281"/>
       <use xlink:href="#DejaVuSans-6e" x="270.271484"/>
      </g>
     </g>
    </g>
    <g id="xtick_4">
     <g id="line2d_4">
      <g>
       <use xlink:href="#m5b472153d9" x="433.458636" y="333.552968" style="stroke: #000000; stroke-width: 0.8"/>
      </g>
     </g>
     <g id="text_4">
      <!-- amputate_R2_L2 -->
      <g transform="translate(405.578189 405.142753) rotate(-45) scale(0.1 -0.1)">
       <use xlink:href="#DejaVuSans-61"/>
       <use xlink:href="#DejaVuSans-6d" x="61.279297"/>
       <use xlink:href="#DejaVuSans-70" x="158.691406"/>
       <use xlink:href="#DejaVuSans-75" x="222.167969"/>
       <use xlink:href="#DejaVuSans-74" x="285.546875"/>
       <use xlink:href="#DejaVuSans-61" x="324.755859"/>
       <use xlink:href="#DejaVuSans-74" x="386.035156"/>
       <use xlink:href="#DejaVuSans-65" x="425.244141"/>
       <use xlink:href="#DejaVuSans-5f" x="486.767578"/>
       <use xlink:href="#DejaVuSans-52" x="536.767578"/>
       <use xlink:href="#DejaVuSans-32" x="606.25"/>
       <use xlink:href="#DejaVuSans-5f" x="669.873047"/>
       <use xlink:href="#DejaVuSans-4c" x="719.873047"/>
       <use xlink:href="#DejaVuSans-32" x="775.585938"/>
      </g>
     </g>
    </g>
    <g id="xtick_5">
     <g id="line2d_5">
      <g>
       <use xlink:href="#m5b472153d9" x="535.482273" y="333.552968" style="stroke: #000000; stroke-width: 0.8"/>
      </g>
     </g>
     <g id="text_5">
      <!-- amputate_R3_L3 -->
      <g transform="translate(507.601826 405.142753) rotate(-45) scale(0.1 -0.1)">
       <use xlink:href="#DejaVuSans-61"/>
       <use xlink:href="#DejaVuSans-6d" x="61.279297"/>
       <use xlink:href="#DejaVuSans-70" x="158.691406"/>
       <use xlink:href="#DejaVuSans-75" x="222.167969"/>
       <use xlink:href="#DejaVuSans-74" x="285.546875"/>
       <use xlink:href="#DejaVuSans-61" x="324.755859"/>
       <use xlink:href="#DejaVuSans-74" x="386.035156"/>
       <use xlink:href="#DejaVuSans-65" x="425.244141"/>
       <use xlink:href="#DejaVuSans-5f" x="486.767578"/>
       <use xlink:href="#DejaVuSans-52" x="536.767578"/>
       <use xlink:href="#DejaVuSans-33" x="606.25"/>
       <use xlink:href="#DejaVuSans-5f" x="669.873047"/>
       <use xlink:href="#DejaVuSans-4c" x="719.873047"/>
       <use xlink:href="#DejaVuSans-33" x="775.585938"/>
      </g>
     </g>
    </g>
    <g id="text_6">
     <!-- Experiment -->
     <g transform="translate(302.545156 418.408415) scale(0.1 -0.1)">
      <defs>
       <path id="DejaVuSans-45" d="M 628 4666 
L 3578 4666 
L 3578 4134 
L 1259 4134 
L 1259 2753 
L 3481 2753 
L 3481 2222 
L 1259 2222 
L 1259 531 
L 3634 531 
L 3634 0 
L 628 0 
L 628 4666 
z
" transform="scale(0.015625)"/>
       <path id="DejaVuSans-78" d="M 3513 3500 
L 2247 1797 
L 3578 0 
L 2900 0 
L 1881 1375 
L 863 0 
L 184 0 
L 1544 1831 
L 300 3500 
L 978 3500 
L 1906 2253 
L 2834 3500 
L 3513 3500 
z
" transform="scale(0.015625)"/>
      </defs>
      <use xlink:href="#DejaVuSans-45"/>
      <use xlink:href="#DejaVuSans-78" x="63.183594"/>
      <use xlink:href="#DejaVuSans-70" x="122.363281"/>
      <use xlink:href="#DejaVuSans-65" x="185.839844"/>
      <use xlink:href="#DejaVuSans-72" x="247.363281"/>
      <use xlink:href="#DejaVuSans-69" x="288.476562"/>
      <use xlink:href="#DejaVuSans-6d" x="316.259766"/>
      <use xlink:href="#DejaVuSans-65" x="413.671875"/>
      <use xlink:href="#DejaVuSans-6e" x="475.195312"/>
      <use xlink:href="#DejaVuSans-74" x="538.574219"/>
     </g>
    </g>
   </g>
   <g id="matplotlib.axis_2">
    <g id="ytick_1">
     <g id="line2d_6">
      <defs>
       <path id="m3394850b43" d="M 0 0 
L -3.5 0 
" style="stroke: #000000; stroke-width: 0.8"/>
      </defs>
      <g>
       <use xlink:href="#m3394850b43" x="50.87" y="333.552968" style="stroke: #000000; stroke-width: 0.8"/>
      </g>
     </g>
     <g id="text_7">
      <!-- 0 -->
      <g transform="translate(37.5075 337.352186) scale(0.1 -0.1)">
       <defs>
        <path id="DejaVuSans-30" d="M 2034 4250 
Q 1547 4250 1301 3770 
Q 1056 3291 1056 2328 
Q 1056 1369 1301 889 
Q 1547 409 2034 409 
Q 2525 409 2770 889 
Q 3016 1369 3016 2328 
Q 3016 3291 2770 3770 
Q 2525 4250 2034 4250 
z
M 2034 4750 
Q 2819 4750 3233 4129 
Q 3647 3509 3647 2328 
Q 3647 1150 3233 529 
Q 2819 -91 2034 -91 
Q 1250 -91 836 529 
Q 422 1150 422 2328 
Q 422 3509 836 4129 
Q 1250 4750 2034 4750 
z
" transform="scale(0.015625)"/>
       </defs>
       <use xlink:href="#DejaVuSans-30"/>
      </g>
     </g>
    </g>
    <g id="ytick_2">
     <g id="line2d_7">
      <g>
       <use xlink:href="#m3394850b43" x="50.87" y="286.372511" style="stroke: #000000; stroke-width: 0.8"/>
      </g>
     </g>
     <g id="text_8">
      <!-- 20 -->
      <g transform="translate(31.145 290.17173) scale(0.1 -0.1)">
       <use xlink:href="#DejaVuSans-32"/>
       <use xlink:href="#DejaVuSans-30" x="63.623047"/>
      </g>
     </g>
    </g>
    <g id="ytick_3">
     <g id="line2d_8">
      <g>
       <use xlink:href="#m3394850b43" x="50.87" y="239.192055" style="stroke: #000000; stroke-width: 0.8"/>
      </g>
     </g>
     <g id="text_9">
      <!-- 40 -->
      <g transform="translate(31.145 242.991273) scale(0.1 -0.1)">
       <defs>
        <path id="DejaVuSans-34" d="M 2419 4116 
L 825 1625 
L 2419 1625 
L 2419 4116 
z
M 2253 4666 
L 3047 4666 
L 3047 1625 
L 3713 1625 
L 3713 1100 
L 3047 1100 
L 3047 0 
L 2419 0 
L 2419 1100 
L 313 1100 
L 313 1709 
L 2253 4666 
z
" transform="scale(0.015625)"/>
       </defs>
       <use xlink:href="#DejaVuSans-34"/>
       <use xlink:href="#DejaVuSans-30" x="63.623047"/>
      </g>
     </g>
    </g>
    <g id="ytick_4">
     <g id="line2d_9">
      <g>
       <use xlink:href="#m3394850b43" x="50.87" y="192.011598" style="stroke: #000000; stroke-width: 0.8"/>
      </g>
     </g>
     <g id="text_10">
      <!-- 60 -->
      <g transform="translate(31.145 195.810817) scale(0.1 -0.1)">
       <defs>
        <path id="DejaVuSans-36" d="M 2113 2584 
Q 1688 2584 1439 2293 
Q 1191 2003 1191 1497 
Q 1191 994 1439 701 
Q 1688 409 2113 409 
Q 2538 409 2786 701 
Q 3034 994 3034 1497 
Q 3034 2003 2786 2293 
Q 2538 2584 2113 2584 
z
M 3366 4563 
L 3366 3988 
Q 3128 4100 2886 4159 
Q 2644 4219 2406 4219 
Q 1781 4219 1451 3797 
Q 1122 3375 1075 2522 
Q 1259 2794 1537 2939 
Q 1816 3084 2150 3084 
Q 2853 3084 3261 2657 
Q 3669 2231 3669 1497 
Q 3669 778 3244 343 
Q 2819 -91 2113 -91 
Q 1303 -91 875 529 
Q 447 1150 447 2328 
Q 447 3434 972 4092 
Q 1497 4750 2381 4750 
Q 2619 4750 2861 4703 
Q 3103 4656 3366 4563 
z
" transform="scale(0.015625)"/>
       </defs>
       <use xlink:href="#DejaVuSans-36"/>
       <use xlink:href="#DejaVuSans-30" x="63.623047"/>
      </g>
     </g>
    </g>
    <g id="ytick_5">
     <g id="line2d_10">
      <g>
       <use xlink:href="#m3394850b43" x="50.87" y="144.831141" style="stroke: #000000; stroke-width: 0.8"/>
      </g>
     </g>
     <g id="text_11">
      <!-- 80 -->
      <g transform="translate(31.145 148.63036) scale(0.1 -0.1)">
       <defs>
        <path id="DejaVuSans-38" d="M 2034 2216 
Q 1584 2216 1326 1975 
Q 1069 1734 1069 1313 
Q 1069 891 1326 650 
Q 1584 409 2034 409 
Q 2484 409 2743 651 
Q 3003 894 3003 1313 
Q 3003 1734 2745 1975 
Q 2488 2216 2034 2216 
z
M 1403 2484 
Q 997 2584 770 2862 
Q 544 3141 544 3541 
Q 544 4100 942 4425 
Q 1341 4750 2034 4750 
Q 2731 4750 3128 4425 
Q 3525 4100 3525 3541 
Q 3525 3141 3298 2862 
Q 3072 2584 2669 2484 
Q 3125 2378 3379 2068 
Q 3634 1759 3634 1313 
Q 3634 634 3220 271 
Q 2806 -91 2034 -91 
Q 1263 -91 848 271 
Q 434 634 434 1313 
Q 434 1759 690 2068 
Q 947 2378 1403 2484 
z
M 1172 3481 
Q 1172 3119 1398 2916 
Q 1625 2713 2034 2713 
Q 2441 2713 2670 2916 
Q 2900 3119 2900 3481 
Q 2900 3844 2670 4047 
Q 2441 4250 2034 4250 
Q 1625 4250 1398 4047 
Q 1172 3844 1172 3481 
z
" transform="scale(0.015625)"/>
       </defs>
       <use xlink:href="#DejaVuSans-38"/>
       <use xlink:href="#DejaVuSans-30" x="63.623047"/>
      </g>
     </g>
    </g>
    <g id="ytick_6">
     <g id="line2d_11">
      <g>
       <use xlink:href="#m3394850b43" x="50.87" y="97.650685" style="stroke: #000000; stroke-width: 0.8"/>
      </g>
     </g>
     <g id="text_12">
      <!-- 100 -->
      <g transform="translate(24.7825 101.449904) scale(0.1 -0.1)">
       <defs>
        <path id="DejaVuSans-31" d="M 794 531 
L 1825 531 
L 1825 4091 
L 703 3866 
L 703 4441 
L 1819 4666 
L 2450 4666 
L 2450 531 
L 3481 531 
L 3481 0 
L 794 0 
L 794 531 
z
" transform="scale(0.015625)"/>
       </defs>
       <use xlink:href="#DejaVuSans-31"/>
       <use xlink:href="#DejaVuSans-30" x="63.623047"/>
       <use xlink:href="#DejaVuSans-30" x="127.246094"/>
      </g>
     </g>
    </g>
    <g id="ytick_7">
     <g id="line2d_12">
      <g>
       <use xlink:href="#m3394850b43" x="50.87" y="50.470228" style="stroke: #000000; stroke-width: 0.8"/>
      </g>
     </g>
     <g id="text_13">
      <!-- 120 -->
      <g transform="translate(24.7825 54.269447) scale(0.1 -0.1)">
       <use xlink:href="#DejaVuSans-31"/>
       <use xlink:href="#DejaVuSans-32" x="63.623047"/>
       <use xlink:href="#DejaVuSans-30" x="127.246094"/>
      </g>
     </g>
    </g>
    <g id="text_14">
     <!-- % Decrease compared to Neural Flat -->
     <g transform="translate(18.702813 272.267265) rotate(-90) scale(0.1 -0.1)">
      <defs>
       <path id="DejaVuSans-25" d="M 4653 2053 
Q 4381 2053 4226 1822 
Q 4072 1591 4072 1178 
Q 4072 772 4226 539 
Q 4381 306 4653 306 
Q 4919 306 5073 539 
Q 5228 772 5228 1178 
Q 5228 1588 5073 1820 
Q 4919 2053 4653 2053 
z
M 4653 2450 
Q 5147 2450 5437 2106 
Q 5728 1763 5728 1178 
Q 5728 594 5436 251 
Q 5144 -91 4653 -91 
Q 4153 -91 3862 251 
Q 3572 594 3572 1178 
Q 3572 1766 3864 2108 
Q 4156 2450 4653 2450 
z
M 1428 4353 
Q 1159 4353 1004 4120 
Q 850 3888 850 3481 
Q 850 3069 1003 2837 
Q 1156 2606 1428 2606 
Q 1700 2606 1854 2837 
Q 2009 3069 2009 3481 
Q 2009 3884 1853 4118 
Q 1697 4353 1428 4353 
z
M 4250 4750 
L 4750 4750 
L 1831 -91 
L 1331 -91 
L 4250 4750 
z
M 1428 4750 
Q 1922 4750 2215 4408 
Q 2509 4066 2509 3481 
Q 2509 2891 2217 2550 
Q 1925 2209 1428 2209 
Q 931 2209 642 2551 
Q 353 2894 353 3481 
Q 353 4063 643 4406 
Q 934 4750 1428 4750 
z
" transform="scale(0.015625)"/>
       <path id="DejaVuSans-20" transform="scale(0.015625)"/>
       <path id="DejaVuSans-44" d="M 1259 4147 
L 1259 519 
L 2022 519 
Q 2988 519 3436 956 
Q 3884 1394 3884 2338 
Q 3884 3275 3436 3711 
Q 2988 4147 2022 4147 
L 1259 4147 
z
M 628 4666 
L 1925 4666 
Q 3281 4666 3915 4102 
Q 4550 3538 4550 2338 
Q 4550 1131 3912 565 
Q 3275 0 1925 0 
L 628 0 
L 628 4666 
z
" transform="scale(0.015625)"/>
       <path id="DejaVuSans-63" d="M 3122 3366 
L 3122 2828 
Q 2878 2963 2633 3030 
Q 2388 3097 2138 3097 
Q 1578 3097 1268 2742 
Q 959 2388 959 1747 
Q 959 1106 1268 751 
Q 1578 397 2138 397 
Q 2388 397 2633 464 
Q 2878 531 3122 666 
L 3122 134 
Q 2881 22 2623 -34 
Q 2366 -91 2075 -91 
Q 1284 -91 818 406 
Q 353 903 353 1747 
Q 353 2603 823 3093 
Q 1294 3584 2113 3584 
Q 2378 3584 2631 3529 
Q 2884 3475 3122 3366 
z
" transform="scale(0.015625)"/>
       <path id="DejaVuSans-73" d="M 2834 3397 
L 2834 2853 
Q 2591 2978 2328 3040 
Q 2066 3103 1784 3103 
Q 1356 3103 1142 2972 
Q 928 2841 928 2578 
Q 928 2378 1081 2264 
Q 1234 2150 1697 2047 
L 1894 2003 
Q 2506 1872 2764 1633 
Q 3022 1394 3022 966 
Q 3022 478 2636 193 
Q 2250 -91 1575 -91 
Q 1294 -91 989 -36 
Q 684 19 347 128 
L 347 722 
Q 666 556 975 473 
Q 1284 391 1588 391 
Q 1994 391 2212 530 
Q 2431 669 2431 922 
Q 2431 1156 2273 1281 
Q 2116 1406 1581 1522 
L 1381 1569 
Q 847 1681 609 1914 
Q 372 2147 372 2553 
Q 372 3047 722 3315 
Q 1072 3584 1716 3584 
Q 2034 3584 2315 3537 
Q 2597 3491 2834 3397 
z
" transform="scale(0.015625)"/>
       <path id="DejaVuSans-6f" d="M 1959 3097 
Q 1497 3097 1228 2736 
Q 959 2375 959 1747 
Q 959 1119 1226 758 
Q 1494 397 1959 397 
Q 2419 397 2687 759 
Q 2956 1122 2956 1747 
Q 2956 2369 2687 2733 
Q 2419 3097 1959 3097 
z
M 1959 3584 
Q 2709 3584 3137 3096 
Q 3566 2609 3566 1747 
Q 3566 888 3137 398 
Q 2709 -91 1959 -91 
Q 1206 -91 779 398 
Q 353 888 353 1747 
Q 353 2609 779 3096 
Q 1206 3584 1959 3584 
z
" transform="scale(0.015625)"/>
       <path id="DejaVuSans-64" d="M 2906 2969 
L 2906 4863 
L 3481 4863 
L 3481 0 
L 2906 0 
L 2906 525 
Q 2725 213 2448 61 
Q 2172 -91 1784 -91 
Q 1150 -91 751 415 
Q 353 922 353 1747 
Q 353 2572 751 3078 
Q 1150 3584 1784 3584 
Q 2172 3584 2448 3432 
Q 2725 3281 2906 2969 
z
M 947 1747 
Q 947 1113 1208 752 
Q 1469 391 1925 391 
Q 2381 391 2643 752 
Q 2906 1113 2906 1747 
Q 2906 2381 2643 2742 
Q 2381 3103 1925 3103 
Q 1469 3103 1208 2742 
Q 947 2381 947 1747 
z
" transform="scale(0.015625)"/>
       <path id="DejaVuSans-4e" d="M 628 4666 
L 1478 4666 
L 3547 763 
L 3547 4666 
L 4159 4666 
L 4159 0 
L 3309 0 
L 1241 3903 
L 1241 0 
L 628 0 
L 628 4666 
z
" transform="scale(0.015625)"/>
       <path id="DejaVuSans-6c" d="M 603 4863 
L 1178 4863 
L 1178 0 
L 603 0 
L 603 4863 
z
" transform="scale(0.015625)"/>
       <path id="DejaVuSans-46" d="M 628 4666 
L 3309 4666 
L 3309 4134 
L 1259 4134 
L 1259 2759 
L 3109 2759 
L 3109 2228 
L 1259 2228 
L 1259 0 
L 628 0 
L 628 4666 
z
" transform="scale(0.015625)"/>
      </defs>
      <use xlink:href="#DejaVuSans-25"/>
      <use xlink:href="#DejaVuSans-20" x="95.019531"/>
      <use xlink:href="#DejaVuSans-44" x="126.806641"/>
      <use xlink:href="#DejaVuSans-65" x="203.808594"/>
      <use xlink:href="#DejaVuSans-63" x="265.332031"/>
      <use xlink:href="#DejaVuSans-72" x="320.3125"/>
      <use xlink:href="#DejaVuSans-65" x="359.175781"/>
      <use xlink:href="#DejaVuSans-61" x="420.699219"/>
      <use xlink:href="#DejaVuSans-73" x="481.978516"/>
      <use xlink:href="#DejaVuSans-65" x="534.078125"/>
      <use xlink:href="#DejaVuSans-20" x="595.601562"/>
      <use xlink:href="#DejaVuSans-63" x="627.388672"/>
      <use xlink:href="#DejaVuSans-6f" x="682.369141"/>
      <use xlink:href="#DejaVuSans-6d" x="743.550781"/>
      <use xlink:href="#DejaVuSans-70" x="840.962891"/>
      <use xlink:href="#DejaVuSans-61" x="904.439453"/>
      <use xlink:href="#DejaVuSans-72" x="965.71875"/>
      <use xlink:href="#DejaVuSans-65" x="1004.582031"/>
      <use xlink:href="#DejaVuSans-64" x="1066.105469"/>
      <use xlink:href="#DejaVuSans-20" x="1129.582031"/>
      <use xlink:href="#DejaVuSans-74" x="1161.369141"/>
      <use xlink:href="#DejaVuSans-6f" x="1200.578125"/>
      <use xlink:href="#DejaVuSans-20" x="1261.759766"/>
      <use xlink:href="#DejaVuSans-4e" x="1293.546875"/>
      <use xlink:href="#DejaVuSans-65" x="1368.351562"/>
      <use xlink:href="#DejaVuSans-75" x="1429.875"/>
      <use xlink:href="#DejaVuSans-72" x="1493.253906"/>
      <use xlink:href="#DejaVuSans-61" x="1534.367188"/>
      <use xlink:href="#DejaVuSans-6c" x="1595.646484"/>
      <use xlink:href="#DejaVuSans-20" x="1623.429688"/>
      <use xlink:href="#DejaVuSans-46" x="1655.216797"/>
      <use xlink:href="#DejaVuSans-6c" x="1712.736328"/>
      <use xlink:href="#DejaVuSans-61" x="1740.519531"/>
      <use xlink:href="#DejaVuSans-74" x="1801.798828"/>
     </g>
    </g>
   </g>
   <g id="LineCollection_1">
    <path d="M 114.634773 219.213442 
L 127.387727 219.213442 
" clip-path="url(#p9e74abbaa5)" style="fill: none; stroke: #1f77b4; stroke-width: 1.5; stroke-linecap: square"/>
    <path d="M 216.658409 234.04903 
L 229.411364 234.04903 
" clip-path="url(#p9e74abbaa5)" style="fill: none; stroke: #1f77b4; stroke-width: 1.5; stroke-linecap: square"/>
    <path d="M 318.682045 255.325191 
L 331.435 255.325191 
" clip-path="url(#p9e74abbaa5)" style="fill: none; stroke: #1f77b4; stroke-width: 1.5; stroke-linecap: square"/>
    <path d="M 420.705682 174.092108 
L 433.458636 174.092108 
" clip-path="url(#p9e74abbaa5)" style="fill: none; stroke: #1f77b4; stroke-width: 1.5; stroke-linecap: square"/>
    <path d="M 522.729318 189.14015 
L 535.482273 189.14015 
" clip-path="url(#p9e74abbaa5)" style="fill: none; stroke: #1f77b4; stroke-width: 1.5; stroke-linecap: square"/>
   </g>
   <g id="LineCollection_2">
    <path d="M 127.387727 163.840497 
L 140.140682 163.840497 
" clip-path="url(#p9e74abbaa5)" style="fill: none; stroke: #ff7f0e; stroke-width: 1.5; stroke-linecap: square"/>
    <path d="M 229.411364 211.706642 
L 242.164318 211.706642 
" clip-path="url(#p9e74abbaa5)" style="fill: none; stroke: #ff7f0e; stroke-width: 1.5; stroke-linecap: square"/>
    <path d="M 331.435 111.354096 
L 344.187955 111.354096 
" clip-path="url(#p9e74abbaa5)" style="fill: none; stroke: #ff7f0e; stroke-width: 1.5; stroke-linecap: square"/>
    <path d="M 433.458636 115.094991 
L 446.211591 115.094991 
" clip-path="url(#p9e74abbaa5)" style="fill: none; stroke: #ff7f0e; stroke-width: 1.5; stroke-linecap: square"/>
    <path d="M 535.482273 100.841891 
L 548.235227 100.841891 
" clip-path="url(#p9e74abbaa5)" style="fill: none; stroke: #ff7f0e; stroke-width: 1.5; stroke-linecap: square"/>
   </g>
   <g id="patch_3">
    <path d="M 50.87 333.552968 
L 50.87 26.88 
" style="fill: none; stroke: #000000; stroke-width: 0.8; stroke-linejoin: miter; stroke-linecap: square"/>
   </g>
   <g id="patch_4">
    <path d="M 612 333.552968 
L 612 26.88 
" style="fill: none; stroke: #000000; stroke-width: 0.8; stroke-linejoin: miter; stroke-linecap: square"/>
   </g>
   <g id="patch_5">
    <path d="M 50.87 333.552968 
L 612 333.552968 
" style="fill: none; stroke: #000000; stroke-width: 0.8; stroke-linejoin: miter; stroke-linecap: square"/>
   </g>
   <g id="patch_6">
    <path d="M 50.87 26.88 
L 612 26.88 
" style="fill: none; stroke: #000000; stroke-width: 0.8; stroke-linejoin: miter; stroke-linecap: square"/>
   </g>
   <g id="text_15">
    <!-- % Decrease of Forward Velocity Compared to Flat Terrain -->
    <g transform="translate(160.3975 20.88) scale(0.12 -0.12)">
     <defs>
      <path id="DejaVuSans-66" d="M 2375 4863 
L 2375 4384 
L 1825 4384 
Q 1516 4384 1395 4259 
Q 1275 4134 1275 3809 
L 1275 3500 
L 2222 3500 
L 2222 3053 
L 1275 3053 
L 1275 0 
L 697 0 
L 697 3053 
L 147 3053 
L 147 3500 
L 697 3500 
L 697 3744 
Q 697 4328 969 4595 
Q 1241 4863 1831 4863 
L 2375 4863 
z
" transform="scale(0.015625)"/>
      <path id="DejaVuSans-77" d="M 269 3500 
L 844 3500 
L 1563 769 
L 2278 3500 
L 2956 3500 
L 3675 769 
L 4391 3500 
L 4966 3500 
L 4050 0 
L 3372 0 
L 2619 2869 
L 1863 0 
L 1184 0 
L 269 3500 
z
" transform="scale(0.015625)"/>
      <path id="DejaVuSans-56" d="M 1831 0 
L 50 4666 
L 709 4666 
L 2188 738 
L 3669 4666 
L 4325 4666 
L 2547 0 
L 1831 0 
z
" transform="scale(0.015625)"/>
      <path id="DejaVuSans-79" d="M 2059 -325 
Q 1816 -950 1584 -1140 
Q 1353 -1331 966 -1331 
L 506 -1331 
L 506 -850 
L 844 -850 
Q 1081 -850 1212 -737 
Q 1344 -625 1503 -206 
L 1606 56 
L 191 3500 
L 800 3500 
L 1894 763 
L 2988 3500 
L 3597 3500 
L 2059 -325 
z
" transform="scale(0.015625)"/>
      <path id="DejaVuSans-43" d="M 4122 4306 
L 4122 3641 
Q 3803 3938 3442 4084 
Q 3081 4231 2675 4231 
Q 1875 4231 1450 3742 
Q 1025 3253 1025 2328 
Q 1025 1406 1450 917 
Q 1875 428 2675 428 
Q 3081 428 3442 575 
Q 3803 722 4122 1019 
L 4122 359 
Q 3791 134 3420 21 
Q 3050 -91 2638 -91 
Q 1578 -91 968 557 
Q 359 1206 359 2328 
Q 359 3453 968 4101 
Q 1578 4750 2638 4750 
Q 3056 4750 3426 4639 
Q 3797 4528 4122 4306 
z
" transform="scale(0.015625)"/>
      <path id="DejaVuSans-54" d="M -19 4666 
L 3928 4666 
L 3928 4134 
L 2272 4134 
L 2272 0 
L 1638 0 
L 1638 4134 
L -19 4134 
L -19 4666 
z
" transform="scale(0.015625)"/>
     </defs>
     <use xlink:href="#DejaVuSans-25"/>
     <use xlink:href="#DejaVuSans-20" x="95.019531"/>
     <use xlink:href="#DejaVuSans-44" x="126.806641"/>
     <use xlink:href="#DejaVuSans-65" x="203.808594"/>
     <use xlink:href="#DejaVuSans-63" x="265.332031"/>
     <use xlink:href="#DejaVuSans-72" x="320.3125"/>
     <use xlink:href="#DejaVuSans-65" x="359.175781"/>
     <use xlink:href="#DejaVuSans-61" x="420.699219"/>
     <use xlink:href="#DejaVuSans-73" x="481.978516"/>
     <use xlink:href="#DejaVuSans-65" x="534.078125"/>
     <use xlink:href="#DejaVuSans-20" x="595.601562"/>
     <use xlink:href="#DejaVuSans-6f" x="627.388672"/>
     <use xlink:href="#DejaVuSans-66" x="688.570312"/>
     <use xlink:href="#DejaVuSans-20" x="723.775391"/>
     <use xlink:href="#DejaVuSans-46" x="755.5625"/>
     <use xlink:href="#DejaVuSans-6f" x="809.457031"/>
     <use xlink:href="#DejaVuSans-72" x="870.638672"/>
     <use xlink:href="#DejaVuSans-77" x="911.751953"/>
     <use xlink:href="#DejaVuSans-61" x="993.539062"/>
     <use xlink:href="#DejaVuSans-72" x="1054.818359"/>
     <use xlink:href="#DejaVuSans-64" x="1094.181641"/>
     <use xlink:href="#DejaVuSans-20" x="1157.658203"/>
     <use xlink:href="#DejaVuSans-56" x="1189.445312"/>
     <use xlink:href="#DejaVuSans-65" x="1250.103516"/>
     <use xlink:href="#DejaVuSans-6c" x="1311.626953"/>
     <use xlink:href="#DejaVuSans-6f" x="1339.410156"/>
     <use xlink:href="#DejaVuSans-63" x="1400.591797"/>
     <use xlink:href="#DejaVuSans-69" x="1455.572266"/>
     <use xlink:href="#DejaVuSans-74" x="1483.355469"/>
     <use xlink:href="#DejaVuSans-79" x="1522.564453"/>
     <use xlink:href="#DejaVuSans-20" x="1581.744141"/>
     <use xlink:href="#DejaVuSans-43" x="1613.53125"/>
     <use xlink:href="#DejaVuSans-6f" x="1683.355469"/>
     <use xlink:href="#DejaVuSans-6d" x="1744.537109"/>
     <use xlink:href="#DejaVuSans-70" x="1841.949219"/>
     <use xlink:href="#DejaVuSans-61" x="1905.425781"/>
     <use xlink:href="#DejaVuSans-72" x="1966.705078"/>
     <use xlink:href="#DejaVuSans-65" x="2005.568359"/>
     <use xlink:href="#DejaVuSans-64" x="2067.091797"/>
     <use xlink:href="#DejaVuSans-20" x="2130.568359"/>
     <use xlink:href="#DejaVuSans-74" x="2162.355469"/>
     <use xlink:href="#DejaVuSans-6f" x="2201.564453"/>
     <use xlink:href="#DejaVuSans-20" x="2262.746094"/>
     <use xlink:href="#DejaVuSans-46" x="2294.533203"/>
     <use xlink:href="#DejaVuSans-6c" x="2352.052734"/>
     <use xlink:href="#DejaVuSans-61" x="2379.835938"/>
     <use xlink:href="#DejaVuSans-74" x="2441.115234"/>
     <use xlink:href="#DejaVuSans-20" x="2480.324219"/>
     <use xlink:href="#DejaVuSans-54" x="2512.111328"/>
     <use xlink:href="#DejaVuSans-65" x="2556.195312"/>
     <use xlink:href="#DejaVuSans-72" x="2617.71875"/>
     <use xlink:href="#DejaVuSans-72" x="2657.082031"/>
     <use xlink:href="#DejaVuSans-61" x="2698.195312"/>
     <use xlink:href="#DejaVuSans-69" x="2759.474609"/>
     <use xlink:href="#DejaVuSans-6e" x="2787.257812"/>
    </g>
   </g>
   <g id="legend_1">
    <g id="patch_7">
     <path d="M 519.467188 328.552968 
L 605 328.552968 
Q 607 328.552968 607 326.552968 
L 607 298.196718 
Q 607 296.196718 605 296.196718 
L 519.467188 296.196718 
Q 517.467188 296.196718 517.467188 298.196718 
L 517.467188 326.552968 
Q 517.467188 328.552968 519.467188 328.552968 
z
" style="fill: #ffffff; opacity: 0.8; stroke: #cccccc; stroke-linejoin: miter"/>
    </g>
    <g id="patch_8">
     <path d="M 521.467188 307.795155 
L 541.467188 307.795155 
L 541.467188 300.795155 
L 521.467188 300.795155 
z
" style="fill: #1f77b4; fill-opacity: 0.3; stroke: #1f77b4; stroke-opacity: 0.3; stroke-linejoin: miter"/>
    </g>
    <g id="text_16">
     <!-- Neural -->
     <g transform="translate(549.467188 307.795155) scale(0.1 -0.1)">
      <use xlink:href="#DejaVuSans-4e"/>
      <use xlink:href="#DejaVuSans-65" x="74.804688"/>
      <use xlink:href="#DejaVuSans-75" x="136.328125"/>
      <use xlink:href="#DejaVuSans-72" x="199.707031"/>
      <use xlink:href="#DejaVuSans-61" x="240.820312"/>
      <use xlink:href="#DejaVuSans-6c" x="302.099609"/>
     </g>
    </g>
    <g id="patch_9">
     <path d="M 521.467188 322.47328 
L 541.467188 322.47328 
L 541.467188 315.47328 
L 521.467188 315.47328 
z
" style="fill: #ff7f0e; fill-opacity: 0.3; stroke: #ff7f0e; stroke-opacity: 0.3; stroke-linejoin: miter"/>
    </g>
    <g id="text_17">
     <!-- Predefined -->
     <g transform="translate(549.467188 322.47328) scale(0.1 -0.1)">
      <defs>
       <path id="DejaVuSans-50" d="M 1259 4147 
L 1259 2394 
L 2053 2394 
Q 2494 2394 2734 2622 
Q 2975 2850 2975 3272 
Q 2975 3691 2734 3919 
Q 2494 4147 2053 4147 
L 1259 4147 
z
M 628 4666 
L 2053 4666 
Q 2838 4666 3239 4311 
Q 3641 3956 3641 3272 
Q 3641 2581 3239 2228 
Q 2838 1875 2053 1875 
L 1259 1875 
L 1259 0 
L 628 0 
L 628 4666 
z
" transform="scale(0.015625)"/>
      </defs>
      <use xlink:href="#DejaVuSans-50"/>
      <use xlink:href="#DejaVuSans-72" x="58.552734"/>
      <use xlink:href="#DejaVuSans-65" x="97.416016"/>
      <use xlink:href="#DejaVuSans-64" x="158.939453"/>
      <use xlink:href="#DejaVuSans-65" x="222.416016"/>
      <use xlink:href="#DejaVuSans-66" x="283.939453"/>
      <use xlink:href="#DejaVuSans-69" x="319.144531"/>
      <use xlink:href="#DejaVuSans-6e" x="346.927734"/>
      <use xlink:href="#DejaVuSans-65" x="410.306641"/>
      <use xlink:href="#DejaVuSans-64" x="471.830078"/>
     </g>
    </g>
   </g>
  </g>
  <g id="axes_2">
   <g id="matplotlib.axis_3">
    <g id="ytick_8">
     <g id="line2d_13">
      <defs>
       <path id="m13a61995e8" d="M 0 0 
L 3.5 0 
" style="stroke: #000000; stroke-width: 0.8"/>
      </defs>
      <g>
       <use xlink:href="#m13a61995e8" x="612" y="333.552968" style="stroke: #000000; stroke-width: 0.8"/>
      </g>
     </g>
     <g id="text_18">
      <!-- 0 -->
      <g transform="translate(619 337.352186) scale(0.1 -0.1)">
       <use xlink:href="#DejaVuSans-30"/>
      </g>
     </g>
    </g>
    <g id="ytick_9">
     <g id="line2d_14">
      <g>
       <use xlink:href="#m13a61995e8" x="612" y="286.372511" style="stroke: #000000; stroke-width: 0.8"/>
      </g>
     </g>
     <g id="text_19">
      <!-- 20 -->
      <g transform="translate(619 290.17173) scale(0.1 -0.1)">
       <use xlink:href="#DejaVuSans-32"/>
       <use xlink:href="#DejaVuSans-30" x="63.623047"/>
      </g>
     </g>
    </g>
    <g id="ytick_10">
     <g id="line2d_15">
      <g>
       <use xlink:href="#m13a61995e8" x="612" y="239.192055" style="stroke: #000000; stroke-width: 0.8"/>
      </g>
     </g>
     <g id="text_20">
      <!-- 40 -->
      <g transform="translate(619 242.991273) scale(0.1 -0.1)">
       <use xlink:href="#DejaVuSans-34"/>
       <use xlink:href="#DejaVuSans-30" x="63.623047"/>
      </g>
     </g>
    </g>
    <g id="ytick_11">
     <g id="line2d_16">
      <g>
       <use xlink:href="#m13a61995e8" x="612" y="192.011598" style="stroke: #000000; stroke-width: 0.8"/>
      </g>
     </g>
     <g id="text_21">
      <!-- 60 -->
      <g transform="translate(619 195.810817) scale(0.1 -0.1)">
       <use xlink:href="#DejaVuSans-36"/>
       <use xlink:href="#DejaVuSans-30" x="63.623047"/>
      </g>
     </g>
    </g>
    <g id="ytick_12">
     <g id="line2d_17">
      <g>
       <use xlink:href="#m13a61995e8" x="612" y="144.831141" style="stroke: #000000; stroke-width: 0.8"/>
      </g>
     </g>
     <g id="text_22">
      <!-- 80 -->
      <g transform="translate(619 148.63036) scale(0.1 -0.1)">
       <use xlink:href="#DejaVuSans-38"/>
       <use xlink:href="#DejaVuSans-30" x="63.623047"/>
      </g>
     </g>
    </g>
    <g id="ytick_13">
     <g id="line2d_18">
      <g>
       <use xlink:href="#m13a61995e8" x="612" y="97.650685" style="stroke: #000000; stroke-width: 0.8"/>
      </g>
     </g>
     <g id="text_23">
      <!-- 100 -->
      <g transform="translate(619 101.449904) scale(0.1 -0.1)">
       <use xlink:href="#DejaVuSans-31"/>
       <use xlink:href="#DejaVuSans-30" x="63.623047"/>
       <use xlink:href="#DejaVuSans-30" x="127.246094"/>
      </g>
     </g>
    </g>
    <g id="ytick_14">
     <g id="line2d_19">
      <g>
       <use xlink:href="#m13a61995e8" x="612" y="50.470228" style="stroke: #000000; stroke-width: 0.8"/>
      </g>
     </g>
     <g id="text_24">
      <!-- 120 -->
      <g transform="translate(619 54.269447) scale(0.1 -0.1)">
       <use xlink:href="#DejaVuSans-31"/>
       <use xlink:href="#DejaVuSans-32" x="63.623047"/>
       <use xlink:href="#DejaVuSans-30" x="127.246094"/>
      </g>
     </g>
    </g>
    <g id="text_25">
     <!-- % Decrease compared to Predefined Flat -->
     <g transform="translate(649.685938 282.53914) rotate(-90) scale(0.1 -0.1)">
      <use xlink:href="#DejaVuSans-25"/>
      <use xlink:href="#DejaVuSans-20" x="95.019531"/>
      <use xlink:href="#DejaVuSans-44" x="126.806641"/>
      <use xlink:href="#DejaVuSans-65" x="203.808594"/>
      <use xlink:href="#DejaVuSans-63" x="265.332031"/>
      <use xlink:href="#DejaVuSans-72" x="320.3125"/>
      <use xlink:href="#DejaVuSans-65" x="359.175781"/>
      <use xlink:href="#DejaVuSans-61" x="420.699219"/>
      <use xlink:href="#DejaVuSans-73" x="481.978516"/>
      <use xlink:href="#DejaVuSans-65" x="534.078125"/>
      <use xlink:href="#DejaVuSans-20" x="595.601562"/>
      <use xlink:href="#DejaVuSans-63" x="627.388672"/>
      <use xlink:href="#DejaVuSans-6f" x="682.369141"/>
      <use xlink:href="#DejaVuSans-6d" x="743.550781"/>
      <use xlink:href="#DejaVuSans-70" x="840.962891"/>
      <use xlink:href="#DejaVuSans-61" x="904.439453"/>
      <use xlink:href="#DejaVuSans-72" x="965.71875"/>
      <use xlink:href="#DejaVuSans-65" x="1004.582031"/>
      <use xlink:href="#DejaVuSans-64" x="1066.105469"/>
      <use xlink:href="#DejaVuSans-20" x="1129.582031"/>
      <use xlink:href="#DejaVuSans-74" x="1161.369141"/>
      <use xlink:href="#DejaVuSans-6f" x="1200.578125"/>
      <use xlink:href="#DejaVuSans-20" x="1261.759766"/>
      <use xlink:href="#DejaVuSans-50" x="1293.546875"/>
      <use xlink:href="#DejaVuSans-72" x="1352.099609"/>
      <use xlink:href="#DejaVuSans-65" x="1390.962891"/>
      <use xlink:href="#DejaVuSans-64" x="1452.486328"/>
      <use xlink:href="#DejaVuSans-65" x="1515.962891"/>
      <use xlink:href="#DejaVuSans-66" x="1577.486328"/>
      <use xlink:href="#DejaVuSans-69" x="1612.691406"/>
      <use xlink:href="#DejaVuSans-6e" x="1640.474609"/>
      <use xlink:href="#DejaVuSans-65" x="1703.853516"/>
      <use xlink:href="#DejaVuSans-64" x="1765.376953"/>
      <use xlink:href="#DejaVuSans-20" x="1828.853516"/>
      <use xlink:href="#DejaVuSans-46" x="1860.640625"/>
      <use xlink:href="#DejaVuSans-6c" x="1918.160156"/>
      <use xlink:href="#DejaVuSans-61" x="1945.943359"/>
      <use xlink:href="#DejaVuSans-74" x="2007.222656"/>
     </g>
    </g>
   </g>
   <g id="patch_10">
    <path d="M 50.87 333.552968 
L 50.87 26.88 
" style="fill: none; stroke: #000000; stroke-width: 0.8; stroke-linejoin: miter; stroke-linecap: square"/>
   </g>
   <g id="patch_11">
    <path d="M 612 333.552968 
L 612 26.88 
" style="fill: none; stroke: #000000; stroke-width: 0.8; stroke-linejoin: miter; stroke-linecap: square"/>
   </g>
   <g id="patch_12">
    <path d="M 50.87 333.552968 
L 612 333.552968 
" style="fill: none; stroke: #000000; stroke-width: 0.8; stroke-linejoin: miter; stroke-linecap: square"/>
   </g>
   <g id="patch_13">
    <path d="M 50.87 26.88 
L 612 26.88 
" style="fill: none; stroke: #000000; stroke-width: 0.8; stroke-linejoin: miter; stroke-linecap: square"/>
   </g>
  </g>
 </g>
 <defs>
  <clipPath id="p9e74abbaa5">
   <rect x="50.87" y="26.88" width="561.13" height="306.672968"/>
  </clipPath>
 </defs>
</svg>
