<?xml version="1.0" encoding="utf-8" standalone="no"?>
<!DOCTYPE svg PUBLIC "-//W3C//DTD SVG 1.1//EN"
  "http://www.w3.org/Graphics/SVG/1.1/DTD/svg11.dtd">
<svg xmlns:xlink="http://www.w3.org/1999/xlink" width="720pt" height="432pt" viewBox="0 0 720 432" xmlns="http://www.w3.org/2000/svg" version="1.1">
 <metadata>
  <rdf:RDF xmlns:dc="http://purl.org/dc/elements/1.1/" xmlns:cc="http://creativecommons.org/ns#" xmlns:rdf="http://www.w3.org/1999/02/22-rdf-syntax-ns#">
   <cc:Work>
    <dc:type rdf:resource="http://purl.org/dc/dcmitype/StillImage"/>
    <dc:date>2024-09-13T00:13:36.809227</dc:date>
    <dc:format>image/svg+xml</dc:format>
    <dc:creator>
     <cc:Agent>
      <dc:title>Matplotlib v3.9.2, https://matplotlib.org/</dc:title>
     </cc:Agent>
    </dc:creator>
   </cc:Work>
  </rdf:RDF>
 </metadata>
 <defs>
  <style type="text/css">*{stroke-linejoin: round; stroke-linecap: butt}</style>
 </defs>
 <g id="figure_1">
  <g id="patch_1">
   <path d="M 0 432 
L 720 432 
L 720 0 
L 0 0 
z
" style="fill: #ffffff"/>
  </g>
  <g id="axes_1">
   <g id="patch_2">
    <path d="M 47.72 333.552968 
L 709.2 333.552968 
L 709.2 26.88 
L 47.72 26.88 
z
" style="fill: #ffffff"/>
   </g>
   <g id="PolyCollection_1">
    <path d="M 137.921818 225.963774 
L 110.21612 225.963774 
L 109.909114 225.442952 
L 109.622279 224.92213 
L 109.356101 224.401308 
L 109.111 223.880486 
L 108.887327 223.359664 
L 108.685365 222.838842 
L 108.505322 222.31802 
L 108.347333 221.797198 
L 108.211459 221.276376 
L 108.097686 220.755554 
L 108.005922 220.234732 
L 107.936003 219.71391 
L 107.887689 219.193088 
L 107.860665 218.672266 
L 107.854545 218.151444 
L 107.868873 217.630622 
L 107.903123 217.1098 
L 107.956703 216.588978 
L 108.028958 216.068156 
L 108.119175 215.547334 
L 108.226583 215.026512 
L 108.350358 214.50569 
L 108.489629 213.984868 
L 108.643479 213.464046 
L 108.810956 212.943224 
L 108.991069 212.422402 
L 109.182799 211.90158 
L 109.385105 211.380758 
L 109.596925 210.859936 
L 109.817183 210.339114 
L 110.044796 209.818292 
L 110.27868 209.29747 
L 110.51775 208.776648 
L 110.760934 208.255826 
L 111.007169 207.735004 
L 111.255414 207.214182 
L 111.504652 206.69336 
L 111.753893 206.172538 
L 112.002182 205.651716 
L 112.248602 205.130894 
L 112.492278 204.610072 
L 112.732382 204.08925 
L 112.968134 203.568428 
L 113.198811 203.047606 
L 113.423744 202.526784 
L 113.642323 202.005962 
L 113.854001 201.48514 
L 114.058293 200.964318 
L 114.25478 200.443496 
L 114.443108 199.922674 
L 114.622992 199.401852 
L 114.794213 198.88103 
L 114.956618 198.360208 
L 115.110125 197.839386 
L 115.254715 197.318564 
L 115.390435 196.797742 
L 115.517397 196.27692 
L 115.635774 195.756098 
L 115.745799 195.235276 
L 115.847763 194.714454 
L 115.942011 194.193632 
L 116.02894 193.67281 
L 116.108997 193.151988 
L 116.182672 192.631166 
L 116.250497 192.110344 
L 116.313043 191.589522 
L 116.370913 191.0687 
L 116.42474 190.547878 
L 116.475184 190.027056 
L 116.522923 189.506234 
L 116.568655 188.985412 
L 116.613087 188.46459 
L 116.656937 187.943768 
L 116.700926 187.422946 
L 116.745773 186.902124 
L 116.792195 186.381302 
L 116.840897 185.86048 
L 116.892576 185.339658 
L 116.947907 184.818836 
L 117.00755 184.298014 
L 117.072138 183.777192 
L 117.142279 183.25637 
L 117.218552 182.735548 
L 117.3015 182.214726 
L 117.391635 181.693904 
L 117.489428 181.173082 
L 117.595313 180.65226 
L 117.709682 180.131438 
L 117.832884 179.610616 
L 117.965222 179.089794 
L 118.106957 178.568972 
L 118.258301 178.04815 
L 118.419422 177.527328 
L 118.590441 177.006506 
L 118.771431 176.485684 
L 118.96242 175.964862 
L 119.16339 175.44404 
L 119.374277 174.923218 
L 119.594976 174.402396 
L 137.921818 174.402396 
L 137.921818 174.402396 
L 137.921818 174.923218 
L 137.921818 175.44404 
L 137.921818 175.964862 
L 137.921818 176.485684 
L 137.921818 177.006506 
L 137.921818 177.527328 
L 137.921818 178.04815 
L 137.921818 178.568972 
L 137.921818 179.089794 
L 137.921818 179.610616 
L 137.921818 180.131438 
L 137.921818 180.65226 
L 137.921818 181.173082 
L 137.921818 181.693904 
L 137.921818 182.214726 
L 137.921818 182.735548 
L 137.921818 183.25637 
L 137.921818 183.777192 
L 137.921818 184.298014 
L 137.921818 184.818836 
L 137.921818 185.339658 
L 137.921818 185.86048 
L 137.921818 186.381302 
L 137.921818 186.902124 
L 137.921818 187.422946 
L 137.921818 187.943768 
L 137.921818 188.46459 
L 137.921818 188.985412 
L 137.921818 189.506234 
L 137.921818 190.027056 
L 137.921818 190.547878 
L 137.921818 191.0687 
L 137.921818 191.589522 
L 137.921818 192.110344 
L 137.921818 192.631166 
L 137.921818 193.151988 
L 137.921818 193.67281 
L 137.921818 194.193632 
L 137.921818 194.714454 
L 137.921818 195.235276 
L 137.921818 195.756098 
L 137.921818 196.27692 
L 137.921818 196.797742 
L 137.921818 197.318564 
L 137.921818 197.839386 
L 137.921818 198.360208 
L 137.921818 198.88103 
L 137.921818 199.401852 
L 137.921818 199.922674 
L 137.921818 200.443496 
L 137.921818 200.964318 
L 137.921818 201.48514 
L 137.921818 202.005962 
L 137.921818 202.526784 
L 137.921818 203.047606 
L 137.921818 203.568428 
L 137.921818 204.08925 
L 137.921818 204.610072 
L 137.921818 205.130894 
L 137.921818 205.651716 
L 137.921818 206.172538 
L 137.921818 206.69336 
L 137.921818 207.214182 
L 137.921818 207.735004 
L 137.921818 208.255826 
L 137.921818 208.776648 
L 137.921818 209.29747 
L 137.921818 209.818292 
L 137.921818 210.339114 
L 137.921818 210.859936 
L 137.921818 211.380758 
L 137.921818 211.90158 
L 137.921818 212.422402 
L 137.921818 212.943224 
L 137.921818 213.464046 
L 137.921818 213.984868 
L 137.921818 214.50569 
L 137.921818 215.026512 
L 137.921818 215.547334 
L 137.921818 216.068156 
L 137.921818 216.588978 
L 137.921818 217.1098 
L 137.921818 217.630622 
L 137.921818 218.151444 
L 137.921818 218.672266 
L 137.921818 219.193088 
L 137.921818 219.71391 
L 137.921818 220.234732 
L 137.921818 220.755554 
L 137.921818 221.276376 
L 137.921818 221.797198 
L 137.921818 222.31802 
L 137.921818 222.838842 
L 137.921818 223.359664 
L 137.921818 223.880486 
L 137.921818 224.401308 
L 137.921818 224.92213 
L 137.921818 225.442952 
L 137.921818 225.963774 
z
" clip-path="url(#pa2dd97ab18)" style="fill: #1f77b4; fill-opacity: 0.3"/>
   </g>
   <g id="PolyCollection_2">
    <path d="M 258.190909 198.702429 
L 231.75766 198.702429 
L 231.416016 197.651448 
L 231.089619 196.600467 
L 230.778943 195.549485 
L 230.484421 194.498504 
L 230.206438 193.447522 
L 229.945333 192.396541 
L 229.701394 191.34556 
L 229.474857 190.294578 
L 229.265906 189.243597 
L 229.074675 188.192616 
L 228.901239 187.141634 
L 228.745621 186.090653 
L 228.607789 185.039671 
L 228.487656 183.98869 
L 228.38508 182.937709 
L 228.299865 181.886727 
L 228.23176 180.835746 
L 228.180463 179.784765 
L 228.145621 178.733783 
L 228.126829 177.682802 
L 228.123636 176.63182 
L 228.135544 175.580839 
L 228.162009 174.529858 
L 228.202449 173.478876 
L 228.256239 172.427895 
L 228.322721 171.376913 
L 228.401201 170.325932 
L 228.490956 169.274951 
L 228.591237 168.223969 
L 228.701271 167.172988 
L 228.820264 166.122007 
L 228.947408 165.071025 
L 229.081881 164.020044 
L 229.222854 162.969062 
L 229.369494 161.918081 
L 229.520965 160.8671 
L 229.676437 159.816118 
L 229.835087 158.765137 
L 229.996103 157.714156 
L 230.158688 156.663174 
L 230.322066 155.612193 
L 230.485483 154.561211 
L 230.648212 153.51023 
L 230.809554 152.459249 
L 230.968847 151.408267 
L 231.125464 150.357286 
L 231.278817 149.306305 
L 231.428364 148.255323 
L 231.573603 147.204342 
L 231.714084 146.15336 
L 231.849405 145.102379 
L 231.979216 144.051398 
L 232.103218 143.000416 
L 232.22117 141.949435 
L 232.332883 140.898453 
L 232.438228 139.847472 
L 232.537127 138.796491 
L 232.629564 137.745509 
L 232.715577 136.694528 
L 232.795259 135.643547 
L 232.868758 134.592565 
L 232.936279 133.541584 
L 232.998076 132.490602 
L 233.054455 131.439621 
L 233.10577 130.38864 
L 233.152422 129.337658 
L 233.194856 128.286677 
L 233.233557 127.235696 
L 233.269049 126.184714 
L 233.301891 125.133733 
L 233.332672 124.082751 
L 233.36201 123.03177 
L 233.390546 121.980789 
L 233.418944 120.929807 
L 233.447881 119.878826 
L 233.478047 118.827845 
L 233.510142 117.776863 
L 233.544868 116.725882 
L 233.582929 115.6749 
L 233.625022 114.623919 
L 233.671838 113.572938 
L 233.724055 112.521956 
L 233.782336 111.470975 
L 233.847321 110.419994 
L 233.919631 109.369012 
L 233.999856 108.318031 
L 234.088558 107.267049 
L 234.186264 106.216068 
L 234.293467 105.165087 
L 234.410619 104.114105 
L 234.538131 103.063124 
L 234.676372 102.012142 
L 234.825662 100.961161 
L 234.986279 99.91018 
L 235.158448 98.859198 
L 235.342348 97.808217 
L 235.538105 96.757236 
L 235.745798 95.706254 
L 235.965453 94.655273 
L 258.190909 94.655273 
L 258.190909 94.655273 
L 258.190909 95.706254 
L 258.190909 96.757236 
L 258.190909 97.808217 
L 258.190909 98.859198 
L 258.190909 99.91018 
L 258.190909 100.961161 
L 258.190909 102.012142 
L 258.190909 103.063124 
L 258.190909 104.114105 
L 258.190909 105.165087 
L 258.190909 106.216068 
L 258.190909 107.267049 
L 258.190909 108.318031 
L 258.190909 109.369012 
L 258.190909 110.419994 
L 258.190909 111.470975 
L 258.190909 112.521956 
L 258.190909 113.572938 
L 258.190909 114.623919 
L 258.190909 115.6749 
L 258.190909 116.725882 
L 258.190909 117.776863 
L 258.190909 118.827845 
L 258.190909 119.878826 
L 258.190909 120.929807 
L 258.190909 121.980789 
L 258.190909 123.03177 
L 258.190909 124.082751 
L 258.190909 125.133733 
L 258.190909 126.184714 
L 258.190909 127.235696 
L 258.190909 128.286677 
L 258.190909 129.337658 
L 258.190909 130.38864 
L 258.190909 131.439621 
L 258.190909 132.490602 
L 258.190909 133.541584 
L 258.190909 134.592565 
L 258.190909 135.643547 
L 258.190909 136.694528 
L 258.190909 137.745509 
L 258.190909 138.796491 
L 258.190909 139.847472 
L 258.190909 140.898453 
L 258.190909 141.949435 
L 258.190909 143.000416 
L 258.190909 144.051398 
L 258.190909 145.102379 
L 258.190909 146.15336 
L 258.190909 147.204342 
L 258.190909 148.255323 
L 258.190909 149.306305 
L 258.190909 150.357286 
L 258.190909 151.408267 
L 258.190909 152.459249 
L 258.190909 153.51023 
L 258.190909 154.561211 
L 258.190909 155.612193 
L 258.190909 156.663174 
L 258.190909 157.714156 
L 258.190909 158.765137 
L 258.190909 159.816118 
L 258.190909 160.8671 
L 258.190909 161.918081 
L 258.190909 162.969062 
L 258.190909 164.020044 
L 258.190909 165.071025 
L 258.190909 166.122007 
L 258.190909 167.172988 
L 258.190909 168.223969 
L 258.190909 169.274951 
L 258.190909 170.325932 
L 258.190909 171.376913 
L 258.190909 172.427895 
L 258.190909 173.478876 
L 258.190909 174.529858 
L 258.190909 175.580839 
L 258.190909 176.63182 
L 258.190909 177.682802 
L 258.190909 178.733783 
L 258.190909 179.784765 
L 258.190909 180.835746 
L 258.190909 181.886727 
L 258.190909 182.937709 
L 258.190909 183.98869 
L 258.190909 185.039671 
L 258.190909 186.090653 
L 258.190909 187.141634 
L 258.190909 188.192616 
L 258.190909 189.243597 
L 258.190909 190.294578 
L 258.190909 191.34556 
L 258.190909 192.396541 
L 258.190909 193.447522 
L 258.190909 194.498504 
L 258.190909 195.549485 
L 258.190909 196.600467 
L 258.190909 197.651448 
L 258.190909 198.702429 
z
" clip-path="url(#pa2dd97ab18)" style="fill: #1f77b4; fill-opacity: 0.3"/>
   </g>
   <g id="PolyCollection_3">
    <path d="M 378.46 215.567607 
L 363.60724 215.567607 
L 363.278954 214.760726 
L 362.950135 213.953845 
L 362.620647 213.146963 
L 362.290345 212.340082 
L 361.959075 211.533201 
L 361.626683 210.726319 
L 361.293014 209.919438 
L 360.957919 209.112557 
L 360.621261 208.305675 
L 360.282915 207.498794 
L 359.942777 206.691913 
L 359.600765 205.885031 
L 359.256826 205.07815 
L 358.910938 204.271269 
L 358.563117 203.464387 
L 358.213417 202.657506 
L 357.861935 201.850625 
L 357.508813 201.043743 
L 357.154244 200.236862 
L 356.79847 199.429981 
L 356.441785 198.623099 
L 356.084535 197.816218 
L 355.727123 197.009337 
L 355.370003 196.202455 
L 355.013682 195.395574 
L 354.65872 194.588693 
L 354.305726 193.781811 
L 353.955356 192.97493 
L 353.608312 192.168049 
L 353.265336 191.361167 
L 352.927207 190.554286 
L 352.594736 189.747405 
L 352.268764 188.940523 
L 351.950153 188.133642 
L 351.639779 187.326761 
L 351.338534 186.519879 
L 351.047311 185.712998 
L 350.767002 184.906117 
L 350.498492 184.099235 
L 350.24265 183.292354 
L 350.000324 182.485473 
L 349.772338 181.678591 
L 349.559479 180.87171 
L 349.362497 180.064829 
L 349.182095 179.257947 
L 349.018929 178.451066 
L 348.873598 177.644185 
L 348.746643 176.837303 
L 348.63854 176.030422 
L 348.5497 175.223541 
L 348.480466 174.416659 
L 348.431107 173.609778 
L 348.401819 172.802897 
L 348.392727 171.996015 
L 348.403879 171.189134 
L 348.43525 170.382253 
L 348.486743 169.575371 
L 348.558187 168.76849 
L 348.649345 167.961609 
L 348.759911 167.154727 
L 348.889516 166.347846 
L 349.037734 165.540965 
L 349.20408 164.734083 
L 349.38802 163.927202 
L 349.588974 163.120321 
L 349.806319 162.313439 
L 350.039398 161.506558 
L 350.287524 160.699677 
L 350.549984 159.892795 
L 350.826046 159.085914 
L 351.114965 158.279033 
L 351.415988 157.472151 
L 351.728358 156.66527 
L 352.05132 155.858389 
L 352.384126 155.051507 
L 352.726041 154.244626 
L 353.076344 153.437745 
L 353.434332 152.630863 
L 353.799326 151.823982 
L 354.170674 151.017101 
L 354.547749 150.210219 
L 354.929954 149.403338 
L 355.316727 148.596457 
L 355.707534 147.789575 
L 356.101875 146.982694 
L 356.499286 146.175813 
L 356.899332 145.368931 
L 357.301611 144.56205 
L 357.705753 143.755169 
L 358.111417 142.948287 
L 358.51829 142.141406 
L 358.926082 141.334525 
L 359.33453 140.527643 
L 359.74339 139.720762 
L 360.152436 138.913881 
L 360.561459 138.106999 
L 360.970263 137.300118 
L 361.37866 136.493237 
L 361.786473 135.686355 
L 378.46 135.686355 
L 378.46 135.686355 
L 378.46 136.493237 
L 378.46 137.300118 
L 378.46 138.106999 
L 378.46 138.913881 
L 378.46 139.720762 
L 378.46 140.527643 
L 378.46 141.334525 
L 378.46 142.141406 
L 378.46 142.948287 
L 378.46 143.755169 
L 378.46 144.56205 
L 378.46 145.368931 
L 378.46 146.175813 
L 378.46 146.982694 
L 378.46 147.789575 
L 378.46 148.596457 
L 378.46 149.403338 
L 378.46 150.210219 
L 378.46 151.017101 
L 378.46 151.823982 
L 378.46 152.630863 
L 378.46 153.437745 
L 378.46 154.244626 
L 378.46 155.051507 
L 378.46 155.858389 
L 378.46 156.66527 
L 378.46 157.472151 
L 378.46 158.279033 
L 378.46 159.085914 
L 378.46 159.892795 
L 378.46 160.699677 
L 378.46 161.506558 
L 378.46 162.313439 
L 378.46 163.120321 
L 378.46 163.927202 
L 378.46 164.734083 
L 378.46 165.540965 
L 378.46 166.347846 
L 378.46 167.154727 
L 378.46 167.961609 
L 378.46 168.76849 
L 378.46 169.575371 
L 378.46 170.382253 
L 378.46 171.189134 
L 378.46 171.996015 
L 378.46 172.802897 
L 378.46 173.609778 
L 378.46 174.416659 
L 378.46 175.223541 
L 378.46 176.030422 
L 378.46 176.837303 
L 378.46 177.644185 
L 378.46 178.451066 
L 378.46 179.257947 
L 378.46 180.064829 
L 378.46 180.87171 
L 378.46 181.678591 
L 378.46 182.485473 
L 378.46 183.292354 
L 378.46 184.099235 
L 378.46 184.906117 
L 378.46 185.712998 
L 378.46 186.519879 
L 378.46 187.326761 
L 378.46 188.133642 
L 378.46 188.940523 
L 378.46 189.747405 
L 378.46 190.554286 
L 378.46 191.361167 
L 378.46 192.168049 
L 378.46 192.97493 
L 378.46 193.781811 
L 378.46 194.588693 
L 378.46 195.395574 
L 378.46 196.202455 
L 378.46 197.009337 
L 378.46 197.816218 
L 378.46 198.623099 
L 378.46 199.429981 
L 378.46 200.236862 
L 378.46 201.043743 
L 378.46 201.850625 
L 378.46 202.657506 
L 378.46 203.464387 
L 378.46 204.271269 
L 378.46 205.07815 
L 378.46 205.885031 
L 378.46 206.691913 
L 378.46 207.498794 
L 378.46 208.305675 
L 378.46 209.112557 
L 378.46 209.919438 
L 378.46 210.726319 
L 378.46 211.533201 
L 378.46 212.340082 
L 378.46 213.146963 
L 378.46 213.953845 
L 378.46 214.760726 
L 378.46 215.567607 
z
" clip-path="url(#pa2dd97ab18)" style="fill: #1f77b4; fill-opacity: 0.3"/>
   </g>
   <g id="PolyCollection_4">
    <path d="M 498.729091 241.596571 
L 469.461788 241.596571 
L 469.255421 241.13382 
L 469.079064 240.671069 
L 468.933227 240.208318 
L 468.818325 239.745566 
L 468.73467 239.282815 
L 468.682466 238.820064 
L 468.661818 238.357313 
L 468.67272 237.894561 
L 468.715061 237.43181 
L 468.788624 236.969059 
L 468.893085 236.506308 
L 469.028017 236.043556 
L 469.192891 235.580805 
L 469.387078 235.118054 
L 469.60985 234.655303 
L 469.860389 234.192551 
L 470.137785 233.7298 
L 470.441044 233.267049 
L 470.769091 232.804298 
L 471.120777 232.341546 
L 471.494883 231.878795 
L 471.890125 231.416044 
L 472.305163 230.953293 
L 472.738606 230.490541 
L 473.189017 230.02779 
L 473.654922 229.565039 
L 474.134816 229.102288 
L 474.627169 228.639536 
L 475.130435 228.176785 
L 475.643056 227.714034 
L 476.163471 227.251283 
L 476.690123 226.788531 
L 477.221464 226.32578 
L 477.755962 225.863029 
L 478.292108 225.400278 
L 478.828422 224.937526 
L 479.363457 224.474775 
L 479.895807 224.012024 
L 480.42411 223.549273 
L 480.947055 223.086521 
L 481.463384 222.62377 
L 481.971897 222.161019 
L 482.471457 221.698268 
L 482.960994 221.235516 
L 483.439503 220.772765 
L 483.906052 220.310014 
L 484.359783 219.847262 
L 484.799912 219.384511 
L 485.22573 218.92176 
L 485.636607 218.459009 
L 486.031991 217.996257 
L 486.411408 217.533506 
L 486.774461 217.070755 
L 487.120831 216.608004 
L 487.450277 216.145252 
L 487.762631 215.682501 
L 488.057802 215.21975 
L 488.335769 214.756999 
L 488.596582 214.294247 
L 488.840361 213.831496 
L 489.067288 213.368745 
L 489.277612 212.905994 
L 489.471638 212.443242 
L 489.64973 211.980491 
L 489.812305 211.51774 
L 489.959831 211.054989 
L 490.092822 210.592237 
L 490.211835 210.129486 
L 490.317467 209.666735 
L 490.410349 209.203984 
L 490.491146 208.741232 
L 490.56055 208.278481 
L 490.619276 207.81573 
L 490.668061 207.352979 
L 490.707658 206.890227 
L 490.738831 206.427476 
L 490.762355 205.964725 
L 490.77901 205.501974 
L 490.789576 205.039222 
L 490.794832 204.576471 
L 490.795551 204.11372 
L 490.792499 203.650969 
L 490.786428 203.188217 
L 490.778076 202.725466 
L 490.768163 202.262715 
L 490.757389 201.799964 
L 490.746429 201.337212 
L 490.735936 200.874461 
L 490.726532 200.41171 
L 490.718809 199.948959 
L 490.713329 199.486207 
L 490.71062 199.023456 
L 490.711175 198.560705 
L 490.71545 198.097954 
L 490.723866 197.635202 
L 490.736804 197.172451 
L 490.754607 196.7097 
L 490.777578 196.246949 
L 490.805982 195.784197 
L 498.729091 195.784197 
L 498.729091 195.784197 
L 498.729091 196.246949 
L 498.729091 196.7097 
L 498.729091 197.172451 
L 498.729091 197.635202 
L 498.729091 198.097954 
L 498.729091 198.560705 
L 498.729091 199.023456 
L 498.729091 199.486207 
L 498.729091 199.948959 
L 498.729091 200.41171 
L 498.729091 200.874461 
L 498.729091 201.337212 
L 498.729091 201.799964 
L 498.729091 202.262715 
L 498.729091 202.725466 
L 498.729091 203.188217 
L 498.729091 203.650969 
L 498.729091 204.11372 
L 498.729091 204.576471 
L 498.729091 205.039222 
L 498.729091 205.501974 
L 498.729091 205.964725 
L 498.729091 206.427476 
L 498.729091 206.890227 
L 498.729091 207.352979 
L 498.729091 207.81573 
L 498.729091 208.278481 
L 498.729091 208.741232 
L 498.729091 209.203984 
L 498.729091 209.666735 
L 498.729091 210.129486 
L 498.729091 210.592237 
L 498.729091 211.054989 
L 498.729091 211.51774 
L 498.729091 211.980491 
L 498.729091 212.443242 
L 498.729091 212.905994 
L 498.729091 213.368745 
L 498.729091 213.831496 
L 498.729091 214.294247 
L 498.729091 214.756999 
L 498.729091 215.21975 
L 498.729091 215.682501 
L 498.729091 216.145252 
L 498.729091 216.608004 
L 498.729091 217.070755 
L 498.729091 217.533506 
L 498.729091 217.996257 
L 498.729091 218.459009 
L 498.729091 218.92176 
L 498.729091 219.384511 
L 498.729091 219.847262 
L 498.729091 220.310014 
L 498.729091 220.772765 
L 498.729091 221.235516 
L 498.729091 221.698268 
L 498.729091 222.161019 
L 498.729091 222.62377 
L 498.729091 223.086521 
L 498.729091 223.549273 
L 498.729091 224.012024 
L 498.729091 224.474775 
L 498.729091 224.937526 
L 498.729091 225.400278 
L 498.729091 225.863029 
L 498.729091 226.32578 
L 498.729091 226.788531 
L 498.729091 227.251283 
L 498.729091 227.714034 
L 498.729091 228.176785 
L 498.729091 228.639536 
L 498.729091 229.102288 
L 498.729091 229.565039 
L 498.729091 230.02779 
L 498.729091 230.490541 
L 498.729091 230.953293 
L 498.729091 231.416044 
L 498.729091 231.878795 
L 498.729091 232.341546 
L 498.729091 232.804298 
L 498.729091 233.267049 
L 498.729091 233.7298 
L 498.729091 234.192551 
L 498.729091 234.655303 
L 498.729091 235.118054 
L 498.729091 235.580805 
L 498.729091 236.043556 
L 498.729091 236.506308 
L 498.729091 236.969059 
L 498.729091 237.43181 
L 498.729091 237.894561 
L 498.729091 238.357313 
L 498.729091 238.820064 
L 498.729091 239.282815 
L 498.729091 239.745566 
L 498.729091 240.208318 
L 498.729091 240.671069 
L 498.729091 241.13382 
L 498.729091 241.596571 
z
" clip-path="url(#pa2dd97ab18)" style="fill: #1f77b4; fill-opacity: 0.3"/>
   </g>
   <g id="PolyCollection_5">
    <path d="M 618.998182 245.933344 
L 603.7909 245.933344 
L 603.331479 245.181938 
L 602.869352 244.430533 
L 602.404758 243.679128 
L 601.937947 242.927722 
L 601.469184 242.176317 
L 600.998755 241.424912 
L 600.526975 240.673507 
L 600.054185 239.922101 
L 599.580766 239.170696 
L 599.107134 238.419291 
L 598.633755 237.667886 
L 598.161139 236.91648 
L 597.689852 236.165075 
L 597.220513 235.41367 
L 596.753801 234.662265 
L 596.290456 233.910859 
L 595.831276 233.159454 
L 595.377127 232.408049 
L 594.92893 231.656643 
L 594.487673 230.905238 
L 594.054398 230.153833 
L 593.630202 229.402428 
L 593.216236 228.651022 
L 592.813694 227.899617 
L 592.423809 227.148212 
L 592.04785 226.396807 
L 591.687106 225.645401 
L 591.342886 224.893996 
L 591.016503 224.142591 
L 590.709267 223.391185 
L 590.422474 222.63978 
L 590.157394 221.888375 
L 589.91526 221.13697 
L 589.697257 220.385564 
L 589.50451 219.634159 
L 589.338071 218.882754 
L 589.198909 218.131349 
L 589.0879 217.379943 
L 589.005814 216.628538 
L 588.953307 215.877133 
L 588.930909 215.125728 
L 588.939022 214.374322 
L 588.977905 213.622917 
L 589.047675 212.871512 
L 589.148299 212.120106 
L 589.279588 211.368701 
L 589.441201 210.617296 
L 589.632641 209.865891 
L 589.853257 209.114485 
L 590.102243 208.36308 
L 590.378648 207.611675 
L 590.681379 206.86027 
L 591.009205 206.108864 
L 591.360772 205.357459 
L 591.734606 204.606054 
L 592.129127 203.854648 
L 592.542662 203.103243 
L 592.973459 202.351838 
L 593.419695 201.600433 
L 593.879499 200.849027 
L 594.35096 200.097622 
L 594.832147 199.346217 
L 595.321126 198.594812 
L 595.815969 197.843406 
L 596.314776 197.092001 
L 596.81569 196.340596 
L 597.316907 195.589191 
L 597.816695 194.837785 
L 598.313406 194.08638 
L 598.805485 193.334975 
L 599.291487 192.583569 
L 599.770082 191.832164 
L 600.240063 191.080759 
L 600.700358 190.329354 
L 601.150031 189.577948 
L 601.588287 188.826543 
L 602.014475 188.075138 
L 602.428089 187.323733 
L 602.828766 186.572327 
L 603.216282 185.820922 
L 603.590554 185.069517 
L 603.951627 184.318112 
L 604.299675 183.566706 
L 604.634985 182.815301 
L 604.957957 182.063896 
L 605.269086 181.31249 
L 605.568956 180.561085 
L 605.858229 179.80968 
L 606.137629 179.058275 
L 606.407934 178.306869 
L 606.669962 177.555464 
L 606.92456 176.804059 
L 607.172588 176.052654 
L 607.414913 175.301248 
L 607.65239 174.549843 
L 607.88586 173.798438 
L 608.116133 173.047032 
L 608.34398 172.295627 
L 608.570127 171.544222 
L 618.998182 171.544222 
L 618.998182 171.544222 
L 618.998182 172.295627 
L 618.998182 173.047032 
L 618.998182 173.798438 
L 618.998182 174.549843 
L 618.998182 175.301248 
L 618.998182 176.052654 
L 618.998182 176.804059 
L 618.998182 177.555464 
L 618.998182 178.306869 
L 618.998182 179.058275 
L 618.998182 179.80968 
L 618.998182 180.561085 
L 618.998182 181.31249 
L 618.998182 182.063896 
L 618.998182 182.815301 
L 618.998182 183.566706 
L 618.998182 184.318112 
L 618.998182 185.069517 
L 618.998182 185.820922 
L 618.998182 186.572327 
L 618.998182 187.323733 
L 618.998182 188.075138 
L 618.998182 188.826543 
L 618.998182 189.577948 
L 618.998182 190.329354 
L 618.998182 191.080759 
L 618.998182 191.832164 
L 618.998182 192.583569 
L 618.998182 193.334975 
L 618.998182 194.08638 
L 618.998182 194.837785 
L 618.998182 195.589191 
L 618.998182 196.340596 
L 618.998182 197.092001 
L 618.998182 197.843406 
L 618.998182 198.594812 
L 618.998182 199.346217 
L 618.998182 200.097622 
L 618.998182 200.849027 
L 618.998182 201.600433 
L 618.998182 202.351838 
L 618.998182 203.103243 
L 618.998182 203.854648 
L 618.998182 204.606054 
L 618.998182 205.357459 
L 618.998182 206.108864 
L 618.998182 206.86027 
L 618.998182 207.611675 
L 618.998182 208.36308 
L 618.998182 209.114485 
L 618.998182 209.865891 
L 618.998182 210.617296 
L 618.998182 211.368701 
L 618.998182 212.120106 
L 618.998182 212.871512 
L 618.998182 213.622917 
L 618.998182 214.374322 
L 618.998182 215.125728 
L 618.998182 215.877133 
L 618.998182 216.628538 
L 618.998182 217.379943 
L 618.998182 218.131349 
L 618.998182 218.882754 
L 618.998182 219.634159 
L 618.998182 220.385564 
L 618.998182 221.13697 
L 618.998182 221.888375 
L 618.998182 222.63978 
L 618.998182 223.391185 
L 618.998182 224.142591 
L 618.998182 224.893996 
L 618.998182 225.645401 
L 618.998182 226.396807 
L 618.998182 227.148212 
L 618.998182 227.899617 
L 618.998182 228.651022 
L 618.998182 229.402428 
L 618.998182 230.153833 
L 618.998182 230.905238 
L 618.998182 231.656643 
L 618.998182 232.408049 
L 618.998182 233.159454 
L 618.998182 233.910859 
L 618.998182 234.662265 
L 618.998182 235.41367 
L 618.998182 236.165075 
L 618.998182 236.91648 
L 618.998182 237.667886 
L 618.998182 238.419291 
L 618.998182 239.170696 
L 618.998182 239.922101 
L 618.998182 240.673507 
L 618.998182 241.424912 
L 618.998182 242.176317 
L 618.998182 242.927722 
L 618.998182 243.679128 
L 618.998182 244.430533 
L 618.998182 245.181938 
L 618.998182 245.933344 
z
" clip-path="url(#pa2dd97ab18)" style="fill: #1f77b4; fill-opacity: 0.3"/>
   </g>
   <g id="PolyCollection_6">
    <path d="M 151.51253 230.962682 
L 137.921818 230.962682 
L 137.921818 229.823061 
L 137.921818 228.683439 
L 137.921818 227.543817 
L 137.921818 226.404196 
L 137.921818 225.264574 
L 137.921818 224.124952 
L 137.921818 222.98533 
L 137.921818 221.845709 
L 137.921818 220.706087 
L 137.921818 219.566465 
L 137.921818 218.426844 
L 137.921818 217.287222 
L 137.921818 216.1476 
L 137.921818 215.007978 
L 137.921818 213.868357 
L 137.921818 212.728735 
L 137.921818 211.589113 
L 137.921818 210.449491 
L 137.921818 209.30987 
L 137.921818 208.170248 
L 137.921818 207.030626 
L 137.921818 205.891005 
L 137.921818 204.751383 
L 137.921818 203.611761 
L 137.921818 202.472139 
L 137.921818 201.332518 
L 137.921818 200.192896 
L 137.921818 199.053274 
L 137.921818 197.913653 
L 137.921818 196.774031 
L 137.921818 195.634409 
L 137.921818 194.494787 
L 137.921818 193.355166 
L 137.921818 192.215544 
L 137.921818 191.075922 
L 137.921818 189.936301 
L 137.921818 188.796679 
L 137.921818 187.657057 
L 137.921818 186.517435 
L 137.921818 185.377814 
L 137.921818 184.238192 
L 137.921818 183.09857 
L 137.921818 181.958948 
L 137.921818 180.819327 
L 137.921818 179.679705 
L 137.921818 178.540083 
L 137.921818 177.400462 
L 137.921818 176.26084 
L 137.921818 175.121218 
L 137.921818 173.981596 
L 137.921818 172.841975 
L 137.921818 171.702353 
L 137.921818 170.562731 
L 137.921818 169.42311 
L 137.921818 168.283488 
L 137.921818 167.143866 
L 137.921818 166.004244 
L 137.921818 164.864623 
L 137.921818 163.725001 
L 137.921818 162.585379 
L 137.921818 161.445758 
L 137.921818 160.306136 
L 137.921818 159.166514 
L 137.921818 158.026892 
L 137.921818 156.887271 
L 137.921818 155.747649 
L 137.921818 154.608027 
L 137.921818 153.468405 
L 137.921818 152.328784 
L 137.921818 151.189162 
L 137.921818 150.04954 
L 137.921818 148.909919 
L 137.921818 147.770297 
L 137.921818 146.630675 
L 137.921818 145.491053 
L 137.921818 144.351432 
L 137.921818 143.21181 
L 137.921818 142.072188 
L 137.921818 140.932567 
L 137.921818 139.792945 
L 137.921818 138.653323 
L 137.921818 137.513701 
L 137.921818 136.37408 
L 137.921818 135.234458 
L 137.921818 134.094836 
L 137.921818 132.955215 
L 137.921818 131.815593 
L 137.921818 130.675971 
L 137.921818 129.536349 
L 137.921818 128.396728 
L 137.921818 127.257106 
L 137.921818 126.117484 
L 137.921818 124.977862 
L 137.921818 123.838241 
L 137.921818 122.698619 
L 137.921818 121.558997 
L 137.921818 120.419376 
L 137.921818 119.279754 
L 137.921818 118.140132 
L 157.020998 118.140132 
L 157.020998 118.140132 
L 157.471962 119.279754 
L 157.919805 120.419376 
L 158.364064 121.558997 
L 158.804279 122.698619 
L 159.23999 123.838241 
L 159.670739 124.977862 
L 160.096067 126.117484 
L 160.515513 127.257106 
L 160.928617 128.396728 
L 161.334915 129.536349 
L 161.733939 130.675971 
L 162.125219 131.815593 
L 162.50828 132.955215 
L 162.882642 134.094836 
L 163.24782 135.234458 
L 163.603324 136.37408 
L 163.94866 137.513701 
L 164.283327 138.653323 
L 164.606823 139.792945 
L 164.91864 140.932567 
L 165.218271 142.072188 
L 165.505205 143.21181 
L 165.778934 144.351432 
L 166.038952 145.491053 
L 166.284758 146.630675 
L 166.515858 147.770297 
L 166.731768 148.909919 
L 166.932018 150.04954 
L 167.116153 151.189162 
L 167.283735 152.328784 
L 167.434353 153.468405 
L 167.567618 154.608027 
L 167.683172 155.747649 
L 167.78069 156.887271 
L 167.859882 158.026892 
L 167.920501 159.166514 
L 167.96234 160.306136 
L 167.98524 161.445758 
L 167.989091 162.585379 
L 167.973835 163.725001 
L 167.93947 164.864623 
L 167.886047 166.004244 
L 167.81368 167.143866 
L 167.722538 168.283488 
L 167.612854 169.42311 
L 167.48492 170.562731 
L 167.33909 171.702353 
L 167.175776 172.841975 
L 166.995452 173.981596 
L 166.798648 175.121218 
L 166.585947 176.26084 
L 166.357989 177.400462 
L 166.115461 178.540083 
L 165.859095 179.679705 
L 165.589666 180.819327 
L 165.307986 181.958948 
L 165.014899 183.09857 
L 164.711276 184.238192 
L 164.39801 185.377814 
L 164.076009 186.517435 
L 163.746193 187.657057 
L 163.409483 188.796679 
L 163.0668 189.936301 
L 162.719056 191.075922 
L 162.367149 192.215544 
L 162.011956 193.355166 
L 161.654329 194.494787 
L 161.295088 195.634409 
L 160.935019 196.774031 
L 160.574863 197.913653 
L 160.215318 199.053274 
L 159.857033 200.192896 
L 159.500603 201.332518 
L 159.146568 202.472139 
L 158.79541 203.611761 
L 158.447551 204.751383 
L 158.103354 205.891005 
L 157.763118 207.030626 
L 157.427084 208.170248 
L 157.095431 209.30987 
L 156.768277 210.449491 
L 156.445687 211.589113 
L 156.127668 212.728735 
L 155.814174 213.868357 
L 155.505114 215.007978 
L 155.200348 216.1476 
L 154.899698 217.287222 
L 154.602948 218.426844 
L 154.30985 219.566465 
L 154.020129 220.706087 
L 153.73349 221.845709 
L 153.449619 222.98533 
L 153.16819 224.124952 
L 152.888874 225.264574 
L 152.611336 226.404196 
L 152.335247 227.543817 
L 152.060286 228.683439 
L 151.786144 229.823061 
L 151.51253 230.962682 
z
" clip-path="url(#pa2dd97ab18)" style="fill: #ff7f0e; fill-opacity: 0.3"/>
   </g>
   <g id="PolyCollection_7">
    <path d="M 266.499753 158.097727 
L 258.190909 158.097727 
L 258.190909 157.145204 
L 258.190909 156.19268 
L 258.190909 155.240156 
L 258.190909 154.287633 
L 258.190909 153.335109 
L 258.190909 152.382586 
L 258.190909 151.430062 
L 258.190909 150.477538 
L 258.190909 149.525015 
L 258.190909 148.572491 
L 258.190909 147.619968 
L 258.190909 146.667444 
L 258.190909 145.71492 
L 258.190909 144.762397 
L 258.190909 143.809873 
L 258.190909 142.85735 
L 258.190909 141.904826 
L 258.190909 140.952303 
L 258.190909 139.999779 
L 258.190909 139.047255 
L 258.190909 138.094732 
L 258.190909 137.142208 
L 258.190909 136.189685 
L 258.190909 135.237161 
L 258.190909 134.284637 
L 258.190909 133.332114 
L 258.190909 132.37959 
L 258.190909 131.427067 
L 258.190909 130.474543 
L 258.190909 129.522019 
L 258.190909 128.569496 
L 258.190909 127.616972 
L 258.190909 126.664449 
L 258.190909 125.711925 
L 258.190909 124.759401 
L 258.190909 123.806878 
L 258.190909 122.854354 
L 258.190909 121.901831 
L 258.190909 120.949307 
L 258.190909 119.996784 
L 258.190909 119.04426 
L 258.190909 118.091736 
L 258.190909 117.139213 
L 258.190909 116.186689 
L 258.190909 115.234166 
L 258.190909 114.281642 
L 258.190909 113.329118 
L 258.190909 112.376595 
L 258.190909 111.424071 
L 258.190909 110.471548 
L 258.190909 109.519024 
L 258.190909 108.5665 
L 258.190909 107.613977 
L 258.190909 106.661453 
L 258.190909 105.70893 
L 258.190909 104.756406 
L 258.190909 103.803882 
L 258.190909 102.851359 
L 258.190909 101.898835 
L 258.190909 100.946312 
L 258.190909 99.993788 
L 258.190909 99.041265 
L 258.190909 98.088741 
L 258.190909 97.136217 
L 258.190909 96.183694 
L 258.190909 95.23117 
L 258.190909 94.278647 
L 258.190909 93.326123 
L 258.190909 92.373599 
L 258.190909 91.421076 
L 258.190909 90.468552 
L 258.190909 89.516029 
L 258.190909 88.563505 
L 258.190909 87.610981 
L 258.190909 86.658458 
L 258.190909 85.705934 
L 258.190909 84.753411 
L 258.190909 83.800887 
L 258.190909 82.848363 
L 258.190909 81.89584 
L 258.190909 80.943316 
L 258.190909 79.990793 
L 258.190909 79.038269 
L 258.190909 78.085746 
L 258.190909 77.133222 
L 258.190909 76.180698 
L 258.190909 75.228175 
L 258.190909 74.275651 
L 258.190909 73.323128 
L 258.190909 72.370604 
L 258.190909 71.41808 
L 258.190909 70.465557 
L 258.190909 69.513033 
L 258.190909 68.56051 
L 258.190909 67.607986 
L 258.190909 66.655462 
L 258.190909 65.702939 
L 258.190909 64.750415 
L 258.190909 63.797892 
L 286.82041 63.797892 
L 286.82041 63.797892 
L 287.095045 64.750415 
L 287.342017 65.702939 
L 287.560636 66.655462 
L 287.750298 67.607986 
L 287.910489 68.56051 
L 288.040792 69.513033 
L 288.140886 70.465557 
L 288.210547 71.41808 
L 288.249653 72.370604 
L 288.258182 73.323128 
L 288.236212 74.275651 
L 288.183923 75.228175 
L 288.101596 76.180698 
L 287.98961 77.133222 
L 287.848442 78.085746 
L 287.678664 79.038269 
L 287.480941 79.990793 
L 287.256028 80.943316 
L 287.004764 81.89584 
L 286.728071 82.848363 
L 286.426949 83.800887 
L 286.10247 84.753411 
L 285.755774 85.705934 
L 285.388063 86.658458 
L 285.000597 87.610981 
L 284.594685 88.563505 
L 284.171683 89.516029 
L 283.732983 90.468552 
L 283.280012 91.421076 
L 282.81422 92.373599 
L 282.337079 93.326123 
L 281.850073 94.278647 
L 281.354693 95.23117 
L 280.852428 96.183694 
L 280.344765 97.136217 
L 279.833175 98.088741 
L 279.319112 99.041265 
L 278.804007 99.993788 
L 278.289261 100.946312 
L 277.77624 101.898835 
L 277.266268 102.851359 
L 276.760629 103.803882 
L 276.260552 104.756406 
L 275.767218 105.70893 
L 275.281746 106.661453 
L 274.805198 107.613977 
L 274.338569 108.5665 
L 273.882791 109.519024 
L 273.438723 110.471548 
L 273.007155 111.424071 
L 272.588804 112.376595 
L 272.184313 113.329118 
L 271.79425 114.281642 
L 271.419107 115.234166 
L 271.059299 116.186689 
L 270.715168 117.139213 
L 270.386979 118.091736 
L 270.074921 119.04426 
L 269.779114 119.996784 
L 269.499601 120.949307 
L 269.236359 121.901831 
L 268.989294 122.854354 
L 268.758247 123.806878 
L 268.542994 124.759401 
L 268.343254 125.711925 
L 268.158683 126.664449 
L 267.988885 127.616972 
L 267.833414 128.569496 
L 267.691771 129.522019 
L 267.563417 130.474543 
L 267.447771 131.427067 
L 267.344214 132.37959 
L 267.252093 133.332114 
L 267.170729 134.284637 
L 267.099416 135.237161 
L 267.037425 136.189685 
L 266.984012 137.142208 
L 266.93842 138.094732 
L 266.899881 139.047255 
L 266.867623 139.999779 
L 266.840873 140.952303 
L 266.818859 141.904826 
L 266.800814 142.85735 
L 266.785984 143.809873 
L 266.773626 144.762397 
L 266.763012 145.71492 
L 266.753435 146.667444 
L 266.74421 147.619968 
L 266.734677 148.572491 
L 266.724205 149.525015 
L 266.71219 150.477538 
L 266.698064 151.430062 
L 266.68129 152.382586 
L 266.661369 153.335109 
L 266.637839 154.287633 
L 266.610275 155.240156 
L 266.578295 156.19268 
L 266.541555 157.145204 
L 266.499753 158.097727 
z
" clip-path="url(#pa2dd97ab18)" style="fill: #ff7f0e; fill-opacity: 0.3"/>
   </g>
   <g id="PolyCollection_8">
    <path d="M 390.456211 179.248054 
L 378.46 179.248054 
L 378.46 178.597868 
L 378.46 177.947681 
L 378.46 177.297494 
L 378.46 176.647308 
L 378.46 175.997121 
L 378.46 175.346935 
L 378.46 174.696748 
L 378.46 174.046561 
L 378.46 173.396375 
L 378.46 172.746188 
L 378.46 172.096002 
L 378.46 171.445815 
L 378.46 170.795628 
L 378.46 170.145442 
L 378.46 169.495255 
L 378.46 168.845068 
L 378.46 168.194882 
L 378.46 167.544695 
L 378.46 166.894509 
L 378.46 166.244322 
L 378.46 165.594135 
L 378.46 164.943949 
L 378.46 164.293762 
L 378.46 163.643575 
L 378.46 162.993389 
L 378.46 162.343202 
L 378.46 161.693016 
L 378.46 161.042829 
L 378.46 160.392642 
L 378.46 159.742456 
L 378.46 159.092269 
L 378.46 158.442083 
L 378.46 157.791896 
L 378.46 157.141709 
L 378.46 156.491523 
L 378.46 155.841336 
L 378.46 155.191149 
L 378.46 154.540963 
L 378.46 153.890776 
L 378.46 153.24059 
L 378.46 152.590403 
L 378.46 151.940216 
L 378.46 151.29003 
L 378.46 150.639843 
L 378.46 149.989656 
L 378.46 149.33947 
L 378.46 148.689283 
L 378.46 148.039097 
L 378.46 147.38891 
L 378.46 146.738723 
L 378.46 146.088537 
L 378.46 145.43835 
L 378.46 144.788164 
L 378.46 144.137977 
L 378.46 143.48779 
L 378.46 142.837604 
L 378.46 142.187417 
L 378.46 141.53723 
L 378.46 140.887044 
L 378.46 140.236857 
L 378.46 139.586671 
L 378.46 138.936484 
L 378.46 138.286297 
L 378.46 137.636111 
L 378.46 136.985924 
L 378.46 136.335737 
L 378.46 135.685551 
L 378.46 135.035364 
L 378.46 134.385178 
L 378.46 133.734991 
L 378.46 133.084804 
L 378.46 132.434618 
L 378.46 131.784431 
L 378.46 131.134245 
L 378.46 130.484058 
L 378.46 129.833871 
L 378.46 129.183685 
L 378.46 128.533498 
L 378.46 127.883311 
L 378.46 127.233125 
L 378.46 126.582938 
L 378.46 125.932752 
L 378.46 125.282565 
L 378.46 124.632378 
L 378.46 123.982192 
L 378.46 123.332005 
L 378.46 122.681818 
L 378.46 122.031632 
L 378.46 121.381445 
L 378.46 120.731259 
L 378.46 120.081072 
L 378.46 119.430885 
L 378.46 118.780699 
L 378.46 118.130512 
L 378.46 117.480326 
L 378.46 116.830139 
L 378.46 116.179952 
L 378.46 115.529766 
L 378.46 114.879579 
L 406.948536 114.879579 
L 406.948536 114.879579 
L 407.203746 115.529766 
L 407.43697 116.179952 
L 407.647902 116.830139 
L 407.836306 117.480326 
L 408.002015 118.130512 
L 408.144933 118.780699 
L 408.265037 119.430885 
L 408.362369 120.081072 
L 408.437045 120.731259 
L 408.489245 121.381445 
L 408.519217 122.031632 
L 408.527273 122.681818 
L 408.513787 123.332005 
L 408.479192 123.982192 
L 408.423979 124.632378 
L 408.348692 125.282565 
L 408.253925 125.932752 
L 408.14032 126.582938 
L 408.008561 127.233125 
L 407.859373 127.883311 
L 407.693516 128.533498 
L 407.511781 129.183685 
L 407.314987 129.833871 
L 407.103976 130.484058 
L 406.879612 131.134245 
L 406.642771 131.784431 
L 406.394341 132.434618 
L 406.135218 133.084804 
L 405.866301 133.734991 
L 405.588488 134.385178 
L 405.302674 135.035364 
L 405.009745 135.685551 
L 404.710577 136.335737 
L 404.406031 136.985924 
L 404.096952 137.636111 
L 403.784165 138.286297 
L 403.468471 138.936484 
L 403.150647 139.586671 
L 402.831444 140.236857 
L 402.511581 140.887044 
L 402.19175 141.53723 
L 401.872608 142.187417 
L 401.554779 142.837604 
L 401.238854 143.48779 
L 400.925385 144.137977 
L 400.614891 144.788164 
L 400.307852 145.43835 
L 400.004711 146.088537 
L 399.705874 146.738723 
L 399.41171 147.38891 
L 399.122549 148.039097 
L 398.838684 148.689283 
L 398.560373 149.33947 
L 398.287836 149.989656 
L 398.021257 150.639843 
L 397.760786 151.29003 
L 397.506537 151.940216 
L 397.258591 152.590403 
L 397.016998 153.24059 
L 396.781773 153.890776 
L 396.552904 154.540963 
L 396.330348 155.191149 
L 396.114032 155.841336 
L 395.903857 156.491523 
L 395.6997 157.141709 
L 395.50141 157.791896 
L 395.308815 158.442083 
L 395.121719 159.092269 
L 394.939908 159.742456 
L 394.763147 160.392642 
L 394.591183 161.042829 
L 394.423747 161.693016 
L 394.260556 162.343202 
L 394.101314 162.993389 
L 393.945712 163.643575 
L 393.793432 164.293762 
L 393.644146 164.943949 
L 393.497521 165.594135 
L 393.353219 166.244322 
L 393.210896 166.894509 
L 393.070208 167.544695 
L 392.930811 168.194882 
L 392.792362 168.845068 
L 392.65452 169.495255 
L 392.51695 170.145442 
L 392.379324 170.795628 
L 392.24132 171.445815 
L 392.102628 172.096002 
L 391.962946 172.746188 
L 391.821986 173.396375 
L 391.679476 174.046561 
L 391.535154 174.696748 
L 391.388781 175.346935 
L 391.24013 175.997121 
L 391.088995 176.647308 
L 390.935191 177.297494 
L 390.778552 177.947681 
L 390.618932 178.597868 
L 390.456211 179.248054 
z
" clip-path="url(#pa2dd97ab18)" style="fill: #ff7f0e; fill-opacity: 0.3"/>
   </g>
   <g id="PolyCollection_9">
    <path d="M 522.743211 261.434494 
L 498.729091 261.434494 
L 498.729091 260.521115 
L 498.729091 259.607736 
L 498.729091 258.694356 
L 498.729091 257.780977 
L 498.729091 256.867598 
L 498.729091 255.954219 
L 498.729091 255.040839 
L 498.729091 254.12746 
L 498.729091 253.214081 
L 498.729091 252.300702 
L 498.729091 251.387322 
L 498.729091 250.473943 
L 498.729091 249.560564 
L 498.729091 248.647184 
L 498.729091 247.733805 
L 498.729091 246.820426 
L 498.729091 245.907047 
L 498.729091 244.993667 
L 498.729091 244.080288 
L 498.729091 243.166909 
L 498.729091 242.25353 
L 498.729091 241.34015 
L 498.729091 240.426771 
L 498.729091 239.513392 
L 498.729091 238.600012 
L 498.729091 237.686633 
L 498.729091 236.773254 
L 498.729091 235.859875 
L 498.729091 234.946495 
L 498.729091 234.033116 
L 498.729091 233.119737 
L 498.729091 232.206358 
L 498.729091 231.292978 
L 498.729091 230.379599 
L 498.729091 229.46622 
L 498.729091 228.55284 
L 498.729091 227.639461 
L 498.729091 226.726082 
L 498.729091 225.812703 
L 498.729091 224.899323 
L 498.729091 223.985944 
L 498.729091 223.072565 
L 498.729091 222.159186 
L 498.729091 221.245806 
L 498.729091 220.332427 
L 498.729091 219.419048 
L 498.729091 218.505668 
L 498.729091 217.592289 
L 498.729091 216.67891 
L 498.729091 215.765531 
L 498.729091 214.852151 
L 498.729091 213.938772 
L 498.729091 213.025393 
L 498.729091 212.112014 
L 498.729091 211.198634 
L 498.729091 210.285255 
L 498.729091 209.371876 
L 498.729091 208.458496 
L 498.729091 207.545117 
L 498.729091 206.631738 
L 498.729091 205.718359 
L 498.729091 204.804979 
L 498.729091 203.8916 
L 498.729091 202.978221 
L 498.729091 202.064842 
L 498.729091 201.151462 
L 498.729091 200.238083 
L 498.729091 199.324704 
L 498.729091 198.411324 
L 498.729091 197.497945 
L 498.729091 196.584566 
L 498.729091 195.671187 
L 498.729091 194.757807 
L 498.729091 193.844428 
L 498.729091 192.931049 
L 498.729091 192.01767 
L 498.729091 191.10429 
L 498.729091 190.190911 
L 498.729091 189.277532 
L 498.729091 188.364152 
L 498.729091 187.450773 
L 498.729091 186.537394 
L 498.729091 185.624015 
L 498.729091 184.710635 
L 498.729091 183.797256 
L 498.729091 182.883877 
L 498.729091 181.970498 
L 498.729091 181.057118 
L 498.729091 180.143739 
L 498.729091 179.23036 
L 498.729091 178.31698 
L 498.729091 177.403601 
L 498.729091 176.490222 
L 498.729091 175.576843 
L 498.729091 174.663463 
L 498.729091 173.750084 
L 498.729091 172.836705 
L 498.729091 171.923326 
L 498.729091 171.009946 
L 513.358034 171.009946 
L 513.358034 171.009946 
L 513.640638 171.923326 
L 513.9231 172.836705 
L 514.205543 173.750084 
L 514.488098 174.663463 
L 514.770903 175.576843 
L 515.054095 176.490222 
L 515.337816 177.403601 
L 515.622202 178.31698 
L 515.907386 179.23036 
L 516.193492 180.143739 
L 516.480631 181.057118 
L 516.768904 181.970498 
L 517.058393 182.883877 
L 517.349162 183.797256 
L 517.641255 184.710635 
L 517.93469 185.624015 
L 518.229463 186.537394 
L 518.525544 187.450773 
L 518.822871 188.364152 
L 519.121357 189.277532 
L 519.420883 190.190911 
L 519.721303 191.10429 
L 520.022438 192.01767 
L 520.32408 192.931049 
L 520.625992 193.844428 
L 520.927908 194.757807 
L 521.229537 195.671187 
L 521.530561 196.584566 
L 521.830636 197.497945 
L 522.129401 198.411324 
L 522.42647 199.324704 
L 522.721446 200.238083 
L 523.013912 201.151462 
L 523.303443 202.064842 
L 523.589603 202.978221 
L 523.871953 203.8916 
L 524.150048 204.804979 
L 524.423445 205.718359 
L 524.691704 206.631738 
L 524.95439 207.545117 
L 525.211077 208.458496 
L 525.461349 209.371876 
L 525.704805 210.285255 
L 525.941059 211.198634 
L 526.169741 212.112014 
L 526.390502 213.025393 
L 526.603012 213.938772 
L 526.806961 214.852151 
L 527.002065 215.765531 
L 527.188058 216.67891 
L 527.364699 217.592289 
L 527.531769 218.505668 
L 527.689071 219.419048 
L 527.836427 220.332427 
L 527.973683 221.245806 
L 528.1007 222.159186 
L 528.217357 223.072565 
L 528.323551 223.985944 
L 528.41919 224.899323 
L 528.504195 225.812703 
L 528.578497 226.726082 
L 528.642034 227.639461 
L 528.694749 228.55284 
L 528.736591 229.46622 
L 528.767509 230.379599 
L 528.787451 231.292978 
L 528.796364 232.206358 
L 528.794191 233.119737 
L 528.780872 234.033116 
L 528.756337 234.946495 
L 528.720513 235.859875 
L 528.673318 236.773254 
L 528.614661 237.686633 
L 528.544445 238.600012 
L 528.462564 239.513392 
L 528.368906 240.426771 
L 528.263352 241.34015 
L 528.14578 242.25353 
L 528.016062 243.166909 
L 527.87407 244.080288 
L 527.719677 244.993667 
L 527.552756 245.907047 
L 527.373188 246.820426 
L 527.180859 247.733805 
L 526.975668 248.647184 
L 526.757524 249.560564 
L 526.526354 250.473943 
L 526.282103 251.387322 
L 526.024738 252.300702 
L 525.754251 253.214081 
L 525.47066 254.12746 
L 525.174013 255.040839 
L 524.864391 255.954219 
L 524.541907 256.867598 
L 524.206714 257.780977 
L 523.858999 258.694356 
L 523.498991 259.607736 
L 523.126959 260.521115 
L 522.743211 261.434494 
z
" clip-path="url(#pa2dd97ab18)" style="fill: #ff7f0e; fill-opacity: 0.3"/>
   </g>
   <g id="PolyCollection_10">
    <path d="M 647.686988 130.294437 
L 618.998182 130.294437 
L 618.998182 128.712801 
L 618.998182 127.131166 
L 618.998182 125.54953 
L 618.998182 123.967895 
L 618.998182 122.386259 
L 618.998182 120.804624 
L 618.998182 119.222989 
L 618.998182 117.641353 
L 618.998182 116.059718 
L 618.998182 114.478082 
L 618.998182 112.896447 
L 618.998182 111.314811 
L 618.998182 109.733176 
L 618.998182 108.15154 
L 618.998182 106.569905 
L 618.998182 104.988269 
L 618.998182 103.406634 
L 618.998182 101.824998 
L 618.998182 100.243363 
L 618.998182 98.661728 
L 618.998182 97.080092 
L 618.998182 95.498457 
L 618.998182 93.916821 
L 618.998182 92.335186 
L 618.998182 90.75355 
L 618.998182 89.171915 
L 618.998182 87.590279 
L 618.998182 86.008644 
L 618.998182 84.427008 
L 618.998182 82.845373 
L 618.998182 81.263737 
L 618.998182 79.682102 
L 618.998182 78.100467 
L 618.998182 76.518831 
L 618.998182 74.937196 
L 618.998182 73.35556 
L 618.998182 71.773925 
L 618.998182 70.192289 
L 618.998182 68.610654 
L 618.998182 67.029018 
L 618.998182 65.447383 
L 618.998182 63.865747 
L 618.998182 62.284112 
L 618.998182 60.702476 
L 618.998182 59.120841 
L 618.998182 57.539205 
L 618.998182 55.95757 
L 618.998182 54.375935 
L 618.998182 52.794299 
L 618.998182 51.212664 
L 618.998182 49.631028 
L 618.998182 48.049393 
L 618.998182 46.467757 
L 618.998182 44.886122 
L 618.998182 43.304486 
L 618.998182 41.722851 
L 618.998182 40.141215 
L 618.998182 38.55958 
L 618.998182 36.977944 
L 618.998182 35.396309 
L 618.998182 33.814674 
L 618.998182 32.233038 
L 618.998182 30.651403 
L 618.998182 29.069767 
L 618.998182 27.488132 
L 618.998182 25.906496 
L 618.998182 24.324861 
L 618.998182 22.743225 
L 618.998182 21.16159 
L 618.998182 19.579954 
L 618.998182 17.998319 
L 618.998182 16.416683 
L 618.998182 14.835048 
L 618.998182 13.253413 
L 618.998182 11.671777 
L 618.998182 10.090142 
L 618.998182 8.508506 
L 618.998182 6.926871 
L 618.998182 5.345235 
L 618.998182 3.7636 
L 618.998182 2.181964 
L 618.998182 0.600329 
L 618.998182 -0.981307 
L 618.998182 -2.562942 
L 618.998182 -4.144578 
L 618.998182 -5.726213 
L 618.998182 -7.307848 
L 618.998182 -8.889484 
L 618.998182 -10.471119 
L 618.998182 -12.052755 
L 618.998182 -13.63439 
L 618.998182 -15.216026 
L 618.998182 -16.797661 
L 618.998182 -18.379297 
L 618.998182 -19.960932 
L 618.998182 -21.542568 
L 618.998182 -23.124203 
L 618.998182 -24.705839 
L 618.998182 -26.287474 
L 631.514195 -26.287474 
L 631.514195 -26.287474 
L 631.688628 -24.705839 
L 631.859809 -23.124203 
L 632.027818 -21.542568 
L 632.192755 -19.960932 
L 632.354739 -18.379297 
L 632.51391 -16.797661 
L 632.670426 -15.216026 
L 632.824465 -13.63439 
L 632.976219 -12.052755 
L 633.125901 -10.471119 
L 633.273737 -8.889484 
L 633.419967 -7.307848 
L 633.564847 -5.726213 
L 633.708642 -4.144578 
L 633.851632 -2.562942 
L 633.994103 -0.981307 
L 634.136353 0.600329 
L 634.278684 2.181964 
L 634.421406 3.7636 
L 634.564833 5.345235 
L 634.709283 6.926871 
L 634.855073 8.508506 
L 635.002522 10.090142 
L 635.151948 11.671777 
L 635.303665 13.253413 
L 635.457983 14.835048 
L 635.615207 16.416683 
L 635.775635 17.998319 
L 635.939554 19.579954 
L 636.107243 21.16159 
L 636.278967 22.743225 
L 636.454981 24.324861 
L 636.635523 25.906496 
L 636.820814 27.488132 
L 637.011059 29.069767 
L 637.206444 30.651403 
L 637.407132 32.233038 
L 637.613267 33.814674 
L 637.824966 35.396309 
L 638.042325 36.977944 
L 638.265412 38.55958 
L 638.494265 40.141215 
L 638.728898 41.722851 
L 638.96929 43.304486 
L 639.215393 44.886122 
L 639.467123 46.467757 
L 639.724365 48.049393 
L 639.986969 49.631028 
L 640.254749 51.212664 
L 640.527483 52.794299 
L 640.804914 54.375935 
L 641.086746 55.95757 
L 641.372646 57.539205 
L 641.662244 59.120841 
L 641.95513 60.702476 
L 642.250858 62.284112 
L 642.548944 63.865747 
L 642.848867 65.447383 
L 643.15007 67.029018 
L 643.451959 68.610654 
L 643.753908 70.192289 
L 644.055255 71.773925 
L 644.355308 73.35556 
L 644.653346 74.937196 
L 644.948617 76.518831 
L 645.240345 78.100467 
L 645.527732 79.682102 
L 645.809958 81.263737 
L 646.086184 82.845373 
L 646.355557 84.427008 
L 646.617213 86.008644 
L 646.870279 87.590279 
L 647.113878 89.171915 
L 647.34713 90.75355 
L 647.569159 92.335186 
L 647.779097 93.916821 
L 647.976084 95.498457 
L 648.159276 97.080092 
L 648.327849 98.661728 
L 648.481 100.243363 
L 648.617954 101.824998 
L 648.737966 103.406634 
L 648.840326 104.988269 
L 648.924365 106.569905 
L 648.989454 108.15154 
L 649.035012 109.733176 
L 649.060505 111.314811 
L 649.065455 112.896447 
L 649.049436 114.478082 
L 649.012083 116.059718 
L 648.953091 117.641353 
L 648.872219 119.222989 
L 648.769287 120.804624 
L 648.644186 122.386259 
L 648.496871 123.967895 
L 648.327367 125.54953 
L 648.135766 127.131166 
L 647.92223 128.712801 
L 647.686988 130.294437 
z
" clip-path="url(#pa2dd97ab18)" style="fill: #ff7f0e; fill-opacity: 0.3"/>
   </g>
   <g id="matplotlib.axis_1">
    <g id="xtick_1">
     <g id="line2d_1">
      <defs>
       <path id="meaeeaa399c" d="M 0 0 
L 0 3.5 
" style="stroke: #000000; stroke-width: 0.8"/>
      </defs>
      <g>
       <use xlink:href="#meaeeaa399c" x="137.921818" y="333.552968" style="stroke: #000000; stroke-width: 0.8"/>
      </g>
     </g>
     <g id="text_1">
      <!-- amputate_L3 -->
      <g transform="translate(116.515265 392.194965) rotate(-45) scale(0.1 -0.1)">
       <defs>
        <path id="DejaVuSans-61" d="M 2194 1759 
Q 1497 1759 1228 1600 
Q 959 1441 959 1056 
Q 959 750 1161 570 
Q 1363 391 1709 391 
Q 2188 391 2477 730 
Q 2766 1069 2766 1631 
L 2766 1759 
L 2194 1759 
z
M 3341 1997 
L 3341 0 
L 2766 0 
L 2766 531 
Q 2569 213 2275 61 
Q 1981 -91 1556 -91 
Q 1019 -91 701 211 
Q 384 513 384 1019 
Q 384 1609 779 1909 
Q 1175 2209 1959 2209 
L 2766 2209 
L 2766 2266 
Q 2766 2663 2505 2880 
Q 2244 3097 1772 3097 
Q 1472 3097 1187 3025 
Q 903 2953 641 2809 
L 641 3341 
Q 956 3463 1253 3523 
Q 1550 3584 1831 3584 
Q 2591 3584 2966 3190 
Q 3341 2797 3341 1997 
z
" transform="scale(0.015625)"/>
        <path id="DejaVuSans-6d" d="M 3328 2828 
Q 3544 3216 3844 3400 
Q 4144 3584 4550 3584 
Q 5097 3584 5394 3201 
Q 5691 2819 5691 2113 
L 5691 0 
L 5113 0 
L 5113 2094 
Q 5113 2597 4934 2840 
Q 4756 3084 4391 3084 
Q 3944 3084 3684 2787 
Q 3425 2491 3425 1978 
L 3425 0 
L 2847 0 
L 2847 2094 
Q 2847 2600 2669 2842 
Q 2491 3084 2119 3084 
Q 1678 3084 1418 2786 
Q 1159 2488 1159 1978 
L 1159 0 
L 581 0 
L 581 3500 
L 1159 3500 
L 1159 2956 
Q 1356 3278 1631 3431 
Q 1906 3584 2284 3584 
Q 2666 3584 2933 3390 
Q 3200 3197 3328 2828 
z
" transform="scale(0.015625)"/>
        <path id="DejaVuSans-70" d="M 1159 525 
L 1159 -1331 
L 581 -1331 
L 581 3500 
L 1159 3500 
L 1159 2969 
Q 1341 3281 1617 3432 
Q 1894 3584 2278 3584 
Q 2916 3584 3314 3078 
Q 3713 2572 3713 1747 
Q 3713 922 3314 415 
Q 2916 -91 2278 -91 
Q 1894 -91 1617 61 
Q 1341 213 1159 525 
z
M 3116 1747 
Q 3116 2381 2855 2742 
Q 2594 3103 2138 3103 
Q 1681 3103 1420 2742 
Q 1159 2381 1159 1747 
Q 1159 1113 1420 752 
Q 1681 391 2138 391 
Q 2594 391 2855 752 
Q 3116 1113 3116 1747 
z
" transform="scale(0.015625)"/>
        <path id="DejaVuSans-75" d="M 544 1381 
L 544 3500 
L 1119 3500 
L 1119 1403 
Q 1119 906 1312 657 
Q 1506 409 1894 409 
Q 2359 409 2629 706 
Q 2900 1003 2900 1516 
L 2900 3500 
L 3475 3500 
L 3475 0 
L 2900 0 
L 2900 538 
Q 2691 219 2414 64 
Q 2138 -91 1772 -91 
Q 1169 -91 856 284 
Q 544 659 544 1381 
z
M 1991 3584 
L 1991 3584 
z
" transform="scale(0.015625)"/>
        <path id="DejaVuSans-74" d="M 1172 4494 
L 1172 3500 
L 2356 3500 
L 2356 3053 
L 1172 3053 
L 1172 1153 
Q 1172 725 1289 603 
Q 1406 481 1766 481 
L 2356 481 
L 2356 0 
L 1766 0 
Q 1100 0 847 248 
Q 594 497 594 1153 
L 594 3053 
L 172 3053 
L 172 3500 
L 594 3500 
L 594 4494 
L 1172 4494 
z
" transform="scale(0.015625)"/>
        <path id="DejaVuSans-65" d="M 3597 1894 
L 3597 1613 
L 953 1613 
Q 991 1019 1311 708 
Q 1631 397 2203 397 
Q 2534 397 2845 478 
Q 3156 559 3463 722 
L 3463 178 
Q 3153 47 2828 -22 
Q 2503 -91 2169 -91 
Q 1331 -91 842 396 
Q 353 884 353 1716 
Q 353 2575 817 3079 
Q 1281 3584 2069 3584 
Q 2775 3584 3186 3129 
Q 3597 2675 3597 1894 
z
M 3022 2063 
Q 3016 2534 2758 2815 
Q 2500 3097 2075 3097 
Q 1594 3097 1305 2825 
Q 1016 2553 972 2059 
L 3022 2063 
z
" transform="scale(0.015625)"/>
        <path id="DejaVuSans-5f" d="M 3263 -1063 
L 3263 -1509 
L -63 -1509 
L -63 -1063 
L 3263 -1063 
z
" transform="scale(0.015625)"/>
        <path id="DejaVuSans-4c" d="M 628 4666 
L 1259 4666 
L 1259 531 
L 3531 531 
L 3531 0 
L 628 0 
L 628 4666 
z
" transform="scale(0.015625)"/>
        <path id="DejaVuSans-33" d="M 2597 2516 
Q 3050 2419 3304 2112 
Q 3559 1806 3559 1356 
Q 3559 666 3084 287 
Q 2609 -91 1734 -91 
Q 1441 -91 1130 -33 
Q 819 25 488 141 
L 488 750 
Q 750 597 1062 519 
Q 1375 441 1716 441 
Q 2309 441 2620 675 
Q 2931 909 2931 1356 
Q 2931 1769 2642 2001 
Q 2353 2234 1838 2234 
L 1294 2234 
L 1294 2753 
L 1863 2753 
Q 2328 2753 2575 2939 
Q 2822 3125 2822 3475 
Q 2822 3834 2567 4026 
Q 2313 4219 1838 4219 
Q 1578 4219 1281 4162 
Q 984 4106 628 3988 
L 628 4550 
Q 988 4650 1302 4700 
Q 1616 4750 1894 4750 
Q 2613 4750 3031 4423 
Q 3450 4097 3450 3541 
Q 3450 3153 3228 2886 
Q 3006 2619 2597 2516 
z
" transform="scale(0.015625)"/>
       </defs>
       <use xlink:href="#DejaVuSans-61"/>
       <use xlink:href="#DejaVuSans-6d" x="61.279297"/>
       <use xlink:href="#DejaVuSans-70" x="158.691406"/>
       <use xlink:href="#DejaVuSans-75" x="222.167969"/>
       <use xlink:href="#DejaVuSans-74" x="285.546875"/>
       <use xlink:href="#DejaVuSans-61" x="324.755859"/>
       <use xlink:href="#DejaVuSans-74" x="386.035156"/>
       <use xlink:href="#DejaVuSans-65" x="425.244141"/>
       <use xlink:href="#DejaVuSans-5f" x="486.767578"/>
       <use xlink:href="#DejaVuSans-4c" x="536.767578"/>
       <use xlink:href="#DejaVuSans-33" x="592.480469"/>
      </g>
     </g>
    </g>
    <g id="xtick_2">
     <g id="line2d_2">
      <g>
       <use xlink:href="#meaeeaa399c" x="258.190909" y="333.552968" style="stroke: #000000; stroke-width: 0.8"/>
      </g>
     </g>
     <g id="text_2">
      <!-- amputate_R2 -->
      <g transform="translate(236.297668 393.168341) rotate(-45) scale(0.1 -0.1)">
       <defs>
        <path id="DejaVuSans-52" d="M 2841 2188 
Q 3044 2119 3236 1894 
Q 3428 1669 3622 1275 
L 4263 0 
L 3584 0 
L 2988 1197 
Q 2756 1666 2539 1819 
Q 2322 1972 1947 1972 
L 1259 1972 
L 1259 0 
L 628 0 
L 628 4666 
L 2053 4666 
Q 2853 4666 3247 4331 
Q 3641 3997 3641 3322 
Q 3641 2881 3436 2590 
Q 3231 2300 2841 2188 
z
M 1259 4147 
L 1259 2491 
L 2053 2491 
Q 2509 2491 2742 2702 
Q 2975 2913 2975 3322 
Q 2975 3731 2742 3939 
Q 2509 4147 2053 4147 
L 1259 4147 
z
" transform="scale(0.015625)"/>
        <path id="DejaVuSans-32" d="M 1228 531 
L 3431 531 
L 3431 0 
L 469 0 
L 469 531 
Q 828 903 1448 1529 
Q 2069 2156 2228 2338 
Q 2531 2678 2651 2914 
Q 2772 3150 2772 3378 
Q 2772 3750 2511 3984 
Q 2250 4219 1831 4219 
Q 1534 4219 1204 4116 
Q 875 4013 500 3803 
L 500 4441 
Q 881 4594 1212 4672 
Q 1544 4750 1819 4750 
Q 2544 4750 2975 4387 
Q 3406 4025 3406 3419 
Q 3406 3131 3298 2873 
Q 3191 2616 2906 2266 
Q 2828 2175 2409 1742 
Q 1991 1309 1228 531 
z
" transform="scale(0.015625)"/>
       </defs>
       <use xlink:href="#DejaVuSans-61"/>
       <use xlink:href="#DejaVuSans-6d" x="61.279297"/>
       <use xlink:href="#DejaVuSans-70" x="158.691406"/>
       <use xlink:href="#DejaVuSans-75" x="222.167969"/>
       <use xlink:href="#DejaVuSans-74" x="285.546875"/>
       <use xlink:href="#DejaVuSans-61" x="324.755859"/>
       <use xlink:href="#DejaVuSans-74" x="386.035156"/>
       <use xlink:href="#DejaVuSans-65" x="425.244141"/>
       <use xlink:href="#DejaVuSans-5f" x="486.767578"/>
       <use xlink:href="#DejaVuSans-52" x="536.767578"/>
       <use xlink:href="#DejaVuSans-32" x="606.25"/>
      </g>
     </g>
    </g>
    <g id="xtick_3">
     <g id="line2d_3">
      <g>
       <use xlink:href="#meaeeaa399c" x="378.46" y="333.552968" style="stroke: #000000; stroke-width: 0.8"/>
      </g>
     </g>
     <g id="text_3">
      <!-- terrain -->
      <g transform="translate(368.615195 369.517829) rotate(-45) scale(0.1 -0.1)">
       <defs>
        <path id="DejaVuSans-72" d="M 2631 2963 
Q 2534 3019 2420 3045 
Q 2306 3072 2169 3072 
Q 1681 3072 1420 2755 
Q 1159 2438 1159 1844 
L 1159 0 
L 581 0 
L 581 3500 
L 1159 3500 
L 1159 2956 
Q 1341 3275 1631 3429 
Q 1922 3584 2338 3584 
Q 2397 3584 2469 3576 
Q 2541 3569 2628 3553 
L 2631 2963 
z
" transform="scale(0.015625)"/>
        <path id="DejaVuSans-69" d="M 603 3500 
L 1178 3500 
L 1178 0 
L 603 0 
L 603 3500 
z
M 603 4863 
L 1178 4863 
L 1178 4134 
L 603 4134 
L 603 4863 
z
" transform="scale(0.015625)"/>
        <path id="DejaVuSans-6e" d="M 3513 2113 
L 3513 0 
L 2938 0 
L 2938 2094 
Q 2938 2591 2744 2837 
Q 2550 3084 2163 3084 
Q 1697 3084 1428 2787 
Q 1159 2491 1159 1978 
L 1159 0 
L 581 0 
L 581 3500 
L 1159 3500 
L 1159 2956 
Q 1366 3272 1645 3428 
Q 1925 3584 2291 3584 
Q 2894 3584 3203 3211 
Q 3513 2838 3513 2113 
z
" transform="scale(0.015625)"/>
       </defs>
       <use xlink:href="#DejaVuSans-74"/>
       <use xlink:href="#DejaVuSans-65" x="39.208984"/>
       <use xlink:href="#DejaVuSans-72" x="100.732422"/>
       <use xlink:href="#DejaVuSans-72" x="140.095703"/>
       <use xlink:href="#DejaVuSans-61" x="181.208984"/>
       <use xlink:href="#DejaVuSans-69" x="242.488281"/>
       <use xlink:href="#DejaVuSans-6e" x="270.271484"/>
      </g>
     </g>
    </g>
    <g id="xtick_4">
     <g id="line2d_4">
      <g>
       <use xlink:href="#meaeeaa399c" x="498.729091" y="333.552968" style="stroke: #000000; stroke-width: 0.8"/>
      </g>
     </g>
     <g id="text_4">
      <!-- amputate_R2_L2 -->
      <g transform="translate(470.848644 405.142753) rotate(-45) scale(0.1 -0.1)">
       <use xlink:href="#DejaVuSans-61"/>
       <use xlink:href="#DejaVuSans-6d" x="61.279297"/>
       <use xlink:href="#DejaVuSans-70" x="158.691406"/>
       <use xlink:href="#DejaVuSans-75" x="222.167969"/>
       <use xlink:href="#DejaVuSans-74" x="285.546875"/>
       <use xlink:href="#DejaVuSans-61" x="324.755859"/>
       <use xlink:href="#DejaVuSans-74" x="386.035156"/>
       <use xlink:href="#DejaVuSans-65" x="425.244141"/>
       <use xlink:href="#DejaVuSans-5f" x="486.767578"/>
       <use xlink:href="#DejaVuSans-52" x="536.767578"/>
       <use xlink:href="#DejaVuSans-32" x="606.25"/>
       <use xlink:href="#DejaVuSans-5f" x="669.873047"/>
       <use xlink:href="#DejaVuSans-4c" x="719.873047"/>
       <use xlink:href="#DejaVuSans-32" x="775.585938"/>
      </g>
     </g>
    </g>
    <g id="xtick_5">
     <g id="line2d_5">
      <g>
       <use xlink:href="#meaeeaa399c" x="618.998182" y="333.552968" style="stroke: #000000; stroke-width: 0.8"/>
      </g>
     </g>
     <g id="text_5">
      <!-- amputate_R3_L3 -->
      <g transform="translate(591.117735 405.142753) rotate(-45) scale(0.1 -0.1)">
       <use xlink:href="#DejaVuSans-61"/>
       <use xlink:href="#DejaVuSans-6d" x="61.279297"/>
       <use xlink:href="#DejaVuSans-70" x="158.691406"/>
       <use xlink:href="#DejaVuSans-75" x="222.167969"/>
       <use xlink:href="#DejaVuSans-74" x="285.546875"/>
       <use xlink:href="#DejaVuSans-61" x="324.755859"/>
       <use xlink:href="#DejaVuSans-74" x="386.035156"/>
       <use xlink:href="#DejaVuSans-65" x="425.244141"/>
       <use xlink:href="#DejaVuSans-5f" x="486.767578"/>
       <use xlink:href="#DejaVuSans-52" x="536.767578"/>
       <use xlink:href="#DejaVuSans-33" x="606.25"/>
       <use xlink:href="#DejaVuSans-5f" x="669.873047"/>
       <use xlink:href="#DejaVuSans-4c" x="719.873047"/>
       <use xlink:href="#DejaVuSans-33" x="775.585938"/>
      </g>
     </g>
    </g>
    <g id="text_6">
     <!-- Experiment -->
     <g transform="translate(349.570156 418.408415) scale(0.1 -0.1)">
      <defs>
       <path id="DejaVuSans-45" d="M 628 4666 
L 3578 4666 
L 3578 4134 
L 1259 4134 
L 1259 2753 
L 3481 2753 
L 3481 2222 
L 1259 2222 
L 1259 531 
L 3634 531 
L 3634 0 
L 628 0 
L 628 4666 
z
" transform="scale(0.015625)"/>
       <path id="DejaVuSans-78" d="M 3513 3500 
L 2247 1797 
L 3578 0 
L 2900 0 
L 1881 1375 
L 863 0 
L 184 0 
L 1544 1831 
L 300 3500 
L 978 3500 
L 1906 2253 
L 2834 3500 
L 3513 3500 
z
" transform="scale(0.015625)"/>
      </defs>
      <use xlink:href="#DejaVuSans-45"/>
      <use xlink:href="#DejaVuSans-78" x="63.183594"/>
      <use xlink:href="#DejaVuSans-70" x="122.363281"/>
      <use xlink:href="#DejaVuSans-65" x="185.839844"/>
      <use xlink:href="#DejaVuSans-72" x="247.363281"/>
      <use xlink:href="#DejaVuSans-69" x="288.476562"/>
      <use xlink:href="#DejaVuSans-6d" x="316.259766"/>
      <use xlink:href="#DejaVuSans-65" x="413.671875"/>
      <use xlink:href="#DejaVuSans-6e" x="475.195312"/>
      <use xlink:href="#DejaVuSans-74" x="538.574219"/>
     </g>
    </g>
   </g>
   <g id="matplotlib.axis_2">
    <g id="ytick_1">
     <g id="line2d_6">
      <defs>
       <path id="m00f434175c" d="M 0 0 
L -3.5 0 
" style="stroke: #000000; stroke-width: 0.8"/>
      </defs>
      <g>
       <use xlink:href="#m00f434175c" x="47.72" y="333.552968" style="stroke: #000000; stroke-width: 0.8"/>
      </g>
     </g>
     <g id="text_7">
      <!-- 0.0 -->
      <g transform="translate(24.816875 337.352186) scale(0.1 -0.1)">
       <defs>
        <path id="DejaVuSans-30" d="M 2034 4250 
Q 1547 4250 1301 3770 
Q 1056 3291 1056 2328 
Q 1056 1369 1301 889 
Q 1547 409 2034 409 
Q 2525 409 2770 889 
Q 3016 1369 3016 2328 
Q 3016 3291 2770 3770 
Q 2525 4250 2034 4250 
z
M 2034 4750 
Q 2819 4750 3233 4129 
Q 3647 3509 3647 2328 
Q 3647 1150 3233 529 
Q 2819 -91 2034 -91 
Q 1250 -91 836 529 
Q 422 1150 422 2328 
Q 422 3509 836 4129 
Q 1250 4750 2034 4750 
z
" transform="scale(0.015625)"/>
        <path id="DejaVuSans-2e" d="M 684 794 
L 1344 794 
L 1344 0 
L 684 0 
L 684 794 
z
" transform="scale(0.015625)"/>
       </defs>
       <use xlink:href="#DejaVuSans-30"/>
       <use xlink:href="#DejaVuSans-2e" x="63.623047"/>
       <use xlink:href="#DejaVuSans-30" x="95.410156"/>
      </g>
     </g>
    </g>
    <g id="ytick_2">
     <g id="line2d_7">
      <g>
       <use xlink:href="#m00f434175c" x="47.72" y="277.794246" style="stroke: #000000; stroke-width: 0.8"/>
      </g>
     </g>
     <g id="text_8">
      <!-- 0.2 -->
      <g transform="translate(24.816875 281.593465) scale(0.1 -0.1)">
       <use xlink:href="#DejaVuSans-30"/>
       <use xlink:href="#DejaVuSans-2e" x="63.623047"/>
       <use xlink:href="#DejaVuSans-32" x="95.410156"/>
      </g>
     </g>
    </g>
    <g id="ytick_3">
     <g id="line2d_8">
      <g>
       <use xlink:href="#m00f434175c" x="47.72" y="222.035525" style="stroke: #000000; stroke-width: 0.8"/>
      </g>
     </g>
     <g id="text_9">
      <!-- 0.4 -->
      <g transform="translate(24.816875 225.834744) scale(0.1 -0.1)">
       <defs>
        <path id="DejaVuSans-34" d="M 2419 4116 
L 825 1625 
L 2419 1625 
L 2419 4116 
z
M 2253 4666 
L 3047 4666 
L 3047 1625 
L 3713 1625 
L 3713 1100 
L 3047 1100 
L 3047 0 
L 2419 0 
L 2419 1100 
L 313 1100 
L 313 1709 
L 2253 4666 
z
" transform="scale(0.015625)"/>
       </defs>
       <use xlink:href="#DejaVuSans-30"/>
       <use xlink:href="#DejaVuSans-2e" x="63.623047"/>
       <use xlink:href="#DejaVuSans-34" x="95.410156"/>
      </g>
     </g>
    </g>
    <g id="ytick_4">
     <g id="line2d_9">
      <g>
       <use xlink:href="#m00f434175c" x="47.72" y="166.276803" style="stroke: #000000; stroke-width: 0.8"/>
      </g>
     </g>
     <g id="text_10">
      <!-- 0.6 -->
      <g transform="translate(24.816875 170.076022) scale(0.1 -0.1)">
       <defs>
        <path id="DejaVuSans-36" d="M 2113 2584 
Q 1688 2584 1439 2293 
Q 1191 2003 1191 1497 
Q 1191 994 1439 701 
Q 1688 409 2113 409 
Q 2538 409 2786 701 
Q 3034 994 3034 1497 
Q 3034 2003 2786 2293 
Q 2538 2584 2113 2584 
z
M 3366 4563 
L 3366 3988 
Q 3128 4100 2886 4159 
Q 2644 4219 2406 4219 
Q 1781 4219 1451 3797 
Q 1122 3375 1075 2522 
Q 1259 2794 1537 2939 
Q 1816 3084 2150 3084 
Q 2853 3084 3261 2657 
Q 3669 2231 3669 1497 
Q 3669 778 3244 343 
Q 2819 -91 2113 -91 
Q 1303 -91 875 529 
Q 447 1150 447 2328 
Q 447 3434 972 4092 
Q 1497 4750 2381 4750 
Q 2619 4750 2861 4703 
Q 3103 4656 3366 4563 
z
" transform="scale(0.015625)"/>
       </defs>
       <use xlink:href="#DejaVuSans-30"/>
       <use xlink:href="#DejaVuSans-2e" x="63.623047"/>
       <use xlink:href="#DejaVuSans-36" x="95.410156"/>
      </g>
     </g>
    </g>
    <g id="ytick_5">
     <g id="line2d_10">
      <g>
       <use xlink:href="#m00f434175c" x="47.72" y="110.518082" style="stroke: #000000; stroke-width: 0.8"/>
      </g>
     </g>
     <g id="text_11">
      <!-- 0.8 -->
      <g transform="translate(24.816875 114.317301) scale(0.1 -0.1)">
       <defs>
        <path id="DejaVuSans-38" d="M 2034 2216 
Q 1584 2216 1326 1975 
Q 1069 1734 1069 1313 
Q 1069 891 1326 650 
Q 1584 409 2034 409 
Q 2484 409 2743 651 
Q 3003 894 3003 1313 
Q 3003 1734 2745 1975 
Q 2488 2216 2034 2216 
z
M 1403 2484 
Q 997 2584 770 2862 
Q 544 3141 544 3541 
Q 544 4100 942 4425 
Q 1341 4750 2034 4750 
Q 2731 4750 3128 4425 
Q 3525 4100 3525 3541 
Q 3525 3141 3298 2862 
Q 3072 2584 2669 2484 
Q 3125 2378 3379 2068 
Q 3634 1759 3634 1313 
Q 3634 634 3220 271 
Q 2806 -91 2034 -91 
Q 1263 -91 848 271 
Q 434 634 434 1313 
Q 434 1759 690 2068 
Q 947 2378 1403 2484 
z
M 1172 3481 
Q 1172 3119 1398 2916 
Q 1625 2713 2034 2713 
Q 2441 2713 2670 2916 
Q 2900 3119 2900 3481 
Q 2900 3844 2670 4047 
Q 2441 4250 2034 4250 
Q 1625 4250 1398 4047 
Q 1172 3844 1172 3481 
z
" transform="scale(0.015625)"/>
       </defs>
       <use xlink:href="#DejaVuSans-30"/>
       <use xlink:href="#DejaVuSans-2e" x="63.623047"/>
       <use xlink:href="#DejaVuSans-38" x="95.410156"/>
      </g>
     </g>
    </g>
    <g id="ytick_6">
     <g id="line2d_11">
      <g>
       <use xlink:href="#m00f434175c" x="47.72" y="54.759361" style="stroke: #000000; stroke-width: 0.8"/>
      </g>
     </g>
     <g id="text_12">
      <!-- 1.0 -->
      <g transform="translate(24.816875 58.558579) scale(0.1 -0.1)">
       <defs>
        <path id="DejaVuSans-31" d="M 794 531 
L 1825 531 
L 1825 4091 
L 703 3866 
L 703 4441 
L 1819 4666 
L 2450 4666 
L 2450 531 
L 3481 531 
L 3481 0 
L 794 0 
L 794 531 
z
" transform="scale(0.015625)"/>
       </defs>
       <use xlink:href="#DejaVuSans-31"/>
       <use xlink:href="#DejaVuSans-2e" x="63.623047"/>
       <use xlink:href="#DejaVuSans-30" x="95.410156"/>
      </g>
     </g>
    </g>
    <g id="text_13">
     <!-- Mean Forward Yaw -->
     <g transform="translate(18.737187 226.642265) rotate(-90) scale(0.1 -0.1)">
      <defs>
       <path id="DejaVuSans-4d" d="M 628 4666 
L 1569 4666 
L 2759 1491 
L 3956 4666 
L 4897 4666 
L 4897 0 
L 4281 0 
L 4281 4097 
L 3078 897 
L 2444 897 
L 1241 4097 
L 1241 0 
L 628 0 
L 628 4666 
z
" transform="scale(0.015625)"/>
       <path id="DejaVuSans-20" transform="scale(0.015625)"/>
       <path id="DejaVuSans-46" d="M 628 4666 
L 3309 4666 
L 3309 4134 
L 1259 4134 
L 1259 2759 
L 3109 2759 
L 3109 2228 
L 1259 2228 
L 1259 0 
L 628 0 
L 628 4666 
z
" transform="scale(0.015625)"/>
       <path id="DejaVuSans-6f" d="M 1959 3097 
Q 1497 3097 1228 2736 
Q 959 2375 959 1747 
Q 959 1119 1226 758 
Q 1494 397 1959 397 
Q 2419 397 2687 759 
Q 2956 1122 2956 1747 
Q 2956 2369 2687 2733 
Q 2419 3097 1959 3097 
z
M 1959 3584 
Q 2709 3584 3137 3096 
Q 3566 2609 3566 1747 
Q 3566 888 3137 398 
Q 2709 -91 1959 -91 
Q 1206 -91 779 398 
Q 353 888 353 1747 
Q 353 2609 779 3096 
Q 1206 3584 1959 3584 
z
" transform="scale(0.015625)"/>
       <path id="DejaVuSans-77" d="M 269 3500 
L 844 3500 
L 1563 769 
L 2278 3500 
L 2956 3500 
L 3675 769 
L 4391 3500 
L 4966 3500 
L 4050 0 
L 3372 0 
L 2619 2869 
L 1863 0 
L 1184 0 
L 269 3500 
z
" transform="scale(0.015625)"/>
       <path id="DejaVuSans-64" d="M 2906 2969 
L 2906 4863 
L 3481 4863 
L 3481 0 
L 2906 0 
L 2906 525 
Q 2725 213 2448 61 
Q 2172 -91 1784 -91 
Q 1150 -91 751 415 
Q 353 922 353 1747 
Q 353 2572 751 3078 
Q 1150 3584 1784 3584 
Q 2172 3584 2448 3432 
Q 2725 3281 2906 2969 
z
M 947 1747 
Q 947 1113 1208 752 
Q 1469 391 1925 391 
Q 2381 391 2643 752 
Q 2906 1113 2906 1747 
Q 2906 2381 2643 2742 
Q 2381 3103 1925 3103 
Q 1469 3103 1208 2742 
Q 947 2381 947 1747 
z
" transform="scale(0.015625)"/>
       <path id="DejaVuSans-59" d="M -13 4666 
L 666 4666 
L 1959 2747 
L 3244 4666 
L 3922 4666 
L 2272 2222 
L 2272 0 
L 1638 0 
L 1638 2222 
L -13 4666 
z
" transform="scale(0.015625)"/>
      </defs>
      <use xlink:href="#DejaVuSans-4d"/>
      <use xlink:href="#DejaVuSans-65" x="86.279297"/>
      <use xlink:href="#DejaVuSans-61" x="147.802734"/>
      <use xlink:href="#DejaVuSans-6e" x="209.082031"/>
      <use xlink:href="#DejaVuSans-20" x="272.460938"/>
      <use xlink:href="#DejaVuSans-46" x="304.248047"/>
      <use xlink:href="#DejaVuSans-6f" x="358.142578"/>
      <use xlink:href="#DejaVuSans-72" x="419.324219"/>
      <use xlink:href="#DejaVuSans-77" x="460.4375"/>
      <use xlink:href="#DejaVuSans-61" x="542.224609"/>
      <use xlink:href="#DejaVuSans-72" x="603.503906"/>
      <use xlink:href="#DejaVuSans-64" x="642.867188"/>
      <use xlink:href="#DejaVuSans-20" x="706.34375"/>
      <use xlink:href="#DejaVuSans-59" x="738.130859"/>
      <use xlink:href="#DejaVuSans-61" x="785.464844"/>
      <use xlink:href="#DejaVuSans-77" x="846.744141"/>
     </g>
    </g>
   </g>
   <g id="LineCollection_1">
    <path d="M 122.888182 204.280711 
L 137.921818 204.280711 
" clip-path="url(#pa2dd97ab18)" style="fill: none; stroke: #1f77b4; stroke-width: 1.5; stroke-linecap: square"/>
    <path d="M 243.157273 149.366463 
L 258.190909 149.366463 
" clip-path="url(#pa2dd97ab18)" style="fill: none; stroke: #1f77b4; stroke-width: 1.5; stroke-linecap: square"/>
    <path d="M 363.426364 174.410258 
L 378.46 174.410258 
" clip-path="url(#pa2dd97ab18)" style="fill: none; stroke: #1f77b4; stroke-width: 1.5; stroke-linecap: square"/>
    <path d="M 483.695455 229.870459 
L 498.729091 229.870459 
" clip-path="url(#pa2dd97ab18)" style="fill: none; stroke: #1f77b4; stroke-width: 1.5; stroke-linecap: square"/>
    <path d="M 603.964545 212.156592 
L 618.998182 212.156592 
" clip-path="url(#pa2dd97ab18)" style="fill: none; stroke: #1f77b4; stroke-width: 1.5; stroke-linecap: square"/>
   </g>
   <g id="LineCollection_2">
    <path d="M 137.921818 169.443126 
L 152.955455 169.443126 
" clip-path="url(#pa2dd97ab18)" style="fill: none; stroke: #ff7f0e; stroke-width: 1.5; stroke-linecap: square"/>
    <path d="M 258.190909 90.12148 
L 273.224545 90.12148 
" clip-path="url(#pa2dd97ab18)" style="fill: none; stroke: #ff7f0e; stroke-width: 1.5; stroke-linecap: square"/>
    <path d="M 378.46 136.478457 
L 393.493636 136.478457 
" clip-path="url(#pa2dd97ab18)" style="fill: none; stroke: #ff7f0e; stroke-width: 1.5; stroke-linecap: square"/>
    <path d="M 498.729091 223.442964 
L 513.762727 223.442964 
" clip-path="url(#pa2dd97ab18)" style="fill: none; stroke: #ff7f0e; stroke-width: 1.5; stroke-linecap: square"/>
    <path d="M 618.998182 77.557406 
L 634.031818 77.557406 
" clip-path="url(#pa2dd97ab18)" style="fill: none; stroke: #ff7f0e; stroke-width: 1.5; stroke-linecap: square"/>
   </g>
   <g id="patch_3">
    <path d="M 47.72 333.552968 
L 47.72 26.88 
" style="fill: none; stroke: #000000; stroke-width: 0.8; stroke-linejoin: miter; stroke-linecap: square"/>
   </g>
   <g id="patch_4">
    <path d="M 709.2 333.552968 
L 709.2 26.88 
" style="fill: none; stroke: #000000; stroke-width: 0.8; stroke-linejoin: miter; stroke-linecap: square"/>
   </g>
   <g id="patch_5">
    <path d="M 47.72 333.552968 
L 709.2 333.552968 
" style="fill: none; stroke: #000000; stroke-width: 0.8; stroke-linejoin: miter; stroke-linecap: square"/>
   </g>
   <g id="patch_6">
    <path d="M 47.72 26.88 
L 709.2 26.88 
" style="fill: none; stroke: #000000; stroke-width: 0.8; stroke-linejoin: miter; stroke-linecap: square"/>
   </g>
   <g id="text_14">
    <!-- Mean Forward Yaw for each experiment -->
    <g transform="translate(259.844688 20.88) scale(0.12 -0.12)">
     <defs>
      <path id="DejaVuSans-66" d="M 2375 4863 
L 2375 4384 
L 1825 4384 
Q 1516 4384 1395 4259 
Q 1275 4134 1275 3809 
L 1275 3500 
L 2222 3500 
L 2222 3053 
L 1275 3053 
L 1275 0 
L 697 0 
L 697 3053 
L 147 3053 
L 147 3500 
L 697 3500 
L 697 3744 
Q 697 4328 969 4595 
Q 1241 4863 1831 4863 
L 2375 4863 
z
" transform="scale(0.015625)"/>
      <path id="DejaVuSans-63" d="M 3122 3366 
L 3122 2828 
Q 2878 2963 2633 3030 
Q 2388 3097 2138 3097 
Q 1578 3097 1268 2742 
Q 959 2388 959 1747 
Q 959 1106 1268 751 
Q 1578 397 2138 397 
Q 2388 397 2633 464 
Q 2878 531 3122 666 
L 3122 134 
Q 2881 22 2623 -34 
Q 2366 -91 2075 -91 
Q 1284 -91 818 406 
Q 353 903 353 1747 
Q 353 2603 823 3093 
Q 1294 3584 2113 3584 
Q 2378 3584 2631 3529 
Q 2884 3475 3122 3366 
z
" transform="scale(0.015625)"/>
      <path id="DejaVuSans-68" d="M 3513 2113 
L 3513 0 
L 2938 0 
L 2938 2094 
Q 2938 2591 2744 2837 
Q 2550 3084 2163 3084 
Q 1697 3084 1428 2787 
Q 1159 2491 1159 1978 
L 1159 0 
L 581 0 
L 581 4863 
L 1159 4863 
L 1159 2956 
Q 1366 3272 1645 3428 
Q 1925 3584 2291 3584 
Q 2894 3584 3203 3211 
Q 3513 2838 3513 2113 
z
" transform="scale(0.015625)"/>
     </defs>
     <use xlink:href="#DejaVuSans-4d"/>
     <use xlink:href="#DejaVuSans-65" x="86.279297"/>
     <use xlink:href="#DejaVuSans-61" x="147.802734"/>
     <use xlink:href="#DejaVuSans-6e" x="209.082031"/>
     <use xlink:href="#DejaVuSans-20" x="272.460938"/>
     <use xlink:href="#DejaVuSans-46" x="304.248047"/>
     <use xlink:href="#DejaVuSans-6f" x="358.142578"/>
     <use xlink:href="#DejaVuSans-72" x="419.324219"/>
     <use xlink:href="#DejaVuSans-77" x="460.4375"/>
     <use xlink:href="#DejaVuSans-61" x="542.224609"/>
     <use xlink:href="#DejaVuSans-72" x="603.503906"/>
     <use xlink:href="#DejaVuSans-64" x="642.867188"/>
     <use xlink:href="#DejaVuSans-20" x="706.34375"/>
     <use xlink:href="#DejaVuSans-59" x="738.130859"/>
     <use xlink:href="#DejaVuSans-61" x="785.464844"/>
     <use xlink:href="#DejaVuSans-77" x="846.744141"/>
     <use xlink:href="#DejaVuSans-20" x="928.53125"/>
     <use xlink:href="#DejaVuSans-66" x="960.318359"/>
     <use xlink:href="#DejaVuSans-6f" x="995.523438"/>
     <use xlink:href="#DejaVuSans-72" x="1056.705078"/>
     <use xlink:href="#DejaVuSans-20" x="1097.818359"/>
     <use xlink:href="#DejaVuSans-65" x="1129.605469"/>
     <use xlink:href="#DejaVuSans-61" x="1191.128906"/>
     <use xlink:href="#DejaVuSans-63" x="1252.408203"/>
     <use xlink:href="#DejaVuSans-68" x="1307.388672"/>
     <use xlink:href="#DejaVuSans-20" x="1370.767578"/>
     <use xlink:href="#DejaVuSans-65" x="1402.554688"/>
     <use xlink:href="#DejaVuSans-78" x="1462.328125"/>
     <use xlink:href="#DejaVuSans-70" x="1521.507812"/>
     <use xlink:href="#DejaVuSans-65" x="1584.984375"/>
     <use xlink:href="#DejaVuSans-72" x="1646.507812"/>
     <use xlink:href="#DejaVuSans-69" x="1687.621094"/>
     <use xlink:href="#DejaVuSans-6d" x="1715.404297"/>
     <use xlink:href="#DejaVuSans-65" x="1812.816406"/>
     <use xlink:href="#DejaVuSans-6e" x="1874.339844"/>
     <use xlink:href="#DejaVuSans-74" x="1937.71875"/>
    </g>
   </g>
   <g id="legend_1">
    <g id="patch_7">
     <path d="M 616.667188 328.552968 
L 702.2 328.552968 
Q 704.2 328.552968 704.2 326.552968 
L 704.2 298.196718 
Q 704.2 296.196718 702.2 296.196718 
L 616.667188 296.196718 
Q 614.667188 296.196718 614.667188 298.196718 
L 614.667188 326.552968 
Q 614.667188 328.552968 616.667188 328.552968 
z
" style="fill: #ffffff; opacity: 0.8; stroke: #cccccc; stroke-linejoin: miter"/>
    </g>
    <g id="patch_8">
     <path d="M 618.667188 307.795155 
L 638.667188 307.795155 
L 638.667188 300.795155 
L 618.667188 300.795155 
z
" style="fill: #1f77b4; fill-opacity: 0.3; stroke: #1f77b4; stroke-opacity: 0.3; stroke-linejoin: miter"/>
    </g>
    <g id="text_15">
     <!-- Neural -->
     <g transform="translate(646.667188 307.795155) scale(0.1 -0.1)">
      <defs>
       <path id="DejaVuSans-4e" d="M 628 4666 
L 1478 4666 
L 3547 763 
L 3547 4666 
L 4159 4666 
L 4159 0 
L 3309 0 
L 1241 3903 
L 1241 0 
L 628 0 
L 628 4666 
z
" transform="scale(0.015625)"/>
       <path id="DejaVuSans-6c" d="M 603 4863 
L 1178 4863 
L 1178 0 
L 603 0 
L 603 4863 
z
" transform="scale(0.015625)"/>
      </defs>
      <use xlink:href="#DejaVuSans-4e"/>
      <use xlink:href="#DejaVuSans-65" x="74.804688"/>
      <use xlink:href="#DejaVuSans-75" x="136.328125"/>
      <use xlink:href="#DejaVuSans-72" x="199.707031"/>
      <use xlink:href="#DejaVuSans-61" x="240.820312"/>
      <use xlink:href="#DejaVuSans-6c" x="302.099609"/>
     </g>
    </g>
    <g id="patch_9">
     <path d="M 618.667188 322.47328 
L 638.667188 322.47328 
L 638.667188 315.47328 
L 618.667188 315.47328 
z
" style="fill: #ff7f0e; fill-opacity: 0.3; stroke: #ff7f0e; stroke-opacity: 0.3; stroke-linejoin: miter"/>
    </g>
    <g id="text_16">
     <!-- Predefined -->
     <g transform="translate(646.667188 322.47328) scale(0.1 -0.1)">
      <defs>
       <path id="DejaVuSans-50" d="M 1259 4147 
L 1259 2394 
L 2053 2394 
Q 2494 2394 2734 2622 
Q 2975 2850 2975 3272 
Q 2975 3691 2734 3919 
Q 2494 4147 2053 4147 
L 1259 4147 
z
M 628 4666 
L 2053 4666 
Q 2838 4666 3239 4311 
Q 3641 3956 3641 3272 
Q 3641 2581 3239 2228 
Q 2838 1875 2053 1875 
L 1259 1875 
L 1259 0 
L 628 0 
L 628 4666 
z
" transform="scale(0.015625)"/>
      </defs>
      <use xlink:href="#DejaVuSans-50"/>
      <use xlink:href="#DejaVuSans-72" x="58.552734"/>
      <use xlink:href="#DejaVuSans-65" x="97.416016"/>
      <use xlink:href="#DejaVuSans-64" x="158.939453"/>
      <use xlink:href="#DejaVuSans-65" x="222.416016"/>
      <use xlink:href="#DejaVuSans-66" x="283.939453"/>
      <use xlink:href="#DejaVuSans-69" x="319.144531"/>
      <use xlink:href="#DejaVuSans-6e" x="346.927734"/>
      <use xlink:href="#DejaVuSans-65" x="410.306641"/>
      <use xlink:href="#DejaVuSans-64" x="471.830078"/>
     </g>
    </g>
   </g>
  </g>
 </g>
 <defs>
  <clipPath id="pa2dd97ab18">
   <rect x="47.72" y="26.88" width="661.48" height="306.672968"/>
  </clipPath>
 </defs>
</svg>
