<?xml version="1.0" encoding="utf-8" standalone="no"?>
<!DOCTYPE svg PUBLIC "-//W3C//DTD SVG 1.1//EN"
  "http://www.w3.org/Graphics/SVG/1.1/DTD/svg11.dtd">
<svg xmlns:xlink="http://www.w3.org/1999/xlink" width="720pt" height="432pt" viewBox="0 0 720 432" xmlns="http://www.w3.org/2000/svg" version="1.1">
 <metadata>
  <rdf:RDF xmlns:dc="http://purl.org/dc/elements/1.1/" xmlns:cc="http://creativecommons.org/ns#" xmlns:rdf="http://www.w3.org/1999/02/22-rdf-syntax-ns#">
   <cc:Work>
    <dc:type rdf:resource="http://purl.org/dc/dcmitype/StillImage"/>
    <dc:date>2025-02-16T20:31:12.956509</dc:date>
    <dc:format>image/svg+xml</dc:format>
    <dc:creator>
     <cc:Agent>
      <dc:title>Matplotlib v3.9.4, https://matplotlib.org/</dc:title>
     </cc:Agent>
    </dc:creator>
   </cc:Work>
  </rdf:RDF>
 </metadata>
 <defs>
  <style type="text/css">*{stroke-linejoin: round; stroke-linecap: butt}</style>
 </defs>
 <g id="figure_1">
  <g id="patch_1">
   <path d="M 0 432 
L 720 432 
L 720 0 
L 0 0 
z
" style="fill: #ffffff"/>
  </g>
  <g id="axes_1">
   <g id="patch_2">
    <path d="M 54.2 390.04 
L 709.2 390.04 
L 709.2 26.16 
L 54.2 26.16 
z
" style="fill: #ffffff"/>
   </g>
   <g id="matplotlib.axis_1">
    <g id="xtick_1">
     <g id="line2d_1">
      <defs>
       <path id="meaf91847dc" d="M 0 0 
L 0 3.5 
" style="stroke: #000000; stroke-width: 0.8"/>
      </defs>
      <g>
       <use xlink:href="#meaf91847dc" x="140.943207" y="390.04" style="stroke: #000000; stroke-width: 0.8"/>
      </g>
     </g>
     <g id="text_1">
      <!-- −0.2 -->
      <g transform="translate(128.801801 404.638438) scale(0.1 -0.1)">
       <defs>
        <path id="DejaVuSans-2212" d="M 678 2272 
L 4684 2272 
L 4684 1741 
L 678 1741 
L 678 2272 
z
" transform="scale(0.015625)"/>
        <path id="DejaVuSans-30" d="M 2034 4250 
Q 1547 4250 1301 3770 
Q 1056 3291 1056 2328 
Q 1056 1369 1301 889 
Q 1547 409 2034 409 
Q 2525 409 2770 889 
Q 3016 1369 3016 2328 
Q 3016 3291 2770 3770 
Q 2525 4250 2034 4250 
z
M 2034 4750 
Q 2819 4750 3233 4129 
Q 3647 3509 3647 2328 
Q 3647 1150 3233 529 
Q 2819 -91 2034 -91 
Q 1250 -91 836 529 
Q 422 1150 422 2328 
Q 422 3509 836 4129 
Q 1250 4750 2034 4750 
z
" transform="scale(0.015625)"/>
        <path id="DejaVuSans-2e" d="M 684 794 
L 1344 794 
L 1344 0 
L 684 0 
L 684 794 
z
" transform="scale(0.015625)"/>
        <path id="DejaVuSans-32" d="M 1228 531 
L 3431 531 
L 3431 0 
L 469 0 
L 469 531 
Q 828 903 1448 1529 
Q 2069 2156 2228 2338 
Q 2531 2678 2651 2914 
Q 2772 3150 2772 3378 
Q 2772 3750 2511 3984 
Q 2250 4219 1831 4219 
Q 1534 4219 1204 4116 
Q 875 4013 500 3803 
L 500 4441 
Q 881 4594 1212 4672 
Q 1544 4750 1819 4750 
Q 2544 4750 2975 4387 
Q 3406 4025 3406 3419 
Q 3406 3131 3298 2873 
Q 3191 2616 2906 2266 
Q 2828 2175 2409 1742 
Q 1991 1309 1228 531 
z
" transform="scale(0.015625)"/>
       </defs>
       <use xlink:href="#DejaVuSans-2212"/>
       <use xlink:href="#DejaVuSans-30" x="83.789062"/>
       <use xlink:href="#DejaVuSans-2e" x="147.412109"/>
       <use xlink:href="#DejaVuSans-32" x="179.199219"/>
      </g>
     </g>
    </g>
    <g id="xtick_2">
     <g id="line2d_2">
      <g>
       <use xlink:href="#meaf91847dc" x="230.260603" y="390.04" style="stroke: #000000; stroke-width: 0.8"/>
      </g>
     </g>
     <g id="text_2">
      <!-- 0.0 -->
      <g transform="translate(222.309041 404.638438) scale(0.1 -0.1)">
       <use xlink:href="#DejaVuSans-30"/>
       <use xlink:href="#DejaVuSans-2e" x="63.623047"/>
       <use xlink:href="#DejaVuSans-30" x="95.410156"/>
      </g>
     </g>
    </g>
    <g id="xtick_3">
     <g id="line2d_3">
      <g>
       <use xlink:href="#meaf91847dc" x="319.577999" y="390.04" style="stroke: #000000; stroke-width: 0.8"/>
      </g>
     </g>
     <g id="text_3">
      <!-- 0.2 -->
      <g transform="translate(311.626437 404.638438) scale(0.1 -0.1)">
       <use xlink:href="#DejaVuSans-30"/>
       <use xlink:href="#DejaVuSans-2e" x="63.623047"/>
       <use xlink:href="#DejaVuSans-32" x="95.410156"/>
      </g>
     </g>
    </g>
    <g id="xtick_4">
     <g id="line2d_4">
      <g>
       <use xlink:href="#meaf91847dc" x="408.895395" y="390.04" style="stroke: #000000; stroke-width: 0.8"/>
      </g>
     </g>
     <g id="text_4">
      <!-- 0.4 -->
      <g transform="translate(400.943833 404.638438) scale(0.1 -0.1)">
       <defs>
        <path id="DejaVuSans-34" d="M 2419 4116 
L 825 1625 
L 2419 1625 
L 2419 4116 
z
M 2253 4666 
L 3047 4666 
L 3047 1625 
L 3713 1625 
L 3713 1100 
L 3047 1100 
L 3047 0 
L 2419 0 
L 2419 1100 
L 313 1100 
L 313 1709 
L 2253 4666 
z
" transform="scale(0.015625)"/>
       </defs>
       <use xlink:href="#DejaVuSans-30"/>
       <use xlink:href="#DejaVuSans-2e" x="63.623047"/>
       <use xlink:href="#DejaVuSans-34" x="95.410156"/>
      </g>
     </g>
    </g>
    <g id="xtick_5">
     <g id="line2d_5">
      <g>
       <use xlink:href="#meaf91847dc" x="498.212791" y="390.04" style="stroke: #000000; stroke-width: 0.8"/>
      </g>
     </g>
     <g id="text_5">
      <!-- 0.6 -->
      <g transform="translate(490.261229 404.638438) scale(0.1 -0.1)">
       <defs>
        <path id="DejaVuSans-36" d="M 2113 2584 
Q 1688 2584 1439 2293 
Q 1191 2003 1191 1497 
Q 1191 994 1439 701 
Q 1688 409 2113 409 
Q 2538 409 2786 701 
Q 3034 994 3034 1497 
Q 3034 2003 2786 2293 
Q 2538 2584 2113 2584 
z
M 3366 4563 
L 3366 3988 
Q 3128 4100 2886 4159 
Q 2644 4219 2406 4219 
Q 1781 4219 1451 3797 
Q 1122 3375 1075 2522 
Q 1259 2794 1537 2939 
Q 1816 3084 2150 3084 
Q 2853 3084 3261 2657 
Q 3669 2231 3669 1497 
Q 3669 778 3244 343 
Q 2819 -91 2113 -91 
Q 1303 -91 875 529 
Q 447 1150 447 2328 
Q 447 3434 972 4092 
Q 1497 4750 2381 4750 
Q 2619 4750 2861 4703 
Q 3103 4656 3366 4563 
z
" transform="scale(0.015625)"/>
       </defs>
       <use xlink:href="#DejaVuSans-30"/>
       <use xlink:href="#DejaVuSans-2e" x="63.623047"/>
       <use xlink:href="#DejaVuSans-36" x="95.410156"/>
      </g>
     </g>
    </g>
    <g id="xtick_6">
     <g id="line2d_6">
      <g>
       <use xlink:href="#meaf91847dc" x="587.530188" y="390.04" style="stroke: #000000; stroke-width: 0.8"/>
      </g>
     </g>
     <g id="text_6">
      <!-- 0.8 -->
      <g transform="translate(579.578625 404.638438) scale(0.1 -0.1)">
       <defs>
        <path id="DejaVuSans-38" d="M 2034 2216 
Q 1584 2216 1326 1975 
Q 1069 1734 1069 1313 
Q 1069 891 1326 650 
Q 1584 409 2034 409 
Q 2484 409 2743 651 
Q 3003 894 3003 1313 
Q 3003 1734 2745 1975 
Q 2488 2216 2034 2216 
z
M 1403 2484 
Q 997 2584 770 2862 
Q 544 3141 544 3541 
Q 544 4100 942 4425 
Q 1341 4750 2034 4750 
Q 2731 4750 3128 4425 
Q 3525 4100 3525 3541 
Q 3525 3141 3298 2862 
Q 3072 2584 2669 2484 
Q 3125 2378 3379 2068 
Q 3634 1759 3634 1313 
Q 3634 634 3220 271 
Q 2806 -91 2034 -91 
Q 1263 -91 848 271 
Q 434 634 434 1313 
Q 434 1759 690 2068 
Q 947 2378 1403 2484 
z
M 1172 3481 
Q 1172 3119 1398 2916 
Q 1625 2713 2034 2713 
Q 2441 2713 2670 2916 
Q 2900 3119 2900 3481 
Q 2900 3844 2670 4047 
Q 2441 4250 2034 4250 
Q 1625 4250 1398 4047 
Q 1172 3844 1172 3481 
z
" transform="scale(0.015625)"/>
       </defs>
       <use xlink:href="#DejaVuSans-30"/>
       <use xlink:href="#DejaVuSans-2e" x="63.623047"/>
       <use xlink:href="#DejaVuSans-38" x="95.410156"/>
      </g>
     </g>
    </g>
    <g id="xtick_7">
     <g id="line2d_7">
      <g>
       <use xlink:href="#meaf91847dc" x="676.847584" y="390.04" style="stroke: #000000; stroke-width: 0.8"/>
      </g>
     </g>
     <g id="text_7">
      <!-- 1.0 -->
      <g transform="translate(668.896021 404.638438) scale(0.1 -0.1)">
       <defs>
        <path id="DejaVuSans-31" d="M 794 531 
L 1825 531 
L 1825 4091 
L 703 3866 
L 703 4441 
L 1819 4666 
L 2450 4666 
L 2450 531 
L 3481 531 
L 3481 0 
L 794 0 
L 794 531 
z
" transform="scale(0.015625)"/>
       </defs>
       <use xlink:href="#DejaVuSans-31"/>
       <use xlink:href="#DejaVuSans-2e" x="63.623047"/>
       <use xlink:href="#DejaVuSans-30" x="95.410156"/>
      </g>
     </g>
    </g>
    <g id="text_8">
     <!-- Exponent -->
     <g transform="translate(357.973437 418.316562) scale(0.1 -0.1)">
      <defs>
       <path id="DejaVuSans-45" d="M 628 4666 
L 3578 4666 
L 3578 4134 
L 1259 4134 
L 1259 2753 
L 3481 2753 
L 3481 2222 
L 1259 2222 
L 1259 531 
L 3634 531 
L 3634 0 
L 628 0 
L 628 4666 
z
" transform="scale(0.015625)"/>
       <path id="DejaVuSans-78" d="M 3513 3500 
L 2247 1797 
L 3578 0 
L 2900 0 
L 1881 1375 
L 863 0 
L 184 0 
L 1544 1831 
L 300 3500 
L 978 3500 
L 1906 2253 
L 2834 3500 
L 3513 3500 
z
" transform="scale(0.015625)"/>
       <path id="DejaVuSans-70" d="M 1159 525 
L 1159 -1331 
L 581 -1331 
L 581 3500 
L 1159 3500 
L 1159 2969 
Q 1341 3281 1617 3432 
Q 1894 3584 2278 3584 
Q 2916 3584 3314 3078 
Q 3713 2572 3713 1747 
Q 3713 922 3314 415 
Q 2916 -91 2278 -91 
Q 1894 -91 1617 61 
Q 1341 213 1159 525 
z
M 3116 1747 
Q 3116 2381 2855 2742 
Q 2594 3103 2138 3103 
Q 1681 3103 1420 2742 
Q 1159 2381 1159 1747 
Q 1159 1113 1420 752 
Q 1681 391 2138 391 
Q 2594 391 2855 752 
Q 3116 1113 3116 1747 
z
" transform="scale(0.015625)"/>
       <path id="DejaVuSans-6f" d="M 1959 3097 
Q 1497 3097 1228 2736 
Q 959 2375 959 1747 
Q 959 1119 1226 758 
Q 1494 397 1959 397 
Q 2419 397 2687 759 
Q 2956 1122 2956 1747 
Q 2956 2369 2687 2733 
Q 2419 3097 1959 3097 
z
M 1959 3584 
Q 2709 3584 3137 3096 
Q 3566 2609 3566 1747 
Q 3566 888 3137 398 
Q 2709 -91 1959 -91 
Q 1206 -91 779 398 
Q 353 888 353 1747 
Q 353 2609 779 3096 
Q 1206 3584 1959 3584 
z
" transform="scale(0.015625)"/>
       <path id="DejaVuSans-6e" d="M 3513 2113 
L 3513 0 
L 2938 0 
L 2938 2094 
Q 2938 2591 2744 2837 
Q 2550 3084 2163 3084 
Q 1697 3084 1428 2787 
Q 1159 2491 1159 1978 
L 1159 0 
L 581 0 
L 581 3500 
L 1159 3500 
L 1159 2956 
Q 1366 3272 1645 3428 
Q 1925 3584 2291 3584 
Q 2894 3584 3203 3211 
Q 3513 2838 3513 2113 
z
" transform="scale(0.015625)"/>
       <path id="DejaVuSans-65" d="M 3597 1894 
L 3597 1613 
L 953 1613 
Q 991 1019 1311 708 
Q 1631 397 2203 397 
Q 2534 397 2845 478 
Q 3156 559 3463 722 
L 3463 178 
Q 3153 47 2828 -22 
Q 2503 -91 2169 -91 
Q 1331 -91 842 396 
Q 353 884 353 1716 
Q 353 2575 817 3079 
Q 1281 3584 2069 3584 
Q 2775 3584 3186 3129 
Q 3597 2675 3597 1894 
z
M 3022 2063 
Q 3016 2534 2758 2815 
Q 2500 3097 2075 3097 
Q 1594 3097 1305 2825 
Q 1016 2553 972 2059 
L 3022 2063 
z
" transform="scale(0.015625)"/>
       <path id="DejaVuSans-74" d="M 1172 4494 
L 1172 3500 
L 2356 3500 
L 2356 3053 
L 1172 3053 
L 1172 1153 
Q 1172 725 1289 603 
Q 1406 481 1766 481 
L 2356 481 
L 2356 0 
L 1766 0 
Q 1100 0 847 248 
Q 594 497 594 1153 
L 594 3053 
L 172 3053 
L 172 3500 
L 594 3500 
L 594 4494 
L 1172 4494 
z
" transform="scale(0.015625)"/>
      </defs>
      <use xlink:href="#DejaVuSans-45"/>
      <use xlink:href="#DejaVuSans-78" x="63.183594"/>
      <use xlink:href="#DejaVuSans-70" x="122.363281"/>
      <use xlink:href="#DejaVuSans-6f" x="185.839844"/>
      <use xlink:href="#DejaVuSans-6e" x="247.021484"/>
      <use xlink:href="#DejaVuSans-65" x="310.400391"/>
      <use xlink:href="#DejaVuSans-6e" x="371.923828"/>
      <use xlink:href="#DejaVuSans-74" x="435.302734"/>
     </g>
    </g>
   </g>
   <g id="matplotlib.axis_2">
    <g id="ytick_1">
     <g id="line2d_8">
      <defs>
       <path id="m2c53065165" d="M 0 0 
L -3.5 0 
" style="stroke: #000000; stroke-width: 0.8"/>
      </defs>
      <g>
       <use xlink:href="#m2c53065165" x="54.2" y="375.495574" style="stroke: #000000; stroke-width: 0.8"/>
      </g>
     </g>
     <g id="text_9">
      <!-- 0.0 -->
      <g transform="translate(31.296875 379.294793) scale(0.1 -0.1)">
       <use xlink:href="#DejaVuSans-30"/>
       <use xlink:href="#DejaVuSans-2e" x="63.623047"/>
       <use xlink:href="#DejaVuSans-30" x="95.410156"/>
      </g>
     </g>
    </g>
    <g id="ytick_2">
     <g id="line2d_9">
      <g>
       <use xlink:href="#m2c53065165" x="54.2" y="330.84997" style="stroke: #000000; stroke-width: 0.8"/>
      </g>
     </g>
     <g id="text_10">
      <!-- 2.5 -->
      <g transform="translate(31.296875 334.649189) scale(0.1 -0.1)">
       <defs>
        <path id="DejaVuSans-35" d="M 691 4666 
L 3169 4666 
L 3169 4134 
L 1269 4134 
L 1269 2991 
Q 1406 3038 1543 3061 
Q 1681 3084 1819 3084 
Q 2600 3084 3056 2656 
Q 3513 2228 3513 1497 
Q 3513 744 3044 326 
Q 2575 -91 1722 -91 
Q 1428 -91 1123 -41 
Q 819 9 494 109 
L 494 744 
Q 775 591 1075 516 
Q 1375 441 1709 441 
Q 2250 441 2565 725 
Q 2881 1009 2881 1497 
Q 2881 1984 2565 2268 
Q 2250 2553 1709 2553 
Q 1456 2553 1204 2497 
Q 953 2441 691 2322 
L 691 4666 
z
" transform="scale(0.015625)"/>
       </defs>
       <use xlink:href="#DejaVuSans-32"/>
       <use xlink:href="#DejaVuSans-2e" x="63.623047"/>
       <use xlink:href="#DejaVuSans-35" x="95.410156"/>
      </g>
     </g>
    </g>
    <g id="ytick_3">
     <g id="line2d_10">
      <g>
       <use xlink:href="#m2c53065165" x="54.2" y="286.204367" style="stroke: #000000; stroke-width: 0.8"/>
      </g>
     </g>
     <g id="text_11">
      <!-- 5.0 -->
      <g transform="translate(31.296875 290.003585) scale(0.1 -0.1)">
       <use xlink:href="#DejaVuSans-35"/>
       <use xlink:href="#DejaVuSans-2e" x="63.623047"/>
       <use xlink:href="#DejaVuSans-30" x="95.410156"/>
      </g>
     </g>
    </g>
    <g id="ytick_4">
     <g id="line2d_11">
      <g>
       <use xlink:href="#m2c53065165" x="54.2" y="241.558763" style="stroke: #000000; stroke-width: 0.8"/>
      </g>
     </g>
     <g id="text_12">
      <!-- 7.5 -->
      <g transform="translate(31.296875 245.357982) scale(0.1 -0.1)">
       <defs>
        <path id="DejaVuSans-37" d="M 525 4666 
L 3525 4666 
L 3525 4397 
L 1831 0 
L 1172 0 
L 2766 4134 
L 525 4134 
L 525 4666 
z
" transform="scale(0.015625)"/>
       </defs>
       <use xlink:href="#DejaVuSans-37"/>
       <use xlink:href="#DejaVuSans-2e" x="63.623047"/>
       <use xlink:href="#DejaVuSans-35" x="95.410156"/>
      </g>
     </g>
    </g>
    <g id="ytick_5">
     <g id="line2d_12">
      <g>
       <use xlink:href="#m2c53065165" x="54.2" y="196.913159" style="stroke: #000000; stroke-width: 0.8"/>
      </g>
     </g>
     <g id="text_13">
      <!-- 10.0 -->
      <g transform="translate(24.934375 200.712378) scale(0.1 -0.1)">
       <use xlink:href="#DejaVuSans-31"/>
       <use xlink:href="#DejaVuSans-30" x="63.623047"/>
       <use xlink:href="#DejaVuSans-2e" x="127.246094"/>
       <use xlink:href="#DejaVuSans-30" x="159.033203"/>
      </g>
     </g>
    </g>
    <g id="ytick_6">
     <g id="line2d_13">
      <g>
       <use xlink:href="#m2c53065165" x="54.2" y="152.267555" style="stroke: #000000; stroke-width: 0.8"/>
      </g>
     </g>
     <g id="text_14">
      <!-- 12.5 -->
      <g transform="translate(24.934375 156.066774) scale(0.1 -0.1)">
       <use xlink:href="#DejaVuSans-31"/>
       <use xlink:href="#DejaVuSans-32" x="63.623047"/>
       <use xlink:href="#DejaVuSans-2e" x="127.246094"/>
       <use xlink:href="#DejaVuSans-35" x="159.033203"/>
      </g>
     </g>
    </g>
    <g id="ytick_7">
     <g id="line2d_14">
      <g>
       <use xlink:href="#m2c53065165" x="54.2" y="107.621952" style="stroke: #000000; stroke-width: 0.8"/>
      </g>
     </g>
     <g id="text_15">
      <!-- 15.0 -->
      <g transform="translate(24.934375 111.42117) scale(0.1 -0.1)">
       <use xlink:href="#DejaVuSans-31"/>
       <use xlink:href="#DejaVuSans-35" x="63.623047"/>
       <use xlink:href="#DejaVuSans-2e" x="127.246094"/>
       <use xlink:href="#DejaVuSans-30" x="159.033203"/>
      </g>
     </g>
    </g>
    <g id="ytick_8">
     <g id="line2d_15">
      <g>
       <use xlink:href="#m2c53065165" x="54.2" y="62.976348" style="stroke: #000000; stroke-width: 0.8"/>
      </g>
     </g>
     <g id="text_16">
      <!-- 17.5 -->
      <g transform="translate(24.934375 66.775567) scale(0.1 -0.1)">
       <use xlink:href="#DejaVuSans-31"/>
       <use xlink:href="#DejaVuSans-37" x="63.623047"/>
       <use xlink:href="#DejaVuSans-2e" x="127.246094"/>
       <use xlink:href="#DejaVuSans-35" x="159.033203"/>
      </g>
     </g>
    </g>
    <g id="text_17">
     <!-- Density -->
     <g transform="translate(18.854688 227.108594) rotate(-90) scale(0.1 -0.1)">
      <defs>
       <path id="DejaVuSans-44" d="M 1259 4147 
L 1259 519 
L 2022 519 
Q 2988 519 3436 956 
Q 3884 1394 3884 2338 
Q 3884 3275 3436 3711 
Q 2988 4147 2022 4147 
L 1259 4147 
z
M 628 4666 
L 1925 4666 
Q 3281 4666 3915 4102 
Q 4550 3538 4550 2338 
Q 4550 1131 3912 565 
Q 3275 0 1925 0 
L 628 0 
L 628 4666 
z
" transform="scale(0.015625)"/>
       <path id="DejaVuSans-73" d="M 2834 3397 
L 2834 2853 
Q 2591 2978 2328 3040 
Q 2066 3103 1784 3103 
Q 1356 3103 1142 2972 
Q 928 2841 928 2578 
Q 928 2378 1081 2264 
Q 1234 2150 1697 2047 
L 1894 2003 
Q 2506 1872 2764 1633 
Q 3022 1394 3022 966 
Q 3022 478 2636 193 
Q 2250 -91 1575 -91 
Q 1294 -91 989 -36 
Q 684 19 347 128 
L 347 722 
Q 666 556 975 473 
Q 1284 391 1588 391 
Q 1994 391 2212 530 
Q 2431 669 2431 922 
Q 2431 1156 2273 1281 
Q 2116 1406 1581 1522 
L 1381 1569 
Q 847 1681 609 1914 
Q 372 2147 372 2553 
Q 372 3047 722 3315 
Q 1072 3584 1716 3584 
Q 2034 3584 2315 3537 
Q 2597 3491 2834 3397 
z
" transform="scale(0.015625)"/>
       <path id="DejaVuSans-69" d="M 603 3500 
L 1178 3500 
L 1178 0 
L 603 0 
L 603 3500 
z
M 603 4863 
L 1178 4863 
L 1178 4134 
L 603 4134 
L 603 4863 
z
" transform="scale(0.015625)"/>
       <path id="DejaVuSans-79" d="M 2059 -325 
Q 1816 -950 1584 -1140 
Q 1353 -1331 966 -1331 
L 506 -1331 
L 506 -850 
L 844 -850 
Q 1081 -850 1212 -737 
Q 1344 -625 1503 -206 
L 1606 56 
L 191 3500 
L 800 3500 
L 1894 763 
L 2988 3500 
L 3597 3500 
L 2059 -325 
z
" transform="scale(0.015625)"/>
      </defs>
      <use xlink:href="#DejaVuSans-44"/>
      <use xlink:href="#DejaVuSans-65" x="77.001953"/>
      <use xlink:href="#DejaVuSans-6e" x="138.525391"/>
      <use xlink:href="#DejaVuSans-73" x="201.904297"/>
      <use xlink:href="#DejaVuSans-69" x="254.003906"/>
      <use xlink:href="#DejaVuSans-74" x="281.787109"/>
      <use xlink:href="#DejaVuSans-79" x="320.996094"/>
     </g>
    </g>
   </g>
   <g id="line2d_16">
    <path d="M 115.572064 367.90981 
L 129.815754 366.015482 
L 145.585554 363.684953 
L 167.968495 360.123241 
L 193.403656 356.124921 
L 207.138643 354.195375 
L 218.838817 352.774933 
L 229.521584 351.706137 
L 239.186945 350.955887 
L 248.852306 350.430513 
L 258.008964 350.150121 
L 267.165622 350.083938 
L 276.830983 350.241961 
L 286.496344 350.621646 
L 296.670408 351.238786 
L 307.861879 352.138677 
L 321.088162 353.43421 
L 339.401478 355.47913 
L 372.467187 359.197229 
L 387.728283 360.668421 
L 401.971973 361.821304 
L 416.215663 362.749248 
L 431.47676 363.513697 
L 449.281372 364.171641 
L 478.786159 364.99495 
L 507.273538 365.873591 
L 528.639073 366.759444 
L 551.022015 367.918825 
L 583.070317 369.834172 
L 619.188245 371.93887 
L 623.766574 372.178271 
L 623.766574 372.178271 
" clip-path="url(#pd22b40ff0f)" style="fill: none; stroke: #ff0000; stroke-width: 1.5; stroke-linecap: square"/>
   </g>
   <g id="line2d_17">
    <path d="M 83.972727 370.940465 
L 98.828951 369.573523 
L 113.685174 367.983116 
L 130.324145 365.969632 
L 151.717107 363.131853 
L 187.372043 358.377959 
L 202.228267 356.646204 
L 214.707495 355.405236 
L 226.592473 354.447509 
L 237.883203 353.765432 
L 248.579684 353.336151 
L 259.276165 353.120244 
L 270.566895 353.11666 
L 282.451874 353.34312 
L 294.931102 353.802804 
L 309.193076 354.551504 
L 327.614794 355.757786 
L 392.982177 360.248251 
L 414.375139 361.371364 
L 438.145097 362.386772 
L 474.394283 363.673857 
L 513.614713 365.131355 
L 540.950164 366.37827 
L 570.068362 367.937729 
L 649.697721 372.35019 
L 673.467678 373.348933 
L 677.627421 373.5 
L 677.627421 373.5 
" clip-path="url(#pd22b40ff0f)" style="fill: none; stroke: #440154; stroke-width: 1.5; stroke-linecap: square"/>
   </g>
   <g id="line2d_18">
    <path d="M 241.105853 293.366223 
L 243.189996 259.797611 
L 246.269551 210.528728 
L 247.887095 188.33489 
L 249.442425 170.008384 
L 251.588781 147.665121 
L 253.766244 124.300515 
L 255.477108 103.301056 
L 259.116582 57.525471 
L 259.987567 49.719816 
L 260.671912 45.416013 
L 261.169618 43.496133 
L 261.542897 42.797458 
L 261.79175 42.705876 
L 262.009496 42.880246 
L 262.289456 43.462672 
L 262.662735 44.881284 
L 263.129334 47.708186 
L 263.689253 52.663068 
L 264.342492 60.580096 
L 265.120158 72.882849 
L 266.053356 91.39389 
L 267.235407 119.641698 
L 268.977378 167.357427 
L 272.088039 252.692063 
L 272.181359 255.006847 
L 272.181359 255.006847 
" clip-path="url(#pd22b40ff0f)" style="fill: none; stroke: #3b528b; stroke-width: 1.5; stroke-linecap: square"/>
   </g>
   <g id="line2d_19">
    <path d="M 110.7134 367.104529 
L 147.332629 363.932398 
L 179.579414 361.224722 
L 199.801973 359.750648 
L 217.291754 358.698827 
L 233.141869 357.964478 
L 248.445427 357.474343 
L 263.748986 357.207391 
L 279.052544 357.159502 
L 295.449214 357.333153 
L 313.485551 357.754715 
L 334.801222 358.488181 
L 366.501451 359.832858 
L 414.051794 361.825837 
L 445.752022 362.908807 
L 490.023031 364.163871 
L 535.387151 365.516818 
L 567.633935 366.710373 
L 603.160053 368.261932 
L 656.722509 370.764599 
L 656.722509 370.764599 
" clip-path="url(#pd22b40ff0f)" style="fill: none; stroke: #21918c; stroke-width: 1.5; stroke-linecap: square"/>
   </g>
   <g id="line2d_20">
    <path d="M 94.492924 371.062438 
L 124.354437 369.456555 
L 170.024987 366.740305 
L 215.695537 364.099421 
L 246.72809 362.533334 
L 276.004083 361.278059 
L 306.451117 360.195712 
L 338.654709 359.272002 
L 370.858302 358.568381 
L 399.548776 358.16111 
L 424.14061 358.027187 
L 446.390365 358.121829 
L 467.46908 358.433564 
L 487.962276 358.963928 
L 507.869951 359.699792 
L 528.948667 360.706454 
L 551.783941 362.02889 
L 578.717855 363.821296 
L 672.986554 370.306786 
L 679.427273 370.679361 
L 679.427273 370.679361 
" clip-path="url(#pd22b40ff0f)" style="fill: none; stroke: #5ec962; stroke-width: 1.5; stroke-linecap: square"/>
   </g>
   <g id="line2d_21">
    <path d="M 140.089019 369.966436 
L 224.058964 365.308186 
L 250.948216 364.148087 
L 283.970105 362.965965 
L 334.446421 361.164239 
L 360.39219 359.990741 
L 390.11189 358.406504 
L 431.625122 356.195264 
L 449.55129 355.48389 
L 464.647011 355.104285 
L 478.327507 354.977912 
L 491.536263 355.078379 
L 504.273277 355.395026 
L 517.010291 355.929248 
L 530.219047 356.70387 
L 544.371285 357.759943 
L 559.938747 359.148085 
L 578.808397 361.061403 
L 611.358545 364.61147 
L 611.358545 364.61147 
" clip-path="url(#pd22b40ff0f)" style="fill: none; stroke: #fde725; stroke-width: 1.5; stroke-linecap: square"/>
   </g>
   <g id="patch_3">
    <path d="M 54.2 390.04 
L 54.2 26.16 
" style="fill: none; stroke: #000000; stroke-width: 0.8; stroke-linejoin: miter; stroke-linecap: square"/>
   </g>
   <g id="patch_4">
    <path d="M 709.2 390.04 
L 709.2 26.16 
" style="fill: none; stroke: #000000; stroke-width: 0.8; stroke-linejoin: miter; stroke-linecap: square"/>
   </g>
   <g id="patch_5">
    <path d="M 54.2 390.04 
L 709.2 390.04 
" style="fill: none; stroke: #000000; stroke-width: 0.8; stroke-linejoin: miter; stroke-linecap: square"/>
   </g>
   <g id="patch_6">
    <path d="M 54.2 26.16 
L 709.2 26.16 
" style="fill: none; stroke: #000000; stroke-width: 0.8; stroke-linejoin: miter; stroke-linecap: square"/>
   </g>
   <g id="text_18">
    <!-- All Terrain Distributions Compared to Flat Terrain -->
    <g transform="translate(235.876562 20.16) scale(0.12 -0.12)">
     <defs>
      <path id="DejaVuSans-41" d="M 2188 4044 
L 1331 1722 
L 3047 1722 
L 2188 4044 
z
M 1831 4666 
L 2547 4666 
L 4325 0 
L 3669 0 
L 3244 1197 
L 1141 1197 
L 716 0 
L 50 0 
L 1831 4666 
z
" transform="scale(0.015625)"/>
      <path id="DejaVuSans-6c" d="M 603 4863 
L 1178 4863 
L 1178 0 
L 603 0 
L 603 4863 
z
" transform="scale(0.015625)"/>
      <path id="DejaVuSans-20" transform="scale(0.015625)"/>
      <path id="DejaVuSans-54" d="M -19 4666 
L 3928 4666 
L 3928 4134 
L 2272 4134 
L 2272 0 
L 1638 0 
L 1638 4134 
L -19 4134 
L -19 4666 
z
" transform="scale(0.015625)"/>
      <path id="DejaVuSans-72" d="M 2631 2963 
Q 2534 3019 2420 3045 
Q 2306 3072 2169 3072 
Q 1681 3072 1420 2755 
Q 1159 2438 1159 1844 
L 1159 0 
L 581 0 
L 581 3500 
L 1159 3500 
L 1159 2956 
Q 1341 3275 1631 3429 
Q 1922 3584 2338 3584 
Q 2397 3584 2469 3576 
Q 2541 3569 2628 3553 
L 2631 2963 
z
" transform="scale(0.015625)"/>
      <path id="DejaVuSans-61" d="M 2194 1759 
Q 1497 1759 1228 1600 
Q 959 1441 959 1056 
Q 959 750 1161 570 
Q 1363 391 1709 391 
Q 2188 391 2477 730 
Q 2766 1069 2766 1631 
L 2766 1759 
L 2194 1759 
z
M 3341 1997 
L 3341 0 
L 2766 0 
L 2766 531 
Q 2569 213 2275 61 
Q 1981 -91 1556 -91 
Q 1019 -91 701 211 
Q 384 513 384 1019 
Q 384 1609 779 1909 
Q 1175 2209 1959 2209 
L 2766 2209 
L 2766 2266 
Q 2766 2663 2505 2880 
Q 2244 3097 1772 3097 
Q 1472 3097 1187 3025 
Q 903 2953 641 2809 
L 641 3341 
Q 956 3463 1253 3523 
Q 1550 3584 1831 3584 
Q 2591 3584 2966 3190 
Q 3341 2797 3341 1997 
z
" transform="scale(0.015625)"/>
      <path id="DejaVuSans-62" d="M 3116 1747 
Q 3116 2381 2855 2742 
Q 2594 3103 2138 3103 
Q 1681 3103 1420 2742 
Q 1159 2381 1159 1747 
Q 1159 1113 1420 752 
Q 1681 391 2138 391 
Q 2594 391 2855 752 
Q 3116 1113 3116 1747 
z
M 1159 2969 
Q 1341 3281 1617 3432 
Q 1894 3584 2278 3584 
Q 2916 3584 3314 3078 
Q 3713 2572 3713 1747 
Q 3713 922 3314 415 
Q 2916 -91 2278 -91 
Q 1894 -91 1617 61 
Q 1341 213 1159 525 
L 1159 0 
L 581 0 
L 581 4863 
L 1159 4863 
L 1159 2969 
z
" transform="scale(0.015625)"/>
      <path id="DejaVuSans-75" d="M 544 1381 
L 544 3500 
L 1119 3500 
L 1119 1403 
Q 1119 906 1312 657 
Q 1506 409 1894 409 
Q 2359 409 2629 706 
Q 2900 1003 2900 1516 
L 2900 3500 
L 3475 3500 
L 3475 0 
L 2900 0 
L 2900 538 
Q 2691 219 2414 64 
Q 2138 -91 1772 -91 
Q 1169 -91 856 284 
Q 544 659 544 1381 
z
M 1991 3584 
L 1991 3584 
z
" transform="scale(0.015625)"/>
      <path id="DejaVuSans-43" d="M 4122 4306 
L 4122 3641 
Q 3803 3938 3442 4084 
Q 3081 4231 2675 4231 
Q 1875 4231 1450 3742 
Q 1025 3253 1025 2328 
Q 1025 1406 1450 917 
Q 1875 428 2675 428 
Q 3081 428 3442 575 
Q 3803 722 4122 1019 
L 4122 359 
Q 3791 134 3420 21 
Q 3050 -91 2638 -91 
Q 1578 -91 968 557 
Q 359 1206 359 2328 
Q 359 3453 968 4101 
Q 1578 4750 2638 4750 
Q 3056 4750 3426 4639 
Q 3797 4528 4122 4306 
z
" transform="scale(0.015625)"/>
      <path id="DejaVuSans-6d" d="M 3328 2828 
Q 3544 3216 3844 3400 
Q 4144 3584 4550 3584 
Q 5097 3584 5394 3201 
Q 5691 2819 5691 2113 
L 5691 0 
L 5113 0 
L 5113 2094 
Q 5113 2597 4934 2840 
Q 4756 3084 4391 3084 
Q 3944 3084 3684 2787 
Q 3425 2491 3425 1978 
L 3425 0 
L 2847 0 
L 2847 2094 
Q 2847 2600 2669 2842 
Q 2491 3084 2119 3084 
Q 1678 3084 1418 2786 
Q 1159 2488 1159 1978 
L 1159 0 
L 581 0 
L 581 3500 
L 1159 3500 
L 1159 2956 
Q 1356 3278 1631 3431 
Q 1906 3584 2284 3584 
Q 2666 3584 2933 3390 
Q 3200 3197 3328 2828 
z
" transform="scale(0.015625)"/>
      <path id="DejaVuSans-64" d="M 2906 2969 
L 2906 4863 
L 3481 4863 
L 3481 0 
L 2906 0 
L 2906 525 
Q 2725 213 2448 61 
Q 2172 -91 1784 -91 
Q 1150 -91 751 415 
Q 353 922 353 1747 
Q 353 2572 751 3078 
Q 1150 3584 1784 3584 
Q 2172 3584 2448 3432 
Q 2725 3281 2906 2969 
z
M 947 1747 
Q 947 1113 1208 752 
Q 1469 391 1925 391 
Q 2381 391 2643 752 
Q 2906 1113 2906 1747 
Q 2906 2381 2643 2742 
Q 2381 3103 1925 3103 
Q 1469 3103 1208 2742 
Q 947 2381 947 1747 
z
" transform="scale(0.015625)"/>
      <path id="DejaVuSans-46" d="M 628 4666 
L 3309 4666 
L 3309 4134 
L 1259 4134 
L 1259 2759 
L 3109 2759 
L 3109 2228 
L 1259 2228 
L 1259 0 
L 628 0 
L 628 4666 
z
" transform="scale(0.015625)"/>
     </defs>
     <use xlink:href="#DejaVuSans-41"/>
     <use xlink:href="#DejaVuSans-6c" x="68.408203"/>
     <use xlink:href="#DejaVuSans-6c" x="96.191406"/>
     <use xlink:href="#DejaVuSans-20" x="123.974609"/>
     <use xlink:href="#DejaVuSans-54" x="155.761719"/>
     <use xlink:href="#DejaVuSans-65" x="199.845703"/>
     <use xlink:href="#DejaVuSans-72" x="261.369141"/>
     <use xlink:href="#DejaVuSans-72" x="300.732422"/>
     <use xlink:href="#DejaVuSans-61" x="341.845703"/>
     <use xlink:href="#DejaVuSans-69" x="403.125"/>
     <use xlink:href="#DejaVuSans-6e" x="430.908203"/>
     <use xlink:href="#DejaVuSans-20" x="494.287109"/>
     <use xlink:href="#DejaVuSans-44" x="526.074219"/>
     <use xlink:href="#DejaVuSans-69" x="603.076172"/>
     <use xlink:href="#DejaVuSans-73" x="630.859375"/>
     <use xlink:href="#DejaVuSans-74" x="682.958984"/>
     <use xlink:href="#DejaVuSans-72" x="722.167969"/>
     <use xlink:href="#DejaVuSans-69" x="763.28125"/>
     <use xlink:href="#DejaVuSans-62" x="791.064453"/>
     <use xlink:href="#DejaVuSans-75" x="854.541016"/>
     <use xlink:href="#DejaVuSans-74" x="917.919922"/>
     <use xlink:href="#DejaVuSans-69" x="957.128906"/>
     <use xlink:href="#DejaVuSans-6f" x="984.912109"/>
     <use xlink:href="#DejaVuSans-6e" x="1046.09375"/>
     <use xlink:href="#DejaVuSans-73" x="1109.472656"/>
     <use xlink:href="#DejaVuSans-20" x="1161.572266"/>
     <use xlink:href="#DejaVuSans-43" x="1193.359375"/>
     <use xlink:href="#DejaVuSans-6f" x="1263.183594"/>
     <use xlink:href="#DejaVuSans-6d" x="1324.365234"/>
     <use xlink:href="#DejaVuSans-70" x="1421.777344"/>
     <use xlink:href="#DejaVuSans-61" x="1485.253906"/>
     <use xlink:href="#DejaVuSans-72" x="1546.533203"/>
     <use xlink:href="#DejaVuSans-65" x="1585.396484"/>
     <use xlink:href="#DejaVuSans-64" x="1646.919922"/>
     <use xlink:href="#DejaVuSans-20" x="1710.396484"/>
     <use xlink:href="#DejaVuSans-74" x="1742.183594"/>
     <use xlink:href="#DejaVuSans-6f" x="1781.392578"/>
     <use xlink:href="#DejaVuSans-20" x="1842.574219"/>
     <use xlink:href="#DejaVuSans-46" x="1874.361328"/>
     <use xlink:href="#DejaVuSans-6c" x="1931.880859"/>
     <use xlink:href="#DejaVuSans-61" x="1959.664062"/>
     <use xlink:href="#DejaVuSans-74" x="2020.943359"/>
     <use xlink:href="#DejaVuSans-20" x="2060.152344"/>
     <use xlink:href="#DejaVuSans-54" x="2091.939453"/>
     <use xlink:href="#DejaVuSans-65" x="2136.023438"/>
     <use xlink:href="#DejaVuSans-72" x="2197.546875"/>
     <use xlink:href="#DejaVuSans-72" x="2236.910156"/>
     <use xlink:href="#DejaVuSans-61" x="2278.023438"/>
     <use xlink:href="#DejaVuSans-69" x="2339.302734"/>
     <use xlink:href="#DejaVuSans-6e" x="2367.085938"/>
    </g>
   </g>
   <g id="legend_1">
    <g id="patch_7">
     <path d="M 549.248437 123.34125 
L 702.2 123.34125 
Q 704.2 123.34125 704.2 121.34125 
L 704.2 33.16 
Q 704.2 31.16 702.2 31.16 
L 549.248437 31.16 
Q 547.248437 31.16 547.248437 33.16 
L 547.248437 121.34125 
Q 547.248437 123.34125 549.248437 123.34125 
z
" style="fill: #ffffff; opacity: 0.8; stroke: #cccccc; stroke-linejoin: miter"/>
    </g>
    <g id="line2d_22">
     <path d="M 551.248437 39.258437 
L 561.248437 39.258437 
L 571.248437 39.258437 
" style="fill: none; stroke: #ff0000; stroke-width: 1.5; stroke-linecap: square"/>
    </g>
    <g id="text_19">
     <!-- Flat Terrain -->
     <g transform="translate(579.248437 42.758437) scale(0.1 -0.1)">
      <use xlink:href="#DejaVuSans-46"/>
      <use xlink:href="#DejaVuSans-6c" x="57.519531"/>
      <use xlink:href="#DejaVuSans-61" x="85.302734"/>
      <use xlink:href="#DejaVuSans-74" x="146.582031"/>
      <use xlink:href="#DejaVuSans-20" x="185.791016"/>
      <use xlink:href="#DejaVuSans-54" x="217.578125"/>
      <use xlink:href="#DejaVuSans-65" x="261.662109"/>
      <use xlink:href="#DejaVuSans-72" x="323.185547"/>
      <use xlink:href="#DejaVuSans-72" x="362.548828"/>
      <use xlink:href="#DejaVuSans-61" x="403.662109"/>
      <use xlink:href="#DejaVuSans-69" x="464.941406"/>
      <use xlink:href="#DejaVuSans-6e" x="492.724609"/>
     </g>
    </g>
    <g id="line2d_23">
     <path d="M 551.248437 53.936562 
L 561.248437 53.936562 
L 571.248437 53.936562 
" style="fill: none; stroke: #440154; stroke-width: 1.5; stroke-linecap: square"/>
    </g>
    <g id="text_20">
     <!-- terrain Terrain -->
     <g transform="translate(579.248437 57.436562) scale(0.1 -0.1)">
      <use xlink:href="#DejaVuSans-74"/>
      <use xlink:href="#DejaVuSans-65" x="39.208984"/>
      <use xlink:href="#DejaVuSans-72" x="100.732422"/>
      <use xlink:href="#DejaVuSans-72" x="140.095703"/>
      <use xlink:href="#DejaVuSans-61" x="181.208984"/>
      <use xlink:href="#DejaVuSans-69" x="242.488281"/>
      <use xlink:href="#DejaVuSans-6e" x="270.271484"/>
      <use xlink:href="#DejaVuSans-20" x="333.650391"/>
      <use xlink:href="#DejaVuSans-54" x="365.4375"/>
      <use xlink:href="#DejaVuSans-65" x="409.521484"/>
      <use xlink:href="#DejaVuSans-72" x="471.044922"/>
      <use xlink:href="#DejaVuSans-72" x="510.408203"/>
      <use xlink:href="#DejaVuSans-61" x="551.521484"/>
      <use xlink:href="#DejaVuSans-69" x="612.800781"/>
      <use xlink:href="#DejaVuSans-6e" x="640.583984"/>
     </g>
    </g>
    <g id="line2d_24">
     <path d="M 551.248437 68.614687 
L 561.248437 68.614687 
L 571.248437 68.614687 
" style="fill: none; stroke: #3b528b; stroke-width: 1.5; stroke-linecap: square"/>
    </g>
    <g id="text_21">
     <!-- amputate_R2 Terrain -->
     <g transform="translate(579.248437 72.114687) scale(0.1 -0.1)">
      <defs>
       <path id="DejaVuSans-5f" d="M 3263 -1063 
L 3263 -1509 
L -63 -1509 
L -63 -1063 
L 3263 -1063 
z
" transform="scale(0.015625)"/>
       <path id="DejaVuSans-52" d="M 2841 2188 
Q 3044 2119 3236 1894 
Q 3428 1669 3622 1275 
L 4263 0 
L 3584 0 
L 2988 1197 
Q 2756 1666 2539 1819 
Q 2322 1972 1947 1972 
L 1259 1972 
L 1259 0 
L 628 0 
L 628 4666 
L 2053 4666 
Q 2853 4666 3247 4331 
Q 3641 3997 3641 3322 
Q 3641 2881 3436 2590 
Q 3231 2300 2841 2188 
z
M 1259 4147 
L 1259 2491 
L 2053 2491 
Q 2509 2491 2742 2702 
Q 2975 2913 2975 3322 
Q 2975 3731 2742 3939 
Q 2509 4147 2053 4147 
L 1259 4147 
z
" transform="scale(0.015625)"/>
      </defs>
      <use xlink:href="#DejaVuSans-61"/>
      <use xlink:href="#DejaVuSans-6d" x="61.279297"/>
      <use xlink:href="#DejaVuSans-70" x="158.691406"/>
      <use xlink:href="#DejaVuSans-75" x="222.167969"/>
      <use xlink:href="#DejaVuSans-74" x="285.546875"/>
      <use xlink:href="#DejaVuSans-61" x="324.755859"/>
      <use xlink:href="#DejaVuSans-74" x="386.035156"/>
      <use xlink:href="#DejaVuSans-65" x="425.244141"/>
      <use xlink:href="#DejaVuSans-5f" x="486.767578"/>
      <use xlink:href="#DejaVuSans-52" x="536.767578"/>
      <use xlink:href="#DejaVuSans-32" x="606.25"/>
      <use xlink:href="#DejaVuSans-20" x="669.873047"/>
      <use xlink:href="#DejaVuSans-54" x="701.660156"/>
      <use xlink:href="#DejaVuSans-65" x="745.744141"/>
      <use xlink:href="#DejaVuSans-72" x="807.267578"/>
      <use xlink:href="#DejaVuSans-72" x="846.630859"/>
      <use xlink:href="#DejaVuSans-61" x="887.744141"/>
      <use xlink:href="#DejaVuSans-69" x="949.023438"/>
      <use xlink:href="#DejaVuSans-6e" x="976.806641"/>
     </g>
    </g>
    <g id="line2d_25">
     <path d="M 551.248437 83.570937 
L 561.248437 83.570937 
L 571.248437 83.570937 
" style="fill: none; stroke: #21918c; stroke-width: 1.5; stroke-linecap: square"/>
    </g>
    <g id="text_22">
     <!-- amputate_L3 Terrain -->
     <g transform="translate(579.248437 87.070937) scale(0.1 -0.1)">
      <defs>
       <path id="DejaVuSans-4c" d="M 628 4666 
L 1259 4666 
L 1259 531 
L 3531 531 
L 3531 0 
L 628 0 
L 628 4666 
z
" transform="scale(0.015625)"/>
       <path id="DejaVuSans-33" d="M 2597 2516 
Q 3050 2419 3304 2112 
Q 3559 1806 3559 1356 
Q 3559 666 3084 287 
Q 2609 -91 1734 -91 
Q 1441 -91 1130 -33 
Q 819 25 488 141 
L 488 750 
Q 750 597 1062 519 
Q 1375 441 1716 441 
Q 2309 441 2620 675 
Q 2931 909 2931 1356 
Q 2931 1769 2642 2001 
Q 2353 2234 1838 2234 
L 1294 2234 
L 1294 2753 
L 1863 2753 
Q 2328 2753 2575 2939 
Q 2822 3125 2822 3475 
Q 2822 3834 2567 4026 
Q 2313 4219 1838 4219 
Q 1578 4219 1281 4162 
Q 984 4106 628 3988 
L 628 4550 
Q 988 4650 1302 4700 
Q 1616 4750 1894 4750 
Q 2613 4750 3031 4423 
Q 3450 4097 3450 3541 
Q 3450 3153 3228 2886 
Q 3006 2619 2597 2516 
z
" transform="scale(0.015625)"/>
      </defs>
      <use xlink:href="#DejaVuSans-61"/>
      <use xlink:href="#DejaVuSans-6d" x="61.279297"/>
      <use xlink:href="#DejaVuSans-70" x="158.691406"/>
      <use xlink:href="#DejaVuSans-75" x="222.167969"/>
      <use xlink:href="#DejaVuSans-74" x="285.546875"/>
      <use xlink:href="#DejaVuSans-61" x="324.755859"/>
      <use xlink:href="#DejaVuSans-74" x="386.035156"/>
      <use xlink:href="#DejaVuSans-65" x="425.244141"/>
      <use xlink:href="#DejaVuSans-5f" x="486.767578"/>
      <use xlink:href="#DejaVuSans-4c" x="536.767578"/>
      <use xlink:href="#DejaVuSans-33" x="592.480469"/>
      <use xlink:href="#DejaVuSans-20" x="656.103516"/>
      <use xlink:href="#DejaVuSans-54" x="687.890625"/>
      <use xlink:href="#DejaVuSans-65" x="731.974609"/>
      <use xlink:href="#DejaVuSans-72" x="793.498047"/>
      <use xlink:href="#DejaVuSans-72" x="832.861328"/>
      <use xlink:href="#DejaVuSans-61" x="873.974609"/>
      <use xlink:href="#DejaVuSans-69" x="935.253906"/>
      <use xlink:href="#DejaVuSans-6e" x="963.037109"/>
     </g>
    </g>
    <g id="line2d_26">
     <path d="M 551.248437 98.527187 
L 561.248437 98.527187 
L 571.248437 98.527187 
" style="fill: none; stroke: #5ec962; stroke-width: 1.5; stroke-linecap: square"/>
    </g>
    <g id="text_23">
     <!-- amputate_R2_L2 Terrain -->
     <g transform="translate(579.248437 102.027187) scale(0.1 -0.1)">
      <use xlink:href="#DejaVuSans-61"/>
      <use xlink:href="#DejaVuSans-6d" x="61.279297"/>
      <use xlink:href="#DejaVuSans-70" x="158.691406"/>
      <use xlink:href="#DejaVuSans-75" x="222.167969"/>
      <use xlink:href="#DejaVuSans-74" x="285.546875"/>
      <use xlink:href="#DejaVuSans-61" x="324.755859"/>
      <use xlink:href="#DejaVuSans-74" x="386.035156"/>
      <use xlink:href="#DejaVuSans-65" x="425.244141"/>
      <use xlink:href="#DejaVuSans-5f" x="486.767578"/>
      <use xlink:href="#DejaVuSans-52" x="536.767578"/>
      <use xlink:href="#DejaVuSans-32" x="606.25"/>
      <use xlink:href="#DejaVuSans-5f" x="669.873047"/>
      <use xlink:href="#DejaVuSans-4c" x="719.873047"/>
      <use xlink:href="#DejaVuSans-32" x="775.585938"/>
      <use xlink:href="#DejaVuSans-20" x="839.208984"/>
      <use xlink:href="#DejaVuSans-54" x="870.996094"/>
      <use xlink:href="#DejaVuSans-65" x="915.080078"/>
      <use xlink:href="#DejaVuSans-72" x="976.603516"/>
      <use xlink:href="#DejaVuSans-72" x="1015.966797"/>
      <use xlink:href="#DejaVuSans-61" x="1057.080078"/>
      <use xlink:href="#DejaVuSans-69" x="1118.359375"/>
      <use xlink:href="#DejaVuSans-6e" x="1146.142578"/>
     </g>
    </g>
    <g id="line2d_27">
     <path d="M 551.248437 113.483437 
L 561.248437 113.483437 
L 571.248437 113.483437 
" style="fill: none; stroke: #fde725; stroke-width: 1.5; stroke-linecap: square"/>
    </g>
    <g id="text_24">
     <!-- amputate_R3_L3 Terrain -->
     <g transform="translate(579.248437 116.983437) scale(0.1 -0.1)">
      <use xlink:href="#DejaVuSans-61"/>
      <use xlink:href="#DejaVuSans-6d" x="61.279297"/>
      <use xlink:href="#DejaVuSans-70" x="158.691406"/>
      <use xlink:href="#DejaVuSans-75" x="222.167969"/>
      <use xlink:href="#DejaVuSans-74" x="285.546875"/>
      <use xlink:href="#DejaVuSans-61" x="324.755859"/>
      <use xlink:href="#DejaVuSans-74" x="386.035156"/>
      <use xlink:href="#DejaVuSans-65" x="425.244141"/>
      <use xlink:href="#DejaVuSans-5f" x="486.767578"/>
      <use xlink:href="#DejaVuSans-52" x="536.767578"/>
      <use xlink:href="#DejaVuSans-33" x="606.25"/>
      <use xlink:href="#DejaVuSans-5f" x="669.873047"/>
      <use xlink:href="#DejaVuSans-4c" x="719.873047"/>
      <use xlink:href="#DejaVuSans-33" x="775.585938"/>
      <use xlink:href="#DejaVuSans-20" x="839.208984"/>
      <use xlink:href="#DejaVuSans-54" x="870.996094"/>
      <use xlink:href="#DejaVuSans-65" x="915.080078"/>
      <use xlink:href="#DejaVuSans-72" x="976.603516"/>
      <use xlink:href="#DejaVuSans-72" x="1015.966797"/>
      <use xlink:href="#DejaVuSans-61" x="1057.080078"/>
      <use xlink:href="#DejaVuSans-69" x="1118.359375"/>
      <use xlink:href="#DejaVuSans-6e" x="1146.142578"/>
     </g>
    </g>
   </g>
  </g>
 </g>
 <defs>
  <clipPath id="pd22b40ff0f">
   <rect x="54.2" y="26.16" width="655" height="363.88"/>
  </clipPath>
 </defs>
</svg>
