<?xml version="1.0" encoding="utf-8" standalone="no"?>
<!DOCTYPE svg PUBLIC "-//W3C//DTD SVG 1.1//EN"
  "http://www.w3.org/Graphics/SVG/1.1/DTD/svg11.dtd">
<svg xmlns:xlink="http://www.w3.org/1999/xlink" width="864pt" height="432pt" viewBox="0 0 864 432" xmlns="http://www.w3.org/2000/svg" version="1.1">
 <metadata>
  <rdf:RDF xmlns:dc="http://purl.org/dc/elements/1.1/" xmlns:cc="http://creativecommons.org/ns#" xmlns:rdf="http://www.w3.org/1999/02/22-rdf-syntax-ns#">
   <cc:Work>
    <dc:type rdf:resource="http://purl.org/dc/dcmitype/StillImage"/>
    <dc:date>2024-09-11T23:20:47.055518</dc:date>
    <dc:format>image/svg+xml</dc:format>
    <dc:creator>
     <cc:Agent>
      <dc:title>Matplotlib v3.9.2, https://matplotlib.org/</dc:title>
     </cc:Agent>
    </dc:creator>
   </cc:Work>
  </rdf:RDF>
 </metadata>
 <defs>
  <style type="text/css">*{stroke-linejoin: round; stroke-linecap: butt}</style>
 </defs>
 <g id="figure_1">
  <g id="patch_1">
   <path d="M 0 432 
L 864 432 
L 864 0 
L 0 0 
z
" style="fill: #ffffff"/>
  </g>
  <g id="axes_1">
   <g id="patch_2">
    <path d="M 52.985 333.648427 
L 853.2 333.648427 
L 853.2 26.16 
L 52.985 26.16 
z
" style="fill: #ffffff"/>
   </g>
   <g id="PolyCollection_1">
    <defs>
     <path id="m985e9b66e5" d="M 119.669583 -171.844334 
L 118.611463 -171.844334 
L 118.44062 -173.079123 
L 118.248957 -174.313912 
L 118.035143 -175.548701 
L 117.797964 -176.783489 
L 117.536354 -178.018278 
L 117.249435 -179.253067 
L 116.936555 -180.487856 
L 116.59732 -181.722645 
L 116.23163 -182.957434 
L 115.839708 -184.192222 
L 115.42212 -185.427011 
L 114.9798 -186.6618 
L 114.514055 -187.896589 
L 114.026568 -189.131378 
L 113.519395 -190.366166 
L 112.994946 -191.600955 
L 112.45596 -192.835744 
L 111.905471 -194.070533 
L 111.346765 -195.305322 
L 110.783325 -196.540111 
L 110.218775 -197.774899 
L 109.656813 -199.009688 
L 109.101145 -200.244477 
L 108.555409 -201.479266 
L 108.023105 -202.714055 
L 107.507527 -203.948844 
L 107.011693 -205.183632 
L 106.538285 -206.418421 
L 106.089595 -207.65321 
L 105.667477 -208.887999 
L 105.273318 -210.122788 
L 104.908007 -211.357576 
L 104.57193 -212.592365 
L 104.264963 -213.827154 
L 103.986494 -215.061943 
L 103.73544 -216.296732 
L 103.510289 -217.531521 
L 103.309146 -218.766309 
L 103.129789 -220.001098 
L 102.969738 -221.235887 
L 102.826322 -222.470676 
L 102.696762 -223.705465 
L 102.578248 -224.940254 
L 102.468021 -226.175042 
L 102.36346 -227.409831 
L 102.262154 -228.64462 
L 102.161987 -229.879409 
L 102.0612 -231.114198 
L 101.95846 -232.348986 
L 101.852911 -233.583775 
L 101.744216 -234.818564 
L 101.63259 -236.053353 
L 101.518818 -237.288142 
L 101.404256 -238.522931 
L 101.29082 -239.757719 
L 101.180963 -240.992508 
L 101.077623 -242.227297 
L 100.984177 -243.462086 
L 100.904356 -244.696875 
L 100.842169 -245.931664 
L 100.801802 -247.166452 
L 100.787513 -248.401241 
L 100.803514 -249.63603 
L 100.853865 -250.870819 
L 100.942346 -252.105608 
L 101.072352 -253.340396 
L 101.246781 -254.575185 
L 101.467943 -255.809974 
L 101.737473 -257.044763 
L 102.056267 -258.279552 
L 102.424437 -259.514341 
L 102.841283 -260.749129 
L 103.305287 -261.983918 
L 103.814136 -263.218707 
L 104.364759 -264.453496 
L 104.953388 -265.688285 
L 105.575637 -266.923073 
L 106.226599 -268.157862 
L 106.900949 -269.392651 
L 107.593067 -270.62744 
L 108.297154 -271.862229 
L 109.007359 -273.097018 
L 109.717899 -274.331806 
L 110.423171 -275.566595 
L 111.117861 -276.801384 
L 111.797032 -278.036173 
L 112.456205 -279.270962 
L 113.091418 -280.505751 
L 113.699276 -281.740539 
L 114.276975 -282.975328 
L 114.822312 -284.210117 
L 115.333686 -285.444906 
L 115.810074 -286.679695 
L 116.251004 -287.914483 
L 116.656509 -289.149272 
L 117.027079 -290.384061 
L 117.363607 -291.61885 
L 117.667327 -292.853639 
L 117.939753 -294.088428 
L 119.669583 -294.088428 
L 119.669583 -294.088428 
L 119.669583 -292.853639 
L 119.669583 -291.61885 
L 119.669583 -290.384061 
L 119.669583 -289.149272 
L 119.669583 -287.914483 
L 119.669583 -286.679695 
L 119.669583 -285.444906 
L 119.669583 -284.210117 
L 119.669583 -282.975328 
L 119.669583 -281.740539 
L 119.669583 -280.505751 
L 119.669583 -279.270962 
L 119.669583 -278.036173 
L 119.669583 -276.801384 
L 119.669583 -275.566595 
L 119.669583 -274.331806 
L 119.669583 -273.097018 
L 119.669583 -271.862229 
L 119.669583 -270.62744 
L 119.669583 -269.392651 
L 119.669583 -268.157862 
L 119.669583 -266.923073 
L 119.669583 -265.688285 
L 119.669583 -264.453496 
L 119.669583 -263.218707 
L 119.669583 -261.983918 
L 119.669583 -260.749129 
L 119.669583 -259.514341 
L 119.669583 -258.279552 
L 119.669583 -257.044763 
L 119.669583 -255.809974 
L 119.669583 -254.575185 
L 119.669583 -253.340396 
L 119.669583 -252.105608 
L 119.669583 -250.870819 
L 119.669583 -249.63603 
L 119.669583 -248.401241 
L 119.669583 -247.166452 
L 119.669583 -245.931664 
L 119.669583 -244.696875 
L 119.669583 -243.462086 
L 119.669583 -242.227297 
L 119.669583 -240.992508 
L 119.669583 -239.757719 
L 119.669583 -238.522931 
L 119.669583 -237.288142 
L 119.669583 -236.053353 
L 119.669583 -234.818564 
L 119.669583 -233.583775 
L 119.669583 -232.348986 
L 119.669583 -231.114198 
L 119.669583 -229.879409 
L 119.669583 -228.64462 
L 119.669583 -227.409831 
L 119.669583 -226.175042 
L 119.669583 -224.940254 
L 119.669583 -223.705465 
L 119.669583 -222.470676 
L 119.669583 -221.235887 
L 119.669583 -220.001098 
L 119.669583 -218.766309 
L 119.669583 -217.531521 
L 119.669583 -216.296732 
L 119.669583 -215.061943 
L 119.669583 -213.827154 
L 119.669583 -212.592365 
L 119.669583 -211.357576 
L 119.669583 -210.122788 
L 119.669583 -208.887999 
L 119.669583 -207.65321 
L 119.669583 -206.418421 
L 119.669583 -205.183632 
L 119.669583 -203.948844 
L 119.669583 -202.714055 
L 119.669583 -201.479266 
L 119.669583 -200.244477 
L 119.669583 -199.009688 
L 119.669583 -197.774899 
L 119.669583 -196.540111 
L 119.669583 -195.305322 
L 119.669583 -194.070533 
L 119.669583 -192.835744 
L 119.669583 -191.600955 
L 119.669583 -190.366166 
L 119.669583 -189.131378 
L 119.669583 -187.896589 
L 119.669583 -186.6618 
L 119.669583 -185.427011 
L 119.669583 -184.192222 
L 119.669583 -182.957434 
L 119.669583 -181.722645 
L 119.669583 -180.487856 
L 119.669583 -179.253067 
L 119.669583 -178.018278 
L 119.669583 -176.783489 
L 119.669583 -175.548701 
L 119.669583 -174.313912 
L 119.669583 -173.079123 
L 119.669583 -171.844334 
z
" style="stroke: #545454; stroke-width: 1.25"/>
    </defs>
    <g clip-path="url(#p22c6509e6b)">
     <use xlink:href="#m985e9b66e5" x="0" y="432" style="fill: #597dbf; stroke: #545454; stroke-width: 1.25"/>
    </g>
   </g>
   <g id="PolyCollection_2">
    <defs>
     <path id="m6aa01aa8ba" d="M 121.328479 -200.638738 
L 119.669583 -200.638738 
L 119.669583 -200.896238 
L 119.669583 -201.153739 
L 119.669583 -201.411239 
L 119.669583 -201.66874 
L 119.669583 -201.92624 
L 119.669583 -202.183741 
L 119.669583 -202.441241 
L 119.669583 -202.698742 
L 119.669583 -202.956242 
L 119.669583 -203.213743 
L 119.669583 -203.471244 
L 119.669583 -203.728744 
L 119.669583 -203.986245 
L 119.669583 -204.243745 
L 119.669583 -204.501246 
L 119.669583 -204.758746 
L 119.669583 -205.016247 
L 119.669583 -205.273747 
L 119.669583 -205.531248 
L 119.669583 -205.788748 
L 119.669583 -206.046249 
L 119.669583 -206.30375 
L 119.669583 -206.56125 
L 119.669583 -206.818751 
L 119.669583 -207.076251 
L 119.669583 -207.333752 
L 119.669583 -207.591252 
L 119.669583 -207.848753 
L 119.669583 -208.106253 
L 119.669583 -208.363754 
L 119.669583 -208.621255 
L 119.669583 -208.878755 
L 119.669583 -209.136256 
L 119.669583 -209.393756 
L 119.669583 -209.651257 
L 119.669583 -209.908757 
L 119.669583 -210.166258 
L 119.669583 -210.423758 
L 119.669583 -210.681259 
L 119.669583 -210.938759 
L 119.669583 -211.19626 
L 119.669583 -211.453761 
L 119.669583 -211.711261 
L 119.669583 -211.968762 
L 119.669583 -212.226262 
L 119.669583 -212.483763 
L 119.669583 -212.741263 
L 119.669583 -212.998764 
L 119.669583 -213.256264 
L 119.669583 -213.513765 
L 119.669583 -213.771265 
L 119.669583 -214.028766 
L 119.669583 -214.286267 
L 119.669583 -214.543767 
L 119.669583 -214.801268 
L 119.669583 -215.058768 
L 119.669583 -215.316269 
L 119.669583 -215.573769 
L 119.669583 -215.83127 
L 119.669583 -216.08877 
L 119.669583 -216.346271 
L 119.669583 -216.603771 
L 119.669583 -216.861272 
L 119.669583 -217.118773 
L 119.669583 -217.376273 
L 119.669583 -217.633774 
L 119.669583 -217.891274 
L 119.669583 -218.148775 
L 119.669583 -218.406275 
L 119.669583 -218.663776 
L 119.669583 -218.921276 
L 119.669583 -219.178777 
L 119.669583 -219.436277 
L 119.669583 -219.693778 
L 119.669583 -219.951279 
L 119.669583 -220.208779 
L 119.669583 -220.46628 
L 119.669583 -220.72378 
L 119.669583 -220.981281 
L 119.669583 -221.238781 
L 119.669583 -221.496282 
L 119.669583 -221.753782 
L 119.669583 -222.011283 
L 119.669583 -222.268783 
L 119.669583 -222.526284 
L 119.669583 -222.783785 
L 119.669583 -223.041285 
L 119.669583 -223.298786 
L 119.669583 -223.556286 
L 119.669583 -223.813787 
L 119.669583 -224.071287 
L 119.669583 -224.328788 
L 119.669583 -224.586288 
L 119.669583 -224.843789 
L 119.669583 -225.101289 
L 119.669583 -225.35879 
L 119.669583 -225.616291 
L 119.669583 -225.873791 
L 119.669583 -226.131292 
L 122.552812 -226.131292 
L 122.552812 -226.131292 
L 123.017333 -225.873791 
L 123.538818 -225.616291 
L 124.120987 -225.35879 
L 124.767237 -225.101289 
L 125.480526 -224.843789 
L 126.263259 -224.586288 
L 127.117158 -224.328788 
L 128.043143 -224.071287 
L 129.041212 -223.813787 
L 130.110327 -223.556286 
L 131.248314 -223.298786 
L 132.451779 -223.041285 
L 133.716042 -222.783785 
L 135.035096 -222.526284 
L 136.401597 -222.268783 
L 137.806877 -222.011283 
L 139.241 -221.753782 
L 140.692849 -221.496282 
L 142.150243 -221.238781 
L 143.600099 -220.981281 
L 145.028618 -220.72378 
L 146.421509 -220.46628 
L 147.764233 -220.208779 
L 149.04227 -219.951279 
L 150.241402 -219.693778 
L 151.347998 -219.436277 
L 152.349307 -219.178777 
L 153.233736 -218.921276 
L 153.991115 -218.663776 
L 154.612933 -218.406275 
L 155.09255 -218.148775 
L 155.425363 -217.891274 
L 155.608931 -217.633774 
L 155.643053 -217.376273 
L 155.529788 -217.118773 
L 155.273431 -216.861272 
L 154.880427 -216.603771 
L 154.359238 -216.346271 
L 153.720165 -216.08877 
L 152.975117 -215.83127 
L 152.137353 -215.573769 
L 151.221188 -215.316269 
L 150.24168 -215.058768 
L 149.214298 -214.801268 
L 148.154594 -214.543767 
L 147.07787 -214.286267 
L 145.998865 -214.028766 
L 144.93146 -213.771265 
L 143.888412 -213.513765 
L 142.88112 -213.256264 
L 141.919438 -212.998764 
L 141.011521 -212.741263 
L 140.163732 -212.483763 
L 139.380581 -212.226262 
L 138.664726 -211.968762 
L 138.017009 -211.711261 
L 137.436544 -211.453761 
L 136.920839 -211.19626 
L 136.465955 -210.938759 
L 136.066694 -210.681259 
L 135.716813 -210.423758 
L 135.409248 -210.166258 
L 135.136353 -209.908757 
L 134.890142 -209.651257 
L 134.662521 -209.393756 
L 134.445515 -209.136256 
L 134.231482 -208.878755 
L 134.013295 -208.621255 
L 133.78451 -208.363754 
L 133.539502 -208.106253 
L 133.273565 -207.848753 
L 132.982992 -207.591252 
L 132.665106 -207.333752 
L 132.318278 -207.076251 
L 131.941902 -206.818751 
L 131.536347 -206.56125 
L 131.102887 -206.30375 
L 130.643609 -206.046249 
L 130.161302 -205.788748 
L 129.659339 -205.531248 
L 129.141549 -205.273747 
L 128.612088 -205.016247 
L 128.075305 -204.758746 
L 127.535622 -204.501246 
L 126.997417 -204.243745 
L 126.464915 -203.986245 
L 125.942102 -203.728744 
L 125.43264 -203.471244 
L 124.939814 -203.213743 
L 124.466479 -202.956242 
L 124.015033 -202.698742 
L 123.587405 -202.441241 
L 123.185048 -202.183741 
L 122.808956 -201.92624 
L 122.459684 -201.66874 
L 122.13738 -201.411239 
L 121.841824 -201.153739 
L 121.572466 -200.896238 
L 121.328479 -200.638738 
z
" style="stroke: #545454; stroke-width: 1.25"/>
    </defs>
    <g clip-path="url(#p22c6509e6b)">
     <use xlink:href="#m6aa01aa8ba" x="0" y="432" style="fill: #d98b5f; stroke: #545454; stroke-width: 1.25"/>
    </g>
   </g>
   <g id="PolyCollection_3">
    <defs>
     <path id="mdc648d3968" d="M 253.03875 -189.065814 
L 251.712111 -189.065814 
L 251.479606 -190.275729 
L 251.216163 -191.485645 
L 250.919552 -192.69556 
L 250.587713 -193.905475 
L 250.218824 -195.11539 
L 249.811362 -196.325305 
L 249.364175 -197.53522 
L 248.876536 -198.745136 
L 248.34821 -199.955051 
L 247.779497 -201.164966 
L 247.171274 -202.374881 
L 246.525021 -203.584796 
L 245.842835 -204.794711 
L 245.127427 -206.004626 
L 244.382104 -207.214542 
L 243.610729 -208.424457 
L 242.817675 -209.634372 
L 242.007755 -210.844287 
L 241.186147 -212.054202 
L 240.358303 -213.264117 
L 239.529854 -214.474033 
L 238.706517 -215.683948 
L 237.893994 -216.893863 
L 237.09788 -218.103778 
L 236.323582 -219.313693 
L 235.576241 -220.523608 
L 234.860677 -221.733523 
L 234.181337 -222.943439 
L 233.542268 -224.153354 
L 232.947101 -225.363269 
L 232.399044 -226.573184 
L 231.90089 -227.783099 
L 231.455038 -228.993014 
L 231.063503 -230.20293 
L 230.727946 -231.412845 
L 230.449688 -232.62276 
L 230.229726 -233.832675 
L 230.068738 -235.04259 
L 229.967077 -236.252505 
L 229.924765 -237.46242 
L 229.941465 -238.672336 
L 230.016454 -239.882251 
L 230.14859 -241.092166 
L 230.336276 -242.302081 
L 230.577427 -243.511996 
L 230.869448 -244.721911 
L 231.209217 -245.931827 
L 231.593093 -247.141742 
L 232.01693 -248.351657 
L 232.476125 -249.561572 
L 232.965681 -250.771487 
L 233.480289 -251.981402 
L 234.014436 -253.191317 
L 234.562525 -254.401233 
L 235.119007 -255.611148 
L 235.678521 -256.821063 
L 236.236031 -258.030978 
L 236.786959 -259.240893 
L 237.327304 -260.450808 
L 237.853743 -261.660724 
L 238.363706 -262.870639 
L 238.855423 -264.080554 
L 239.327944 -265.290469 
L 239.781122 -266.500384 
L 240.215569 -267.710299 
L 240.63258 -268.920214 
L 241.034034 -270.13013 
L 241.422275 -271.340045 
L 241.799973 -272.54996 
L 242.169984 -273.759875 
L 242.535203 -274.96979 
L 242.898425 -276.179705 
L 243.262212 -277.389621 
L 243.628784 -278.599536 
L 243.999925 -279.809451 
L 244.376915 -281.019366 
L 244.760484 -282.229281 
L 245.150799 -283.439196 
L 245.54747 -284.649111 
L 245.949583 -285.859027 
L 246.355749 -287.068942 
L 246.76418 -288.278857 
L 247.172764 -289.488772 
L 247.579158 -290.698687 
L 247.980883 -291.908602 
L 248.375414 -293.118518 
L 248.760269 -294.328433 
L 249.133093 -295.538348 
L 249.491722 -296.748263 
L 249.834245 -297.958178 
L 250.159047 -299.168093 
L 250.464836 -300.378008 
L 250.75066 -301.587924 
L 251.015911 -302.797839 
L 251.260315 -304.007754 
L 251.483911 -305.217669 
L 251.687025 -306.427584 
L 251.87024 -307.637499 
L 252.03435 -308.847415 
L 253.03875 -308.847415 
L 253.03875 -308.847415 
L 253.03875 -307.637499 
L 253.03875 -306.427584 
L 253.03875 -305.217669 
L 253.03875 -304.007754 
L 253.03875 -302.797839 
L 253.03875 -301.587924 
L 253.03875 -300.378008 
L 253.03875 -299.168093 
L 253.03875 -297.958178 
L 253.03875 -296.748263 
L 253.03875 -295.538348 
L 253.03875 -294.328433 
L 253.03875 -293.118518 
L 253.03875 -291.908602 
L 253.03875 -290.698687 
L 253.03875 -289.488772 
L 253.03875 -288.278857 
L 253.03875 -287.068942 
L 253.03875 -285.859027 
L 253.03875 -284.649111 
L 253.03875 -283.439196 
L 253.03875 -282.229281 
L 253.03875 -281.019366 
L 253.03875 -279.809451 
L 253.03875 -278.599536 
L 253.03875 -277.389621 
L 253.03875 -276.179705 
L 253.03875 -274.96979 
L 253.03875 -273.759875 
L 253.03875 -272.54996 
L 253.03875 -271.340045 
L 253.03875 -270.13013 
L 253.03875 -268.920214 
L 253.03875 -267.710299 
L 253.03875 -266.500384 
L 253.03875 -265.290469 
L 253.03875 -264.080554 
L 253.03875 -262.870639 
L 253.03875 -261.660724 
L 253.03875 -260.450808 
L 253.03875 -259.240893 
L 253.03875 -258.030978 
L 253.03875 -256.821063 
L 253.03875 -255.611148 
L 253.03875 -254.401233 
L 253.03875 -253.191317 
L 253.03875 -251.981402 
L 253.03875 -250.771487 
L 253.03875 -249.561572 
L 253.03875 -248.351657 
L 253.03875 -247.141742 
L 253.03875 -245.931827 
L 253.03875 -244.721911 
L 253.03875 -243.511996 
L 253.03875 -242.302081 
L 253.03875 -241.092166 
L 253.03875 -239.882251 
L 253.03875 -238.672336 
L 253.03875 -237.46242 
L 253.03875 -236.252505 
L 253.03875 -235.04259 
L 253.03875 -233.832675 
L 253.03875 -232.62276 
L 253.03875 -231.412845 
L 253.03875 -230.20293 
L 253.03875 -228.993014 
L 253.03875 -227.783099 
L 253.03875 -226.573184 
L 253.03875 -225.363269 
L 253.03875 -224.153354 
L 253.03875 -222.943439 
L 253.03875 -221.733523 
L 253.03875 -220.523608 
L 253.03875 -219.313693 
L 253.03875 -218.103778 
L 253.03875 -216.893863 
L 253.03875 -215.683948 
L 253.03875 -214.474033 
L 253.03875 -213.264117 
L 253.03875 -212.054202 
L 253.03875 -210.844287 
L 253.03875 -209.634372 
L 253.03875 -208.424457 
L 253.03875 -207.214542 
L 253.03875 -206.004626 
L 253.03875 -204.794711 
L 253.03875 -203.584796 
L 253.03875 -202.374881 
L 253.03875 -201.164966 
L 253.03875 -199.955051 
L 253.03875 -198.745136 
L 253.03875 -197.53522 
L 253.03875 -196.325305 
L 253.03875 -195.11539 
L 253.03875 -193.905475 
L 253.03875 -192.69556 
L 253.03875 -191.485645 
L 253.03875 -190.275729 
L 253.03875 -189.065814 
z
" style="stroke: #545454; stroke-width: 1.25"/>
    </defs>
    <g clip-path="url(#p22c6509e6b)">
     <use xlink:href="#mdc648d3968" x="0" y="432" style="fill: #597dbf; stroke: #545454; stroke-width: 1.25"/>
    </g>
   </g>
   <g id="PolyCollection_4">
    <defs>
     <path id="mc089906fc5" d="M 256.423693 -215.811806 
L 253.03875 -215.811806 
L 253.03875 -215.980096 
L 253.03875 -216.148386 
L 253.03875 -216.316677 
L 253.03875 -216.484967 
L 253.03875 -216.653258 
L 253.03875 -216.821548 
L 253.03875 -216.989838 
L 253.03875 -217.158129 
L 253.03875 -217.326419 
L 253.03875 -217.49471 
L 253.03875 -217.663 
L 253.03875 -217.831291 
L 253.03875 -217.999581 
L 253.03875 -218.167871 
L 253.03875 -218.336162 
L 253.03875 -218.504452 
L 253.03875 -218.672743 
L 253.03875 -218.841033 
L 253.03875 -219.009324 
L 253.03875 -219.177614 
L 253.03875 -219.345904 
L 253.03875 -219.514195 
L 253.03875 -219.682485 
L 253.03875 -219.850776 
L 253.03875 -220.019066 
L 253.03875 -220.187357 
L 253.03875 -220.355647 
L 253.03875 -220.523937 
L 253.03875 -220.692228 
L 253.03875 -220.860518 
L 253.03875 -221.028809 
L 253.03875 -221.197099 
L 253.03875 -221.365389 
L 253.03875 -221.53368 
L 253.03875 -221.70197 
L 253.03875 -221.870261 
L 253.03875 -222.038551 
L 253.03875 -222.206842 
L 253.03875 -222.375132 
L 253.03875 -222.543422 
L 253.03875 -222.711713 
L 253.03875 -222.880003 
L 253.03875 -223.048294 
L 253.03875 -223.216584 
L 253.03875 -223.384875 
L 253.03875 -223.553165 
L 253.03875 -223.721455 
L 253.03875 -223.889746 
L 253.03875 -224.058036 
L 253.03875 -224.226327 
L 253.03875 -224.394617 
L 253.03875 -224.562907 
L 253.03875 -224.731198 
L 253.03875 -224.899488 
L 253.03875 -225.067779 
L 253.03875 -225.236069 
L 253.03875 -225.40436 
L 253.03875 -225.57265 
L 253.03875 -225.74094 
L 253.03875 -225.909231 
L 253.03875 -226.077521 
L 253.03875 -226.245812 
L 253.03875 -226.414102 
L 253.03875 -226.582393 
L 253.03875 -226.750683 
L 253.03875 -226.918973 
L 253.03875 -227.087264 
L 253.03875 -227.255554 
L 253.03875 -227.423845 
L 253.03875 -227.592135 
L 253.03875 -227.760425 
L 253.03875 -227.928716 
L 253.03875 -228.097006 
L 253.03875 -228.265297 
L 253.03875 -228.433587 
L 253.03875 -228.601878 
L 253.03875 -228.770168 
L 253.03875 -228.938458 
L 253.03875 -229.106749 
L 253.03875 -229.275039 
L 253.03875 -229.44333 
L 253.03875 -229.61162 
L 253.03875 -229.779911 
L 253.03875 -229.948201 
L 253.03875 -230.116491 
L 253.03875 -230.284782 
L 253.03875 -230.453072 
L 253.03875 -230.621363 
L 253.03875 -230.789653 
L 253.03875 -230.957943 
L 253.03875 -231.126234 
L 253.03875 -231.294524 
L 253.03875 -231.462815 
L 253.03875 -231.631105 
L 253.03875 -231.799396 
L 253.03875 -231.967686 
L 253.03875 -232.135976 
L 253.03875 -232.304267 
L 253.03875 -232.472557 
L 255.63655 -232.472557 
L 255.63655 -232.472557 
L 256.028098 -232.304267 
L 256.461504 -232.135976 
L 256.938243 -231.967686 
L 257.459339 -231.799396 
L 258.025279 -231.631105 
L 258.635951 -231.462815 
L 259.290578 -231.294524 
L 259.987674 -231.126234 
L 260.725009 -230.957943 
L 261.499597 -230.789653 
L 262.307707 -230.621363 
L 263.144896 -230.453072 
L 264.006067 -230.284782 
L 264.885559 -230.116491 
L 265.777257 -229.948201 
L 266.674732 -229.779911 
L 267.571401 -229.61162 
L 268.460707 -229.44333 
L 269.336312 -229.275039 
L 270.192302 -229.106749 
L 271.023388 -228.938458 
L 271.825107 -228.770168 
L 272.594008 -228.601878 
L 273.327816 -228.433587 
L 274.025566 -228.265297 
L 274.687712 -228.097006 
L 275.316179 -227.928716 
L 275.914379 -227.760425 
L 276.487179 -227.592135 
L 277.040807 -227.423845 
L 277.582717 -227.255554 
L 278.121399 -227.087264 
L 278.666143 -226.918973 
L 279.226767 -226.750683 
L 279.813306 -226.582393 
L 280.435685 -226.414102 
L 281.103367 -226.245812 
L 281.825014 -226.077521 
L 282.608139 -225.909231 
L 283.458792 -225.74094 
L 284.381266 -225.57265 
L 285.377853 -225.40436 
L 286.44864 -225.236069 
L 287.591371 -225.067779 
L 288.801369 -224.899488 
L 290.07152 -224.731198 
L 291.392331 -224.562907 
L 292.752057 -224.394617 
L 294.136883 -224.226327 
L 295.531176 -224.058036 
L 296.917786 -223.889746 
L 298.278393 -223.721455 
L 299.593887 -223.553165 
L 300.844775 -223.384875 
L 302.011603 -223.216584 
L 303.075373 -223.048294 
L 304.017962 -222.880003 
L 304.822509 -222.711713 
L 305.47378 -222.543422 
L 305.958489 -222.375132 
L 306.265573 -222.206842 
L 306.386417 -222.038551 
L 306.315014 -221.870261 
L 306.048074 -221.70197 
L 305.585066 -221.53368 
L 304.928194 -221.365389 
L 304.082329 -221.197099 
L 303.054869 -221.028809 
L 301.855563 -220.860518 
L 300.496282 -220.692228 
L 298.990758 -220.523937 
L 297.354294 -220.355647 
L 295.603447 -220.187357 
L 293.755709 -220.019066 
L 291.829172 -219.850776 
L 289.842201 -219.682485 
L 287.813121 -219.514195 
L 285.759915 -219.345904 
L 283.69995 -219.177614 
L 281.649725 -219.009324 
L 279.624659 -218.841033 
L 277.638911 -218.672743 
L 275.705229 -218.504452 
L 273.834852 -218.336162 
L 272.037436 -218.167871 
L 270.32102 -217.999581 
L 268.692033 -217.831291 
L 267.155322 -217.663 
L 265.714213 -217.49471 
L 264.370601 -217.326419 
L 263.125048 -217.158129 
L 261.976913 -216.989838 
L 260.924478 -216.821548 
L 259.965092 -216.653258 
L 259.095313 -216.484967 
L 258.311053 -216.316677 
L 257.607718 -216.148386 
L 256.980337 -215.980096 
L 256.423693 -215.811806 
z
" style="stroke: #545454; stroke-width: 1.25"/>
    </defs>
    <g clip-path="url(#p22c6509e6b)">
     <use xlink:href="#mc089906fc5" x="0" y="432" style="fill: #d98b5f; stroke: #545454; stroke-width: 1.25"/>
    </g>
   </g>
   <g id="PolyCollection_5">
    <defs>
     <path id="m4cdb9287f1" d="M 386.407917 -143.152163 
L 385.60293 -143.152163 
L 385.436488 -144.212557 
L 385.242651 -145.27295 
L 385.018395 -146.333343 
L 384.760644 -147.393736 
L 384.466317 -148.454129 
L 384.132395 -149.514522 
L 383.75599 -150.574915 
L 383.334422 -151.635308 
L 382.865311 -152.695701 
L 382.34666 -153.756094 
L 381.776966 -154.816487 
L 381.155308 -155.87688 
L 380.481464 -156.937273 
L 379.756003 -157.997666 
L 378.980386 -159.058059 
L 378.157054 -160.118452 
L 377.289505 -161.178845 
L 376.38235 -162.239238 
L 375.441343 -163.299631 
L 374.47339 -164.360024 
L 373.486517 -165.420417 
L 372.489796 -166.48081 
L 371.493238 -167.541203 
L 370.507629 -168.601597 
L 369.544329 -169.66199 
L 368.615023 -170.722383 
L 367.731435 -171.782776 
L 366.905005 -172.843169 
L 366.146555 -173.903562 
L 365.46593 -174.963955 
L 364.87166 -176.024348 
L 364.370623 -177.084741 
L 363.967764 -178.145134 
L 363.665849 -179.205527 
L 363.465296 -180.26592 
L 363.364078 -181.326313 
L 363.35771 -182.386706 
L 363.439339 -183.447099 
L 363.59991 -184.507492 
L 363.828435 -185.567885 
L 364.112328 -186.628278 
L 364.437819 -187.688671 
L 364.790405 -188.749064 
L 365.155352 -189.809457 
L 365.518187 -190.86985 
L 365.865199 -191.930243 
L 366.183903 -192.990637 
L 366.463456 -194.05103 
L 366.695014 -195.111423 
L 366.872008 -196.171816 
L 366.990337 -197.232209 
L 367.048469 -198.292602 
L 367.04745 -199.352995 
L 366.99082 -200.413388 
L 366.884452 -201.473781 
L 366.736305 -202.534174 
L 366.556124 -203.594567 
L 366.355079 -204.65496 
L 366.145372 -205.715353 
L 365.939822 -206.775746 
L 365.751441 -207.836139 
L 365.593014 -208.896532 
L 365.476705 -209.956925 
L 365.413691 -211.017318 
L 365.413841 -212.077711 
L 365.485442 -213.138104 
L 365.634988 -214.198497 
L 365.867033 -215.25889 
L 366.184097 -216.319283 
L 366.586655 -217.379677 
L 367.073172 -218.44007 
L 367.640204 -219.500463 
L 368.282555 -220.560856 
L 368.993477 -221.621249 
L 369.764898 -222.681642 
L 370.587694 -223.742035 
L 371.451967 -224.802428 
L 372.347331 -225.862821 
L 373.2632 -226.923214 
L 374.189061 -227.983607 
L 375.114726 -229.044 
L 376.030564 -230.104393 
L 376.927688 -231.164786 
L 377.798119 -232.225179 
L 378.634903 -233.285572 
L 379.432191 -234.345965 
L 380.185276 -235.406358 
L 380.890605 -236.466751 
L 381.545746 -237.527144 
L 382.149327 -238.587537 
L 382.700962 -239.64793 
L 383.201147 -240.708323 
L 383.651144 -241.768717 
L 384.052867 -242.82911 
L 384.408749 -243.889503 
L 384.721627 -244.949896 
L 384.99462 -246.010289 
L 385.231025 -247.070682 
L 385.434213 -248.131075 
L 386.407917 -248.131075 
L 386.407917 -248.131075 
L 386.407917 -247.070682 
L 386.407917 -246.010289 
L 386.407917 -244.949896 
L 386.407917 -243.889503 
L 386.407917 -242.82911 
L 386.407917 -241.768717 
L 386.407917 -240.708323 
L 386.407917 -239.64793 
L 386.407917 -238.587537 
L 386.407917 -237.527144 
L 386.407917 -236.466751 
L 386.407917 -235.406358 
L 386.407917 -234.345965 
L 386.407917 -233.285572 
L 386.407917 -232.225179 
L 386.407917 -231.164786 
L 386.407917 -230.104393 
L 386.407917 -229.044 
L 386.407917 -227.983607 
L 386.407917 -226.923214 
L 386.407917 -225.862821 
L 386.407917 -224.802428 
L 386.407917 -223.742035 
L 386.407917 -222.681642 
L 386.407917 -221.621249 
L 386.407917 -220.560856 
L 386.407917 -219.500463 
L 386.407917 -218.44007 
L 386.407917 -217.379677 
L 386.407917 -216.319283 
L 386.407917 -215.25889 
L 386.407917 -214.198497 
L 386.407917 -213.138104 
L 386.407917 -212.077711 
L 386.407917 -211.017318 
L 386.407917 -209.956925 
L 386.407917 -208.896532 
L 386.407917 -207.836139 
L 386.407917 -206.775746 
L 386.407917 -205.715353 
L 386.407917 -204.65496 
L 386.407917 -203.594567 
L 386.407917 -202.534174 
L 386.407917 -201.473781 
L 386.407917 -200.413388 
L 386.407917 -199.352995 
L 386.407917 -198.292602 
L 386.407917 -197.232209 
L 386.407917 -196.171816 
L 386.407917 -195.111423 
L 386.407917 -194.05103 
L 386.407917 -192.990637 
L 386.407917 -191.930243 
L 386.407917 -190.86985 
L 386.407917 -189.809457 
L 386.407917 -188.749064 
L 386.407917 -187.688671 
L 386.407917 -186.628278 
L 386.407917 -185.567885 
L 386.407917 -184.507492 
L 386.407917 -183.447099 
L 386.407917 -182.386706 
L 386.407917 -181.326313 
L 386.407917 -180.26592 
L 386.407917 -179.205527 
L 386.407917 -178.145134 
L 386.407917 -177.084741 
L 386.407917 -176.024348 
L 386.407917 -174.963955 
L 386.407917 -173.903562 
L 386.407917 -172.843169 
L 386.407917 -171.782776 
L 386.407917 -170.722383 
L 386.407917 -169.66199 
L 386.407917 -168.601597 
L 386.407917 -167.541203 
L 386.407917 -166.48081 
L 386.407917 -165.420417 
L 386.407917 -164.360024 
L 386.407917 -163.299631 
L 386.407917 -162.239238 
L 386.407917 -161.178845 
L 386.407917 -160.118452 
L 386.407917 -159.058059 
L 386.407917 -157.997666 
L 386.407917 -156.937273 
L 386.407917 -155.87688 
L 386.407917 -154.816487 
L 386.407917 -153.756094 
L 386.407917 -152.695701 
L 386.407917 -151.635308 
L 386.407917 -150.574915 
L 386.407917 -149.514522 
L 386.407917 -148.454129 
L 386.407917 -147.393736 
L 386.407917 -146.333343 
L 386.407917 -145.27295 
L 386.407917 -144.212557 
L 386.407917 -143.152163 
z
" style="stroke: #545454; stroke-width: 1.25"/>
    </defs>
    <g clip-path="url(#p22c6509e6b)">
     <use xlink:href="#m4cdb9287f1" x="0" y="432" style="fill: #597dbf; stroke: #545454; stroke-width: 1.25"/>
    </g>
   </g>
   <g id="PolyCollection_6">
    <defs>
     <path id="m9229d07dbe" d="M 519.777083 -196.169425 
L 517.411549 -196.169425 
L 516.974011 -196.704424 
L 516.472985 -197.239423 
L 515.902649 -197.774422 
L 515.257238 -198.309421 
L 514.531152 -198.84442 
L 513.719087 -199.379419 
L 512.816163 -199.914418 
L 511.818072 -200.449417 
L 510.721226 -200.984416 
L 509.522906 -201.519415 
L 508.22142 -202.054414 
L 506.816249 -202.589413 
L 505.308191 -203.124412 
L 503.699497 -203.659411 
L 501.993987 -204.19441 
L 500.197155 -204.72941 
L 498.316243 -205.264409 
L 496.360296 -205.799408 
L 494.340176 -206.334407 
L 492.268551 -206.869406 
L 490.15983 -207.404405 
L 488.030063 -207.939404 
L 485.896789 -208.474403 
L 483.778834 -209.009402 
L 481.696058 -209.544401 
L 479.669053 -210.0794 
L 477.718792 -210.614399 
L 475.866234 -211.149398 
L 474.131902 -211.684397 
L 472.535421 -212.219396 
L 471.095057 -212.754395 
L 469.827246 -213.289394 
L 468.746147 -213.824393 
L 467.863219 -214.359392 
L 467.186859 -214.894391 
L 466.722096 -215.429391 
L 466.470371 -215.96439 
L 466.429417 -216.499389 
L 466.593234 -217.034388 
L 466.952184 -217.569387 
L 467.493195 -218.104386 
L 468.200072 -218.639385 
L 469.053919 -219.174384 
L 470.033644 -219.709383 
L 471.116539 -220.244382 
L 472.27892 -220.779381 
L 473.496784 -221.31438 
L 474.746491 -221.849379 
L 476.005413 -222.384378 
L 477.252546 -222.919377 
L 478.46906 -223.454376 
L 479.63876 -223.989375 
L 480.748456 -224.524374 
L 481.788209 -225.059373 
L 482.751478 -225.594372 
L 483.635128 -226.129372 
L 484.439345 -226.664371 
L 485.167425 -227.19937 
L 485.825478 -227.734369 
L 486.422051 -228.269368 
L 486.967686 -228.804367 
L 487.474432 -229.339366 
L 487.95534 -229.874365 
L 488.423942 -230.409364 
L 488.893755 -230.944363 
L 489.377803 -231.479362 
L 489.888192 -232.014361 
L 490.435733 -232.54936 
L 491.02964 -233.084359 
L 491.677287 -233.619358 
L 492.384046 -234.154357 
L 493.1532 -234.689356 
L 493.985925 -235.224355 
L 494.881343 -235.759354 
L 495.83663 -236.294353 
L 496.847191 -236.829353 
L 497.906865 -237.364352 
L 499.008173 -237.899351 
L 500.142589 -238.43435 
L 501.300827 -238.969349 
L 502.473127 -239.504348 
L 503.64954 -240.039347 
L 504.820196 -240.574346 
L 505.975556 -241.109345 
L 507.10663 -241.644344 
L 508.205164 -242.179343 
L 509.263796 -242.714342 
L 510.276166 -243.249341 
L 511.236998 -243.78434 
L 512.142134 -244.319339 
L 512.988543 -244.854338 
L 513.774289 -245.389337 
L 514.498482 -245.924336 
L 515.161194 -246.459335 
L 515.763367 -246.994335 
L 516.306701 -247.529334 
L 516.793538 -248.064333 
L 517.226737 -248.599332 
L 517.609562 -249.134331 
L 519.777083 -249.134331 
L 519.777083 -249.134331 
L 519.777083 -248.599332 
L 519.777083 -248.064333 
L 519.777083 -247.529334 
L 519.777083 -246.994335 
L 519.777083 -246.459335 
L 519.777083 -245.924336 
L 519.777083 -245.389337 
L 519.777083 -244.854338 
L 519.777083 -244.319339 
L 519.777083 -243.78434 
L 519.777083 -243.249341 
L 519.777083 -242.714342 
L 519.777083 -242.179343 
L 519.777083 -241.644344 
L 519.777083 -241.109345 
L 519.777083 -240.574346 
L 519.777083 -240.039347 
L 519.777083 -239.504348 
L 519.777083 -238.969349 
L 519.777083 -238.43435 
L 519.777083 -237.899351 
L 519.777083 -237.364352 
L 519.777083 -236.829353 
L 519.777083 -236.294353 
L 519.777083 -235.759354 
L 519.777083 -235.224355 
L 519.777083 -234.689356 
L 519.777083 -234.154357 
L 519.777083 -233.619358 
L 519.777083 -233.084359 
L 519.777083 -232.54936 
L 519.777083 -232.014361 
L 519.777083 -231.479362 
L 519.777083 -230.944363 
L 519.777083 -230.409364 
L 519.777083 -229.874365 
L 519.777083 -229.339366 
L 519.777083 -228.804367 
L 519.777083 -228.269368 
L 519.777083 -227.734369 
L 519.777083 -227.19937 
L 519.777083 -226.664371 
L 519.777083 -226.129372 
L 519.777083 -225.594372 
L 519.777083 -225.059373 
L 519.777083 -224.524374 
L 519.777083 -223.989375 
L 519.777083 -223.454376 
L 519.777083 -222.919377 
L 519.777083 -222.384378 
L 519.777083 -221.849379 
L 519.777083 -221.31438 
L 519.777083 -220.779381 
L 519.777083 -220.244382 
L 519.777083 -219.709383 
L 519.777083 -219.174384 
L 519.777083 -218.639385 
L 519.777083 -218.104386 
L 519.777083 -217.569387 
L 519.777083 -217.034388 
L 519.777083 -216.499389 
L 519.777083 -215.96439 
L 519.777083 -215.429391 
L 519.777083 -214.894391 
L 519.777083 -214.359392 
L 519.777083 -213.824393 
L 519.777083 -213.289394 
L 519.777083 -212.754395 
L 519.777083 -212.219396 
L 519.777083 -211.684397 
L 519.777083 -211.149398 
L 519.777083 -210.614399 
L 519.777083 -210.0794 
L 519.777083 -209.544401 
L 519.777083 -209.009402 
L 519.777083 -208.474403 
L 519.777083 -207.939404 
L 519.777083 -207.404405 
L 519.777083 -206.869406 
L 519.777083 -206.334407 
L 519.777083 -205.799408 
L 519.777083 -205.264409 
L 519.777083 -204.72941 
L 519.777083 -204.19441 
L 519.777083 -203.659411 
L 519.777083 -203.124412 
L 519.777083 -202.589413 
L 519.777083 -202.054414 
L 519.777083 -201.519415 
L 519.777083 -200.984416 
L 519.777083 -200.449417 
L 519.777083 -199.914418 
L 519.777083 -199.379419 
L 519.777083 -198.84442 
L 519.777083 -198.309421 
L 519.777083 -197.774422 
L 519.777083 -197.239423 
L 519.777083 -196.704424 
L 519.777083 -196.169425 
z
" style="stroke: #545454; stroke-width: 1.25"/>
    </defs>
    <g clip-path="url(#p22c6509e6b)">
     <use xlink:href="#m9229d07dbe" x="0" y="432" style="fill: #597dbf; stroke: #545454; stroke-width: 1.25"/>
    </g>
   </g>
   <g id="PolyCollection_7">
    <defs>
     <path id="mb9256987ee" d="M 520.835087 -160.685567 
L 519.777083 -160.685567 
L 519.777083 -161.103087 
L 519.777083 -161.520608 
L 519.777083 -161.938128 
L 519.777083 -162.355648 
L 519.777083 -162.773169 
L 519.777083 -163.190689 
L 519.777083 -163.608209 
L 519.777083 -164.02573 
L 519.777083 -164.44325 
L 519.777083 -164.86077 
L 519.777083 -165.278291 
L 519.777083 -165.695811 
L 519.777083 -166.113331 
L 519.777083 -166.530852 
L 519.777083 -166.948372 
L 519.777083 -167.365892 
L 519.777083 -167.783413 
L 519.777083 -168.200933 
L 519.777083 -168.618453 
L 519.777083 -169.035974 
L 519.777083 -169.453494 
L 519.777083 -169.871014 
L 519.777083 -170.288535 
L 519.777083 -170.706055 
L 519.777083 -171.123575 
L 519.777083 -171.541096 
L 519.777083 -171.958616 
L 519.777083 -172.376136 
L 519.777083 -172.793657 
L 519.777083 -173.211177 
L 519.777083 -173.628697 
L 519.777083 -174.046218 
L 519.777083 -174.463738 
L 519.777083 -174.881258 
L 519.777083 -175.298779 
L 519.777083 -175.716299 
L 519.777083 -176.133819 
L 519.777083 -176.55134 
L 519.777083 -176.96886 
L 519.777083 -177.38638 
L 519.777083 -177.803901 
L 519.777083 -178.221421 
L 519.777083 -178.638941 
L 519.777083 -179.056462 
L 519.777083 -179.473982 
L 519.777083 -179.891503 
L 519.777083 -180.309023 
L 519.777083 -180.726543 
L 519.777083 -181.144064 
L 519.777083 -181.561584 
L 519.777083 -181.979104 
L 519.777083 -182.396625 
L 519.777083 -182.814145 
L 519.777083 -183.231665 
L 519.777083 -183.649186 
L 519.777083 -184.066706 
L 519.777083 -184.484226 
L 519.777083 -184.901747 
L 519.777083 -185.319267 
L 519.777083 -185.736787 
L 519.777083 -186.154308 
L 519.777083 -186.571828 
L 519.777083 -186.989348 
L 519.777083 -187.406869 
L 519.777083 -187.824389 
L 519.777083 -188.241909 
L 519.777083 -188.65943 
L 519.777083 -189.07695 
L 519.777083 -189.49447 
L 519.777083 -189.911991 
L 519.777083 -190.329511 
L 519.777083 -190.747031 
L 519.777083 -191.164552 
L 519.777083 -191.582072 
L 519.777083 -191.999592 
L 519.777083 -192.417113 
L 519.777083 -192.834633 
L 519.777083 -193.252153 
L 519.777083 -193.669674 
L 519.777083 -194.087194 
L 519.777083 -194.504714 
L 519.777083 -194.922235 
L 519.777083 -195.339755 
L 519.777083 -195.757275 
L 519.777083 -196.174796 
L 519.777083 -196.592316 
L 519.777083 -197.009836 
L 519.777083 -197.427357 
L 519.777083 -197.844877 
L 519.777083 -198.262397 
L 519.777083 -198.679918 
L 519.777083 -199.097438 
L 519.777083 -199.514958 
L 519.777083 -199.932479 
L 519.777083 -200.349999 
L 519.777083 -200.767519 
L 519.777083 -201.18504 
L 519.777083 -201.60256 
L 519.777083 -202.02008 
L 521.018775 -202.02008 
L 521.018775 -202.02008 
L 521.222201 -201.60256 
L 521.451329 -201.18504 
L 521.708052 -200.767519 
L 521.994185 -200.349999 
L 522.31142 -199.932479 
L 522.66129 -199.514958 
L 523.045115 -199.097438 
L 523.463966 -198.679918 
L 523.918612 -198.262397 
L 524.409476 -197.844877 
L 524.936597 -197.427357 
L 525.499586 -197.009836 
L 526.097594 -196.592316 
L 526.729281 -196.174796 
L 527.392793 -195.757275 
L 528.085747 -195.339755 
L 528.805226 -194.922235 
L 529.547776 -194.504714 
L 530.309423 -194.087194 
L 531.085692 -193.669674 
L 531.87164 -193.252153 
L 532.661899 -192.834633 
L 533.450728 -192.417113 
L 534.232082 -191.999592 
L 534.999677 -191.582072 
L 535.74708 -191.164552 
L 536.467795 -190.747031 
L 537.155365 -190.329511 
L 537.803468 -189.911991 
L 538.406031 -189.49447 
L 538.957333 -189.07695 
L 539.452115 -188.65943 
L 539.885685 -188.241909 
L 540.254015 -187.824389 
L 540.553833 -187.406869 
L 540.782706 -186.989348 
L 540.939099 -186.571828 
L 541.022431 -186.154308 
L 541.033102 -185.736787 
L 540.972507 -185.319267 
L 540.843019 -184.901747 
L 540.647962 -184.484226 
L 540.391546 -184.066706 
L 540.078791 -183.649186 
L 539.715425 -183.231665 
L 539.307762 -182.814145 
L 538.862566 -182.396625 
L 538.3869 -181.979104 
L 537.887968 -181.561584 
L 537.372951 -181.144064 
L 536.848843 -180.726543 
L 536.322296 -180.309023 
L 535.799472 -179.891503 
L 535.285912 -179.473982 
L 534.786421 -179.056462 
L 534.304983 -178.638941 
L 533.844692 -178.221421 
L 533.407718 -177.803901 
L 532.995301 -177.38638 
L 532.607768 -176.96886 
L 532.244583 -176.55134 
L 531.904416 -176.133819 
L 531.585242 -175.716299 
L 531.284453 -175.298779 
L 530.998982 -174.881258 
L 530.725443 -174.463738 
L 530.460266 -174.046218 
L 530.199841 -173.628697 
L 529.940649 -173.211177 
L 529.679387 -172.793657 
L 529.413074 -172.376136 
L 529.139148 -171.958616 
L 528.855534 -171.541096 
L 528.5607 -171.123575 
L 528.253684 -170.706055 
L 527.934103 -170.288535 
L 527.602142 -169.871014 
L 527.258521 -169.453494 
L 526.904449 -169.035974 
L 526.541565 -168.618453 
L 526.171862 -168.200933 
L 525.797612 -167.783413 
L 525.421281 -167.365892 
L 525.045446 -166.948372 
L 524.672719 -166.530852 
L 524.305662 -166.113331 
L 523.946728 -165.695811 
L 523.598195 -165.278291 
L 523.262118 -164.86077 
L 522.940293 -164.44325 
L 522.634228 -164.02573 
L 522.345126 -163.608209 
L 522.073882 -163.190689 
L 521.821084 -162.773169 
L 521.587029 -162.355648 
L 521.371736 -161.938128 
L 521.174979 -161.520608 
L 520.996308 -161.103087 
L 520.835087 -160.685567 
z
" style="stroke: #545454; stroke-width: 1.25"/>
    </defs>
    <g clip-path="url(#p22c6509e6b)">
     <use xlink:href="#mb9256987ee" x="0" y="432" style="fill: #d98b5f; stroke: #545454; stroke-width: 1.25"/>
    </g>
   </g>
   <g id="PolyCollection_8">
    <defs>
     <path id="m8ad0b5fa5d" d="M 653.14625 -191.515296 
L 652.751336 -191.515296 
L 652.674745 -193.539013 
L 652.587183 -195.56273 
L 652.487865 -197.586446 
L 652.376076 -199.610163 
L 652.251198 -201.63388 
L 652.112716 -203.657597 
L 651.960232 -205.681313 
L 651.793464 -207.70503 
L 651.612242 -209.728747 
L 651.416496 -211.752464 
L 651.206235 -213.77618 
L 650.981519 -215.799897 
L 650.742432 -217.823614 
L 650.489042 -219.847331 
L 650.221371 -221.871047 
L 649.939367 -223.894764 
L 649.642877 -225.918481 
L 649.33164 -227.942198 
L 649.005288 -229.965914 
L 648.663369 -231.989631 
L 648.305384 -234.013348 
L 647.930845 -236.037065 
L 647.539351 -238.060781 
L 647.130678 -240.084498 
L 646.704879 -242.108215 
L 646.262389 -244.131931 
L 645.804127 -246.155648 
L 645.331588 -248.179365 
L 644.846919 -250.203082 
L 644.352965 -252.226798 
L 643.853289 -254.250515 
L 643.352155 -256.274232 
L 642.854465 -258.297949 
L 642.365666 -260.321665 
L 641.891613 -262.345382 
L 641.438403 -264.369099 
L 641.012181 -266.392816 
L 640.61893 -268.416532 
L 640.264257 -270.440249 
L 639.953181 -272.463966 
L 639.689938 -274.487683 
L 639.477817 -276.511399 
L 639.31902 -278.535116 
L 639.214582 -280.558833 
L 639.164322 -282.582549 
L 639.166853 -284.606266 
L 639.21964 -286.629983 
L 639.319096 -288.6537 
L 639.460727 -290.677416 
L 639.639304 -292.701133 
L 639.849057 -294.72485 
L 640.083889 -296.748567 
L 640.337591 -298.772283 
L 640.604051 -300.796 
L 640.877453 -302.819717 
L 641.152457 -304.843434 
L 641.424349 -306.86715 
L 641.689171 -308.890867 
L 641.943807 -310.914584 
L 642.186045 -312.938301 
L 642.414599 -314.962017 
L 642.629104 -316.985734 
L 642.830077 -319.009451 
L 643.018846 -321.033167 
L 643.197462 -323.056884 
L 643.36858 -325.080601 
L 643.535331 -327.104318 
L 643.701172 -329.128034 
L 643.869733 -331.151751 
L 644.04466 -333.175468 
L 644.229458 -335.199185 
L 644.427342 -337.222901 
L 644.641104 -339.246618 
L 644.872992 -341.270335 
L 645.12462 -343.294052 
L 645.396894 -345.317768 
L 645.689977 -347.341485 
L 646.003279 -349.365202 
L 646.33548 -351.388919 
L 646.68458 -353.412635 
L 647.047977 -355.436352 
L 647.422567 -357.460069 
L 647.804864 -359.483786 
L 648.191125 -361.507502 
L 648.577485 -363.531219 
L 648.960091 -365.554936 
L 649.335226 -367.578652 
L 649.69942 -369.602369 
L 650.04955 -371.626086 
L 650.382915 -373.649803 
L 650.697287 -375.673519 
L 650.990945 -377.697236 
L 651.262688 -379.720953 
L 651.511819 -381.74467 
L 651.738121 -383.768386 
L 651.941813 -385.792103 
L 652.123499 -387.81582 
L 652.284102 -389.839537 
L 652.424807 -391.863253 
L 653.14625 -391.863253 
L 653.14625 -391.863253 
L 653.14625 -389.839537 
L 653.14625 -387.81582 
L 653.14625 -385.792103 
L 653.14625 -383.768386 
L 653.14625 -381.74467 
L 653.14625 -379.720953 
L 653.14625 -377.697236 
L 653.14625 -375.673519 
L 653.14625 -373.649803 
L 653.14625 -371.626086 
L 653.14625 -369.602369 
L 653.14625 -367.578652 
L 653.14625 -365.554936 
L 653.14625 -363.531219 
L 653.14625 -361.507502 
L 653.14625 -359.483786 
L 653.14625 -357.460069 
L 653.14625 -355.436352 
L 653.14625 -353.412635 
L 653.14625 -351.388919 
L 653.14625 -349.365202 
L 653.14625 -347.341485 
L 653.14625 -345.317768 
L 653.14625 -343.294052 
L 653.14625 -341.270335 
L 653.14625 -339.246618 
L 653.14625 -337.222901 
L 653.14625 -335.199185 
L 653.14625 -333.175468 
L 653.14625 -331.151751 
L 653.14625 -329.128034 
L 653.14625 -327.104318 
L 653.14625 -325.080601 
L 653.14625 -323.056884 
L 653.14625 -321.033167 
L 653.14625 -319.009451 
L 653.14625 -316.985734 
L 653.14625 -314.962017 
L 653.14625 -312.938301 
L 653.14625 -310.914584 
L 653.14625 -308.890867 
L 653.14625 -306.86715 
L 653.14625 -304.843434 
L 653.14625 -302.819717 
L 653.14625 -300.796 
L 653.14625 -298.772283 
L 653.14625 -296.748567 
L 653.14625 -294.72485 
L 653.14625 -292.701133 
L 653.14625 -290.677416 
L 653.14625 -288.6537 
L 653.14625 -286.629983 
L 653.14625 -284.606266 
L 653.14625 -282.582549 
L 653.14625 -280.558833 
L 653.14625 -278.535116 
L 653.14625 -276.511399 
L 653.14625 -274.487683 
L 653.14625 -272.463966 
L 653.14625 -270.440249 
L 653.14625 -268.416532 
L 653.14625 -266.392816 
L 653.14625 -264.369099 
L 653.14625 -262.345382 
L 653.14625 -260.321665 
L 653.14625 -258.297949 
L 653.14625 -256.274232 
L 653.14625 -254.250515 
L 653.14625 -252.226798 
L 653.14625 -250.203082 
L 653.14625 -248.179365 
L 653.14625 -246.155648 
L 653.14625 -244.131931 
L 653.14625 -242.108215 
L 653.14625 -240.084498 
L 653.14625 -238.060781 
L 653.14625 -236.037065 
L 653.14625 -234.013348 
L 653.14625 -231.989631 
L 653.14625 -229.965914 
L 653.14625 -227.942198 
L 653.14625 -225.918481 
L 653.14625 -223.894764 
L 653.14625 -221.871047 
L 653.14625 -219.847331 
L 653.14625 -217.823614 
L 653.14625 -215.799897 
L 653.14625 -213.77618 
L 653.14625 -211.752464 
L 653.14625 -209.728747 
L 653.14625 -207.70503 
L 653.14625 -205.681313 
L 653.14625 -203.657597 
L 653.14625 -201.63388 
L 653.14625 -199.610163 
L 653.14625 -197.586446 
L 653.14625 -195.56273 
L 653.14625 -193.539013 
L 653.14625 -191.515296 
z
" style="stroke: #545454; stroke-width: 1.25"/>
    </defs>
    <g clip-path="url(#p22c6509e6b)">
     <use xlink:href="#m8ad0b5fa5d" x="0" y="432" style="fill: #597dbf; stroke: #545454; stroke-width: 1.25"/>
    </g>
   </g>
   <g id="PolyCollection_9">
    <defs>
     <path id="m0cbb46e122" d="M 653.916018 -261.545108 
L 653.14625 -261.545108 
L 653.14625 -262.253147 
L 653.14625 -262.961187 
L 653.14625 -263.669226 
L 653.14625 -264.377265 
L 653.14625 -265.085305 
L 653.14625 -265.793344 
L 653.14625 -266.501383 
L 653.14625 -267.209423 
L 653.14625 -267.917462 
L 653.14625 -268.625501 
L 653.14625 -269.333541 
L 653.14625 -270.04158 
L 653.14625 -270.749619 
L 653.14625 -271.457659 
L 653.14625 -272.165698 
L 653.14625 -272.873737 
L 653.14625 -273.581777 
L 653.14625 -274.289816 
L 653.14625 -274.997855 
L 653.14625 -275.705895 
L 653.14625 -276.413934 
L 653.14625 -277.121973 
L 653.14625 -277.830012 
L 653.14625 -278.538052 
L 653.14625 -279.246091 
L 653.14625 -279.95413 
L 653.14625 -280.66217 
L 653.14625 -281.370209 
L 653.14625 -282.078248 
L 653.14625 -282.786288 
L 653.14625 -283.494327 
L 653.14625 -284.202366 
L 653.14625 -284.910406 
L 653.14625 -285.618445 
L 653.14625 -286.326484 
L 653.14625 -287.034524 
L 653.14625 -287.742563 
L 653.14625 -288.450602 
L 653.14625 -289.158642 
L 653.14625 -289.866681 
L 653.14625 -290.57472 
L 653.14625 -291.28276 
L 653.14625 -291.990799 
L 653.14625 -292.698838 
L 653.14625 -293.406878 
L 653.14625 -294.114917 
L 653.14625 -294.822956 
L 653.14625 -295.530996 
L 653.14625 -296.239035 
L 653.14625 -296.947074 
L 653.14625 -297.655113 
L 653.14625 -298.363153 
L 653.14625 -299.071192 
L 653.14625 -299.779231 
L 653.14625 -300.487271 
L 653.14625 -301.19531 
L 653.14625 -301.903349 
L 653.14625 -302.611389 
L 653.14625 -303.319428 
L 653.14625 -304.027467 
L 653.14625 -304.735507 
L 653.14625 -305.443546 
L 653.14625 -306.151585 
L 653.14625 -306.859625 
L 653.14625 -307.567664 
L 653.14625 -308.275703 
L 653.14625 -308.983743 
L 653.14625 -309.691782 
L 653.14625 -310.399821 
L 653.14625 -311.107861 
L 653.14625 -311.8159 
L 653.14625 -312.523939 
L 653.14625 -313.231979 
L 653.14625 -313.940018 
L 653.14625 -314.648057 
L 653.14625 -315.356097 
L 653.14625 -316.064136 
L 653.14625 -316.772175 
L 653.14625 -317.480214 
L 653.14625 -318.188254 
L 653.14625 -318.896293 
L 653.14625 -319.604332 
L 653.14625 -320.312372 
L 653.14625 -321.020411 
L 653.14625 -321.72845 
L 653.14625 -322.43649 
L 653.14625 -323.144529 
L 653.14625 -323.852568 
L 653.14625 -324.560608 
L 653.14625 -325.268647 
L 653.14625 -325.976686 
L 653.14625 -326.684726 
L 653.14625 -327.392765 
L 653.14625 -328.100804 
L 653.14625 -328.808844 
L 653.14625 -329.516883 
L 653.14625 -330.224922 
L 653.14625 -330.932962 
L 653.14625 -331.641001 
L 653.794576 -331.641001 
L 653.794576 -331.641001 
L 653.894073 -330.932962 
L 654.004935 -330.224922 
L 654.127792 -329.516883 
L 654.263207 -328.808844 
L 654.411655 -328.100804 
L 654.573504 -327.392765 
L 654.749003 -326.684726 
L 654.93826 -325.976686 
L 655.141235 -325.268647 
L 655.357721 -324.560608 
L 655.58734 -323.852568 
L 655.829535 -323.144529 
L 656.08357 -322.43649 
L 656.348527 -321.72845 
L 656.623319 -321.020411 
L 656.906694 -320.312372 
L 657.197255 -319.604332 
L 657.493474 -318.896293 
L 657.793718 -318.188254 
L 658.096275 -317.480214 
L 658.399378 -316.772175 
L 658.701243 -316.064136 
L 659.000095 -315.356097 
L 659.294204 -314.648057 
L 659.581916 -313.940018 
L 659.861687 -313.231979 
L 660.132109 -312.523939 
L 660.391937 -311.8159 
L 660.640114 -311.107861 
L 660.875788 -310.399821 
L 661.098326 -309.691782 
L 661.307326 -308.983743 
L 661.502613 -308.275703 
L 661.684242 -307.567664 
L 661.852489 -306.859625 
L 662.007835 -306.151585 
L 662.150943 -305.443546 
L 662.28264 -304.735507 
L 662.403879 -304.027467 
L 662.515712 -303.319428 
L 662.619245 -302.611389 
L 662.715605 -301.903349 
L 662.805892 -301.19531 
L 662.891144 -300.487271 
L 662.97229 -299.779231 
L 663.050115 -299.071192 
L 663.12522 -298.363153 
L 663.197996 -297.655113 
L 663.268595 -296.947074 
L 663.33691 -296.239035 
L 663.402567 -295.530996 
L 663.464918 -294.822956 
L 663.523047 -294.114917 
L 663.575787 -293.406878 
L 663.621739 -292.698838 
L 663.659303 -291.990799 
L 663.686723 -291.28276 
L 663.702126 -290.57472 
L 663.703574 -289.866681 
L 663.689124 -289.158642 
L 663.656881 -288.450602 
L 663.605059 -287.742563 
L 663.532033 -287.034524 
L 663.436401 -286.326484 
L 663.317024 -285.618445 
L 663.173074 -284.910406 
L 663.004067 -284.202366 
L 662.809885 -283.494327 
L 662.590798 -282.786288 
L 662.347461 -282.078248 
L 662.080914 -281.370209 
L 661.792563 -280.66217 
L 661.484158 -279.95413 
L 661.157753 -279.246091 
L 660.815671 -278.538052 
L 660.460448 -277.830012 
L 660.09479 -277.121973 
L 659.721509 -276.413934 
L 659.34347 -275.705895 
L 658.963537 -274.997855 
L 658.584517 -274.289816 
L 658.209109 -273.581777 
L 657.839862 -272.873737 
L 657.479132 -272.165698 
L 657.129052 -271.457659 
L 656.791505 -270.749619 
L 656.468106 -270.04158 
L 656.160193 -269.333541 
L 655.868819 -268.625501 
L 655.594761 -267.917462 
L 655.338522 -267.209423 
L 655.100351 -266.501383 
L 654.880259 -265.793344 
L 654.678041 -265.085305 
L 654.493303 -264.377265 
L 654.325482 -263.669226 
L 654.173881 -262.961187 
L 654.037692 -262.253147 
L 653.916018 -261.545108 
z
" style="stroke: #545454; stroke-width: 1.25"/>
    </defs>
    <g clip-path="url(#p22c6509e6b)">
     <use xlink:href="#m0cbb46e122" x="0" y="432" style="fill: #d98b5f; stroke: #545454; stroke-width: 1.25"/>
    </g>
   </g>
   <g id="PolyCollection_10">
    <defs>
     <path id="m61ac136bda" d="M 786.515417 -216.16351 
L 784.252422 -216.16351 
L 783.887689 -216.977403 
L 783.478299 -217.791295 
L 783.02135 -218.605187 
L 782.514191 -219.41908 
L 781.954507 -220.232972 
L 781.340411 -221.046865 
L 780.670536 -221.860757 
L 779.944127 -222.674649 
L 779.161129 -223.488542 
L 778.322268 -224.302434 
L 777.429125 -225.116327 
L 776.484198 -225.930219 
L 775.490939 -226.744111 
L 774.453789 -227.558004 
L 773.378176 -228.371896 
L 772.270496 -229.185789 
L 771.138073 -229.999681 
L 769.989085 -230.813573 
L 768.832466 -231.627466 
L 767.677791 -232.441358 
L 766.535123 -233.255251 
L 765.414846 -234.069143 
L 764.327483 -234.883035 
L 763.283491 -235.696928 
L 762.293053 -236.51082 
L 761.365861 -237.324713 
L 760.510905 -238.138605 
L 759.736264 -238.952497 
L 759.048916 -239.76639 
L 758.454563 -240.580282 
L 757.95748 -241.394175 
L 757.560402 -242.208067 
L 757.264434 -243.021959 
L 757.069005 -243.835852 
L 756.971866 -244.649744 
L 756.969119 -245.463637 
L 757.055296 -246.277529 
L 757.22348 -247.091421 
L 757.465455 -247.905314 
L 757.771897 -248.719206 
L 758.132602 -249.533099 
L 758.536721 -250.346991 
L 758.973032 -251.160883 
L 759.430212 -251.974776 
L 759.897116 -252.788668 
L 760.363054 -253.60256 
L 760.818052 -254.416453 
L 761.2531 -255.230345 
L 761.660368 -256.044238 
L 762.033393 -256.85813 
L 762.36723 -257.672022 
L 762.658554 -258.485915 
L 762.905726 -259.299807 
L 763.108805 -260.1137 
L 763.269514 -260.927592 
L 763.391161 -261.741484 
L 763.478518 -262.555377 
L 763.537654 -263.369269 
L 763.57574 -264.183162 
L 763.60082 -264.997054 
L 763.621562 -265.810946 
L 763.646997 -266.624839 
L 763.686248 -267.438731 
L 763.748266 -268.252624 
L 763.841572 -269.066516 
L 763.974019 -269.880408 
L 764.15258 -270.694301 
L 764.383163 -271.508193 
L 764.670463 -272.322086 
L 765.017855 -273.135978 
L 765.427329 -273.94987 
L 765.899458 -274.763763 
L 766.433419 -275.577655 
L 767.027042 -276.391548 
L 767.676907 -277.20544 
L 768.378459 -278.019332 
L 769.126157 -278.833225 
L 769.913642 -279.647117 
L 770.73392 -280.46101 
L 771.57955 -281.274902 
L 772.442833 -282.088794 
L 773.316003 -282.902687 
L 774.191397 -283.716579 
L 775.061626 -284.530472 
L 775.919708 -285.344364 
L 776.7592 -286.158256 
L 777.574293 -286.972149 
L 778.359887 -287.786041 
L 779.111642 -288.599934 
L 779.826007 -289.413826 
L 780.500223 -290.227718 
L 781.132306 -291.041611 
L 781.72102 -291.855503 
L 782.265821 -292.669396 
L 782.766803 -293.483288 
L 783.224627 -294.29718 
L 783.640447 -295.111073 
L 784.015833 -295.924965 
L 784.352691 -296.738858 
L 786.515417 -296.738858 
L 786.515417 -296.738858 
L 786.515417 -295.924965 
L 786.515417 -295.111073 
L 786.515417 -294.29718 
L 786.515417 -293.483288 
L 786.515417 -292.669396 
L 786.515417 -291.855503 
L 786.515417 -291.041611 
L 786.515417 -290.227718 
L 786.515417 -289.413826 
L 786.515417 -288.599934 
L 786.515417 -287.786041 
L 786.515417 -286.972149 
L 786.515417 -286.158256 
L 786.515417 -285.344364 
L 786.515417 -284.530472 
L 786.515417 -283.716579 
L 786.515417 -282.902687 
L 786.515417 -282.088794 
L 786.515417 -281.274902 
L 786.515417 -280.46101 
L 786.515417 -279.647117 
L 786.515417 -278.833225 
L 786.515417 -278.019332 
L 786.515417 -277.20544 
L 786.515417 -276.391548 
L 786.515417 -275.577655 
L 786.515417 -274.763763 
L 786.515417 -273.94987 
L 786.515417 -273.135978 
L 786.515417 -272.322086 
L 786.515417 -271.508193 
L 786.515417 -270.694301 
L 786.515417 -269.880408 
L 786.515417 -269.066516 
L 786.515417 -268.252624 
L 786.515417 -267.438731 
L 786.515417 -266.624839 
L 786.515417 -265.810946 
L 786.515417 -264.997054 
L 786.515417 -264.183162 
L 786.515417 -263.369269 
L 786.515417 -262.555377 
L 786.515417 -261.741484 
L 786.515417 -260.927592 
L 786.515417 -260.1137 
L 786.515417 -259.299807 
L 786.515417 -258.485915 
L 786.515417 -257.672022 
L 786.515417 -256.85813 
L 786.515417 -256.044238 
L 786.515417 -255.230345 
L 786.515417 -254.416453 
L 786.515417 -253.60256 
L 786.515417 -252.788668 
L 786.515417 -251.974776 
L 786.515417 -251.160883 
L 786.515417 -250.346991 
L 786.515417 -249.533099 
L 786.515417 -248.719206 
L 786.515417 -247.905314 
L 786.515417 -247.091421 
L 786.515417 -246.277529 
L 786.515417 -245.463637 
L 786.515417 -244.649744 
L 786.515417 -243.835852 
L 786.515417 -243.021959 
L 786.515417 -242.208067 
L 786.515417 -241.394175 
L 786.515417 -240.580282 
L 786.515417 -239.76639 
L 786.515417 -238.952497 
L 786.515417 -238.138605 
L 786.515417 -237.324713 
L 786.515417 -236.51082 
L 786.515417 -235.696928 
L 786.515417 -234.883035 
L 786.515417 -234.069143 
L 786.515417 -233.255251 
L 786.515417 -232.441358 
L 786.515417 -231.627466 
L 786.515417 -230.813573 
L 786.515417 -229.999681 
L 786.515417 -229.185789 
L 786.515417 -228.371896 
L 786.515417 -227.558004 
L 786.515417 -226.744111 
L 786.515417 -225.930219 
L 786.515417 -225.116327 
L 786.515417 -224.302434 
L 786.515417 -223.488542 
L 786.515417 -222.674649 
L 786.515417 -221.860757 
L 786.515417 -221.046865 
L 786.515417 -220.232972 
L 786.515417 -219.41908 
L 786.515417 -218.605187 
L 786.515417 -217.791295 
L 786.515417 -216.977403 
L 786.515417 -216.16351 
z
" style="stroke: #545454; stroke-width: 1.25"/>
    </defs>
    <g clip-path="url(#p22c6509e6b)">
     <use xlink:href="#m61ac136bda" x="0" y="432" style="fill: #597dbf; stroke: #545454; stroke-width: 1.25"/>
    </g>
   </g>
   <g id="PolyCollection_11">
    <defs>
     <path id="m3abe487836" d="M 786.821753 -112.32832 
L 786.515417 -112.32832 
L 786.515417 -113.516376 
L 786.515417 -114.704432 
L 786.515417 -115.892488 
L 786.515417 -117.080544 
L 786.515417 -118.2686 
L 786.515417 -119.456656 
L 786.515417 -120.644712 
L 786.515417 -121.832768 
L 786.515417 -123.020824 
L 786.515417 -124.20888 
L 786.515417 -125.396937 
L 786.515417 -126.584993 
L 786.515417 -127.773049 
L 786.515417 -128.961105 
L 786.515417 -130.149161 
L 786.515417 -131.337217 
L 786.515417 -132.525273 
L 786.515417 -133.713329 
L 786.515417 -134.901385 
L 786.515417 -136.089441 
L 786.515417 -137.277497 
L 786.515417 -138.465553 
L 786.515417 -139.65361 
L 786.515417 -140.841666 
L 786.515417 -142.029722 
L 786.515417 -143.217778 
L 786.515417 -144.405834 
L 786.515417 -145.59389 
L 786.515417 -146.781946 
L 786.515417 -147.970002 
L 786.515417 -149.158058 
L 786.515417 -150.346114 
L 786.515417 -151.53417 
L 786.515417 -152.722226 
L 786.515417 -153.910283 
L 786.515417 -155.098339 
L 786.515417 -156.286395 
L 786.515417 -157.474451 
L 786.515417 -158.662507 
L 786.515417 -159.850563 
L 786.515417 -161.038619 
L 786.515417 -162.226675 
L 786.515417 -163.414731 
L 786.515417 -164.602787 
L 786.515417 -165.790843 
L 786.515417 -166.978899 
L 786.515417 -168.166956 
L 786.515417 -169.355012 
L 786.515417 -170.543068 
L 786.515417 -171.731124 
L 786.515417 -172.91918 
L 786.515417 -174.107236 
L 786.515417 -175.295292 
L 786.515417 -176.483348 
L 786.515417 -177.671404 
L 786.515417 -178.85946 
L 786.515417 -180.047516 
L 786.515417 -181.235572 
L 786.515417 -182.423629 
L 786.515417 -183.611685 
L 786.515417 -184.799741 
L 786.515417 -185.987797 
L 786.515417 -187.175853 
L 786.515417 -188.363909 
L 786.515417 -189.551965 
L 786.515417 -190.740021 
L 786.515417 -191.928077 
L 786.515417 -193.116133 
L 786.515417 -194.304189 
L 786.515417 -195.492245 
L 786.515417 -196.680302 
L 786.515417 -197.868358 
L 786.515417 -199.056414 
L 786.515417 -200.24447 
L 786.515417 -201.432526 
L 786.515417 -202.620582 
L 786.515417 -203.808638 
L 786.515417 -204.996694 
L 786.515417 -206.18475 
L 786.515417 -207.372806 
L 786.515417 -208.560862 
L 786.515417 -209.748918 
L 786.515417 -210.936975 
L 786.515417 -212.125031 
L 786.515417 -213.313087 
L 786.515417 -214.501143 
L 786.515417 -215.689199 
L 786.515417 -216.877255 
L 786.515417 -218.065311 
L 786.515417 -219.253367 
L 786.515417 -220.441423 
L 786.515417 -221.629479 
L 786.515417 -222.817535 
L 786.515417 -224.005591 
L 786.515417 -225.193648 
L 786.515417 -226.381704 
L 786.515417 -227.56976 
L 786.515417 -228.757816 
L 786.515417 -229.945872 
L 787.15015 -229.945872 
L 787.15015 -229.945872 
L 787.258127 -228.757816 
L 787.379906 -227.56976 
L 787.516375 -226.381704 
L 787.668318 -225.193648 
L 787.836386 -224.005591 
L 788.02106 -222.817535 
L 788.222621 -221.629479 
L 788.441118 -220.441423 
L 788.676335 -219.253367 
L 788.927769 -218.065311 
L 789.194606 -216.877255 
L 789.475709 -215.689199 
L 789.769609 -214.501143 
L 790.074506 -213.313087 
L 790.388283 -212.125031 
L 790.70852 -210.936975 
L 791.032527 -209.748918 
L 791.357383 -208.560862 
L 791.679985 -207.372806 
L 791.997096 -206.18475 
L 792.305418 -204.996694 
L 792.601647 -203.808638 
L 792.882551 -202.620582 
L 793.145032 -201.432526 
L 793.386199 -200.24447 
L 793.603428 -199.056414 
L 793.794425 -197.868358 
L 793.957268 -196.680302 
L 794.090455 -195.492245 
L 794.192928 -194.304189 
L 794.264096 -193.116133 
L 794.303836 -191.928077 
L 794.312491 -190.740021 
L 794.29085 -189.551965 
L 794.240123 -188.363909 
L 794.161905 -187.175853 
L 794.058126 -185.987797 
L 793.931006 -184.799741 
L 793.783 -183.611685 
L 793.616739 -182.423629 
L 793.434975 -181.235572 
L 793.240521 -180.047516 
L 793.036203 -178.85946 
L 792.824804 -177.671404 
L 792.60902 -176.483348 
L 792.391419 -175.295292 
L 792.174407 -174.107236 
L 791.960195 -172.91918 
L 791.750774 -171.731124 
L 791.547898 -170.543068 
L 791.353069 -169.355012 
L 791.167523 -168.166956 
L 790.992232 -166.978899 
L 790.827895 -165.790843 
L 790.674945 -164.602787 
L 790.533557 -163.414731 
L 790.403653 -162.226675 
L 790.28492 -161.038619 
L 790.176826 -159.850563 
L 790.078638 -158.662507 
L 789.989451 -157.474451 
L 789.908212 -156.286395 
L 789.833748 -155.098339 
L 789.764802 -153.910283 
L 789.70006 -152.722226 
L 789.638193 -151.53417 
L 789.577886 -150.346114 
L 789.517871 -149.158058 
L 789.456962 -147.970002 
L 789.394084 -146.781946 
L 789.328293 -145.59389 
L 789.258806 -144.405834 
L 789.185008 -143.217778 
L 789.106471 -142.029722 
L 789.022953 -140.841666 
L 788.934402 -139.65361 
L 788.840945 -138.465553 
L 788.742881 -137.277497 
L 788.640663 -136.089441 
L 788.534878 -134.901385 
L 788.426223 -133.713329 
L 788.315482 -132.525273 
L 788.203497 -131.337217 
L 788.091142 -130.149161 
L 787.979301 -128.961105 
L 787.868835 -127.773049 
L 787.760569 -126.584993 
L 787.655268 -125.396937 
L 787.553619 -124.20888 
L 787.456226 -123.020824 
L 787.363594 -121.832768 
L 787.276126 -120.644712 
L 787.194126 -119.456656 
L 787.117792 -118.2686 
L 787.047227 -117.080544 
L 786.982445 -115.892488 
L 786.923377 -114.704432 
L 786.86988 -113.516376 
L 786.821753 -112.32832 
z
" style="stroke: #545454; stroke-width: 1.25"/>
    </defs>
    <g clip-path="url(#p22c6509e6b)">
     <use xlink:href="#m3abe487836" x="0" y="432" style="fill: #d98b5f; stroke: #545454; stroke-width: 1.25"/>
    </g>
   </g>
   <g id="patch_3">
    <path d="M 119.669583 258.158566 
L 119.669583 258.158566 
L 119.669583 258.158566 
L 119.669583 258.158566 
z
" clip-path="url(#p22c6509e6b)" style="fill: #597dbf; stroke: #545454; stroke-width: 1.25; stroke-linejoin: miter"/>
   </g>
   <g id="patch_4">
    <path d="M 119.669583 258.158566 
L 119.669583 258.158566 
L 119.669583 258.158566 
L 119.669583 258.158566 
z
" clip-path="url(#p22c6509e6b)" style="fill: #d98b5f; stroke: #545454; stroke-width: 1.25; stroke-linejoin: miter"/>
   </g>
   <g id="matplotlib.axis_1">
    <g id="xtick_1">
     <g id="line2d_1">
      <defs>
       <path id="mb0322e095d" d="M 0 0 
L 0 3.5 
" style="stroke: #000000; stroke-width: 0.8"/>
      </defs>
      <g>
       <use xlink:href="#mb0322e095d" x="119.669583" y="333.648427" style="stroke: #000000; stroke-width: 0.8"/>
      </g>
     </g>
     <g id="text_1">
      <!-- amputate_L3 -->
      <g transform="translate(98.26303 392.290424) rotate(-45) scale(0.1 -0.1)">
       <defs>
        <path id="DejaVuSans-61" d="M 2194 1759 
Q 1497 1759 1228 1600 
Q 959 1441 959 1056 
Q 959 750 1161 570 
Q 1363 391 1709 391 
Q 2188 391 2477 730 
Q 2766 1069 2766 1631 
L 2766 1759 
L 2194 1759 
z
M 3341 1997 
L 3341 0 
L 2766 0 
L 2766 531 
Q 2569 213 2275 61 
Q 1981 -91 1556 -91 
Q 1019 -91 701 211 
Q 384 513 384 1019 
Q 384 1609 779 1909 
Q 1175 2209 1959 2209 
L 2766 2209 
L 2766 2266 
Q 2766 2663 2505 2880 
Q 2244 3097 1772 3097 
Q 1472 3097 1187 3025 
Q 903 2953 641 2809 
L 641 3341 
Q 956 3463 1253 3523 
Q 1550 3584 1831 3584 
Q 2591 3584 2966 3190 
Q 3341 2797 3341 1997 
z
" transform="scale(0.015625)"/>
        <path id="DejaVuSans-6d" d="M 3328 2828 
Q 3544 3216 3844 3400 
Q 4144 3584 4550 3584 
Q 5097 3584 5394 3201 
Q 5691 2819 5691 2113 
L 5691 0 
L 5113 0 
L 5113 2094 
Q 5113 2597 4934 2840 
Q 4756 3084 4391 3084 
Q 3944 3084 3684 2787 
Q 3425 2491 3425 1978 
L 3425 0 
L 2847 0 
L 2847 2094 
Q 2847 2600 2669 2842 
Q 2491 3084 2119 3084 
Q 1678 3084 1418 2786 
Q 1159 2488 1159 1978 
L 1159 0 
L 581 0 
L 581 3500 
L 1159 3500 
L 1159 2956 
Q 1356 3278 1631 3431 
Q 1906 3584 2284 3584 
Q 2666 3584 2933 3390 
Q 3200 3197 3328 2828 
z
" transform="scale(0.015625)"/>
        <path id="DejaVuSans-70" d="M 1159 525 
L 1159 -1331 
L 581 -1331 
L 581 3500 
L 1159 3500 
L 1159 2969 
Q 1341 3281 1617 3432 
Q 1894 3584 2278 3584 
Q 2916 3584 3314 3078 
Q 3713 2572 3713 1747 
Q 3713 922 3314 415 
Q 2916 -91 2278 -91 
Q 1894 -91 1617 61 
Q 1341 213 1159 525 
z
M 3116 1747 
Q 3116 2381 2855 2742 
Q 2594 3103 2138 3103 
Q 1681 3103 1420 2742 
Q 1159 2381 1159 1747 
Q 1159 1113 1420 752 
Q 1681 391 2138 391 
Q 2594 391 2855 752 
Q 3116 1113 3116 1747 
z
" transform="scale(0.015625)"/>
        <path id="DejaVuSans-75" d="M 544 1381 
L 544 3500 
L 1119 3500 
L 1119 1403 
Q 1119 906 1312 657 
Q 1506 409 1894 409 
Q 2359 409 2629 706 
Q 2900 1003 2900 1516 
L 2900 3500 
L 3475 3500 
L 3475 0 
L 2900 0 
L 2900 538 
Q 2691 219 2414 64 
Q 2138 -91 1772 -91 
Q 1169 -91 856 284 
Q 544 659 544 1381 
z
M 1991 3584 
L 1991 3584 
z
" transform="scale(0.015625)"/>
        <path id="DejaVuSans-74" d="M 1172 4494 
L 1172 3500 
L 2356 3500 
L 2356 3053 
L 1172 3053 
L 1172 1153 
Q 1172 725 1289 603 
Q 1406 481 1766 481 
L 2356 481 
L 2356 0 
L 1766 0 
Q 1100 0 847 248 
Q 594 497 594 1153 
L 594 3053 
L 172 3053 
L 172 3500 
L 594 3500 
L 594 4494 
L 1172 4494 
z
" transform="scale(0.015625)"/>
        <path id="DejaVuSans-65" d="M 3597 1894 
L 3597 1613 
L 953 1613 
Q 991 1019 1311 708 
Q 1631 397 2203 397 
Q 2534 397 2845 478 
Q 3156 559 3463 722 
L 3463 178 
Q 3153 47 2828 -22 
Q 2503 -91 2169 -91 
Q 1331 -91 842 396 
Q 353 884 353 1716 
Q 353 2575 817 3079 
Q 1281 3584 2069 3584 
Q 2775 3584 3186 3129 
Q 3597 2675 3597 1894 
z
M 3022 2063 
Q 3016 2534 2758 2815 
Q 2500 3097 2075 3097 
Q 1594 3097 1305 2825 
Q 1016 2553 972 2059 
L 3022 2063 
z
" transform="scale(0.015625)"/>
        <path id="DejaVuSans-5f" d="M 3263 -1063 
L 3263 -1509 
L -63 -1509 
L -63 -1063 
L 3263 -1063 
z
" transform="scale(0.015625)"/>
        <path id="DejaVuSans-4c" d="M 628 4666 
L 1259 4666 
L 1259 531 
L 3531 531 
L 3531 0 
L 628 0 
L 628 4666 
z
" transform="scale(0.015625)"/>
        <path id="DejaVuSans-33" d="M 2597 2516 
Q 3050 2419 3304 2112 
Q 3559 1806 3559 1356 
Q 3559 666 3084 287 
Q 2609 -91 1734 -91 
Q 1441 -91 1130 -33 
Q 819 25 488 141 
L 488 750 
Q 750 597 1062 519 
Q 1375 441 1716 441 
Q 2309 441 2620 675 
Q 2931 909 2931 1356 
Q 2931 1769 2642 2001 
Q 2353 2234 1838 2234 
L 1294 2234 
L 1294 2753 
L 1863 2753 
Q 2328 2753 2575 2939 
Q 2822 3125 2822 3475 
Q 2822 3834 2567 4026 
Q 2313 4219 1838 4219 
Q 1578 4219 1281 4162 
Q 984 4106 628 3988 
L 628 4550 
Q 988 4650 1302 4700 
Q 1616 4750 1894 4750 
Q 2613 4750 3031 4423 
Q 3450 4097 3450 3541 
Q 3450 3153 3228 2886 
Q 3006 2619 2597 2516 
z
" transform="scale(0.015625)"/>
       </defs>
       <use xlink:href="#DejaVuSans-61"/>
       <use xlink:href="#DejaVuSans-6d" x="61.279297"/>
       <use xlink:href="#DejaVuSans-70" x="158.691406"/>
       <use xlink:href="#DejaVuSans-75" x="222.167969"/>
       <use xlink:href="#DejaVuSans-74" x="285.546875"/>
       <use xlink:href="#DejaVuSans-61" x="324.755859"/>
       <use xlink:href="#DejaVuSans-74" x="386.035156"/>
       <use xlink:href="#DejaVuSans-65" x="425.244141"/>
       <use xlink:href="#DejaVuSans-5f" x="486.767578"/>
       <use xlink:href="#DejaVuSans-4c" x="536.767578"/>
       <use xlink:href="#DejaVuSans-33" x="592.480469"/>
      </g>
     </g>
    </g>
    <g id="xtick_2">
     <g id="line2d_2">
      <g>
       <use xlink:href="#mb0322e095d" x="253.03875" y="333.648427" style="stroke: #000000; stroke-width: 0.8"/>
      </g>
     </g>
     <g id="text_2">
      <!-- amputate_R2 -->
      <g transform="translate(231.145509 393.263801) rotate(-45) scale(0.1 -0.1)">
       <defs>
        <path id="DejaVuSans-52" d="M 2841 2188 
Q 3044 2119 3236 1894 
Q 3428 1669 3622 1275 
L 4263 0 
L 3584 0 
L 2988 1197 
Q 2756 1666 2539 1819 
Q 2322 1972 1947 1972 
L 1259 1972 
L 1259 0 
L 628 0 
L 628 4666 
L 2053 4666 
Q 2853 4666 3247 4331 
Q 3641 3997 3641 3322 
Q 3641 2881 3436 2590 
Q 3231 2300 2841 2188 
z
M 1259 4147 
L 1259 2491 
L 2053 2491 
Q 2509 2491 2742 2702 
Q 2975 2913 2975 3322 
Q 2975 3731 2742 3939 
Q 2509 4147 2053 4147 
L 1259 4147 
z
" transform="scale(0.015625)"/>
        <path id="DejaVuSans-32" d="M 1228 531 
L 3431 531 
L 3431 0 
L 469 0 
L 469 531 
Q 828 903 1448 1529 
Q 2069 2156 2228 2338 
Q 2531 2678 2651 2914 
Q 2772 3150 2772 3378 
Q 2772 3750 2511 3984 
Q 2250 4219 1831 4219 
Q 1534 4219 1204 4116 
Q 875 4013 500 3803 
L 500 4441 
Q 881 4594 1212 4672 
Q 1544 4750 1819 4750 
Q 2544 4750 2975 4387 
Q 3406 4025 3406 3419 
Q 3406 3131 3298 2873 
Q 3191 2616 2906 2266 
Q 2828 2175 2409 1742 
Q 1991 1309 1228 531 
z
" transform="scale(0.015625)"/>
       </defs>
       <use xlink:href="#DejaVuSans-61"/>
       <use xlink:href="#DejaVuSans-6d" x="61.279297"/>
       <use xlink:href="#DejaVuSans-70" x="158.691406"/>
       <use xlink:href="#DejaVuSans-75" x="222.167969"/>
       <use xlink:href="#DejaVuSans-74" x="285.546875"/>
       <use xlink:href="#DejaVuSans-61" x="324.755859"/>
       <use xlink:href="#DejaVuSans-74" x="386.035156"/>
       <use xlink:href="#DejaVuSans-65" x="425.244141"/>
       <use xlink:href="#DejaVuSans-5f" x="486.767578"/>
       <use xlink:href="#DejaVuSans-52" x="536.767578"/>
       <use xlink:href="#DejaVuSans-32" x="606.25"/>
      </g>
     </g>
    </g>
    <g id="xtick_3">
     <g id="line2d_3">
      <g>
       <use xlink:href="#mb0322e095d" x="386.407917" y="333.648427" style="stroke: #000000; stroke-width: 0.8"/>
      </g>
     </g>
     <g id="text_3">
      <!-- amputate_R2_L2 -->
      <g transform="translate(358.52747 405.238212) rotate(-45) scale(0.1 -0.1)">
       <use xlink:href="#DejaVuSans-61"/>
       <use xlink:href="#DejaVuSans-6d" x="61.279297"/>
       <use xlink:href="#DejaVuSans-70" x="158.691406"/>
       <use xlink:href="#DejaVuSans-75" x="222.167969"/>
       <use xlink:href="#DejaVuSans-74" x="285.546875"/>
       <use xlink:href="#DejaVuSans-61" x="324.755859"/>
       <use xlink:href="#DejaVuSans-74" x="386.035156"/>
       <use xlink:href="#DejaVuSans-65" x="425.244141"/>
       <use xlink:href="#DejaVuSans-5f" x="486.767578"/>
       <use xlink:href="#DejaVuSans-52" x="536.767578"/>
       <use xlink:href="#DejaVuSans-32" x="606.25"/>
       <use xlink:href="#DejaVuSans-5f" x="669.873047"/>
       <use xlink:href="#DejaVuSans-4c" x="719.873047"/>
       <use xlink:href="#DejaVuSans-32" x="775.585938"/>
      </g>
     </g>
    </g>
    <g id="xtick_4">
     <g id="line2d_4">
      <g>
       <use xlink:href="#mb0322e095d" x="519.777083" y="333.648427" style="stroke: #000000; stroke-width: 0.8"/>
      </g>
     </g>
     <g id="text_4">
      <!-- amputate_R3_L3 -->
      <g transform="translate(491.896636 405.238212) rotate(-45) scale(0.1 -0.1)">
       <use xlink:href="#DejaVuSans-61"/>
       <use xlink:href="#DejaVuSans-6d" x="61.279297"/>
       <use xlink:href="#DejaVuSans-70" x="158.691406"/>
       <use xlink:href="#DejaVuSans-75" x="222.167969"/>
       <use xlink:href="#DejaVuSans-74" x="285.546875"/>
       <use xlink:href="#DejaVuSans-61" x="324.755859"/>
       <use xlink:href="#DejaVuSans-74" x="386.035156"/>
       <use xlink:href="#DejaVuSans-65" x="425.244141"/>
       <use xlink:href="#DejaVuSans-5f" x="486.767578"/>
       <use xlink:href="#DejaVuSans-52" x="536.767578"/>
       <use xlink:href="#DejaVuSans-33" x="606.25"/>
       <use xlink:href="#DejaVuSans-5f" x="669.873047"/>
       <use xlink:href="#DejaVuSans-4c" x="719.873047"/>
       <use xlink:href="#DejaVuSans-33" x="775.585938"/>
      </g>
     </g>
    </g>
    <g id="xtick_5">
     <g id="line2d_5">
      <g>
       <use xlink:href="#mb0322e095d" x="653.14625" y="333.648427" style="stroke: #000000; stroke-width: 0.8"/>
      </g>
     </g>
     <g id="text_5">
      <!-- flat -->
      <g transform="translate(649.31793 357.58032) rotate(-45) scale(0.1 -0.1)">
       <defs>
        <path id="DejaVuSans-66" d="M 2375 4863 
L 2375 4384 
L 1825 4384 
Q 1516 4384 1395 4259 
Q 1275 4134 1275 3809 
L 1275 3500 
L 2222 3500 
L 2222 3053 
L 1275 3053 
L 1275 0 
L 697 0 
L 697 3053 
L 147 3053 
L 147 3500 
L 697 3500 
L 697 3744 
Q 697 4328 969 4595 
Q 1241 4863 1831 4863 
L 2375 4863 
z
" transform="scale(0.015625)"/>
        <path id="DejaVuSans-6c" d="M 603 4863 
L 1178 4863 
L 1178 0 
L 603 0 
L 603 4863 
z
" transform="scale(0.015625)"/>
       </defs>
       <use xlink:href="#DejaVuSans-66"/>
       <use xlink:href="#DejaVuSans-6c" x="35.205078"/>
       <use xlink:href="#DejaVuSans-61" x="62.988281"/>
       <use xlink:href="#DejaVuSans-74" x="124.267578"/>
      </g>
     </g>
    </g>
    <g id="xtick_6">
     <g id="line2d_6">
      <g>
       <use xlink:href="#mb0322e095d" x="786.515417" y="333.648427" style="stroke: #000000; stroke-width: 0.8"/>
      </g>
     </g>
     <g id="text_6">
      <!-- terrain -->
      <g transform="translate(776.670612 369.613289) rotate(-45) scale(0.1 -0.1)">
       <defs>
        <path id="DejaVuSans-72" d="M 2631 2963 
Q 2534 3019 2420 3045 
Q 2306 3072 2169 3072 
Q 1681 3072 1420 2755 
Q 1159 2438 1159 1844 
L 1159 0 
L 581 0 
L 581 3500 
L 1159 3500 
L 1159 2956 
Q 1341 3275 1631 3429 
Q 1922 3584 2338 3584 
Q 2397 3584 2469 3576 
Q 2541 3569 2628 3553 
L 2631 2963 
z
" transform="scale(0.015625)"/>
        <path id="DejaVuSans-69" d="M 603 3500 
L 1178 3500 
L 1178 0 
L 603 0 
L 603 3500 
z
M 603 4863 
L 1178 4863 
L 1178 4134 
L 603 4134 
L 603 4863 
z
" transform="scale(0.015625)"/>
        <path id="DejaVuSans-6e" d="M 3513 2113 
L 3513 0 
L 2938 0 
L 2938 2094 
Q 2938 2591 2744 2837 
Q 2550 3084 2163 3084 
Q 1697 3084 1428 2787 
Q 1159 2491 1159 1978 
L 1159 0 
L 581 0 
L 581 3500 
L 1159 3500 
L 1159 2956 
Q 1366 3272 1645 3428 
Q 1925 3584 2291 3584 
Q 2894 3584 3203 3211 
Q 3513 2838 3513 2113 
z
" transform="scale(0.015625)"/>
       </defs>
       <use xlink:href="#DejaVuSans-74"/>
       <use xlink:href="#DejaVuSans-65" x="39.208984"/>
       <use xlink:href="#DejaVuSans-72" x="100.732422"/>
       <use xlink:href="#DejaVuSans-72" x="140.095703"/>
       <use xlink:href="#DejaVuSans-61" x="181.208984"/>
       <use xlink:href="#DejaVuSans-69" x="242.488281"/>
       <use xlink:href="#DejaVuSans-6e" x="270.271484"/>
      </g>
     </g>
    </g>
    <g id="text_7">
     <!-- Terrain -->
     <g transform="translate(436.166719 418.503875) scale(0.1 -0.1)">
      <defs>
       <path id="DejaVuSans-54" d="M -19 4666 
L 3928 4666 
L 3928 4134 
L 2272 4134 
L 2272 0 
L 1638 0 
L 1638 4134 
L -19 4134 
L -19 4666 
z
" transform="scale(0.015625)"/>
      </defs>
      <use xlink:href="#DejaVuSans-54"/>
      <use xlink:href="#DejaVuSans-65" x="44.083984"/>
      <use xlink:href="#DejaVuSans-72" x="105.607422"/>
      <use xlink:href="#DejaVuSans-72" x="144.970703"/>
      <use xlink:href="#DejaVuSans-61" x="186.083984"/>
      <use xlink:href="#DejaVuSans-69" x="247.363281"/>
      <use xlink:href="#DejaVuSans-6e" x="275.146484"/>
     </g>
    </g>
   </g>
   <g id="matplotlib.axis_2">
    <g id="ytick_1">
     <g id="line2d_7">
      <defs>
       <path id="mfe393429b3" d="M 0 0 
L -3.5 0 
" style="stroke: #000000; stroke-width: 0.8"/>
      </defs>
      <g>
       <use xlink:href="#mfe393429b3" x="52.985" y="318.933197" style="stroke: #000000; stroke-width: 0.8"/>
      </g>
     </g>
     <g id="text_8">
      <!-- 50 -->
      <g transform="translate(24.880312 322.732415) scale(0.1 -0.1)">
       <defs>
        <path id="DejaVuSans-2212" d="M 678 2272 
L 4684 2272 
L 4684 1741 
L 678 1741 
L 678 2272 
z
" transform="scale(0.015625)"/>
        <path id="DejaVuSans-35" d="M 691 4666 
L 3169 4666 
L 3169 4134 
L 1269 4134 
L 1269 2991 
Q 1406 3038 1543 3061 
Q 1681 3084 1819 3084 
Q 2600 3084 3056 2656 
Q 3513 2228 3513 1497 
Q 3513 744 3044 326 
Q 2575 -91 1722 -91 
Q 1428 -91 1123 -41 
Q 819 9 494 109 
L 494 744 
Q 775 591 1075 516 
Q 1375 441 1709 441 
Q 2250 441 2565 725 
Q 2881 1009 2881 1497 
Q 2881 1984 2565 2268 
Q 2250 2553 1709 2553 
Q 1456 2553 1204 2497 
Q 953 2441 691 2322 
L 691 4666 
z
" transform="scale(0.015625)"/>
        <path id="DejaVuSans-30" d="M 2034 4250 
Q 1547 4250 1301 3770 
Q 1056 3291 1056 2328 
Q 1056 1369 1301 889 
Q 1547 409 2034 409 
Q 2525 409 2770 889 
Q 3016 1369 3016 2328 
Q 3016 3291 2770 3770 
Q 2525 4250 2034 4250 
z
M 2034 4750 
Q 2819 4750 3233 4129 
Q 3647 3509 3647 2328 
Q 3647 1150 3233 529 
Q 2819 -91 2034 -91 
Q 1250 -91 836 529 
Q 422 1150 422 2328 
Q 422 3509 836 4129 
Q 1250 4750 2034 4750 
z
" transform="scale(0.015625)"/>
       </defs>
       <use xlink:href="#DejaVuSans-2212"/>
       <use xlink:href="#DejaVuSans-35" x="83.789062"/>
       <use xlink:href="#DejaVuSans-30" x="147.412109"/>
      </g>
     </g>
    </g>
    <g id="ytick_2">
     <g id="line2d_8">
      <g>
       <use xlink:href="#mfe393429b3" x="52.985" y="258.158566" style="stroke: #000000; stroke-width: 0.8"/>
      </g>
     </g>
     <g id="text_9">
      <!-- 0 -->
      <g transform="translate(39.6225 261.957785) scale(0.1 -0.1)">
       <use xlink:href="#DejaVuSans-30"/>
      </g>
     </g>
    </g>
    <g id="ytick_3">
     <g id="line2d_9">
      <g>
       <use xlink:href="#mfe393429b3" x="52.985" y="197.383936" style="stroke: #000000; stroke-width: 0.8"/>
      </g>
     </g>
     <g id="text_10">
      <!-- 50 -->
      <g transform="translate(33.26 201.183154) scale(0.1 -0.1)">
       <use xlink:href="#DejaVuSans-35"/>
       <use xlink:href="#DejaVuSans-30" x="63.623047"/>
      </g>
     </g>
    </g>
    <g id="ytick_4">
     <g id="line2d_10">
      <g>
       <use xlink:href="#mfe393429b3" x="52.985" y="136.609305" style="stroke: #000000; stroke-width: 0.8"/>
      </g>
     </g>
     <g id="text_11">
      <!-- 100 -->
      <g transform="translate(26.8975 140.408524) scale(0.1 -0.1)">
       <defs>
        <path id="DejaVuSans-31" d="M 794 531 
L 1825 531 
L 1825 4091 
L 703 3866 
L 703 4441 
L 1819 4666 
L 2450 4666 
L 2450 531 
L 3481 531 
L 3481 0 
L 794 0 
L 794 531 
z
" transform="scale(0.015625)"/>
       </defs>
       <use xlink:href="#DejaVuSans-31"/>
       <use xlink:href="#DejaVuSans-30" x="63.623047"/>
       <use xlink:href="#DejaVuSans-30" x="127.246094"/>
      </g>
     </g>
    </g>
    <g id="ytick_5">
     <g id="line2d_11">
      <g>
       <use xlink:href="#mfe393429b3" x="52.985" y="75.834675" style="stroke: #000000; stroke-width: 0.8"/>
      </g>
     </g>
     <g id="text_12">
      <!-- 150 -->
      <g transform="translate(26.8975 79.633894) scale(0.1 -0.1)">
       <use xlink:href="#DejaVuSans-31"/>
       <use xlink:href="#DejaVuSans-35" x="63.623047"/>
       <use xlink:href="#DejaVuSans-30" x="127.246094"/>
      </g>
     </g>
    </g>
    <g id="text_13">
     <!-- Velocity % of Flat -->
     <g transform="translate(18.800625 223.146401) rotate(-90) scale(0.1 -0.1)">
      <defs>
       <path id="DejaVuSans-56" d="M 1831 0 
L 50 4666 
L 709 4666 
L 2188 738 
L 3669 4666 
L 4325 4666 
L 2547 0 
L 1831 0 
z
" transform="scale(0.015625)"/>
       <path id="DejaVuSans-6f" d="M 1959 3097 
Q 1497 3097 1228 2736 
Q 959 2375 959 1747 
Q 959 1119 1226 758 
Q 1494 397 1959 397 
Q 2419 397 2687 759 
Q 2956 1122 2956 1747 
Q 2956 2369 2687 2733 
Q 2419 3097 1959 3097 
z
M 1959 3584 
Q 2709 3584 3137 3096 
Q 3566 2609 3566 1747 
Q 3566 888 3137 398 
Q 2709 -91 1959 -91 
Q 1206 -91 779 398 
Q 353 888 353 1747 
Q 353 2609 779 3096 
Q 1206 3584 1959 3584 
z
" transform="scale(0.015625)"/>
       <path id="DejaVuSans-63" d="M 3122 3366 
L 3122 2828 
Q 2878 2963 2633 3030 
Q 2388 3097 2138 3097 
Q 1578 3097 1268 2742 
Q 959 2388 959 1747 
Q 959 1106 1268 751 
Q 1578 397 2138 397 
Q 2388 397 2633 464 
Q 2878 531 3122 666 
L 3122 134 
Q 2881 22 2623 -34 
Q 2366 -91 2075 -91 
Q 1284 -91 818 406 
Q 353 903 353 1747 
Q 353 2603 823 3093 
Q 1294 3584 2113 3584 
Q 2378 3584 2631 3529 
Q 2884 3475 3122 3366 
z
" transform="scale(0.015625)"/>
       <path id="DejaVuSans-79" d="M 2059 -325 
Q 1816 -950 1584 -1140 
Q 1353 -1331 966 -1331 
L 506 -1331 
L 506 -850 
L 844 -850 
Q 1081 -850 1212 -737 
Q 1344 -625 1503 -206 
L 1606 56 
L 191 3500 
L 800 3500 
L 1894 763 
L 2988 3500 
L 3597 3500 
L 2059 -325 
z
" transform="scale(0.015625)"/>
       <path id="DejaVuSans-20" transform="scale(0.015625)"/>
       <path id="DejaVuSans-25" d="M 4653 2053 
Q 4381 2053 4226 1822 
Q 4072 1591 4072 1178 
Q 4072 772 4226 539 
Q 4381 306 4653 306 
Q 4919 306 5073 539 
Q 5228 772 5228 1178 
Q 5228 1588 5073 1820 
Q 4919 2053 4653 2053 
z
M 4653 2450 
Q 5147 2450 5437 2106 
Q 5728 1763 5728 1178 
Q 5728 594 5436 251 
Q 5144 -91 4653 -91 
Q 4153 -91 3862 251 
Q 3572 594 3572 1178 
Q 3572 1766 3864 2108 
Q 4156 2450 4653 2450 
z
M 1428 4353 
Q 1159 4353 1004 4120 
Q 850 3888 850 3481 
Q 850 3069 1003 2837 
Q 1156 2606 1428 2606 
Q 1700 2606 1854 2837 
Q 2009 3069 2009 3481 
Q 2009 3884 1853 4118 
Q 1697 4353 1428 4353 
z
M 4250 4750 
L 4750 4750 
L 1831 -91 
L 1331 -91 
L 4250 4750 
z
M 1428 4750 
Q 1922 4750 2215 4408 
Q 2509 4066 2509 3481 
Q 2509 2891 2217 2550 
Q 1925 2209 1428 2209 
Q 931 2209 642 2551 
Q 353 2894 353 3481 
Q 353 4063 643 4406 
Q 934 4750 1428 4750 
z
" transform="scale(0.015625)"/>
       <path id="DejaVuSans-46" d="M 628 4666 
L 3309 4666 
L 3309 4134 
L 1259 4134 
L 1259 2759 
L 3109 2759 
L 3109 2228 
L 1259 2228 
L 1259 0 
L 628 0 
L 628 4666 
z
" transform="scale(0.015625)"/>
      </defs>
      <use xlink:href="#DejaVuSans-56"/>
      <use xlink:href="#DejaVuSans-65" x="60.658203"/>
      <use xlink:href="#DejaVuSans-6c" x="122.181641"/>
      <use xlink:href="#DejaVuSans-6f" x="149.964844"/>
      <use xlink:href="#DejaVuSans-63" x="211.146484"/>
      <use xlink:href="#DejaVuSans-69" x="266.126953"/>
      <use xlink:href="#DejaVuSans-74" x="293.910156"/>
      <use xlink:href="#DejaVuSans-79" x="333.119141"/>
      <use xlink:href="#DejaVuSans-20" x="392.298828"/>
      <use xlink:href="#DejaVuSans-25" x="424.085938"/>
      <use xlink:href="#DejaVuSans-20" x="519.105469"/>
      <use xlink:href="#DejaVuSans-6f" x="550.892578"/>
      <use xlink:href="#DejaVuSans-66" x="612.074219"/>
      <use xlink:href="#DejaVuSans-20" x="647.279297"/>
      <use xlink:href="#DejaVuSans-46" x="679.066406"/>
      <use xlink:href="#DejaVuSans-6c" x="736.585938"/>
      <use xlink:href="#DejaVuSans-61" x="764.369141"/>
      <use xlink:href="#DejaVuSans-74" x="825.648438"/>
     </g>
    </g>
   </g>
   <g id="line2d_12">
    <path d="M 116.857083 225.915281 
L 116.857083 172.151958 
" clip-path="url(#p22c6509e6b)" style="fill: none; stroke: #545454; stroke-width: 1.875; stroke-linecap: square"/>
   </g>
   <g id="line2d_13">
    <path d="M 116.857083 212.182977 
L 116.857083 173.585949 
" clip-path="url(#p22c6509e6b)" style="fill: none; stroke: #545454; stroke-width: 5.625; stroke-linecap: square"/>
   </g>
   <g id="line2d_14">
    <path d="M 116.857083 193.743582 
" clip-path="url(#p22c6509e6b)" style="fill: none; stroke: #545454; stroke-width: 1.5; stroke-linecap: square"/>
    <defs>
     <path id="m9e976239f1" d="M 2.34375 0 
L -2.34375 -0 
" style="stroke: #ffffff; stroke-width: 1.125"/>
    </defs>
    <g clip-path="url(#p22c6509e6b)">
     <use xlink:href="#m9e976239f1" x="116.857083" y="193.743582" style="fill: #ffffff; stroke: #ffffff; stroke-width: 1.125"/>
    </g>
   </g>
   <g id="line2d_15">
    <path d="M 122.482083 217.694848 
L 122.482083 213.254364 
" clip-path="url(#p22c6509e6b)" style="fill: none; stroke: #545454; stroke-width: 1.875; stroke-linecap: square"/>
   </g>
   <g id="line2d_16">
    <path d="M 122.482083 217.694848 
L 122.482083 214.11788 
" clip-path="url(#p22c6509e6b)" style="fill: none; stroke: #545454; stroke-width: 5.625; stroke-linecap: square"/>
   </g>
   <g id="line2d_17">
    <path d="M 122.482083 215.00349 
" clip-path="url(#p22c6509e6b)" style="fill: none; stroke: #545454; stroke-width: 1.5; stroke-linecap: square"/>
    <g clip-path="url(#p22c6509e6b)">
     <use xlink:href="#m9e976239f1" x="122.482083" y="215.00349" style="fill: #ffffff; stroke: #ffffff; stroke-width: 1.125"/>
    </g>
   </g>
   <g id="line2d_18">
    <path d="M 250.22625 211.33086 
L 250.22625 154.755912 
" clip-path="url(#p22c6509e6b)" style="fill: none; stroke: #545454; stroke-width: 1.875; stroke-linecap: square"/>
   </g>
   <g id="line2d_19">
    <path d="M 250.22625 203.170131 
L 250.22625 183.575671 
" clip-path="url(#p22c6509e6b)" style="fill: none; stroke: #545454; stroke-width: 5.625; stroke-linecap: square"/>
   </g>
   <g id="line2d_20">
    <path d="M 250.22625 186.519871 
" clip-path="url(#p22c6509e6b)" style="fill: none; stroke: #545454; stroke-width: 1.5; stroke-linecap: square"/>
    <g clip-path="url(#p22c6509e6b)">
     <use xlink:href="#m9e976239f1" x="250.22625" y="186.519871" style="fill: #ffffff; stroke: #ffffff; stroke-width: 1.125"/>
    </g>
   </g>
   <g id="line2d_21">
    <path d="M 255.85125 211.463109 
L 255.85125 204.252528 
" clip-path="url(#p22c6509e6b)" style="fill: none; stroke: #545454; stroke-width: 1.875; stroke-linecap: square"/>
   </g>
   <g id="line2d_22">
    <path d="M 255.85125 210.359444 
L 255.85125 207.79361 
" clip-path="url(#p22c6509e6b)" style="fill: none; stroke: #545454; stroke-width: 5.625; stroke-linecap: square"/>
   </g>
   <g id="line2d_23">
    <path d="M 255.85125 209.482763 
" clip-path="url(#p22c6509e6b)" style="fill: none; stroke: #545454; stroke-width: 1.5; stroke-linecap: square"/>
    <g clip-path="url(#p22c6509e6b)">
     <use xlink:href="#m9e976239f1" x="255.85125" y="209.482763" style="fill: #ffffff; stroke: #ffffff; stroke-width: 1.125"/>
    </g>
   </g>
   <g id="line2d_24">
    <path d="M 383.595417 264.260425 
L 383.595417 208.456336 
" clip-path="url(#p22c6509e6b)" style="fill: none; stroke: #545454; stroke-width: 1.875; stroke-linecap: square"/>
   </g>
   <g id="line2d_25">
    <path d="M 383.595417 251.035003 
L 383.595417 219.522723 
" clip-path="url(#p22c6509e6b)" style="fill: none; stroke: #545454; stroke-width: 5.625; stroke-linecap: square"/>
   </g>
   <g id="line2d_26">
    <path d="M 383.595417 239.09873 
" clip-path="url(#p22c6509e6b)" style="fill: none; stroke: #545454; stroke-width: 1.5; stroke-linecap: square"/>
    <g clip-path="url(#p22c6509e6b)">
     <use xlink:href="#m9e976239f1" x="383.595417" y="239.09873" style="fill: #ffffff; stroke: #ffffff; stroke-width: 1.125"/>
    </g>
   </g>
   <g id="line2d_27">
    <path d="M 516.964583 222.30393 
L 516.964583 196.392315 
" clip-path="url(#p22c6509e6b)" style="fill: none; stroke: #545454; stroke-width: 1.875; stroke-linecap: square"/>
   </g>
   <g id="line2d_28">
    <path d="M 516.964583 216.042959 
L 516.964583 205.119451 
" clip-path="url(#p22c6509e6b)" style="fill: none; stroke: #545454; stroke-width: 5.625; stroke-linecap: square"/>
   </g>
   <g id="line2d_29">
    <path d="M 516.964583 214.372873 
" clip-path="url(#p22c6509e6b)" style="fill: none; stroke: #545454; stroke-width: 1.5; stroke-linecap: square"/>
    <g clip-path="url(#p22c6509e6b)">
     <use xlink:href="#m9e976239f1" x="516.964583" y="214.372873" style="fill: #ffffff; stroke: #ffffff; stroke-width: 1.125"/>
    </g>
   </g>
   <g id="line2d_30">
    <path d="M 522.589583 259.70289 
L 522.589583 241.591463 
" clip-path="url(#p22c6509e6b)" style="fill: none; stroke: #545454; stroke-width: 1.875; stroke-linecap: square"/>
   </g>
   <g id="line2d_31">
    <path d="M 522.589583 251.180149 
L 522.589583 245.281559 
" clip-path="url(#p22c6509e6b)" style="fill: none; stroke: #545454; stroke-width: 5.625; stroke-linecap: square"/>
   </g>
   <g id="line2d_32">
    <path d="M 522.589583 247.425413 
" clip-path="url(#p22c6509e6b)" style="fill: none; stroke: #545454; stroke-width: 1.5; stroke-linecap: square"/>
    <g clip-path="url(#p22c6509e6b)">
     <use xlink:href="#m9e976239f1" x="522.589583" y="247.425413" style="fill: #ffffff; stroke: #ffffff; stroke-width: 1.125"/>
    </g>
   </g>
   <g id="line2d_33">
    <path d="M 650.33375 194.378671 
L 650.33375 86.24278 
" clip-path="url(#p22c6509e6b)" style="fill: none; stroke: #545454; stroke-width: 1.875; stroke-linecap: square"/>
   </g>
   <g id="line2d_34">
    <path d="M 650.33375 154.946092 
L 650.33375 112.975077 
" clip-path="url(#p22c6509e6b)" style="fill: none; stroke: #545454; stroke-width: 5.625; stroke-linecap: square"/>
   </g>
   <g id="line2d_35">
    <path d="M 650.33375 148.905964 
" clip-path="url(#p22c6509e6b)" style="fill: none; stroke: #545454; stroke-width: 1.5; stroke-linecap: square"/>
    <g clip-path="url(#p22c6509e6b)">
     <use xlink:href="#m9e976239f1" x="650.33375" y="148.905964" style="fill: #ffffff; stroke: #ffffff; stroke-width: 1.125"/>
    </g>
   </g>
   <g id="line2d_36">
    <path d="M 655.95875 150.24493 
L 655.95875 120.568961 
" clip-path="url(#p22c6509e6b)" style="fill: none; stroke: #545454; stroke-width: 1.875; stroke-linecap: square"/>
   </g>
   <g id="line2d_37">
    <path d="M 655.95875 145.873405 
L 655.95875 128.547565 
" clip-path="url(#p22c6509e6b)" style="fill: none; stroke: #545454; stroke-width: 5.625; stroke-linecap: square"/>
   </g>
   <g id="line2d_38">
    <path d="M 655.95875 137.811665 
" clip-path="url(#p22c6509e6b)" style="fill: none; stroke: #545454; stroke-width: 1.5; stroke-linecap: square"/>
    <g clip-path="url(#p22c6509e6b)">
     <use xlink:href="#m9e976239f1" x="655.95875" y="137.811665" style="fill: #ffffff; stroke: #ffffff; stroke-width: 1.125"/>
    </g>
   </g>
   <g id="line2d_39">
    <path d="M 783.702917 192.668176 
L 783.702917 158.429456 
" clip-path="url(#p22c6509e6b)" style="fill: none; stroke: #545454; stroke-width: 1.875; stroke-linecap: square"/>
   </g>
   <g id="line2d_40">
    <path d="M 783.702917 189.279262 
L 783.702917 161.320986 
" clip-path="url(#p22c6509e6b)" style="fill: none; stroke: #545454; stroke-width: 5.625; stroke-linecap: square"/>
   </g>
   <g id="line2d_41">
    <path d="M 783.702917 182.906645 
" clip-path="url(#p22c6509e6b)" style="fill: none; stroke: #545454; stroke-width: 1.5; stroke-linecap: square"/>
    <g clip-path="url(#p22c6509e6b)">
     <use xlink:href="#m9e976239f1" x="783.702917" y="182.906645" style="fill: #ffffff; stroke: #ffffff; stroke-width: 1.125"/>
    </g>
   </g>
   <g id="line2d_42">
    <path d="M 789.327917 287.539458 
L 789.327917 234.18635 
" clip-path="url(#p22c6509e6b)" style="fill: none; stroke: #545454; stroke-width: 1.875; stroke-linecap: square"/>
   </g>
   <g id="line2d_43">
    <path d="M 789.327917 258.501096 
L 789.327917 238.301277 
" clip-path="url(#p22c6509e6b)" style="fill: none; stroke: #545454; stroke-width: 5.625; stroke-linecap: square"/>
   </g>
   <g id="line2d_44">
    <path d="M 789.327917 239.51185 
" clip-path="url(#p22c6509e6b)" style="fill: none; stroke: #545454; stroke-width: 1.5; stroke-linecap: square"/>
    <g clip-path="url(#p22c6509e6b)">
     <use xlink:href="#m9e976239f1" x="789.327917" y="239.51185" style="fill: #ffffff; stroke: #ffffff; stroke-width: 1.125"/>
    </g>
   </g>
   <g id="patch_5">
    <path d="M 52.985 333.648427 
L 52.985 26.16 
" style="fill: none; stroke: #000000; stroke-width: 0.8; stroke-linejoin: miter; stroke-linecap: square"/>
   </g>
   <g id="patch_6">
    <path d="M 853.2 333.648427 
L 853.2 26.16 
" style="fill: none; stroke: #000000; stroke-width: 0.8; stroke-linejoin: miter; stroke-linecap: square"/>
   </g>
   <g id="patch_7">
    <path d="M 52.985 333.648427 
L 853.2 333.648427 
" style="fill: none; stroke: #000000; stroke-width: 0.8; stroke-linejoin: miter; stroke-linecap: square"/>
   </g>
   <g id="patch_8">
    <path d="M 52.985 26.16 
L 853.2 26.16 
" style="fill: none; stroke: #000000; stroke-width: 0.8; stroke-linejoin: miter; stroke-linecap: square"/>
   </g>
   <g id="text_14">
    <!-- Violin Plot of Velocity % of Flat by Terrain -->
    <g transform="translate(330.460938 20.16) scale(0.12 -0.12)">
     <defs>
      <path id="DejaVuSans-50" d="M 1259 4147 
L 1259 2394 
L 2053 2394 
Q 2494 2394 2734 2622 
Q 2975 2850 2975 3272 
Q 2975 3691 2734 3919 
Q 2494 4147 2053 4147 
L 1259 4147 
z
M 628 4666 
L 2053 4666 
Q 2838 4666 3239 4311 
Q 3641 3956 3641 3272 
Q 3641 2581 3239 2228 
Q 2838 1875 2053 1875 
L 1259 1875 
L 1259 0 
L 628 0 
L 628 4666 
z
" transform="scale(0.015625)"/>
      <path id="DejaVuSans-62" d="M 3116 1747 
Q 3116 2381 2855 2742 
Q 2594 3103 2138 3103 
Q 1681 3103 1420 2742 
Q 1159 2381 1159 1747 
Q 1159 1113 1420 752 
Q 1681 391 2138 391 
Q 2594 391 2855 752 
Q 3116 1113 3116 1747 
z
M 1159 2969 
Q 1341 3281 1617 3432 
Q 1894 3584 2278 3584 
Q 2916 3584 3314 3078 
Q 3713 2572 3713 1747 
Q 3713 922 3314 415 
Q 2916 -91 2278 -91 
Q 1894 -91 1617 61 
Q 1341 213 1159 525 
L 1159 0 
L 581 0 
L 581 4863 
L 1159 4863 
L 1159 2969 
z
" transform="scale(0.015625)"/>
     </defs>
     <use xlink:href="#DejaVuSans-56"/>
     <use xlink:href="#DejaVuSans-69" x="66.158203"/>
     <use xlink:href="#DejaVuSans-6f" x="93.941406"/>
     <use xlink:href="#DejaVuSans-6c" x="155.123047"/>
     <use xlink:href="#DejaVuSans-69" x="182.90625"/>
     <use xlink:href="#DejaVuSans-6e" x="210.689453"/>
     <use xlink:href="#DejaVuSans-20" x="274.068359"/>
     <use xlink:href="#DejaVuSans-50" x="305.855469"/>
     <use xlink:href="#DejaVuSans-6c" x="366.158203"/>
     <use xlink:href="#DejaVuSans-6f" x="393.941406"/>
     <use xlink:href="#DejaVuSans-74" x="455.123047"/>
     <use xlink:href="#DejaVuSans-20" x="494.332031"/>
     <use xlink:href="#DejaVuSans-6f" x="526.119141"/>
     <use xlink:href="#DejaVuSans-66" x="587.300781"/>
     <use xlink:href="#DejaVuSans-20" x="622.505859"/>
     <use xlink:href="#DejaVuSans-56" x="654.292969"/>
     <use xlink:href="#DejaVuSans-65" x="714.951172"/>
     <use xlink:href="#DejaVuSans-6c" x="776.474609"/>
     <use xlink:href="#DejaVuSans-6f" x="804.257812"/>
     <use xlink:href="#DejaVuSans-63" x="865.439453"/>
     <use xlink:href="#DejaVuSans-69" x="920.419922"/>
     <use xlink:href="#DejaVuSans-74" x="948.203125"/>
     <use xlink:href="#DejaVuSans-79" x="987.412109"/>
     <use xlink:href="#DejaVuSans-20" x="1046.591797"/>
     <use xlink:href="#DejaVuSans-25" x="1078.378906"/>
     <use xlink:href="#DejaVuSans-20" x="1173.398438"/>
     <use xlink:href="#DejaVuSans-6f" x="1205.185547"/>
     <use xlink:href="#DejaVuSans-66" x="1266.367188"/>
     <use xlink:href="#DejaVuSans-20" x="1301.572266"/>
     <use xlink:href="#DejaVuSans-46" x="1333.359375"/>
     <use xlink:href="#DejaVuSans-6c" x="1390.878906"/>
     <use xlink:href="#DejaVuSans-61" x="1418.662109"/>
     <use xlink:href="#DejaVuSans-74" x="1479.941406"/>
     <use xlink:href="#DejaVuSans-20" x="1519.150391"/>
     <use xlink:href="#DejaVuSans-62" x="1550.9375"/>
     <use xlink:href="#DejaVuSans-79" x="1614.414062"/>
     <use xlink:href="#DejaVuSans-20" x="1673.59375"/>
     <use xlink:href="#DejaVuSans-54" x="1705.380859"/>
     <use xlink:href="#DejaVuSans-65" x="1749.464844"/>
     <use xlink:href="#DejaVuSans-72" x="1810.988281"/>
     <use xlink:href="#DejaVuSans-72" x="1850.351562"/>
     <use xlink:href="#DejaVuSans-61" x="1891.464844"/>
     <use xlink:href="#DejaVuSans-69" x="1952.744141"/>
     <use xlink:href="#DejaVuSans-6e" x="1980.527344"/>
    </g>
   </g>
   <g id="legend_1">
    <g id="patch_9">
     <path d="M 760.667188 78.194375 
L 846.2 78.194375 
Q 848.2 78.194375 848.2 76.194375 
L 848.2 33.16 
Q 848.2 31.16 846.2 31.16 
L 760.667188 31.16 
Q 758.667188 31.16 758.667188 33.16 
L 758.667188 76.194375 
Q 758.667188 78.194375 760.667188 78.194375 
z
" style="fill: #ffffff; opacity: 0.8; stroke: #cccccc; stroke-linejoin: miter"/>
    </g>
    <g id="text_15">
     <!-- Type -->
     <g transform="translate(791.950781 42.758437) scale(0.1 -0.1)">
      <use xlink:href="#DejaVuSans-54"/>
      <use xlink:href="#DejaVuSans-79" x="45.458984"/>
      <use xlink:href="#DejaVuSans-70" x="104.638672"/>
      <use xlink:href="#DejaVuSans-65" x="168.115234"/>
     </g>
    </g>
    <g id="patch_10">
     <path d="M 762.667188 57.436562 
L 782.667188 57.436562 
L 782.667188 50.436562 
L 762.667188 50.436562 
z
" style="fill: #597dbf; stroke: #545454; stroke-width: 1.25; stroke-linejoin: miter"/>
    </g>
    <g id="text_16">
     <!-- Normal -->
     <g transform="translate(790.667188 57.436562) scale(0.1 -0.1)">
      <defs>
       <path id="DejaVuSans-4e" d="M 628 4666 
L 1478 4666 
L 3547 763 
L 3547 4666 
L 4159 4666 
L 4159 0 
L 3309 0 
L 1241 3903 
L 1241 0 
L 628 0 
L 628 4666 
z
" transform="scale(0.015625)"/>
      </defs>
      <use xlink:href="#DejaVuSans-4e"/>
      <use xlink:href="#DejaVuSans-6f" x="74.804688"/>
      <use xlink:href="#DejaVuSans-72" x="135.986328"/>
      <use xlink:href="#DejaVuSans-6d" x="175.349609"/>
      <use xlink:href="#DejaVuSans-61" x="272.761719"/>
      <use xlink:href="#DejaVuSans-6c" x="334.041016"/>
     </g>
    </g>
    <g id="patch_11">
     <path d="M 762.667188 72.114687 
L 782.667188 72.114687 
L 782.667188 65.114687 
L 762.667188 65.114687 
z
" style="fill: #d98b5f; stroke: #545454; stroke-width: 1.25; stroke-linejoin: miter"/>
    </g>
    <g id="text_17">
     <!-- Predefined -->
     <g transform="translate(790.667188 72.114687) scale(0.1 -0.1)">
      <defs>
       <path id="DejaVuSans-64" d="M 2906 2969 
L 2906 4863 
L 3481 4863 
L 3481 0 
L 2906 0 
L 2906 525 
Q 2725 213 2448 61 
Q 2172 -91 1784 -91 
Q 1150 -91 751 415 
Q 353 922 353 1747 
Q 353 2572 751 3078 
Q 1150 3584 1784 3584 
Q 2172 3584 2448 3432 
Q 2725 3281 2906 2969 
z
M 947 1747 
Q 947 1113 1208 752 
Q 1469 391 1925 391 
Q 2381 391 2643 752 
Q 2906 1113 2906 1747 
Q 2906 2381 2643 2742 
Q 2381 3103 1925 3103 
Q 1469 3103 1208 2742 
Q 947 2381 947 1747 
z
" transform="scale(0.015625)"/>
      </defs>
      <use xlink:href="#DejaVuSans-50"/>
      <use xlink:href="#DejaVuSans-72" x="58.552734"/>
      <use xlink:href="#DejaVuSans-65" x="97.416016"/>
      <use xlink:href="#DejaVuSans-64" x="158.939453"/>
      <use xlink:href="#DejaVuSans-65" x="222.416016"/>
      <use xlink:href="#DejaVuSans-66" x="283.939453"/>
      <use xlink:href="#DejaVuSans-69" x="319.144531"/>
      <use xlink:href="#DejaVuSans-6e" x="346.927734"/>
      <use xlink:href="#DejaVuSans-65" x="410.306641"/>
      <use xlink:href="#DejaVuSans-64" x="471.830078"/>
     </g>
    </g>
   </g>
  </g>
 </g>
 <defs>
  <clipPath id="p22c6509e6b">
   <rect x="52.985" y="26.16" width="800.215" height="307.488427"/>
  </clipPath>
 </defs>
</svg>
