<?xml version="1.0" encoding="utf-8" standalone="no"?>
<!DOCTYPE svg PUBLIC "-//W3C//DTD SVG 1.1//EN"
  "http://www.w3.org/Graphics/SVG/1.1/DTD/svg11.dtd">
<svg xmlns:xlink="http://www.w3.org/1999/xlink" width="720pt" height="432pt" viewBox="0 0 720 432" xmlns="http://www.w3.org/2000/svg" version="1.1">
 <metadata>
  <rdf:RDF xmlns:dc="http://purl.org/dc/elements/1.1/" xmlns:cc="http://creativecommons.org/ns#" xmlns:rdf="http://www.w3.org/1999/02/22-rdf-syntax-ns#">
   <cc:Work>
    <dc:type rdf:resource="http://purl.org/dc/dcmitype/StillImage"/>
    <dc:date>2024-09-13T21:14:17.124681</dc:date>
    <dc:format>image/svg+xml</dc:format>
    <dc:creator>
     <cc:Agent>
      <dc:title>Matplotlib v3.9.2, https://matplotlib.org/</dc:title>
     </cc:Agent>
    </dc:creator>
   </cc:Work>
  </rdf:RDF>
 </metadata>
 <defs>
  <style type="text/css">*{stroke-linejoin: round; stroke-linecap: butt}</style>
 </defs>
 <g id="figure_1">
  <g id="patch_1">
   <path d="M 0 432 
L 720 432 
L 720 0 
L 0 0 
z
" style="fill: #ffffff"/>
  </g>
  <g id="axes_1">
   <g id="patch_2">
    <path d="M 51.005 333.648427 
L 612 333.648427 
L 612 26.16 
L 51.005 26.16 
z
" style="fill: #ffffff"/>
   </g>
   <g id="PolyCollection_1">
    <path d="M 127.504318 291.220431 
L 109.149515 291.220431 
L 109.003213 290.54735 
L 108.866618 289.874269 
L 108.739634 289.201187 
L 108.62213 288.528106 
L 108.513932 287.855025 
L 108.41483 287.181943 
L 108.324572 286.508862 
L 108.242872 285.835781 
L 108.169406 285.1627 
L 108.103816 284.489618 
L 108.045712 283.816537 
L 107.994669 283.143456 
L 107.950237 282.470374 
L 107.911935 281.797293 
L 107.879259 281.124212 
L 107.851682 280.45113 
L 107.828656 279.778049 
L 107.809617 279.104968 
L 107.793987 278.431886 
L 107.781174 277.758805 
L 107.770582 277.085724 
L 107.761604 276.412642 
L 107.753637 275.739561 
L 107.746074 275.06648 
L 107.738315 274.393398 
L 107.729767 273.720317 
L 107.719848 273.047236 
L 107.707989 272.374154 
L 107.69364 271.701073 
L 107.67627 271.027992 
L 107.65537 270.35491 
L 107.630458 269.681829 
L 107.601082 269.008748 
L 107.56682 268.335666 
L 107.527284 267.662585 
L 107.482122 266.989504 
L 107.431021 266.316422 
L 107.373707 265.643341 
L 107.309949 264.97026 
L 107.239561 264.297178 
L 107.162398 263.624097 
L 107.078365 262.951016 
L 106.987411 262.277934 
L 106.889533 261.604853 
L 106.784777 260.931772 
L 106.673237 260.25869 
L 106.555053 259.585609 
L 106.430415 258.912528 
L 106.299557 258.239446 
L 106.162763 257.566365 
L 106.020359 256.893284 
L 105.872716 256.220202 
L 105.720247 255.547121 
L 105.563407 254.87404 
L 105.402689 254.200958 
L 105.238621 253.527877 
L 105.071768 252.854796 
L 104.902725 252.181714 
L 104.732117 251.508633 
L 104.560596 250.835552 
L 104.388837 250.16247 
L 104.217536 249.489389 
L 104.047405 248.816308 
L 103.879174 248.143226 
L 103.71358 247.470145 
L 103.55137 246.797064 
L 103.393295 246.123982 
L 103.240108 245.450901 
L 103.092557 244.77782 
L 102.951388 244.104738 
L 102.817336 243.431657 
L 102.691124 242.758576 
L 102.57346 242.085494 
L 102.465033 241.412413 
L 102.366511 240.739332 
L 102.278539 240.06625 
L 102.201733 239.393169 
L 102.136679 238.720088 
L 102.083932 238.047006 
L 102.044011 237.373925 
L 102.017401 236.700844 
L 102.004545 236.027762 
L 102.005848 235.354681 
L 102.021671 234.6816 
L 102.052331 234.008518 
L 102.098104 233.335437 
L 102.159216 232.662356 
L 102.235848 231.989274 
L 102.328134 231.316193 
L 102.436162 230.643112 
L 102.55997 229.97003 
L 102.69955 229.296949 
L 102.854846 228.623868 
L 103.025755 227.950786 
L 103.212131 227.277705 
L 103.413778 226.604624 
L 103.630459 225.931542 
L 103.861895 225.258461 
L 104.107762 224.58538 
L 127.504318 224.58538 
L 127.504318 224.58538 
L 127.504318 225.258461 
L 127.504318 225.931542 
L 127.504318 226.604624 
L 127.504318 227.277705 
L 127.504318 227.950786 
L 127.504318 228.623868 
L 127.504318 229.296949 
L 127.504318 229.97003 
L 127.504318 230.643112 
L 127.504318 231.316193 
L 127.504318 231.989274 
L 127.504318 232.662356 
L 127.504318 233.335437 
L 127.504318 234.008518 
L 127.504318 234.6816 
L 127.504318 235.354681 
L 127.504318 236.027762 
L 127.504318 236.700844 
L 127.504318 237.373925 
L 127.504318 238.047006 
L 127.504318 238.720088 
L 127.504318 239.393169 
L 127.504318 240.06625 
L 127.504318 240.739332 
L 127.504318 241.412413 
L 127.504318 242.085494 
L 127.504318 242.758576 
L 127.504318 243.431657 
L 127.504318 244.104738 
L 127.504318 244.77782 
L 127.504318 245.450901 
L 127.504318 246.123982 
L 127.504318 246.797064 
L 127.504318 247.470145 
L 127.504318 248.143226 
L 127.504318 248.816308 
L 127.504318 249.489389 
L 127.504318 250.16247 
L 127.504318 250.835552 
L 127.504318 251.508633 
L 127.504318 252.181714 
L 127.504318 252.854796 
L 127.504318 253.527877 
L 127.504318 254.200958 
L 127.504318 254.87404 
L 127.504318 255.547121 
L 127.504318 256.220202 
L 127.504318 256.893284 
L 127.504318 257.566365 
L 127.504318 258.239446 
L 127.504318 258.912528 
L 127.504318 259.585609 
L 127.504318 260.25869 
L 127.504318 260.931772 
L 127.504318 261.604853 
L 127.504318 262.277934 
L 127.504318 262.951016 
L 127.504318 263.624097 
L 127.504318 264.297178 
L 127.504318 264.97026 
L 127.504318 265.643341 
L 127.504318 266.316422 
L 127.504318 266.989504 
L 127.504318 267.662585 
L 127.504318 268.335666 
L 127.504318 269.008748 
L 127.504318 269.681829 
L 127.504318 270.35491 
L 127.504318 271.027992 
L 127.504318 271.701073 
L 127.504318 272.374154 
L 127.504318 273.047236 
L 127.504318 273.720317 
L 127.504318 274.393398 
L 127.504318 275.06648 
L 127.504318 275.739561 
L 127.504318 276.412642 
L 127.504318 277.085724 
L 127.504318 277.758805 
L 127.504318 278.431886 
L 127.504318 279.104968 
L 127.504318 279.778049 
L 127.504318 280.45113 
L 127.504318 281.124212 
L 127.504318 281.797293 
L 127.504318 282.470374 
L 127.504318 283.143456 
L 127.504318 283.816537 
L 127.504318 284.489618 
L 127.504318 285.1627 
L 127.504318 285.835781 
L 127.504318 286.508862 
L 127.504318 287.181943 
L 127.504318 287.855025 
L 127.504318 288.528106 
L 127.504318 289.201187 
L 127.504318 289.874269 
L 127.504318 290.54735 
L 127.504318 291.220431 
z
" clip-path="url(#peb9631dd53)" style="fill: #1f77b4; fill-opacity: 0.3"/>
   </g>
   <g id="PolyCollection_2">
    <path d="M 229.503409 264.453914 
L 206.358914 264.453914 
L 206.124256 263.397356 
L 205.902375 262.340799 
L 205.693362 261.284242 
L 205.497266 260.227685 
L 205.314096 259.171128 
L 205.143819 258.114571 
L 204.986364 257.058014 
L 204.841618 256.001456 
L 204.709434 254.944899 
L 204.589623 253.888342 
L 204.481966 252.831785 
L 204.386208 251.775228 
L 204.302061 250.718671 
L 204.229209 249.662113 
L 204.167308 248.605556 
L 204.115987 247.548999 
L 204.074854 246.492442 
L 204.043492 245.435885 
L 204.02147 244.379328 
L 204.008339 243.322771 
L 204.003636 242.266213 
L 204.006889 241.209656 
L 204.017615 240.153099 
L 204.035328 239.096542 
L 204.059539 238.039985 
L 204.089756 236.983428 
L 204.125491 235.92687 
L 204.166261 234.870313 
L 204.211589 233.813756 
L 204.261008 232.757199 
L 204.31406 231.700642 
L 204.370305 230.644085 
L 204.429314 229.587528 
L 204.490679 228.53097 
L 204.554009 227.474413 
L 204.618935 226.417856 
L 204.68511 225.361299 
L 204.75221 224.304742 
L 204.819938 223.248185 
L 204.88802 222.191627 
L 204.956212 221.13507 
L 205.024294 220.078513 
L 205.092078 219.021956 
L 205.159401 217.965399 
L 205.226133 216.908842 
L 205.292168 215.852285 
L 205.357433 214.795727 
L 205.421882 213.73917 
L 205.485499 212.682613 
L 205.548294 211.626056 
L 205.610306 210.569499 
L 205.671602 209.512942 
L 205.732273 208.456384 
L 205.792435 207.399827 
L 205.85223 206.34327 
L 205.911821 205.286713 
L 205.971394 204.230156 
L 206.031155 203.173599 
L 206.09133 202.117042 
L 206.15216 201.060484 
L 206.213903 200.003927 
L 206.276833 198.94737 
L 206.341234 197.890813 
L 206.407403 196.834256 
L 206.475644 195.777699 
L 206.54627 194.721141 
L 206.6196 193.664584 
L 206.695954 192.608027 
L 206.775657 191.55147 
L 206.859031 190.494913 
L 206.946399 189.438356 
L 207.038079 188.381799 
L 207.134382 187.325241 
L 207.235615 186.268684 
L 207.342075 185.212127 
L 207.454046 184.15557 
L 207.571803 183.099013 
L 207.695606 182.042456 
L 207.8257 180.985898 
L 207.962312 179.929341 
L 208.105654 178.872784 
L 208.255917 177.816227 
L 208.413271 176.75967 
L 208.577865 175.703113 
L 208.749827 174.646556 
L 208.929261 173.589998 
L 209.116247 172.533441 
L 209.310841 171.476884 
L 209.513073 170.420327 
L 209.722948 169.36377 
L 209.940447 168.307213 
L 210.165524 167.250655 
L 210.398107 166.194098 
L 210.638099 165.137541 
L 210.885377 164.080984 
L 211.139793 163.024427 
L 211.401177 161.96787 
L 211.669331 160.911313 
L 211.944036 159.854755 
L 229.503409 159.854755 
L 229.503409 159.854755 
L 229.503409 160.911313 
L 229.503409 161.96787 
L 229.503409 163.024427 
L 229.503409 164.080984 
L 229.503409 165.137541 
L 229.503409 166.194098 
L 229.503409 167.250655 
L 229.503409 168.307213 
L 229.503409 169.36377 
L 229.503409 170.420327 
L 229.503409 171.476884 
L 229.503409 172.533441 
L 229.503409 173.589998 
L 229.503409 174.646556 
L 229.503409 175.703113 
L 229.503409 176.75967 
L 229.503409 177.816227 
L 229.503409 178.872784 
L 229.503409 179.929341 
L 229.503409 180.985898 
L 229.503409 182.042456 
L 229.503409 183.099013 
L 229.503409 184.15557 
L 229.503409 185.212127 
L 229.503409 186.268684 
L 229.503409 187.325241 
L 229.503409 188.381799 
L 229.503409 189.438356 
L 229.503409 190.494913 
L 229.503409 191.55147 
L 229.503409 192.608027 
L 229.503409 193.664584 
L 229.503409 194.721141 
L 229.503409 195.777699 
L 229.503409 196.834256 
L 229.503409 197.890813 
L 229.503409 198.94737 
L 229.503409 200.003927 
L 229.503409 201.060484 
L 229.503409 202.117042 
L 229.503409 203.173599 
L 229.503409 204.230156 
L 229.503409 205.286713 
L 229.503409 206.34327 
L 229.503409 207.399827 
L 229.503409 208.456384 
L 229.503409 209.512942 
L 229.503409 210.569499 
L 229.503409 211.626056 
L 229.503409 212.682613 
L 229.503409 213.73917 
L 229.503409 214.795727 
L 229.503409 215.852285 
L 229.503409 216.908842 
L 229.503409 217.965399 
L 229.503409 219.021956 
L 229.503409 220.078513 
L 229.503409 221.13507 
L 229.503409 222.191627 
L 229.503409 223.248185 
L 229.503409 224.304742 
L 229.503409 225.361299 
L 229.503409 226.417856 
L 229.503409 227.474413 
L 229.503409 228.53097 
L 229.503409 229.587528 
L 229.503409 230.644085 
L 229.503409 231.700642 
L 229.503409 232.757199 
L 229.503409 233.813756 
L 229.503409 234.870313 
L 229.503409 235.92687 
L 229.503409 236.983428 
L 229.503409 238.039985 
L 229.503409 239.096542 
L 229.503409 240.153099 
L 229.503409 241.209656 
L 229.503409 242.266213 
L 229.503409 243.322771 
L 229.503409 244.379328 
L 229.503409 245.435885 
L 229.503409 246.492442 
L 229.503409 247.548999 
L 229.503409 248.605556 
L 229.503409 249.662113 
L 229.503409 250.718671 
L 229.503409 251.775228 
L 229.503409 252.831785 
L 229.503409 253.888342 
L 229.503409 254.944899 
L 229.503409 256.001456 
L 229.503409 257.058014 
L 229.503409 258.114571 
L 229.503409 259.171128 
L 229.503409 260.227685 
L 229.503409 261.284242 
L 229.503409 262.340799 
L 229.503409 263.397356 
L 229.503409 264.453914 
z
" clip-path="url(#peb9631dd53)" style="fill: #1f77b4; fill-opacity: 0.3"/>
   </g>
   <g id="PolyCollection_3">
    <path d="M 331.5025 298.30616 
L 320.665995 298.30616 
L 320.476208 297.19419 
L 320.286798 296.08222 
L 320.097492 294.970249 
L 319.907998 293.858279 
L 319.718008 292.746308 
L 319.527202 291.634338 
L 319.335249 290.522368 
L 319.141814 289.410397 
L 318.946559 288.298427 
L 318.749147 287.186456 
L 318.549246 286.074486 
L 318.346534 284.962516 
L 318.1407 283.850545 
L 317.93145 282.738575 
L 317.718512 281.626604 
L 317.501635 280.514634 
L 317.280597 279.402664 
L 317.055205 278.290693 
L 316.825298 277.178723 
L 316.590754 276.066752 
L 316.351487 274.954782 
L 316.107451 273.842812 
L 315.858643 272.730841 
L 315.605103 271.618871 
L 315.346916 270.5069 
L 315.08421 269.39493 
L 314.81716 268.28296 
L 314.545986 267.170989 
L 314.27095 266.059019 
L 313.992361 264.947048 
L 313.710567 263.835078 
L 313.425958 262.723107 
L 313.138963 261.611137 
L 312.850046 260.499167 
L 312.559705 259.387196 
L 312.268468 258.275226 
L 311.976892 257.163255 
L 311.685556 256.051285 
L 311.395062 254.939315 
L 311.106028 253.827344 
L 310.819088 252.715374 
L 310.534884 251.603403 
L 310.254063 250.491433 
L 309.97728 249.379463 
L 309.705184 248.267492 
L 309.438423 247.155522 
L 309.177636 246.043551 
L 308.923454 244.931581 
L 308.676492 243.819611 
L 308.437349 242.70764 
L 308.206608 241.59567 
L 307.984828 240.483699 
L 307.772548 239.371729 
L 307.570281 238.259759 
L 307.378515 237.147788 
L 307.197711 236.035818 
L 307.028301 234.923847 
L 306.870689 233.811877 
L 306.725252 232.699907 
L 306.592336 231.587936 
L 306.472258 230.475966 
L 306.365307 229.363995 
L 306.271745 228.252025 
L 306.191803 227.140054 
L 306.125689 226.028084 
L 306.073582 224.916114 
L 306.035636 223.804143 
L 306.011982 222.692173 
L 306.002727 221.580202 
L 306.007955 220.468232 
L 306.027728 219.356262 
L 306.062088 218.244291 
L 306.111056 217.132321 
L 306.174636 216.02035 
L 306.25281 214.90838 
L 306.345545 213.79641 
L 306.452788 212.684439 
L 306.574469 211.572469 
L 306.710501 210.460498 
L 306.860778 209.348528 
L 307.02518 208.236558 
L 307.203565 207.124587 
L 307.395776 206.012617 
L 307.601637 204.900646 
L 307.820952 203.788676 
L 308.053507 202.676706 
L 308.299068 201.564735 
L 308.557379 200.452765 
L 308.828166 199.340794 
L 309.11113 198.228824 
L 309.405952 197.116854 
L 309.712291 196.004883 
L 310.029781 194.892913 
L 310.358035 193.780942 
L 310.696641 192.668972 
L 311.045166 191.557001 
L 311.403153 190.445031 
L 311.770121 189.333061 
L 312.145568 188.22109 
L 331.5025 188.22109 
L 331.5025 188.22109 
L 331.5025 189.333061 
L 331.5025 190.445031 
L 331.5025 191.557001 
L 331.5025 192.668972 
L 331.5025 193.780942 
L 331.5025 194.892913 
L 331.5025 196.004883 
L 331.5025 197.116854 
L 331.5025 198.228824 
L 331.5025 199.340794 
L 331.5025 200.452765 
L 331.5025 201.564735 
L 331.5025 202.676706 
L 331.5025 203.788676 
L 331.5025 204.900646 
L 331.5025 206.012617 
L 331.5025 207.124587 
L 331.5025 208.236558 
L 331.5025 209.348528 
L 331.5025 210.460498 
L 331.5025 211.572469 
L 331.5025 212.684439 
L 331.5025 213.79641 
L 331.5025 214.90838 
L 331.5025 216.02035 
L 331.5025 217.132321 
L 331.5025 218.244291 
L 331.5025 219.356262 
L 331.5025 220.468232 
L 331.5025 221.580202 
L 331.5025 222.692173 
L 331.5025 223.804143 
L 331.5025 224.916114 
L 331.5025 226.028084 
L 331.5025 227.140054 
L 331.5025 228.252025 
L 331.5025 229.363995 
L 331.5025 230.475966 
L 331.5025 231.587936 
L 331.5025 232.699907 
L 331.5025 233.811877 
L 331.5025 234.923847 
L 331.5025 236.035818 
L 331.5025 237.147788 
L 331.5025 238.259759 
L 331.5025 239.371729 
L 331.5025 240.483699 
L 331.5025 241.59567 
L 331.5025 242.70764 
L 331.5025 243.819611 
L 331.5025 244.931581 
L 331.5025 246.043551 
L 331.5025 247.155522 
L 331.5025 248.267492 
L 331.5025 249.379463 
L 331.5025 250.491433 
L 331.5025 251.603403 
L 331.5025 252.715374 
L 331.5025 253.827344 
L 331.5025 254.939315 
L 331.5025 256.051285 
L 331.5025 257.163255 
L 331.5025 258.275226 
L 331.5025 259.387196 
L 331.5025 260.499167 
L 331.5025 261.611137 
L 331.5025 262.723107 
L 331.5025 263.835078 
L 331.5025 264.947048 
L 331.5025 266.059019 
L 331.5025 267.170989 
L 331.5025 268.28296 
L 331.5025 269.39493 
L 331.5025 270.5069 
L 331.5025 271.618871 
L 331.5025 272.730841 
L 331.5025 273.842812 
L 331.5025 274.954782 
L 331.5025 276.066752 
L 331.5025 277.178723 
L 331.5025 278.290693 
L 331.5025 279.402664 
L 331.5025 280.514634 
L 331.5025 281.626604 
L 331.5025 282.738575 
L 331.5025 283.850545 
L 331.5025 284.962516 
L 331.5025 286.074486 
L 331.5025 287.186456 
L 331.5025 288.298427 
L 331.5025 289.410397 
L 331.5025 290.522368 
L 331.5025 291.634338 
L 331.5025 292.746308 
L 331.5025 293.858279 
L 331.5025 294.970249 
L 331.5025 296.08222 
L 331.5025 297.19419 
L 331.5025 298.30616 
z
" clip-path="url(#peb9631dd53)" style="fill: #1f77b4; fill-opacity: 0.3"/>
   </g>
   <g id="PolyCollection_4">
    <path d="M 433.501591 193.83759 
L 418.147161 193.83759 
L 417.775884 193.401096 
L 417.405864 192.964602 
L 417.037403 192.528108 
L 416.670806 192.091614 
L 416.306385 191.65512 
L 415.944452 191.218626 
L 415.585328 190.782132 
L 415.22934 190.345638 
L 414.876826 189.909144 
L 414.52813 189.47265 
L 414.18361 189.036156 
L 413.843635 188.599662 
L 413.508587 188.163168 
L 413.178862 187.726674 
L 412.85487 187.29018 
L 412.537034 186.853686 
L 412.225794 186.417192 
L 411.921603 185.980698 
L 411.624926 185.544204 
L 411.336246 185.10771 
L 411.056052 184.671216 
L 410.784847 184.234722 
L 410.523144 183.798228 
L 410.271458 183.361734 
L 410.030315 182.92524 
L 409.800237 182.488746 
L 409.581749 182.052252 
L 409.375371 181.615758 
L 409.181615 181.179264 
L 409.000984 180.74277 
L 408.833964 180.306276 
L 408.681027 179.869782 
L 408.542618 179.433288 
L 408.41916 178.996794 
L 408.311045 178.5603 
L 408.218631 178.123806 
L 408.14224 177.687312 
L 408.08215 177.250818 
L 408.0386 176.814324 
L 408.011776 176.37783 
L 408.001818 175.941336 
L 408.008811 175.504842 
L 408.032786 175.068348 
L 408.073716 174.631854 
L 408.131517 174.19536 
L 408.206046 173.758866 
L 408.297099 173.322372 
L 408.404415 172.885878 
L 408.527673 172.449384 
L 408.666494 172.01289 
L 408.820442 171.576396 
L 408.98903 171.139902 
L 409.171716 170.703408 
L 409.367913 170.266914 
L 409.576987 169.83042 
L 409.798264 169.393926 
L 410.031033 168.957432 
L 410.274551 168.520938 
L 410.528051 168.084444 
L 410.79074 167.64795 
L 411.061811 167.211456 
L 411.340448 166.774962 
L 411.625826 166.338468 
L 411.917125 165.901974 
L 412.213529 165.46548 
L 412.514234 165.028986 
L 412.818454 164.592492 
L 413.125425 164.155998 
L 413.434412 163.719504 
L 413.74471 163.28301 
L 414.055651 162.846516 
L 414.366609 162.410022 
L 414.676999 161.973528 
L 414.986286 161.537034 
L 415.293981 161.10054 
L 415.599648 160.664046 
L 415.902902 160.227552 
L 416.203414 159.791058 
L 416.500905 159.354564 
L 416.795153 158.91807 
L 417.085986 158.481576 
L 417.373286 158.045082 
L 417.656981 157.608588 
L 417.93705 157.172094 
L 418.213515 156.7356 
L 418.486438 156.299106 
L 418.755923 155.862612 
L 419.022106 155.426118 
L 419.285153 154.989624 
L 419.545257 154.55313 
L 419.802635 154.116636 
L 420.057517 153.680142 
L 420.310151 153.243648 
L 420.560791 152.807154 
L 420.809695 152.37066 
L 421.057121 151.934166 
L 421.303324 151.497672 
L 421.548549 151.061178 
L 421.79303 150.624684 
L 433.501591 150.624684 
L 433.501591 150.624684 
L 433.501591 151.061178 
L 433.501591 151.497672 
L 433.501591 151.934166 
L 433.501591 152.37066 
L 433.501591 152.807154 
L 433.501591 153.243648 
L 433.501591 153.680142 
L 433.501591 154.116636 
L 433.501591 154.55313 
L 433.501591 154.989624 
L 433.501591 155.426118 
L 433.501591 155.862612 
L 433.501591 156.299106 
L 433.501591 156.7356 
L 433.501591 157.172094 
L 433.501591 157.608588 
L 433.501591 158.045082 
L 433.501591 158.481576 
L 433.501591 158.91807 
L 433.501591 159.354564 
L 433.501591 159.791058 
L 433.501591 160.227552 
L 433.501591 160.664046 
L 433.501591 161.10054 
L 433.501591 161.537034 
L 433.501591 161.973528 
L 433.501591 162.410022 
L 433.501591 162.846516 
L 433.501591 163.28301 
L 433.501591 163.719504 
L 433.501591 164.155998 
L 433.501591 164.592492 
L 433.501591 165.028986 
L 433.501591 165.46548 
L 433.501591 165.901974 
L 433.501591 166.338468 
L 433.501591 166.774962 
L 433.501591 167.211456 
L 433.501591 167.64795 
L 433.501591 168.084444 
L 433.501591 168.520938 
L 433.501591 168.957432 
L 433.501591 169.393926 
L 433.501591 169.83042 
L 433.501591 170.266914 
L 433.501591 170.703408 
L 433.501591 171.139902 
L 433.501591 171.576396 
L 433.501591 172.01289 
L 433.501591 172.449384 
L 433.501591 172.885878 
L 433.501591 173.322372 
L 433.501591 173.758866 
L 433.501591 174.19536 
L 433.501591 174.631854 
L 433.501591 175.068348 
L 433.501591 175.504842 
L 433.501591 175.941336 
L 433.501591 176.37783 
L 433.501591 176.814324 
L 433.501591 177.250818 
L 433.501591 177.687312 
L 433.501591 178.123806 
L 433.501591 178.5603 
L 433.501591 178.996794 
L 433.501591 179.433288 
L 433.501591 179.869782 
L 433.501591 180.306276 
L 433.501591 180.74277 
L 433.501591 181.179264 
L 433.501591 181.615758 
L 433.501591 182.052252 
L 433.501591 182.488746 
L 433.501591 182.92524 
L 433.501591 183.361734 
L 433.501591 183.798228 
L 433.501591 184.234722 
L 433.501591 184.671216 
L 433.501591 185.10771 
L 433.501591 185.544204 
L 433.501591 185.980698 
L 433.501591 186.417192 
L 433.501591 186.853686 
L 433.501591 187.29018 
L 433.501591 187.726674 
L 433.501591 188.163168 
L 433.501591 188.599662 
L 433.501591 189.036156 
L 433.501591 189.47265 
L 433.501591 189.909144 
L 433.501591 190.345638 
L 433.501591 190.782132 
L 433.501591 191.218626 
L 433.501591 191.65512 
L 433.501591 192.091614 
L 433.501591 192.528108 
L 433.501591 192.964602 
L 433.501591 193.401096 
L 433.501591 193.83759 
z
" clip-path="url(#peb9631dd53)" style="fill: #1f77b4; fill-opacity: 0.3"/>
   </g>
   <g id="PolyCollection_5">
    <path d="M 535.500682 217.289693 
L 523.473881 217.289693 
L 523.264815 216.780478 
L 523.062884 216.271263 
L 522.868191 215.762048 
L 522.680784 215.252833 
L 522.500657 214.743617 
L 522.327746 214.234402 
L 522.161928 213.725187 
L 522.003025 213.215972 
L 521.850798 212.706756 
L 521.704953 212.197541 
L 521.565139 211.688326 
L 521.43095 211.179111 
L 521.301928 210.669896 
L 521.177567 210.16068 
L 521.057312 209.651465 
L 520.940566 209.14225 
L 520.826694 208.633035 
L 520.715023 208.12382 
L 520.604855 207.614604 
L 520.495464 207.105389 
L 520.386107 206.596174 
L 520.276029 206.086959 
L 520.164466 205.577743 
L 520.050656 205.068528 
L 519.933844 204.559313 
L 519.813289 204.050098 
L 519.688268 203.540883 
L 519.558088 203.031667 
L 519.422089 202.522452 
L 519.279654 202.013237 
L 519.130212 201.504022 
L 518.973248 200.994807 
L 518.808306 200.485591 
L 518.634997 199.976376 
L 518.453005 199.467161 
L 518.262087 198.957946 
L 518.062086 198.448731 
L 517.852926 197.939515 
L 517.63462 197.4303 
L 517.407273 196.921085 
L 517.171082 196.41187 
L 516.926338 195.902654 
L 516.673423 195.393439 
L 516.412817 194.884224 
L 516.14509 194.375009 
L 515.870903 193.865794 
L 515.591005 193.356578 
L 515.306229 192.847363 
L 515.017488 192.338148 
L 514.72577 191.828933 
L 514.432133 191.319718 
L 514.137697 190.810502 
L 513.84364 190.301287 
L 513.551188 189.792072 
L 513.261607 189.282857 
L 512.976199 188.773641 
L 512.696286 188.264426 
L 512.42321 187.755211 
L 512.158317 187.245996 
L 511.90295 186.736781 
L 511.658443 186.227565 
L 511.426107 185.71835 
L 511.207225 185.209135 
L 511.003042 184.69992 
L 510.814755 184.190705 
L 510.643509 183.681489 
L 510.490385 183.172274 
L 510.356398 182.663059 
L 510.242484 182.153844 
L 510.149502 181.644628 
L 510.078221 181.135413 
L 510.029321 180.626198 
L 510.003388 180.116983 
L 510.000909 179.607768 
L 510.022271 179.098552 
L 510.06776 178.589337 
L 510.137559 178.080122 
L 510.231749 177.570907 
L 510.350307 177.061692 
L 510.493112 176.552476 
L 510.659943 176.043261 
L 510.850482 175.534046 
L 511.064318 175.024831 
L 511.300954 174.515616 
L 511.559803 174.0064 
L 511.840201 173.497185 
L 512.141408 172.98797 
L 512.462614 172.478755 
L 512.802944 171.969539 
L 513.161466 171.460324 
L 513.537196 170.951109 
L 513.929102 170.441894 
L 514.336114 169.932679 
L 514.75713 169.423463 
L 515.191018 168.914248 
L 515.636626 168.405033 
L 516.09279 167.895818 
L 516.558333 167.386603 
L 517.032079 166.877387 
L 535.500682 166.877387 
L 535.500682 166.877387 
L 535.500682 167.386603 
L 535.500682 167.895818 
L 535.500682 168.405033 
L 535.500682 168.914248 
L 535.500682 169.423463 
L 535.500682 169.932679 
L 535.500682 170.441894 
L 535.500682 170.951109 
L 535.500682 171.460324 
L 535.500682 171.969539 
L 535.500682 172.478755 
L 535.500682 172.98797 
L 535.500682 173.497185 
L 535.500682 174.0064 
L 535.500682 174.515616 
L 535.500682 175.024831 
L 535.500682 175.534046 
L 535.500682 176.043261 
L 535.500682 176.552476 
L 535.500682 177.061692 
L 535.500682 177.570907 
L 535.500682 178.080122 
L 535.500682 178.589337 
L 535.500682 179.098552 
L 535.500682 179.607768 
L 535.500682 180.116983 
L 535.500682 180.626198 
L 535.500682 181.135413 
L 535.500682 181.644628 
L 535.500682 182.153844 
L 535.500682 182.663059 
L 535.500682 183.172274 
L 535.500682 183.681489 
L 535.500682 184.190705 
L 535.500682 184.69992 
L 535.500682 185.209135 
L 535.500682 185.71835 
L 535.500682 186.227565 
L 535.500682 186.736781 
L 535.500682 187.245996 
L 535.500682 187.755211 
L 535.500682 188.264426 
L 535.500682 188.773641 
L 535.500682 189.282857 
L 535.500682 189.792072 
L 535.500682 190.301287 
L 535.500682 190.810502 
L 535.500682 191.319718 
L 535.500682 191.828933 
L 535.500682 192.338148 
L 535.500682 192.847363 
L 535.500682 193.356578 
L 535.500682 193.865794 
L 535.500682 194.375009 
L 535.500682 194.884224 
L 535.500682 195.393439 
L 535.500682 195.902654 
L 535.500682 196.41187 
L 535.500682 196.921085 
L 535.500682 197.4303 
L 535.500682 197.939515 
L 535.500682 198.448731 
L 535.500682 198.957946 
L 535.500682 199.467161 
L 535.500682 199.976376 
L 535.500682 200.485591 
L 535.500682 200.994807 
L 535.500682 201.504022 
L 535.500682 202.013237 
L 535.500682 202.522452 
L 535.500682 203.031667 
L 535.500682 203.540883 
L 535.500682 204.050098 
L 535.500682 204.559313 
L 535.500682 205.068528 
L 535.500682 205.577743 
L 535.500682 206.086959 
L 535.500682 206.596174 
L 535.500682 207.105389 
L 535.500682 207.614604 
L 535.500682 208.12382 
L 535.500682 208.633035 
L 535.500682 209.14225 
L 535.500682 209.651465 
L 535.500682 210.16068 
L 535.500682 210.669896 
L 535.500682 211.179111 
L 535.500682 211.688326 
L 535.500682 212.197541 
L 535.500682 212.706756 
L 535.500682 213.215972 
L 535.500682 213.725187 
L 535.500682 214.234402 
L 535.500682 214.743617 
L 535.500682 215.252833 
L 535.500682 215.762048 
L 535.500682 216.271263 
L 535.500682 216.780478 
L 535.500682 217.289693 
z
" clip-path="url(#peb9631dd53)" style="fill: #1f77b4; fill-opacity: 0.3"/>
   </g>
   <g id="PolyCollection_6">
    <path d="M 151.335394 147.40059 
L 127.504318 147.40059 
L 127.504318 146.270205 
L 127.504318 145.139819 
L 127.504318 144.009434 
L 127.504318 142.879049 
L 127.504318 141.748664 
L 127.504318 140.618278 
L 127.504318 139.487893 
L 127.504318 138.357508 
L 127.504318 137.227122 
L 127.504318 136.096737 
L 127.504318 134.966352 
L 127.504318 133.835966 
L 127.504318 132.705581 
L 127.504318 131.575196 
L 127.504318 130.444811 
L 127.504318 129.314425 
L 127.504318 128.18404 
L 127.504318 127.053655 
L 127.504318 125.923269 
L 127.504318 124.792884 
L 127.504318 123.662499 
L 127.504318 122.532113 
L 127.504318 121.401728 
L 127.504318 120.271343 
L 127.504318 119.140958 
L 127.504318 118.010572 
L 127.504318 116.880187 
L 127.504318 115.749802 
L 127.504318 114.619416 
L 127.504318 113.489031 
L 127.504318 112.358646 
L 127.504318 111.228261 
L 127.504318 110.097875 
L 127.504318 108.96749 
L 127.504318 107.837105 
L 127.504318 106.706719 
L 127.504318 105.576334 
L 127.504318 104.445949 
L 127.504318 103.315563 
L 127.504318 102.185178 
L 127.504318 101.054793 
L 127.504318 99.924408 
L 127.504318 98.794022 
L 127.504318 97.663637 
L 127.504318 96.533252 
L 127.504318 95.402866 
L 127.504318 94.272481 
L 127.504318 93.142096 
L 127.504318 92.011711 
L 127.504318 90.881325 
L 127.504318 89.75094 
L 127.504318 88.620555 
L 127.504318 87.490169 
L 127.504318 86.359784 
L 127.504318 85.229399 
L 127.504318 84.099013 
L 127.504318 82.968628 
L 127.504318 81.838243 
L 127.504318 80.707858 
L 127.504318 79.577472 
L 127.504318 78.447087 
L 127.504318 77.316702 
L 127.504318 76.186316 
L 127.504318 75.055931 
L 127.504318 73.925546 
L 127.504318 72.79516 
L 127.504318 71.664775 
L 127.504318 70.53439 
L 127.504318 69.404005 
L 127.504318 68.273619 
L 127.504318 67.143234 
L 127.504318 66.012849 
L 127.504318 64.882463 
L 127.504318 63.752078 
L 127.504318 62.621693 
L 127.504318 61.491308 
L 127.504318 60.360922 
L 127.504318 59.230537 
L 127.504318 58.100152 
L 127.504318 56.969766 
L 127.504318 55.839381 
L 127.504318 54.708996 
L 127.504318 53.57861 
L 127.504318 52.448225 
L 127.504318 51.31784 
L 127.504318 50.187455 
L 127.504318 49.057069 
L 127.504318 47.926684 
L 127.504318 46.796299 
L 127.504318 45.665913 
L 127.504318 44.535528 
L 127.504318 43.405143 
L 127.504318 42.274757 
L 127.504318 41.144372 
L 127.504318 40.013987 
L 127.504318 38.883602 
L 127.504318 37.753216 
L 127.504318 36.622831 
L 127.504318 35.492446 
L 136.486782 35.492446 
L 136.486782 35.492446 
L 136.591218 36.622831 
L 136.692937 37.753216 
L 136.792139 38.883602 
L 136.889047 40.013987 
L 136.983908 41.144372 
L 137.076991 42.274757 
L 137.168586 43.405143 
L 137.259003 44.535528 
L 137.348569 45.665913 
L 137.437628 46.796299 
L 137.526539 47.926684 
L 137.615673 49.057069 
L 137.705412 50.187455 
L 137.796148 51.31784 
L 137.888281 52.448225 
L 137.982214 53.57861 
L 138.078352 54.708996 
L 138.177104 55.839381 
L 138.278876 56.969766 
L 138.384068 58.100152 
L 138.493078 59.230537 
L 138.606294 60.360922 
L 138.724094 61.491308 
L 138.846845 62.621693 
L 138.974898 63.752078 
L 139.108589 64.882463 
L 139.248237 66.012849 
L 139.394138 67.143234 
L 139.54657 68.273619 
L 139.705785 69.404005 
L 139.872012 70.53439 
L 140.045452 71.664775 
L 140.226279 72.79516 
L 140.414636 73.925546 
L 140.610639 75.055931 
L 140.81437 76.186316 
L 141.025877 77.316702 
L 141.245179 78.447087 
L 141.472255 79.577472 
L 141.707054 80.707858 
L 141.949485 81.838243 
L 142.199424 82.968628 
L 142.456708 84.099013 
L 142.721137 85.229399 
L 142.992475 86.359784 
L 143.270449 87.490169 
L 143.554746 88.620555 
L 143.845018 89.75094 
L 144.14088 90.881325 
L 144.441909 92.011711 
L 144.747648 93.142096 
L 145.0576 94.272481 
L 145.37124 95.402866 
L 145.688002 96.533252 
L 146.007293 97.663637 
L 146.328484 98.794022 
L 146.650919 99.924408 
L 146.97391 101.054793 
L 147.296743 102.185178 
L 147.61868 103.315563 
L 147.938956 104.445949 
L 148.256788 105.576334 
L 148.571371 106.706719 
L 148.881885 107.837105 
L 149.187494 108.96749 
L 149.487351 110.097875 
L 149.780601 111.228261 
L 150.066383 112.358646 
L 150.343831 113.489031 
L 150.612083 114.619416 
L 150.870278 115.749802 
L 151.117564 116.880187 
L 151.353098 118.010572 
L 151.576053 119.140958 
L 151.785618 120.271343 
L 151.981006 121.401728 
L 152.161453 122.532113 
L 152.326223 123.662499 
L 152.474615 124.792884 
L 152.605962 125.923269 
L 152.719637 127.053655 
L 152.815053 128.18404 
L 152.891671 129.314425 
L 152.949001 130.444811 
L 152.986603 131.575196 
L 153.004091 132.705581 
L 153.001136 133.835966 
L 152.977467 134.966352 
L 152.932875 136.096737 
L 152.867211 137.227122 
L 152.78039 138.357508 
L 152.672393 139.487893 
L 152.543263 140.618278 
L 152.39311 141.748664 
L 152.22211 142.879049 
L 152.030502 144.009434 
L 151.818592 145.139819 
L 151.586746 146.270205 
L 151.335394 147.40059 
z
" clip-path="url(#peb9631dd53)" style="fill: #ff7f0e; fill-opacity: 0.3"/>
   </g>
   <g id="PolyCollection_7">
    <path d="M 254.441952 191.317046 
L 229.503409 191.317046 
L 229.503409 190.212888 
L 229.503409 189.108731 
L 229.503409 188.004574 
L 229.503409 186.900416 
L 229.503409 185.796259 
L 229.503409 184.692101 
L 229.503409 183.587944 
L 229.503409 182.483786 
L 229.503409 181.379629 
L 229.503409 180.275471 
L 229.503409 179.171314 
L 229.503409 178.067156 
L 229.503409 176.962999 
L 229.503409 175.858841 
L 229.503409 174.754684 
L 229.503409 173.650526 
L 229.503409 172.546369 
L 229.503409 171.442212 
L 229.503409 170.338054 
L 229.503409 169.233897 
L 229.503409 168.129739 
L 229.503409 167.025582 
L 229.503409 165.921424 
L 229.503409 164.817267 
L 229.503409 163.713109 
L 229.503409 162.608952 
L 229.503409 161.504794 
L 229.503409 160.400637 
L 229.503409 159.296479 
L 229.503409 158.192322 
L 229.503409 157.088164 
L 229.503409 155.984007 
L 229.503409 154.87985 
L 229.503409 153.775692 
L 229.503409 152.671535 
L 229.503409 151.567377 
L 229.503409 150.46322 
L 229.503409 149.359062 
L 229.503409 148.254905 
L 229.503409 147.150747 
L 229.503409 146.04659 
L 229.503409 144.942432 
L 229.503409 143.838275 
L 229.503409 142.734117 
L 229.503409 141.62996 
L 229.503409 140.525802 
L 229.503409 139.421645 
L 229.503409 138.317488 
L 229.503409 137.21333 
L 229.503409 136.109173 
L 229.503409 135.005015 
L 229.503409 133.900858 
L 229.503409 132.7967 
L 229.503409 131.692543 
L 229.503409 130.588385 
L 229.503409 129.484228 
L 229.503409 128.38007 
L 229.503409 127.275913 
L 229.503409 126.171755 
L 229.503409 125.067598 
L 229.503409 123.963441 
L 229.503409 122.859283 
L 229.503409 121.755126 
L 229.503409 120.650968 
L 229.503409 119.546811 
L 229.503409 118.442653 
L 229.503409 117.338496 
L 229.503409 116.234338 
L 229.503409 115.130181 
L 229.503409 114.026023 
L 229.503409 112.921866 
L 229.503409 111.817708 
L 229.503409 110.713551 
L 229.503409 109.609393 
L 229.503409 108.505236 
L 229.503409 107.401079 
L 229.503409 106.296921 
L 229.503409 105.192764 
L 229.503409 104.088606 
L 229.503409 102.984449 
L 229.503409 101.880291 
L 229.503409 100.776134 
L 229.503409 99.671976 
L 229.503409 98.567819 
L 229.503409 97.463661 
L 229.503409 96.359504 
L 229.503409 95.255346 
L 229.503409 94.151189 
L 229.503409 93.047031 
L 229.503409 91.942874 
L 229.503409 90.838717 
L 229.503409 89.734559 
L 229.503409 88.630402 
L 229.503409 87.526244 
L 229.503409 86.422087 
L 229.503409 85.317929 
L 229.503409 84.213772 
L 229.503409 83.109614 
L 229.503409 82.005457 
L 236.444947 82.005457 
L 236.444947 82.005457 
L 236.476079 83.109614 
L 236.503006 84.213772 
L 236.525957 85.317929 
L 236.545189 86.422087 
L 236.560993 87.526244 
L 236.573688 88.630402 
L 236.583624 89.734559 
L 236.59118 90.838717 
L 236.596763 91.942874 
L 236.600805 93.047031 
L 236.603767 94.151189 
L 236.606131 95.255346 
L 236.608401 96.359504 
L 236.611105 97.463661 
L 236.614787 98.567819 
L 236.620008 99.671976 
L 236.627343 100.776134 
L 236.637382 101.880291 
L 236.650721 102.984449 
L 236.667965 104.088606 
L 236.689724 105.192764 
L 236.71661 106.296921 
L 236.749233 107.401079 
L 236.7882 108.505236 
L 236.834113 109.609393 
L 236.887562 110.713551 
L 236.949126 111.817708 
L 237.01937 112.921866 
L 237.098838 114.026023 
L 237.188055 115.130181 
L 237.287521 116.234338 
L 237.397709 117.338496 
L 237.519062 118.442653 
L 237.65199 119.546811 
L 237.79687 120.650968 
L 237.954038 121.755126 
L 238.123792 122.859283 
L 238.306383 123.963441 
L 238.502022 125.067598 
L 238.710869 126.171755 
L 238.933036 127.275913 
L 239.168583 128.38007 
L 239.417518 129.484228 
L 239.679794 130.588385 
L 239.955307 131.692543 
L 240.2439 132.7967 
L 240.545354 133.900858 
L 240.859395 135.005015 
L 241.185688 136.109173 
L 241.523841 137.21333 
L 241.873403 138.317488 
L 242.233863 139.421645 
L 242.604655 140.525802 
L 242.985155 141.62996 
L 243.374682 142.734117 
L 243.772504 143.838275 
L 244.177833 144.942432 
L 244.589834 146.04659 
L 245.007622 147.150747 
L 245.430267 148.254905 
L 245.856796 149.359062 
L 246.286196 150.46322 
L 246.71742 151.567377 
L 247.149385 152.671535 
L 247.58098 153.775692 
L 248.011071 154.87985 
L 248.4385 155.984007 
L 248.862094 157.088164 
L 249.28067 158.192322 
L 249.693033 159.296479 
L 250.097989 160.400637 
L 250.494345 161.504794 
L 250.880915 162.608952 
L 251.256527 163.713109 
L 251.620022 164.817267 
L 251.970267 165.921424 
L 252.306154 167.025582 
L 252.626608 168.129739 
L 252.930588 169.233897 
L 253.217096 170.338054 
L 253.485181 171.442212 
L 253.73394 172.546369 
L 253.962523 173.650526 
L 254.170142 174.754684 
L 254.356065 175.858841 
L 254.519631 176.962999 
L 254.660241 178.067156 
L 254.777372 179.171314 
L 254.87057 180.275471 
L 254.939458 181.379629 
L 254.983736 182.483786 
L 255.003182 183.587944 
L 254.997651 184.692101 
L 254.967081 185.796259 
L 254.911487 186.900416 
L 254.830964 188.004574 
L 254.725686 189.108731 
L 254.595906 190.212888 
L 254.441952 191.317046 
z
" clip-path="url(#peb9631dd53)" style="fill: #ff7f0e; fill-opacity: 0.3"/>
   </g>
   <g id="PolyCollection_8">
    <path d="M 338.640508 253.656842 
L 331.5025 253.656842 
L 331.5025 253.065129 
L 331.5025 252.473416 
L 331.5025 251.881704 
L 331.5025 251.289991 
L 331.5025 250.698278 
L 331.5025 250.106565 
L 331.5025 249.514853 
L 331.5025 248.92314 
L 331.5025 248.331427 
L 331.5025 247.739715 
L 331.5025 247.148002 
L 331.5025 246.556289 
L 331.5025 245.964577 
L 331.5025 245.372864 
L 331.5025 244.781151 
L 331.5025 244.189439 
L 331.5025 243.597726 
L 331.5025 243.006013 
L 331.5025 242.414301 
L 331.5025 241.822588 
L 331.5025 241.230875 
L 331.5025 240.639163 
L 331.5025 240.04745 
L 331.5025 239.455737 
L 331.5025 238.864025 
L 331.5025 238.272312 
L 331.5025 237.680599 
L 331.5025 237.088886 
L 331.5025 236.497174 
L 331.5025 235.905461 
L 331.5025 235.313748 
L 331.5025 234.722036 
L 331.5025 234.130323 
L 331.5025 233.53861 
L 331.5025 232.946898 
L 331.5025 232.355185 
L 331.5025 231.763472 
L 331.5025 231.17176 
L 331.5025 230.580047 
L 331.5025 229.988334 
L 331.5025 229.396622 
L 331.5025 228.804909 
L 331.5025 228.213196 
L 331.5025 227.621484 
L 331.5025 227.029771 
L 331.5025 226.438058 
L 331.5025 225.846346 
L 331.5025 225.254633 
L 331.5025 224.66292 
L 331.5025 224.071207 
L 331.5025 223.479495 
L 331.5025 222.887782 
L 331.5025 222.296069 
L 331.5025 221.704357 
L 331.5025 221.112644 
L 331.5025 220.520931 
L 331.5025 219.929219 
L 331.5025 219.337506 
L 331.5025 218.745793 
L 331.5025 218.154081 
L 331.5025 217.562368 
L 331.5025 216.970655 
L 331.5025 216.378943 
L 331.5025 215.78723 
L 331.5025 215.195517 
L 331.5025 214.603805 
L 331.5025 214.012092 
L 331.5025 213.420379 
L 331.5025 212.828667 
L 331.5025 212.236954 
L 331.5025 211.645241 
L 331.5025 211.053528 
L 331.5025 210.461816 
L 331.5025 209.870103 
L 331.5025 209.27839 
L 331.5025 208.686678 
L 331.5025 208.094965 
L 331.5025 207.503252 
L 331.5025 206.91154 
L 331.5025 206.319827 
L 331.5025 205.728114 
L 331.5025 205.136402 
L 331.5025 204.544689 
L 331.5025 203.952976 
L 331.5025 203.361264 
L 331.5025 202.769551 
L 331.5025 202.177838 
L 331.5025 201.586126 
L 331.5025 200.994413 
L 331.5025 200.4027 
L 331.5025 199.810988 
L 331.5025 199.219275 
L 331.5025 198.627562 
L 331.5025 198.035849 
L 331.5025 197.444137 
L 331.5025 196.852424 
L 331.5025 196.260711 
L 331.5025 195.668999 
L 331.5025 195.077286 
L 355.811015 195.077286 
L 355.811015 195.077286 
L 356.039161 195.668999 
L 356.244205 196.260711 
L 356.425594 196.852424 
L 356.582846 197.444137 
L 356.715556 198.035849 
L 356.823394 198.627562 
L 356.906113 199.219275 
L 356.963543 199.810988 
L 356.995598 200.4027 
L 357.002273 200.994413 
L 356.983645 201.586126 
L 356.939876 202.177838 
L 356.871207 202.769551 
L 356.77796 203.361264 
L 356.660536 203.952976 
L 356.519413 204.544689 
L 356.355146 205.136402 
L 356.16836 205.728114 
L 355.959751 206.319827 
L 355.730079 206.91154 
L 355.48017 207.503252 
L 355.210906 208.094965 
L 354.923224 208.686678 
L 354.618114 209.27839 
L 354.296609 209.870103 
L 353.959783 210.461816 
L 353.608748 211.053528 
L 353.244646 211.645241 
L 352.868647 212.236954 
L 352.481938 212.828667 
L 352.085727 213.420379 
L 351.681229 214.012092 
L 351.269665 214.603805 
L 350.852257 215.195517 
L 350.430224 215.78723 
L 350.004772 216.378943 
L 349.577094 216.970655 
L 349.148366 217.562368 
L 348.719737 218.154081 
L 348.292331 218.745793 
L 347.867239 219.337506 
L 347.445515 219.929219 
L 347.028175 220.520931 
L 346.616192 221.112644 
L 346.210493 221.704357 
L 345.811954 222.296069 
L 345.421403 222.887782 
L 345.039612 223.479495 
L 344.667297 224.071207 
L 344.305118 224.66292 
L 343.953675 225.254633 
L 343.613507 225.846346 
L 343.285094 226.438058 
L 342.968854 227.029771 
L 342.665142 227.621484 
L 342.374252 228.213196 
L 342.096416 228.804909 
L 341.831806 229.396622 
L 341.580533 229.988334 
L 341.34265 230.580047 
L 341.11815 231.17176 
L 340.906972 231.763472 
L 340.708998 232.355185 
L 340.524059 232.946898 
L 340.351936 233.53861 
L 340.19236 234.130323 
L 340.045016 234.722036 
L 339.909549 235.313748 
L 339.785561 235.905461 
L 339.672616 236.497174 
L 339.570244 237.088886 
L 339.477945 237.680599 
L 339.39519 238.272312 
L 339.321423 238.864025 
L 339.256069 239.455737 
L 339.198532 240.04745 
L 339.148202 240.639163 
L 339.104457 241.230875 
L 339.066667 241.822588 
L 339.034194 242.414301 
L 339.006401 243.006013 
L 338.982651 243.597726 
L 338.962308 244.189439 
L 338.944748 244.781151 
L 338.929354 245.372864 
L 338.91552 245.964577 
L 338.90266 246.556289 
L 338.890201 247.148002 
L 338.877594 247.739715 
L 338.86431 248.331427 
L 338.849845 248.92314 
L 338.833721 249.514853 
L 338.815489 250.106565 
L 338.794729 250.698278 
L 338.771051 251.289991 
L 338.744098 251.881704 
L 338.713545 252.473416 
L 338.6791 253.065129 
L 338.640508 253.656842 
z
" clip-path="url(#peb9631dd53)" style="fill: #ff7f0e; fill-opacity: 0.3"/>
   </g>
   <g id="PolyCollection_9">
    <path d="M 454.466659 135.49775 
L 433.501591 135.49775 
L 433.501591 134.887318 
L 433.501591 134.276887 
L 433.501591 133.666455 
L 433.501591 133.056023 
L 433.501591 132.445592 
L 433.501591 131.83516 
L 433.501591 131.224728 
L 433.501591 130.614297 
L 433.501591 130.003865 
L 433.501591 129.393433 
L 433.501591 128.783002 
L 433.501591 128.17257 
L 433.501591 127.562138 
L 433.501591 126.951707 
L 433.501591 126.341275 
L 433.501591 125.730843 
L 433.501591 125.120412 
L 433.501591 124.50998 
L 433.501591 123.899548 
L 433.501591 123.289117 
L 433.501591 122.678685 
L 433.501591 122.068253 
L 433.501591 121.457822 
L 433.501591 120.84739 
L 433.501591 120.236958 
L 433.501591 119.626527 
L 433.501591 119.016095 
L 433.501591 118.405663 
L 433.501591 117.795232 
L 433.501591 117.1848 
L 433.501591 116.574368 
L 433.501591 115.963937 
L 433.501591 115.353505 
L 433.501591 114.743073 
L 433.501591 114.132642 
L 433.501591 113.52221 
L 433.501591 112.911778 
L 433.501591 112.301346 
L 433.501591 111.690915 
L 433.501591 111.080483 
L 433.501591 110.470051 
L 433.501591 109.85962 
L 433.501591 109.249188 
L 433.501591 108.638756 
L 433.501591 108.028325 
L 433.501591 107.417893 
L 433.501591 106.807461 
L 433.501591 106.19703 
L 433.501591 105.586598 
L 433.501591 104.976166 
L 433.501591 104.365735 
L 433.501591 103.755303 
L 433.501591 103.144871 
L 433.501591 102.53444 
L 433.501591 101.924008 
L 433.501591 101.313576 
L 433.501591 100.703145 
L 433.501591 100.092713 
L 433.501591 99.482281 
L 433.501591 98.87185 
L 433.501591 98.261418 
L 433.501591 97.650986 
L 433.501591 97.040555 
L 433.501591 96.430123 
L 433.501591 95.819691 
L 433.501591 95.20926 
L 433.501591 94.598828 
L 433.501591 93.988396 
L 433.501591 93.377965 
L 433.501591 92.767533 
L 433.501591 92.157101 
L 433.501591 91.54667 
L 433.501591 90.936238 
L 433.501591 90.325806 
L 433.501591 89.715375 
L 433.501591 89.104943 
L 433.501591 88.494511 
L 433.501591 87.88408 
L 433.501591 87.273648 
L 433.501591 86.663216 
L 433.501591 86.052785 
L 433.501591 85.442353 
L 433.501591 84.831921 
L 433.501591 84.22149 
L 433.501591 83.611058 
L 433.501591 83.000626 
L 433.501591 82.390195 
L 433.501591 81.779763 
L 433.501591 81.169331 
L 433.501591 80.5589 
L 433.501591 79.948468 
L 433.501591 79.338036 
L 433.501591 78.727604 
L 433.501591 78.117173 
L 433.501591 77.506741 
L 433.501591 76.896309 
L 433.501591 76.285878 
L 433.501591 75.675446 
L 433.501591 75.065014 
L 440.968303 75.065014 
L 440.968303 75.065014 
L 441.021635 75.675446 
L 441.070798 76.285878 
L 441.116166 76.896309 
L 441.158161 77.506741 
L 441.19725 78.117173 
L 441.233942 78.727604 
L 441.26879 79.338036 
L 441.302387 79.948468 
L 441.335361 80.5589 
L 441.368377 81.169331 
L 441.402128 81.779763 
L 441.437336 82.390195 
L 441.474747 83.000626 
L 441.515126 83.611058 
L 441.559252 84.22149 
L 441.607916 84.831921 
L 441.661913 85.442353 
L 441.722043 86.052785 
L 441.789096 86.663216 
L 441.863857 87.273648 
L 441.947095 87.88408 
L 442.039558 88.494511 
L 442.141971 89.104943 
L 442.255026 89.715375 
L 442.379381 90.325806 
L 442.515653 90.936238 
L 442.664412 91.54667 
L 442.826179 92.157101 
L 443.001417 92.767533 
L 443.190531 93.377965 
L 443.393862 93.988396 
L 443.611683 94.598828 
L 443.844194 95.20926 
L 444.091523 95.819691 
L 444.353718 96.430123 
L 444.630749 97.040555 
L 444.922504 97.650986 
L 445.228785 98.261418 
L 445.549314 98.87185 
L 445.883724 99.482281 
L 446.231564 100.092713 
L 446.592299 100.703145 
L 446.965309 101.313576 
L 447.349892 101.924008 
L 447.745266 102.53444 
L 448.150569 103.144871 
L 448.564865 103.755303 
L 448.987146 104.365735 
L 449.416336 104.976166 
L 449.851295 105.586598 
L 450.290825 106.19703 
L 450.733672 106.807461 
L 451.178536 107.417893 
L 451.624073 108.028325 
L 452.068905 108.638756 
L 452.511623 109.249188 
L 452.950794 109.85962 
L 453.384971 110.470051 
L 453.812696 111.080483 
L 454.232512 111.690915 
L 454.642964 112.301346 
L 455.042613 112.911778 
L 455.430039 113.52221 
L 455.803848 114.132642 
L 456.162682 114.743073 
L 456.505223 115.353505 
L 456.830202 115.963937 
L 457.136402 116.574368 
L 457.422668 117.1848 
L 457.687913 117.795232 
L 457.931118 118.405663 
L 458.151342 119.016095 
L 458.347726 119.626527 
L 458.519495 120.236958 
L 458.665964 120.84739 
L 458.786538 121.457822 
L 458.88072 122.068253 
L 458.948104 122.678685 
L 458.988388 123.289117 
L 459.001364 123.899548 
L 458.986925 124.50998 
L 458.945063 125.120412 
L 458.875868 125.730843 
L 458.779528 126.341275 
L 458.656322 126.951707 
L 458.506627 127.562138 
L 458.330906 128.17257 
L 458.12971 128.783002 
L 457.903673 129.393433 
L 457.653507 130.003865 
L 457.38 130.614297 
L 457.084008 131.224728 
L 456.766453 131.83516 
L 456.428316 132.445592 
L 456.07063 133.056023 
L 455.694479 133.666455 
L 455.300987 134.276887 
L 454.891317 134.887318 
L 454.466659 135.49775 
z
" clip-path="url(#peb9631dd53)" style="fill: #ff7f0e; fill-opacity: 0.3"/>
   </g>
   <g id="PolyCollection_10">
    <path d="M 558.371922 131.871265 
L 535.500682 131.871265 
L 535.500682 130.908479 
L 535.500682 129.945693 
L 535.500682 128.982907 
L 535.500682 128.02012 
L 535.500682 127.057334 
L 535.500682 126.094548 
L 535.500682 125.131762 
L 535.500682 124.168976 
L 535.500682 123.20619 
L 535.500682 122.243404 
L 535.500682 121.280618 
L 535.500682 120.317831 
L 535.500682 119.355045 
L 535.500682 118.392259 
L 535.500682 117.429473 
L 535.500682 116.466687 
L 535.500682 115.503901 
L 535.500682 114.541115 
L 535.500682 113.578329 
L 535.500682 112.615543 
L 535.500682 111.652756 
L 535.500682 110.68997 
L 535.500682 109.727184 
L 535.500682 108.764398 
L 535.500682 107.801612 
L 535.500682 106.838826 
L 535.500682 105.87604 
L 535.500682 104.913254 
L 535.500682 103.950468 
L 535.500682 102.987681 
L 535.500682 102.024895 
L 535.500682 101.062109 
L 535.500682 100.099323 
L 535.500682 99.136537 
L 535.500682 98.173751 
L 535.500682 97.210965 
L 535.500682 96.248179 
L 535.500682 95.285393 
L 535.500682 94.322606 
L 535.500682 93.35982 
L 535.500682 92.397034 
L 535.500682 91.434248 
L 535.500682 90.471462 
L 535.500682 89.508676 
L 535.500682 88.54589 
L 535.500682 87.583104 
L 535.500682 86.620318 
L 535.500682 85.657531 
L 535.500682 84.694745 
L 535.500682 83.731959 
L 535.500682 82.769173 
L 535.500682 81.806387 
L 535.500682 80.843601 
L 535.500682 79.880815 
L 535.500682 78.918029 
L 535.500682 77.955242 
L 535.500682 76.992456 
L 535.500682 76.02967 
L 535.500682 75.066884 
L 535.500682 74.104098 
L 535.500682 73.141312 
L 535.500682 72.178526 
L 535.500682 71.21574 
L 535.500682 70.252954 
L 535.500682 69.290167 
L 535.500682 68.327381 
L 535.500682 67.364595 
L 535.500682 66.401809 
L 535.500682 65.439023 
L 535.500682 64.476237 
L 535.500682 63.513451 
L 535.500682 62.550665 
L 535.500682 61.587879 
L 535.500682 60.625092 
L 535.500682 59.662306 
L 535.500682 58.69952 
L 535.500682 57.736734 
L 535.500682 56.773948 
L 535.500682 55.811162 
L 535.500682 54.848376 
L 535.500682 53.88559 
L 535.500682 52.922804 
L 535.500682 51.960017 
L 535.500682 50.997231 
L 535.500682 50.034445 
L 535.500682 49.071659 
L 535.500682 48.108873 
L 535.500682 47.146087 
L 535.500682 46.183301 
L 535.500682 45.220515 
L 535.500682 44.257729 
L 535.500682 43.294942 
L 535.500682 42.332156 
L 535.500682 41.36937 
L 535.500682 40.406584 
L 535.500682 39.443798 
L 535.500682 38.481012 
L 535.500682 37.518226 
L 535.500682 36.55544 
L 543.661917 36.55544 
L 543.661917 36.55544 
L 543.739949 37.518226 
L 543.814773 38.481012 
L 543.886678 39.443798 
L 543.955986 40.406584 
L 544.023049 41.36937 
L 544.088253 42.332156 
L 544.152009 43.294942 
L 544.214757 44.257729 
L 544.276962 45.220515 
L 544.33911 46.183301 
L 544.40171 47.146087 
L 544.465285 48.108873 
L 544.530375 49.071659 
L 544.597531 50.034445 
L 544.667314 50.997231 
L 544.74029 51.960017 
L 544.817027 52.922804 
L 544.898093 53.88559 
L 544.98405 54.848376 
L 545.075457 55.811162 
L 545.172857 56.773948 
L 545.276781 57.736734 
L 545.387744 58.69952 
L 545.506238 59.662306 
L 545.632733 60.625092 
L 545.767669 61.587879 
L 545.911458 62.550665 
L 546.06448 63.513451 
L 546.227076 64.476237 
L 546.399553 65.439023 
L 546.582173 66.401809 
L 546.775158 67.364595 
L 546.978684 68.327381 
L 547.192878 69.290167 
L 547.417822 70.252954 
L 547.653545 71.21574 
L 547.900025 72.178526 
L 548.15719 73.141312 
L 548.424911 74.104098 
L 548.703008 75.066884 
L 548.991247 76.02967 
L 549.289338 76.992456 
L 549.596938 77.955242 
L 549.913651 78.918029 
L 550.239027 79.880815 
L 550.572563 80.843601 
L 550.913708 81.806387 
L 551.261857 82.769173 
L 551.616362 83.731959 
L 551.976523 84.694745 
L 552.341599 85.657531 
L 552.710807 86.620318 
L 553.083321 87.583104 
L 553.458281 88.54589 
L 553.834791 89.508676 
L 554.211924 90.471462 
L 554.588722 91.434248 
L 554.964206 92.397034 
L 555.337372 93.35982 
L 555.7072 94.322606 
L 556.072655 95.285393 
L 556.432689 96.248179 
L 556.786252 97.210965 
L 557.132288 98.173751 
L 557.469743 99.136537 
L 557.79757 100.099323 
L 558.11473 101.062109 
L 558.4202 102.024895 
L 558.712975 102.987681 
L 558.99207 103.950468 
L 559.25653 104.913254 
L 559.50543 105.87604 
L 559.737878 106.838826 
L 559.953024 107.801612 
L 560.150058 108.764398 
L 560.328218 109.727184 
L 560.486792 110.68997 
L 560.625119 111.652756 
L 560.742597 112.615543 
L 560.838683 113.578329 
L 560.912895 114.541115 
L 560.964816 115.503901 
L 560.994097 116.466687 
L 561.000455 117.429473 
L 560.983678 118.392259 
L 560.943626 119.355045 
L 560.880232 120.317831 
L 560.793498 121.280618 
L 560.683503 122.243404 
L 560.550397 123.20619 
L 560.394401 124.168976 
L 560.21581 125.131762 
L 560.014986 126.094548 
L 559.792364 127.057334 
L 559.548441 128.02012 
L 559.28378 128.982907 
L 558.999008 129.945693 
L 558.694809 130.908479 
L 558.371922 131.871265 
z
" clip-path="url(#peb9631dd53)" style="fill: #ff7f0e; fill-opacity: 0.3"/>
   </g>
   <g id="matplotlib.axis_1">
    <g id="xtick_1">
     <g id="line2d_1">
      <defs>
       <path id="m9beffe3cb3" d="M 0 0 
L 0 3.5 
" style="stroke: #000000; stroke-width: 0.8"/>
      </defs>
      <g>
       <use xlink:href="#m9beffe3cb3" x="127.504318" y="333.648427" style="stroke: #000000; stroke-width: 0.8"/>
      </g>
     </g>
     <g id="text_1">
      <!-- terrain -->
      <g transform="translate(117.659514 369.613289) rotate(-45) scale(0.1 -0.1)">
       <defs>
        <path id="DejaVuSans-74" d="M 1172 4494 
L 1172 3500 
L 2356 3500 
L 2356 3053 
L 1172 3053 
L 1172 1153 
Q 1172 725 1289 603 
Q 1406 481 1766 481 
L 2356 481 
L 2356 0 
L 1766 0 
Q 1100 0 847 248 
Q 594 497 594 1153 
L 594 3053 
L 172 3053 
L 172 3500 
L 594 3500 
L 594 4494 
L 1172 4494 
z
" transform="scale(0.015625)"/>
        <path id="DejaVuSans-65" d="M 3597 1894 
L 3597 1613 
L 953 1613 
Q 991 1019 1311 708 
Q 1631 397 2203 397 
Q 2534 397 2845 478 
Q 3156 559 3463 722 
L 3463 178 
Q 3153 47 2828 -22 
Q 2503 -91 2169 -91 
Q 1331 -91 842 396 
Q 353 884 353 1716 
Q 353 2575 817 3079 
Q 1281 3584 2069 3584 
Q 2775 3584 3186 3129 
Q 3597 2675 3597 1894 
z
M 3022 2063 
Q 3016 2534 2758 2815 
Q 2500 3097 2075 3097 
Q 1594 3097 1305 2825 
Q 1016 2553 972 2059 
L 3022 2063 
z
" transform="scale(0.015625)"/>
        <path id="DejaVuSans-72" d="M 2631 2963 
Q 2534 3019 2420 3045 
Q 2306 3072 2169 3072 
Q 1681 3072 1420 2755 
Q 1159 2438 1159 1844 
L 1159 0 
L 581 0 
L 581 3500 
L 1159 3500 
L 1159 2956 
Q 1341 3275 1631 3429 
Q 1922 3584 2338 3584 
Q 2397 3584 2469 3576 
Q 2541 3569 2628 3553 
L 2631 2963 
z
" transform="scale(0.015625)"/>
        <path id="DejaVuSans-61" d="M 2194 1759 
Q 1497 1759 1228 1600 
Q 959 1441 959 1056 
Q 959 750 1161 570 
Q 1363 391 1709 391 
Q 2188 391 2477 730 
Q 2766 1069 2766 1631 
L 2766 1759 
L 2194 1759 
z
M 3341 1997 
L 3341 0 
L 2766 0 
L 2766 531 
Q 2569 213 2275 61 
Q 1981 -91 1556 -91 
Q 1019 -91 701 211 
Q 384 513 384 1019 
Q 384 1609 779 1909 
Q 1175 2209 1959 2209 
L 2766 2209 
L 2766 2266 
Q 2766 2663 2505 2880 
Q 2244 3097 1772 3097 
Q 1472 3097 1187 3025 
Q 903 2953 641 2809 
L 641 3341 
Q 956 3463 1253 3523 
Q 1550 3584 1831 3584 
Q 2591 3584 2966 3190 
Q 3341 2797 3341 1997 
z
" transform="scale(0.015625)"/>
        <path id="DejaVuSans-69" d="M 603 3500 
L 1178 3500 
L 1178 0 
L 603 0 
L 603 3500 
z
M 603 4863 
L 1178 4863 
L 1178 4134 
L 603 4134 
L 603 4863 
z
" transform="scale(0.015625)"/>
        <path id="DejaVuSans-6e" d="M 3513 2113 
L 3513 0 
L 2938 0 
L 2938 2094 
Q 2938 2591 2744 2837 
Q 2550 3084 2163 3084 
Q 1697 3084 1428 2787 
Q 1159 2491 1159 1978 
L 1159 0 
L 581 0 
L 581 3500 
L 1159 3500 
L 1159 2956 
Q 1366 3272 1645 3428 
Q 1925 3584 2291 3584 
Q 2894 3584 3203 3211 
Q 3513 2838 3513 2113 
z
" transform="scale(0.015625)"/>
       </defs>
       <use xlink:href="#DejaVuSans-74"/>
       <use xlink:href="#DejaVuSans-65" x="39.208984"/>
       <use xlink:href="#DejaVuSans-72" x="100.732422"/>
       <use xlink:href="#DejaVuSans-72" x="140.095703"/>
       <use xlink:href="#DejaVuSans-61" x="181.208984"/>
       <use xlink:href="#DejaVuSans-69" x="242.488281"/>
       <use xlink:href="#DejaVuSans-6e" x="270.271484"/>
      </g>
     </g>
    </g>
    <g id="xtick_2">
     <g id="line2d_2">
      <g>
       <use xlink:href="#m9beffe3cb3" x="229.503409" y="333.648427" style="stroke: #000000; stroke-width: 0.8"/>
      </g>
     </g>
     <g id="text_2">
      <!-- amputate_L3 -->
      <g transform="translate(208.096856 392.290424) rotate(-45) scale(0.1 -0.1)">
       <defs>
        <path id="DejaVuSans-6d" d="M 3328 2828 
Q 3544 3216 3844 3400 
Q 4144 3584 4550 3584 
Q 5097 3584 5394 3201 
Q 5691 2819 5691 2113 
L 5691 0 
L 5113 0 
L 5113 2094 
Q 5113 2597 4934 2840 
Q 4756 3084 4391 3084 
Q 3944 3084 3684 2787 
Q 3425 2491 3425 1978 
L 3425 0 
L 2847 0 
L 2847 2094 
Q 2847 2600 2669 2842 
Q 2491 3084 2119 3084 
Q 1678 3084 1418 2786 
Q 1159 2488 1159 1978 
L 1159 0 
L 581 0 
L 581 3500 
L 1159 3500 
L 1159 2956 
Q 1356 3278 1631 3431 
Q 1906 3584 2284 3584 
Q 2666 3584 2933 3390 
Q 3200 3197 3328 2828 
z
" transform="scale(0.015625)"/>
        <path id="DejaVuSans-70" d="M 1159 525 
L 1159 -1331 
L 581 -1331 
L 581 3500 
L 1159 3500 
L 1159 2969 
Q 1341 3281 1617 3432 
Q 1894 3584 2278 3584 
Q 2916 3584 3314 3078 
Q 3713 2572 3713 1747 
Q 3713 922 3314 415 
Q 2916 -91 2278 -91 
Q 1894 -91 1617 61 
Q 1341 213 1159 525 
z
M 3116 1747 
Q 3116 2381 2855 2742 
Q 2594 3103 2138 3103 
Q 1681 3103 1420 2742 
Q 1159 2381 1159 1747 
Q 1159 1113 1420 752 
Q 1681 391 2138 391 
Q 2594 391 2855 752 
Q 3116 1113 3116 1747 
z
" transform="scale(0.015625)"/>
        <path id="DejaVuSans-75" d="M 544 1381 
L 544 3500 
L 1119 3500 
L 1119 1403 
Q 1119 906 1312 657 
Q 1506 409 1894 409 
Q 2359 409 2629 706 
Q 2900 1003 2900 1516 
L 2900 3500 
L 3475 3500 
L 3475 0 
L 2900 0 
L 2900 538 
Q 2691 219 2414 64 
Q 2138 -91 1772 -91 
Q 1169 -91 856 284 
Q 544 659 544 1381 
z
M 1991 3584 
L 1991 3584 
z
" transform="scale(0.015625)"/>
        <path id="DejaVuSans-5f" d="M 3263 -1063 
L 3263 -1509 
L -63 -1509 
L -63 -1063 
L 3263 -1063 
z
" transform="scale(0.015625)"/>
        <path id="DejaVuSans-4c" d="M 628 4666 
L 1259 4666 
L 1259 531 
L 3531 531 
L 3531 0 
L 628 0 
L 628 4666 
z
" transform="scale(0.015625)"/>
        <path id="DejaVuSans-33" d="M 2597 2516 
Q 3050 2419 3304 2112 
Q 3559 1806 3559 1356 
Q 3559 666 3084 287 
Q 2609 -91 1734 -91 
Q 1441 -91 1130 -33 
Q 819 25 488 141 
L 488 750 
Q 750 597 1062 519 
Q 1375 441 1716 441 
Q 2309 441 2620 675 
Q 2931 909 2931 1356 
Q 2931 1769 2642 2001 
Q 2353 2234 1838 2234 
L 1294 2234 
L 1294 2753 
L 1863 2753 
Q 2328 2753 2575 2939 
Q 2822 3125 2822 3475 
Q 2822 3834 2567 4026 
Q 2313 4219 1838 4219 
Q 1578 4219 1281 4162 
Q 984 4106 628 3988 
L 628 4550 
Q 988 4650 1302 4700 
Q 1616 4750 1894 4750 
Q 2613 4750 3031 4423 
Q 3450 4097 3450 3541 
Q 3450 3153 3228 2886 
Q 3006 2619 2597 2516 
z
" transform="scale(0.015625)"/>
       </defs>
       <use xlink:href="#DejaVuSans-61"/>
       <use xlink:href="#DejaVuSans-6d" x="61.279297"/>
       <use xlink:href="#DejaVuSans-70" x="158.691406"/>
       <use xlink:href="#DejaVuSans-75" x="222.167969"/>
       <use xlink:href="#DejaVuSans-74" x="285.546875"/>
       <use xlink:href="#DejaVuSans-61" x="324.755859"/>
       <use xlink:href="#DejaVuSans-74" x="386.035156"/>
       <use xlink:href="#DejaVuSans-65" x="425.244141"/>
       <use xlink:href="#DejaVuSans-5f" x="486.767578"/>
       <use xlink:href="#DejaVuSans-4c" x="536.767578"/>
       <use xlink:href="#DejaVuSans-33" x="592.480469"/>
      </g>
     </g>
    </g>
    <g id="xtick_3">
     <g id="line2d_3">
      <g>
       <use xlink:href="#m9beffe3cb3" x="331.5025" y="333.648427" style="stroke: #000000; stroke-width: 0.8"/>
      </g>
     </g>
     <g id="text_3">
      <!-- amputate_R2 -->
      <g transform="translate(309.609259 393.263801) rotate(-45) scale(0.1 -0.1)">
       <defs>
        <path id="DejaVuSans-52" d="M 2841 2188 
Q 3044 2119 3236 1894 
Q 3428 1669 3622 1275 
L 4263 0 
L 3584 0 
L 2988 1197 
Q 2756 1666 2539 1819 
Q 2322 1972 1947 1972 
L 1259 1972 
L 1259 0 
L 628 0 
L 628 4666 
L 2053 4666 
Q 2853 4666 3247 4331 
Q 3641 3997 3641 3322 
Q 3641 2881 3436 2590 
Q 3231 2300 2841 2188 
z
M 1259 4147 
L 1259 2491 
L 2053 2491 
Q 2509 2491 2742 2702 
Q 2975 2913 2975 3322 
Q 2975 3731 2742 3939 
Q 2509 4147 2053 4147 
L 1259 4147 
z
" transform="scale(0.015625)"/>
        <path id="DejaVuSans-32" d="M 1228 531 
L 3431 531 
L 3431 0 
L 469 0 
L 469 531 
Q 828 903 1448 1529 
Q 2069 2156 2228 2338 
Q 2531 2678 2651 2914 
Q 2772 3150 2772 3378 
Q 2772 3750 2511 3984 
Q 2250 4219 1831 4219 
Q 1534 4219 1204 4116 
Q 875 4013 500 3803 
L 500 4441 
Q 881 4594 1212 4672 
Q 1544 4750 1819 4750 
Q 2544 4750 2975 4387 
Q 3406 4025 3406 3419 
Q 3406 3131 3298 2873 
Q 3191 2616 2906 2266 
Q 2828 2175 2409 1742 
Q 1991 1309 1228 531 
z
" transform="scale(0.015625)"/>
       </defs>
       <use xlink:href="#DejaVuSans-61"/>
       <use xlink:href="#DejaVuSans-6d" x="61.279297"/>
       <use xlink:href="#DejaVuSans-70" x="158.691406"/>
       <use xlink:href="#DejaVuSans-75" x="222.167969"/>
       <use xlink:href="#DejaVuSans-74" x="285.546875"/>
       <use xlink:href="#DejaVuSans-61" x="324.755859"/>
       <use xlink:href="#DejaVuSans-74" x="386.035156"/>
       <use xlink:href="#DejaVuSans-65" x="425.244141"/>
       <use xlink:href="#DejaVuSans-5f" x="486.767578"/>
       <use xlink:href="#DejaVuSans-52" x="536.767578"/>
       <use xlink:href="#DejaVuSans-32" x="606.25"/>
      </g>
     </g>
    </g>
    <g id="xtick_4">
     <g id="line2d_4">
      <g>
       <use xlink:href="#m9beffe3cb3" x="433.501591" y="333.648427" style="stroke: #000000; stroke-width: 0.8"/>
      </g>
     </g>
     <g id="text_4">
      <!-- amputate_R2_L2 -->
      <g transform="translate(405.621144 405.238212) rotate(-45) scale(0.1 -0.1)">
       <use xlink:href="#DejaVuSans-61"/>
       <use xlink:href="#DejaVuSans-6d" x="61.279297"/>
       <use xlink:href="#DejaVuSans-70" x="158.691406"/>
       <use xlink:href="#DejaVuSans-75" x="222.167969"/>
       <use xlink:href="#DejaVuSans-74" x="285.546875"/>
       <use xlink:href="#DejaVuSans-61" x="324.755859"/>
       <use xlink:href="#DejaVuSans-74" x="386.035156"/>
       <use xlink:href="#DejaVuSans-65" x="425.244141"/>
       <use xlink:href="#DejaVuSans-5f" x="486.767578"/>
       <use xlink:href="#DejaVuSans-52" x="536.767578"/>
       <use xlink:href="#DejaVuSans-32" x="606.25"/>
       <use xlink:href="#DejaVuSans-5f" x="669.873047"/>
       <use xlink:href="#DejaVuSans-4c" x="719.873047"/>
       <use xlink:href="#DejaVuSans-32" x="775.585938"/>
      </g>
     </g>
    </g>
    <g id="xtick_5">
     <g id="line2d_5">
      <g>
       <use xlink:href="#m9beffe3cb3" x="535.500682" y="333.648427" style="stroke: #000000; stroke-width: 0.8"/>
      </g>
     </g>
     <g id="text_5">
      <!-- amputate_R3_L3 -->
      <g transform="translate(507.620235 405.238212) rotate(-45) scale(0.1 -0.1)">
       <use xlink:href="#DejaVuSans-61"/>
       <use xlink:href="#DejaVuSans-6d" x="61.279297"/>
       <use xlink:href="#DejaVuSans-70" x="158.691406"/>
       <use xlink:href="#DejaVuSans-75" x="222.167969"/>
       <use xlink:href="#DejaVuSans-74" x="285.546875"/>
       <use xlink:href="#DejaVuSans-61" x="324.755859"/>
       <use xlink:href="#DejaVuSans-74" x="386.035156"/>
       <use xlink:href="#DejaVuSans-65" x="425.244141"/>
       <use xlink:href="#DejaVuSans-5f" x="486.767578"/>
       <use xlink:href="#DejaVuSans-52" x="536.767578"/>
       <use xlink:href="#DejaVuSans-33" x="606.25"/>
       <use xlink:href="#DejaVuSans-5f" x="669.873047"/>
       <use xlink:href="#DejaVuSans-4c" x="719.873047"/>
       <use xlink:href="#DejaVuSans-33" x="775.585938"/>
      </g>
     </g>
    </g>
    <g id="text_6">
     <!-- Experiment -->
     <g transform="translate(302.612656 418.503875) scale(0.1 -0.1)">
      <defs>
       <path id="DejaVuSans-45" d="M 628 4666 
L 3578 4666 
L 3578 4134 
L 1259 4134 
L 1259 2753 
L 3481 2753 
L 3481 2222 
L 1259 2222 
L 1259 531 
L 3634 531 
L 3634 0 
L 628 0 
L 628 4666 
z
" transform="scale(0.015625)"/>
       <path id="DejaVuSans-78" d="M 3513 3500 
L 2247 1797 
L 3578 0 
L 2900 0 
L 1881 1375 
L 863 0 
L 184 0 
L 1544 1831 
L 300 3500 
L 978 3500 
L 1906 2253 
L 2834 3500 
L 3513 3500 
z
" transform="scale(0.015625)"/>
      </defs>
      <use xlink:href="#DejaVuSans-45"/>
      <use xlink:href="#DejaVuSans-78" x="63.183594"/>
      <use xlink:href="#DejaVuSans-70" x="122.363281"/>
      <use xlink:href="#DejaVuSans-65" x="185.839844"/>
      <use xlink:href="#DejaVuSans-72" x="247.363281"/>
      <use xlink:href="#DejaVuSans-69" x="288.476562"/>
      <use xlink:href="#DejaVuSans-6d" x="316.259766"/>
      <use xlink:href="#DejaVuSans-65" x="413.671875"/>
      <use xlink:href="#DejaVuSans-6e" x="475.195312"/>
      <use xlink:href="#DejaVuSans-74" x="538.574219"/>
     </g>
    </g>
   </g>
   <g id="matplotlib.axis_2">
    <g id="ytick_1">
     <g id="line2d_6">
      <defs>
       <path id="m32f6b2dd38" d="M 0 0 
L -3.5 0 
" style="stroke: #000000; stroke-width: 0.8"/>
      </defs>
      <g>
       <use xlink:href="#m32f6b2dd38" x="51.005" y="333.648427" style="stroke: #000000; stroke-width: 0.8"/>
      </g>
     </g>
     <g id="text_7">
      <!-- 0 -->
      <g transform="translate(37.6425 337.447646) scale(0.1 -0.1)">
       <defs>
        <path id="DejaVuSans-30" d="M 2034 4250 
Q 1547 4250 1301 3770 
Q 1056 3291 1056 2328 
Q 1056 1369 1301 889 
Q 1547 409 2034 409 
Q 2525 409 2770 889 
Q 3016 1369 3016 2328 
Q 3016 3291 2770 3770 
Q 2525 4250 2034 4250 
z
M 2034 4750 
Q 2819 4750 3233 4129 
Q 3647 3509 3647 2328 
Q 3647 1150 3233 529 
Q 2819 -91 2034 -91 
Q 1250 -91 836 529 
Q 422 1150 422 2328 
Q 422 3509 836 4129 
Q 1250 4750 2034 4750 
z
" transform="scale(0.015625)"/>
       </defs>
       <use xlink:href="#DejaVuSans-30"/>
      </g>
     </g>
    </g>
    <g id="ytick_2">
     <g id="line2d_7">
      <g>
       <use xlink:href="#m32f6b2dd38" x="51.005" y="286.342515" style="stroke: #000000; stroke-width: 0.8"/>
      </g>
     </g>
     <g id="text_8">
      <!-- 20 -->
      <g transform="translate(31.28 290.141734) scale(0.1 -0.1)">
       <use xlink:href="#DejaVuSans-32"/>
       <use xlink:href="#DejaVuSans-30" x="63.623047"/>
      </g>
     </g>
    </g>
    <g id="ytick_3">
     <g id="line2d_8">
      <g>
       <use xlink:href="#m32f6b2dd38" x="51.005" y="239.036603" style="stroke: #000000; stroke-width: 0.8"/>
      </g>
     </g>
     <g id="text_9">
      <!-- 40 -->
      <g transform="translate(31.28 242.835822) scale(0.1 -0.1)">
       <defs>
        <path id="DejaVuSans-34" d="M 2419 4116 
L 825 1625 
L 2419 1625 
L 2419 4116 
z
M 2253 4666 
L 3047 4666 
L 3047 1625 
L 3713 1625 
L 3713 1100 
L 3047 1100 
L 3047 0 
L 2419 0 
L 2419 1100 
L 313 1100 
L 313 1709 
L 2253 4666 
z
" transform="scale(0.015625)"/>
       </defs>
       <use xlink:href="#DejaVuSans-34"/>
       <use xlink:href="#DejaVuSans-30" x="63.623047"/>
      </g>
     </g>
    </g>
    <g id="ytick_4">
     <g id="line2d_9">
      <g>
       <use xlink:href="#m32f6b2dd38" x="51.005" y="191.730691" style="stroke: #000000; stroke-width: 0.8"/>
      </g>
     </g>
     <g id="text_10">
      <!-- 60 -->
      <g transform="translate(31.28 195.52991) scale(0.1 -0.1)">
       <defs>
        <path id="DejaVuSans-36" d="M 2113 2584 
Q 1688 2584 1439 2293 
Q 1191 2003 1191 1497 
Q 1191 994 1439 701 
Q 1688 409 2113 409 
Q 2538 409 2786 701 
Q 3034 994 3034 1497 
Q 3034 2003 2786 2293 
Q 2538 2584 2113 2584 
z
M 3366 4563 
L 3366 3988 
Q 3128 4100 2886 4159 
Q 2644 4219 2406 4219 
Q 1781 4219 1451 3797 
Q 1122 3375 1075 2522 
Q 1259 2794 1537 2939 
Q 1816 3084 2150 3084 
Q 2853 3084 3261 2657 
Q 3669 2231 3669 1497 
Q 3669 778 3244 343 
Q 2819 -91 2113 -91 
Q 1303 -91 875 529 
Q 447 1150 447 2328 
Q 447 3434 972 4092 
Q 1497 4750 2381 4750 
Q 2619 4750 2861 4703 
Q 3103 4656 3366 4563 
z
" transform="scale(0.015625)"/>
       </defs>
       <use xlink:href="#DejaVuSans-36"/>
       <use xlink:href="#DejaVuSans-30" x="63.623047"/>
      </g>
     </g>
    </g>
    <g id="ytick_5">
     <g id="line2d_10">
      <g>
       <use xlink:href="#m32f6b2dd38" x="51.005" y="144.42478" style="stroke: #000000; stroke-width: 0.8"/>
      </g>
     </g>
     <g id="text_11">
      <!-- 80 -->
      <g transform="translate(31.28 148.223998) scale(0.1 -0.1)">
       <defs>
        <path id="DejaVuSans-38" d="M 2034 2216 
Q 1584 2216 1326 1975 
Q 1069 1734 1069 1313 
Q 1069 891 1326 650 
Q 1584 409 2034 409 
Q 2484 409 2743 651 
Q 3003 894 3003 1313 
Q 3003 1734 2745 1975 
Q 2488 2216 2034 2216 
z
M 1403 2484 
Q 997 2584 770 2862 
Q 544 3141 544 3541 
Q 544 4100 942 4425 
Q 1341 4750 2034 4750 
Q 2731 4750 3128 4425 
Q 3525 4100 3525 3541 
Q 3525 3141 3298 2862 
Q 3072 2584 2669 2484 
Q 3125 2378 3379 2068 
Q 3634 1759 3634 1313 
Q 3634 634 3220 271 
Q 2806 -91 2034 -91 
Q 1263 -91 848 271 
Q 434 634 434 1313 
Q 434 1759 690 2068 
Q 947 2378 1403 2484 
z
M 1172 3481 
Q 1172 3119 1398 2916 
Q 1625 2713 2034 2713 
Q 2441 2713 2670 2916 
Q 2900 3119 2900 3481 
Q 2900 3844 2670 4047 
Q 2441 4250 2034 4250 
Q 1625 4250 1398 4047 
Q 1172 3844 1172 3481 
z
" transform="scale(0.015625)"/>
       </defs>
       <use xlink:href="#DejaVuSans-38"/>
       <use xlink:href="#DejaVuSans-30" x="63.623047"/>
      </g>
     </g>
    </g>
    <g id="ytick_6">
     <g id="line2d_11">
      <g>
       <use xlink:href="#m32f6b2dd38" x="51.005" y="97.118868" style="stroke: #000000; stroke-width: 0.8"/>
      </g>
     </g>
     <g id="text_12">
      <!-- 100 -->
      <g transform="translate(24.9175 100.918087) scale(0.1 -0.1)">
       <defs>
        <path id="DejaVuSans-31" d="M 794 531 
L 1825 531 
L 1825 4091 
L 703 3866 
L 703 4441 
L 1819 4666 
L 2450 4666 
L 2450 531 
L 3481 531 
L 3481 0 
L 794 0 
L 794 531 
z
" transform="scale(0.015625)"/>
       </defs>
       <use xlink:href="#DejaVuSans-31"/>
       <use xlink:href="#DejaVuSans-30" x="63.623047"/>
       <use xlink:href="#DejaVuSans-30" x="127.246094"/>
      </g>
     </g>
    </g>
    <g id="ytick_7">
     <g id="line2d_12">
      <g>
       <use xlink:href="#m32f6b2dd38" x="51.005" y="49.812956" style="stroke: #000000; stroke-width: 0.8"/>
      </g>
     </g>
     <g id="text_13">
      <!-- 120 -->
      <g transform="translate(24.9175 53.612175) scale(0.1 -0.1)">
       <use xlink:href="#DejaVuSans-31"/>
       <use xlink:href="#DejaVuSans-32" x="63.623047"/>
       <use xlink:href="#DejaVuSans-30" x="127.246094"/>
      </g>
     </g>
    </g>
    <g id="text_14">
     <!-- % Decrease compared to Neural Flat -->
     <g transform="translate(18.837813 271.954995) rotate(-90) scale(0.1 -0.1)">
      <defs>
       <path id="DejaVuSans-25" d="M 4653 2053 
Q 4381 2053 4226 1822 
Q 4072 1591 4072 1178 
Q 4072 772 4226 539 
Q 4381 306 4653 306 
Q 4919 306 5073 539 
Q 5228 772 5228 1178 
Q 5228 1588 5073 1820 
Q 4919 2053 4653 2053 
z
M 4653 2450 
Q 5147 2450 5437 2106 
Q 5728 1763 5728 1178 
Q 5728 594 5436 251 
Q 5144 -91 4653 -91 
Q 4153 -91 3862 251 
Q 3572 594 3572 1178 
Q 3572 1766 3864 2108 
Q 4156 2450 4653 2450 
z
M 1428 4353 
Q 1159 4353 1004 4120 
Q 850 3888 850 3481 
Q 850 3069 1003 2837 
Q 1156 2606 1428 2606 
Q 1700 2606 1854 2837 
Q 2009 3069 2009 3481 
Q 2009 3884 1853 4118 
Q 1697 4353 1428 4353 
z
M 4250 4750 
L 4750 4750 
L 1831 -91 
L 1331 -91 
L 4250 4750 
z
M 1428 4750 
Q 1922 4750 2215 4408 
Q 2509 4066 2509 3481 
Q 2509 2891 2217 2550 
Q 1925 2209 1428 2209 
Q 931 2209 642 2551 
Q 353 2894 353 3481 
Q 353 4063 643 4406 
Q 934 4750 1428 4750 
z
" transform="scale(0.015625)"/>
       <path id="DejaVuSans-20" transform="scale(0.015625)"/>
       <path id="DejaVuSans-44" d="M 1259 4147 
L 1259 519 
L 2022 519 
Q 2988 519 3436 956 
Q 3884 1394 3884 2338 
Q 3884 3275 3436 3711 
Q 2988 4147 2022 4147 
L 1259 4147 
z
M 628 4666 
L 1925 4666 
Q 3281 4666 3915 4102 
Q 4550 3538 4550 2338 
Q 4550 1131 3912 565 
Q 3275 0 1925 0 
L 628 0 
L 628 4666 
z
" transform="scale(0.015625)"/>
       <path id="DejaVuSans-63" d="M 3122 3366 
L 3122 2828 
Q 2878 2963 2633 3030 
Q 2388 3097 2138 3097 
Q 1578 3097 1268 2742 
Q 959 2388 959 1747 
Q 959 1106 1268 751 
Q 1578 397 2138 397 
Q 2388 397 2633 464 
Q 2878 531 3122 666 
L 3122 134 
Q 2881 22 2623 -34 
Q 2366 -91 2075 -91 
Q 1284 -91 818 406 
Q 353 903 353 1747 
Q 353 2603 823 3093 
Q 1294 3584 2113 3584 
Q 2378 3584 2631 3529 
Q 2884 3475 3122 3366 
z
" transform="scale(0.015625)"/>
       <path id="DejaVuSans-73" d="M 2834 3397 
L 2834 2853 
Q 2591 2978 2328 3040 
Q 2066 3103 1784 3103 
Q 1356 3103 1142 2972 
Q 928 2841 928 2578 
Q 928 2378 1081 2264 
Q 1234 2150 1697 2047 
L 1894 2003 
Q 2506 1872 2764 1633 
Q 3022 1394 3022 966 
Q 3022 478 2636 193 
Q 2250 -91 1575 -91 
Q 1294 -91 989 -36 
Q 684 19 347 128 
L 347 722 
Q 666 556 975 473 
Q 1284 391 1588 391 
Q 1994 391 2212 530 
Q 2431 669 2431 922 
Q 2431 1156 2273 1281 
Q 2116 1406 1581 1522 
L 1381 1569 
Q 847 1681 609 1914 
Q 372 2147 372 2553 
Q 372 3047 722 3315 
Q 1072 3584 1716 3584 
Q 2034 3584 2315 3537 
Q 2597 3491 2834 3397 
z
" transform="scale(0.015625)"/>
       <path id="DejaVuSans-6f" d="M 1959 3097 
Q 1497 3097 1228 2736 
Q 959 2375 959 1747 
Q 959 1119 1226 758 
Q 1494 397 1959 397 
Q 2419 397 2687 759 
Q 2956 1122 2956 1747 
Q 2956 2369 2687 2733 
Q 2419 3097 1959 3097 
z
M 1959 3584 
Q 2709 3584 3137 3096 
Q 3566 2609 3566 1747 
Q 3566 888 3137 398 
Q 2709 -91 1959 -91 
Q 1206 -91 779 398 
Q 353 888 353 1747 
Q 353 2609 779 3096 
Q 1206 3584 1959 3584 
z
" transform="scale(0.015625)"/>
       <path id="DejaVuSans-64" d="M 2906 2969 
L 2906 4863 
L 3481 4863 
L 3481 0 
L 2906 0 
L 2906 525 
Q 2725 213 2448 61 
Q 2172 -91 1784 -91 
Q 1150 -91 751 415 
Q 353 922 353 1747 
Q 353 2572 751 3078 
Q 1150 3584 1784 3584 
Q 2172 3584 2448 3432 
Q 2725 3281 2906 2969 
z
M 947 1747 
Q 947 1113 1208 752 
Q 1469 391 1925 391 
Q 2381 391 2643 752 
Q 2906 1113 2906 1747 
Q 2906 2381 2643 2742 
Q 2381 3103 1925 3103 
Q 1469 3103 1208 2742 
Q 947 2381 947 1747 
z
" transform="scale(0.015625)"/>
       <path id="DejaVuSans-4e" d="M 628 4666 
L 1478 4666 
L 3547 763 
L 3547 4666 
L 4159 4666 
L 4159 0 
L 3309 0 
L 1241 3903 
L 1241 0 
L 628 0 
L 628 4666 
z
" transform="scale(0.015625)"/>
       <path id="DejaVuSans-6c" d="M 603 4863 
L 1178 4863 
L 1178 0 
L 603 0 
L 603 4863 
z
" transform="scale(0.015625)"/>
       <path id="DejaVuSans-46" d="M 628 4666 
L 3309 4666 
L 3309 4134 
L 1259 4134 
L 1259 2759 
L 3109 2759 
L 3109 2228 
L 1259 2228 
L 1259 0 
L 628 0 
L 628 4666 
z
" transform="scale(0.015625)"/>
      </defs>
      <use xlink:href="#DejaVuSans-25"/>
      <use xlink:href="#DejaVuSans-20" x="95.019531"/>
      <use xlink:href="#DejaVuSans-44" x="126.806641"/>
      <use xlink:href="#DejaVuSans-65" x="203.808594"/>
      <use xlink:href="#DejaVuSans-63" x="265.332031"/>
      <use xlink:href="#DejaVuSans-72" x="320.3125"/>
      <use xlink:href="#DejaVuSans-65" x="359.175781"/>
      <use xlink:href="#DejaVuSans-61" x="420.699219"/>
      <use xlink:href="#DejaVuSans-73" x="481.978516"/>
      <use xlink:href="#DejaVuSans-65" x="534.078125"/>
      <use xlink:href="#DejaVuSans-20" x="595.601562"/>
      <use xlink:href="#DejaVuSans-63" x="627.388672"/>
      <use xlink:href="#DejaVuSans-6f" x="682.369141"/>
      <use xlink:href="#DejaVuSans-6d" x="743.550781"/>
      <use xlink:href="#DejaVuSans-70" x="840.962891"/>
      <use xlink:href="#DejaVuSans-61" x="904.439453"/>
      <use xlink:href="#DejaVuSans-72" x="965.71875"/>
      <use xlink:href="#DejaVuSans-65" x="1004.582031"/>
      <use xlink:href="#DejaVuSans-64" x="1066.105469"/>
      <use xlink:href="#DejaVuSans-20" x="1129.582031"/>
      <use xlink:href="#DejaVuSans-74" x="1161.369141"/>
      <use xlink:href="#DejaVuSans-6f" x="1200.578125"/>
      <use xlink:href="#DejaVuSans-20" x="1261.759766"/>
      <use xlink:href="#DejaVuSans-4e" x="1293.546875"/>
      <use xlink:href="#DejaVuSans-65" x="1368.351562"/>
      <use xlink:href="#DejaVuSans-75" x="1429.875"/>
      <use xlink:href="#DejaVuSans-72" x="1493.253906"/>
      <use xlink:href="#DejaVuSans-61" x="1534.367188"/>
      <use xlink:href="#DejaVuSans-6c" x="1595.646484"/>
      <use xlink:href="#DejaVuSans-20" x="1623.429688"/>
      <use xlink:href="#DejaVuSans-46" x="1655.216797"/>
      <use xlink:href="#DejaVuSans-6c" x="1712.736328"/>
      <use xlink:href="#DejaVuSans-61" x="1740.519531"/>
      <use xlink:href="#DejaVuSans-74" x="1801.798828"/>
     </g>
    </g>
   </g>
   <g id="LineCollection_1">
    <path d="M 114.754432 255.212639 
L 127.504318 255.212639 
" clip-path="url(#peb9631dd53)" style="fill: none; stroke: #1f77b4; stroke-width: 1.5; stroke-linecap: square"/>
    <path d="M 216.753523 219.004867 
L 229.503409 219.004867 
" clip-path="url(#peb9631dd53)" style="fill: none; stroke: #1f77b4; stroke-width: 1.5; stroke-linecap: square"/>
    <path d="M 318.752614 233.879904 
L 331.5025 233.879904 
" clip-path="url(#peb9631dd53)" style="fill: none; stroke: #1f77b4; stroke-width: 1.5; stroke-linecap: square"/>
    <path d="M 420.751705 173.763552 
L 433.501591 173.763552 
" clip-path="url(#peb9631dd53)" style="fill: none; stroke: #1f77b4; stroke-width: 1.5; stroke-linecap: square"/>
    <path d="M 522.750795 188.851608 
L 535.500682 188.851608 
" clip-path="url(#peb9631dd53)" style="fill: none; stroke: #1f77b4; stroke-width: 1.5; stroke-linecap: square"/>
   </g>
   <g id="LineCollection_2">
    <path d="M 127.504318 110.858717 
L 140.254205 110.858717 
" clip-path="url(#peb9631dd53)" style="fill: none; stroke: #ff7f0e; stroke-width: 1.5; stroke-linecap: square"/>
    <path d="M 229.503409 163.484682 
L 242.253295 163.484682 
" clip-path="url(#peb9631dd53)" style="fill: none; stroke: #ff7f0e; stroke-width: 1.5; stroke-linecap: square"/>
    <path d="M 331.5025 211.478106 
L 344.252386 211.478106 
" clip-path="url(#peb9631dd53)" style="fill: none; stroke: #ff7f0e; stroke-width: 1.5; stroke-linecap: square"/>
    <path d="M 433.501591 114.609559 
L 446.251477 114.609559 
" clip-path="url(#peb9631dd53)" style="fill: none; stroke: #ff7f0e; stroke-width: 1.5; stroke-linecap: square"/>
    <path d="M 535.500682 100.318559 
L 548.250568 100.318559 
" clip-path="url(#peb9631dd53)" style="fill: none; stroke: #ff7f0e; stroke-width: 1.5; stroke-linecap: square"/>
   </g>
   <g id="patch_3">
    <path d="M 51.005 333.648427 
L 51.005 26.16 
" style="fill: none; stroke: #000000; stroke-width: 0.8; stroke-linejoin: miter; stroke-linecap: square"/>
   </g>
   <g id="patch_4">
    <path d="M 612 333.648427 
L 612 26.16 
" style="fill: none; stroke: #000000; stroke-width: 0.8; stroke-linejoin: miter; stroke-linecap: square"/>
   </g>
   <g id="patch_5">
    <path d="M 51.005 333.648427 
L 612 333.648427 
" style="fill: none; stroke: #000000; stroke-width: 0.8; stroke-linejoin: miter; stroke-linecap: square"/>
   </g>
   <g id="patch_6">
    <path d="M 51.005 26.16 
L 612 26.16 
" style="fill: none; stroke: #000000; stroke-width: 0.8; stroke-linejoin: miter; stroke-linecap: square"/>
   </g>
   <g id="text_15">
    <!-- % Decrease of Forward Velocity Compared to Flat Terrain -->
    <g transform="translate(160.465 20.16) scale(0.12 -0.12)">
     <defs>
      <path id="DejaVuSans-66" d="M 2375 4863 
L 2375 4384 
L 1825 4384 
Q 1516 4384 1395 4259 
Q 1275 4134 1275 3809 
L 1275 3500 
L 2222 3500 
L 2222 3053 
L 1275 3053 
L 1275 0 
L 697 0 
L 697 3053 
L 147 3053 
L 147 3500 
L 697 3500 
L 697 3744 
Q 697 4328 969 4595 
Q 1241 4863 1831 4863 
L 2375 4863 
z
" transform="scale(0.015625)"/>
      <path id="DejaVuSans-77" d="M 269 3500 
L 844 3500 
L 1563 769 
L 2278 3500 
L 2956 3500 
L 3675 769 
L 4391 3500 
L 4966 3500 
L 4050 0 
L 3372 0 
L 2619 2869 
L 1863 0 
L 1184 0 
L 269 3500 
z
" transform="scale(0.015625)"/>
      <path id="DejaVuSans-56" d="M 1831 0 
L 50 4666 
L 709 4666 
L 2188 738 
L 3669 4666 
L 4325 4666 
L 2547 0 
L 1831 0 
z
" transform="scale(0.015625)"/>
      <path id="DejaVuSans-79" d="M 2059 -325 
Q 1816 -950 1584 -1140 
Q 1353 -1331 966 -1331 
L 506 -1331 
L 506 -850 
L 844 -850 
Q 1081 -850 1212 -737 
Q 1344 -625 1503 -206 
L 1606 56 
L 191 3500 
L 800 3500 
L 1894 763 
L 2988 3500 
L 3597 3500 
L 2059 -325 
z
" transform="scale(0.015625)"/>
      <path id="DejaVuSans-43" d="M 4122 4306 
L 4122 3641 
Q 3803 3938 3442 4084 
Q 3081 4231 2675 4231 
Q 1875 4231 1450 3742 
Q 1025 3253 1025 2328 
Q 1025 1406 1450 917 
Q 1875 428 2675 428 
Q 3081 428 3442 575 
Q 3803 722 4122 1019 
L 4122 359 
Q 3791 134 3420 21 
Q 3050 -91 2638 -91 
Q 1578 -91 968 557 
Q 359 1206 359 2328 
Q 359 3453 968 4101 
Q 1578 4750 2638 4750 
Q 3056 4750 3426 4639 
Q 3797 4528 4122 4306 
z
" transform="scale(0.015625)"/>
      <path id="DejaVuSans-54" d="M -19 4666 
L 3928 4666 
L 3928 4134 
L 2272 4134 
L 2272 0 
L 1638 0 
L 1638 4134 
L -19 4134 
L -19 4666 
z
" transform="scale(0.015625)"/>
     </defs>
     <use xlink:href="#DejaVuSans-25"/>
     <use xlink:href="#DejaVuSans-20" x="95.019531"/>
     <use xlink:href="#DejaVuSans-44" x="126.806641"/>
     <use xlink:href="#DejaVuSans-65" x="203.808594"/>
     <use xlink:href="#DejaVuSans-63" x="265.332031"/>
     <use xlink:href="#DejaVuSans-72" x="320.3125"/>
     <use xlink:href="#DejaVuSans-65" x="359.175781"/>
     <use xlink:href="#DejaVuSans-61" x="420.699219"/>
     <use xlink:href="#DejaVuSans-73" x="481.978516"/>
     <use xlink:href="#DejaVuSans-65" x="534.078125"/>
     <use xlink:href="#DejaVuSans-20" x="595.601562"/>
     <use xlink:href="#DejaVuSans-6f" x="627.388672"/>
     <use xlink:href="#DejaVuSans-66" x="688.570312"/>
     <use xlink:href="#DejaVuSans-20" x="723.775391"/>
     <use xlink:href="#DejaVuSans-46" x="755.5625"/>
     <use xlink:href="#DejaVuSans-6f" x="809.457031"/>
     <use xlink:href="#DejaVuSans-72" x="870.638672"/>
     <use xlink:href="#DejaVuSans-77" x="911.751953"/>
     <use xlink:href="#DejaVuSans-61" x="993.539062"/>
     <use xlink:href="#DejaVuSans-72" x="1054.818359"/>
     <use xlink:href="#DejaVuSans-64" x="1094.181641"/>
     <use xlink:href="#DejaVuSans-20" x="1157.658203"/>
     <use xlink:href="#DejaVuSans-56" x="1189.445312"/>
     <use xlink:href="#DejaVuSans-65" x="1250.103516"/>
     <use xlink:href="#DejaVuSans-6c" x="1311.626953"/>
     <use xlink:href="#DejaVuSans-6f" x="1339.410156"/>
     <use xlink:href="#DejaVuSans-63" x="1400.591797"/>
     <use xlink:href="#DejaVuSans-69" x="1455.572266"/>
     <use xlink:href="#DejaVuSans-74" x="1483.355469"/>
     <use xlink:href="#DejaVuSans-79" x="1522.564453"/>
     <use xlink:href="#DejaVuSans-20" x="1581.744141"/>
     <use xlink:href="#DejaVuSans-43" x="1613.53125"/>
     <use xlink:href="#DejaVuSans-6f" x="1683.355469"/>
     <use xlink:href="#DejaVuSans-6d" x="1744.537109"/>
     <use xlink:href="#DejaVuSans-70" x="1841.949219"/>
     <use xlink:href="#DejaVuSans-61" x="1905.425781"/>
     <use xlink:href="#DejaVuSans-72" x="1966.705078"/>
     <use xlink:href="#DejaVuSans-65" x="2005.568359"/>
     <use xlink:href="#DejaVuSans-64" x="2067.091797"/>
     <use xlink:href="#DejaVuSans-20" x="2130.568359"/>
     <use xlink:href="#DejaVuSans-74" x="2162.355469"/>
     <use xlink:href="#DejaVuSans-6f" x="2201.564453"/>
     <use xlink:href="#DejaVuSans-20" x="2262.746094"/>
     <use xlink:href="#DejaVuSans-46" x="2294.533203"/>
     <use xlink:href="#DejaVuSans-6c" x="2352.052734"/>
     <use xlink:href="#DejaVuSans-61" x="2379.835938"/>
     <use xlink:href="#DejaVuSans-74" x="2441.115234"/>
     <use xlink:href="#DejaVuSans-20" x="2480.324219"/>
     <use xlink:href="#DejaVuSans-54" x="2512.111328"/>
     <use xlink:href="#DejaVuSans-65" x="2556.195312"/>
     <use xlink:href="#DejaVuSans-72" x="2617.71875"/>
     <use xlink:href="#DejaVuSans-72" x="2657.082031"/>
     <use xlink:href="#DejaVuSans-61" x="2698.195312"/>
     <use xlink:href="#DejaVuSans-69" x="2759.474609"/>
     <use xlink:href="#DejaVuSans-6e" x="2787.257812"/>
    </g>
   </g>
   <g id="legend_1">
    <g id="patch_7">
     <path d="M 519.467188 328.648427 
L 605 328.648427 
Q 607 328.648427 607 326.648427 
L 607 298.292177 
Q 607 296.292177 605 296.292177 
L 519.467188 296.292177 
Q 517.467188 296.292177 517.467188 298.292177 
L 517.467188 326.648427 
Q 517.467188 328.648427 519.467188 328.648427 
z
" style="fill: #ffffff; opacity: 0.8; stroke: #cccccc; stroke-linejoin: miter"/>
    </g>
    <g id="patch_8">
     <path d="M 521.467188 307.890615 
L 541.467188 307.890615 
L 541.467188 300.890615 
L 521.467188 300.890615 
z
" style="fill: #1f77b4; fill-opacity: 0.3; stroke: #1f77b4; stroke-opacity: 0.3; stroke-linejoin: miter"/>
    </g>
    <g id="text_16">
     <!-- D-NLC -->
     <g transform="translate(549.467188 307.890615) scale(0.1 -0.1)">
      <defs>
       <path id="DejaVuSans-2d" d="M 313 2009 
L 1997 2009 
L 1997 1497 
L 313 1497 
L 313 2009 
z
" transform="scale(0.015625)"/>
      </defs>
      <use xlink:href="#DejaVuSans-44"/>
      <use xlink:href="#DejaVuSans-2d" x="77.001953"/>
      <use xlink:href="#DejaVuSans-4e" x="113.085938"/>
      <use xlink:href="#DejaVuSans-4c" x="187.890625"/>
      <use xlink:href="#DejaVuSans-43" x="243.603516"/>
     </g>
    </g>
    <g id="patch_9">
     <path d="M 521.467188 322.56874 
L 541.467188 322.56874 
L 541.467188 315.56874 
L 521.467188 315.56874 
z
" style="fill: #ff7f0e; fill-opacity: 0.3; stroke: #ff7f0e; stroke-opacity: 0.3; stroke-linejoin: miter"/>
    </g>
    <g id="text_17">
     <!-- Predefined -->
     <g transform="translate(549.467188 322.56874) scale(0.1 -0.1)">
      <defs>
       <path id="DejaVuSans-50" d="M 1259 4147 
L 1259 2394 
L 2053 2394 
Q 2494 2394 2734 2622 
Q 2975 2850 2975 3272 
Q 2975 3691 2734 3919 
Q 2494 4147 2053 4147 
L 1259 4147 
z
M 628 4666 
L 2053 4666 
Q 2838 4666 3239 4311 
Q 3641 3956 3641 3272 
Q 3641 2581 3239 2228 
Q 2838 1875 2053 1875 
L 1259 1875 
L 1259 0 
L 628 0 
L 628 4666 
z
" transform="scale(0.015625)"/>
      </defs>
      <use xlink:href="#DejaVuSans-50"/>
      <use xlink:href="#DejaVuSans-72" x="58.552734"/>
      <use xlink:href="#DejaVuSans-65" x="97.416016"/>
      <use xlink:href="#DejaVuSans-64" x="158.939453"/>
      <use xlink:href="#DejaVuSans-65" x="222.416016"/>
      <use xlink:href="#DejaVuSans-66" x="283.939453"/>
      <use xlink:href="#DejaVuSans-69" x="319.144531"/>
      <use xlink:href="#DejaVuSans-6e" x="346.927734"/>
      <use xlink:href="#DejaVuSans-65" x="410.306641"/>
      <use xlink:href="#DejaVuSans-64" x="471.830078"/>
     </g>
    </g>
   </g>
  </g>
  <g id="axes_2">
   <g id="matplotlib.axis_3">
    <g id="ytick_8">
     <g id="line2d_13">
      <defs>
       <path id="mf71e07d63b" d="M 0 0 
L 3.5 0 
" style="stroke: #000000; stroke-width: 0.8"/>
      </defs>
      <g>
       <use xlink:href="#mf71e07d63b" x="612" y="333.648427" style="stroke: #000000; stroke-width: 0.8"/>
      </g>
     </g>
     <g id="text_18">
      <!-- 0 -->
      <g transform="translate(619 337.447646) scale(0.1 -0.1)">
       <use xlink:href="#DejaVuSans-30"/>
      </g>
     </g>
    </g>
    <g id="ytick_9">
     <g id="line2d_14">
      <g>
       <use xlink:href="#mf71e07d63b" x="612" y="286.342515" style="stroke: #000000; stroke-width: 0.8"/>
      </g>
     </g>
     <g id="text_19">
      <!-- 20 -->
      <g transform="translate(619 290.141734) scale(0.1 -0.1)">
       <use xlink:href="#DejaVuSans-32"/>
       <use xlink:href="#DejaVuSans-30" x="63.623047"/>
      </g>
     </g>
    </g>
    <g id="ytick_10">
     <g id="line2d_15">
      <g>
       <use xlink:href="#mf71e07d63b" x="612" y="239.036603" style="stroke: #000000; stroke-width: 0.8"/>
      </g>
     </g>
     <g id="text_20">
      <!-- 40 -->
      <g transform="translate(619 242.835822) scale(0.1 -0.1)">
       <use xlink:href="#DejaVuSans-34"/>
       <use xlink:href="#DejaVuSans-30" x="63.623047"/>
      </g>
     </g>
    </g>
    <g id="ytick_11">
     <g id="line2d_16">
      <g>
       <use xlink:href="#mf71e07d63b" x="612" y="191.730691" style="stroke: #000000; stroke-width: 0.8"/>
      </g>
     </g>
     <g id="text_21">
      <!-- 60 -->
      <g transform="translate(619 195.52991) scale(0.1 -0.1)">
       <use xlink:href="#DejaVuSans-36"/>
       <use xlink:href="#DejaVuSans-30" x="63.623047"/>
      </g>
     </g>
    </g>
    <g id="ytick_12">
     <g id="line2d_17">
      <g>
       <use xlink:href="#mf71e07d63b" x="612" y="144.42478" style="stroke: #000000; stroke-width: 0.8"/>
      </g>
     </g>
     <g id="text_22">
      <!-- 80 -->
      <g transform="translate(619 148.223998) scale(0.1 -0.1)">
       <use xlink:href="#DejaVuSans-38"/>
       <use xlink:href="#DejaVuSans-30" x="63.623047"/>
      </g>
     </g>
    </g>
    <g id="ytick_13">
     <g id="line2d_18">
      <g>
       <use xlink:href="#mf71e07d63b" x="612" y="97.118868" style="stroke: #000000; stroke-width: 0.8"/>
      </g>
     </g>
     <g id="text_23">
      <!-- 100 -->
      <g transform="translate(619 100.918087) scale(0.1 -0.1)">
       <use xlink:href="#DejaVuSans-31"/>
       <use xlink:href="#DejaVuSans-30" x="63.623047"/>
       <use xlink:href="#DejaVuSans-30" x="127.246094"/>
      </g>
     </g>
    </g>
    <g id="ytick_14">
     <g id="line2d_19">
      <g>
       <use xlink:href="#mf71e07d63b" x="612" y="49.812956" style="stroke: #000000; stroke-width: 0.8"/>
      </g>
     </g>
     <g id="text_24">
      <!-- 120 -->
      <g transform="translate(619 53.612175) scale(0.1 -0.1)">
       <use xlink:href="#DejaVuSans-31"/>
       <use xlink:href="#DejaVuSans-32" x="63.623047"/>
       <use xlink:href="#DejaVuSans-30" x="127.246094"/>
      </g>
     </g>
    </g>
    <g id="text_25">
     <!-- % Decrease compared to Predefined Flat -->
     <g transform="translate(649.685938 282.22687) rotate(-90) scale(0.1 -0.1)">
      <use xlink:href="#DejaVuSans-25"/>
      <use xlink:href="#DejaVuSans-20" x="95.019531"/>
      <use xlink:href="#DejaVuSans-44" x="126.806641"/>
      <use xlink:href="#DejaVuSans-65" x="203.808594"/>
      <use xlink:href="#DejaVuSans-63" x="265.332031"/>
      <use xlink:href="#DejaVuSans-72" x="320.3125"/>
      <use xlink:href="#DejaVuSans-65" x="359.175781"/>
      <use xlink:href="#DejaVuSans-61" x="420.699219"/>
      <use xlink:href="#DejaVuSans-73" x="481.978516"/>
      <use xlink:href="#DejaVuSans-65" x="534.078125"/>
      <use xlink:href="#DejaVuSans-20" x="595.601562"/>
      <use xlink:href="#DejaVuSans-63" x="627.388672"/>
      <use xlink:href="#DejaVuSans-6f" x="682.369141"/>
      <use xlink:href="#DejaVuSans-6d" x="743.550781"/>
      <use xlink:href="#DejaVuSans-70" x="840.962891"/>
      <use xlink:href="#DejaVuSans-61" x="904.439453"/>
      <use xlink:href="#DejaVuSans-72" x="965.71875"/>
      <use xlink:href="#DejaVuSans-65" x="1004.582031"/>
      <use xlink:href="#DejaVuSans-64" x="1066.105469"/>
      <use xlink:href="#DejaVuSans-20" x="1129.582031"/>
      <use xlink:href="#DejaVuSans-74" x="1161.369141"/>
      <use xlink:href="#DejaVuSans-6f" x="1200.578125"/>
      <use xlink:href="#DejaVuSans-20" x="1261.759766"/>
      <use xlink:href="#DejaVuSans-50" x="1293.546875"/>
      <use xlink:href="#DejaVuSans-72" x="1352.099609"/>
      <use xlink:href="#DejaVuSans-65" x="1390.962891"/>
      <use xlink:href="#DejaVuSans-64" x="1452.486328"/>
      <use xlink:href="#DejaVuSans-65" x="1515.962891"/>
      <use xlink:href="#DejaVuSans-66" x="1577.486328"/>
      <use xlink:href="#DejaVuSans-69" x="1612.691406"/>
      <use xlink:href="#DejaVuSans-6e" x="1640.474609"/>
      <use xlink:href="#DejaVuSans-65" x="1703.853516"/>
      <use xlink:href="#DejaVuSans-64" x="1765.376953"/>
      <use xlink:href="#DejaVuSans-20" x="1828.853516"/>
      <use xlink:href="#DejaVuSans-46" x="1860.640625"/>
      <use xlink:href="#DejaVuSans-6c" x="1918.160156"/>
      <use xlink:href="#DejaVuSans-61" x="1945.943359"/>
      <use xlink:href="#DejaVuSans-74" x="2007.222656"/>
     </g>
    </g>
   </g>
   <g id="patch_10">
    <path d="M 51.005 333.648427 
L 51.005 26.16 
" style="fill: none; stroke: #000000; stroke-width: 0.8; stroke-linejoin: miter; stroke-linecap: square"/>
   </g>
   <g id="patch_11">
    <path d="M 612 333.648427 
L 612 26.16 
" style="fill: none; stroke: #000000; stroke-width: 0.8; stroke-linejoin: miter; stroke-linecap: square"/>
   </g>
   <g id="patch_12">
    <path d="M 51.005 333.648427 
L 612 333.648427 
" style="fill: none; stroke: #000000; stroke-width: 0.8; stroke-linejoin: miter; stroke-linecap: square"/>
   </g>
   <g id="patch_13">
    <path d="M 51.005 26.16 
L 612 26.16 
" style="fill: none; stroke: #000000; stroke-width: 0.8; stroke-linejoin: miter; stroke-linecap: square"/>
   </g>
  </g>
 </g>
 <defs>
  <clipPath id="peb9631dd53">
   <rect x="51.005" y="26.16" width="560.995" height="307.488427"/>
  </clipPath>
 </defs>
</svg>
