<?xml version="1.0" encoding="utf-8" standalone="no"?>
<!DOCTYPE svg PUBLIC "-//W3C//DTD SVG 1.1//EN"
  "http://www.w3.org/Graphics/SVG/1.1/DTD/svg11.dtd">
<svg xmlns:xlink="http://www.w3.org/1999/xlink" width="864pt" height="432pt" viewBox="0 0 864 432" xmlns="http://www.w3.org/2000/svg" version="1.1">
 <metadata>
  <rdf:RDF xmlns:dc="http://purl.org/dc/elements/1.1/" xmlns:cc="http://creativecommons.org/ns#" xmlns:rdf="http://www.w3.org/1999/02/22-rdf-syntax-ns#">
   <cc:Work>
    <dc:type rdf:resource="http://purl.org/dc/dcmitype/StillImage"/>
    <dc:date>2024-09-11T23:10:38.847062</dc:date>
    <dc:format>image/svg+xml</dc:format>
    <dc:creator>
     <cc:Agent>
      <dc:title>Matplotlib v3.9.2, https://matplotlib.org/</dc:title>
     </cc:Agent>
    </dc:creator>
   </cc:Work>
  </rdf:RDF>
 </metadata>
 <defs>
  <style type="text/css">*{stroke-linejoin: round; stroke-linecap: butt}</style>
 </defs>
 <g id="figure_1">
  <g id="patch_1">
   <path d="M 0 432 
L 864 432 
L 864 0 
L 0 0 
z
" style="fill: #ffffff"/>
  </g>
  <g id="axes_1">
   <g id="patch_2">
    <path d="M 52.94 291.709924 
L 853.2 291.709924 
L 853.2 36.96 
L 52.94 36.96 
z
" style="fill: #ffffff"/>
   </g>
   <g id="matplotlib.axis_1">
    <g id="xtick_1">
     <g id="line2d_1">
      <defs>
       <path id="m572adaadc2" d="M 0 0 
L 0 3.5 
" style="stroke: #000000; stroke-width: 0.8"/>
      </defs>
      <g>
       <use xlink:href="#m572adaadc2" x="89.315455" y="291.709924" style="stroke: #000000; stroke-width: 0.8"/>
      </g>
     </g>
     <g id="text_1">
      <!-- amputate_L3 -->
      <g transform="translate(67.908902 350.351921) rotate(-45) scale(0.1 -0.1)">
       <defs>
        <path id="DejaVuSans-61" d="M 2194 1759 
Q 1497 1759 1228 1600 
Q 959 1441 959 1056 
Q 959 750 1161 570 
Q 1363 391 1709 391 
Q 2188 391 2477 730 
Q 2766 1069 2766 1631 
L 2766 1759 
L 2194 1759 
z
M 3341 1997 
L 3341 0 
L 2766 0 
L 2766 531 
Q 2569 213 2275 61 
Q 1981 -91 1556 -91 
Q 1019 -91 701 211 
Q 384 513 384 1019 
Q 384 1609 779 1909 
Q 1175 2209 1959 2209 
L 2766 2209 
L 2766 2266 
Q 2766 2663 2505 2880 
Q 2244 3097 1772 3097 
Q 1472 3097 1187 3025 
Q 903 2953 641 2809 
L 641 3341 
Q 956 3463 1253 3523 
Q 1550 3584 1831 3584 
Q 2591 3584 2966 3190 
Q 3341 2797 3341 1997 
z
" transform="scale(0.015625)"/>
        <path id="DejaVuSans-6d" d="M 3328 2828 
Q 3544 3216 3844 3400 
Q 4144 3584 4550 3584 
Q 5097 3584 5394 3201 
Q 5691 2819 5691 2113 
L 5691 0 
L 5113 0 
L 5113 2094 
Q 5113 2597 4934 2840 
Q 4756 3084 4391 3084 
Q 3944 3084 3684 2787 
Q 3425 2491 3425 1978 
L 3425 0 
L 2847 0 
L 2847 2094 
Q 2847 2600 2669 2842 
Q 2491 3084 2119 3084 
Q 1678 3084 1418 2786 
Q 1159 2488 1159 1978 
L 1159 0 
L 581 0 
L 581 3500 
L 1159 3500 
L 1159 2956 
Q 1356 3278 1631 3431 
Q 1906 3584 2284 3584 
Q 2666 3584 2933 3390 
Q 3200 3197 3328 2828 
z
" transform="scale(0.015625)"/>
        <path id="DejaVuSans-70" d="M 1159 525 
L 1159 -1331 
L 581 -1331 
L 581 3500 
L 1159 3500 
L 1159 2969 
Q 1341 3281 1617 3432 
Q 1894 3584 2278 3584 
Q 2916 3584 3314 3078 
Q 3713 2572 3713 1747 
Q 3713 922 3314 415 
Q 2916 -91 2278 -91 
Q 1894 -91 1617 61 
Q 1341 213 1159 525 
z
M 3116 1747 
Q 3116 2381 2855 2742 
Q 2594 3103 2138 3103 
Q 1681 3103 1420 2742 
Q 1159 2381 1159 1747 
Q 1159 1113 1420 752 
Q 1681 391 2138 391 
Q 2594 391 2855 752 
Q 3116 1113 3116 1747 
z
" transform="scale(0.015625)"/>
        <path id="DejaVuSans-75" d="M 544 1381 
L 544 3500 
L 1119 3500 
L 1119 1403 
Q 1119 906 1312 657 
Q 1506 409 1894 409 
Q 2359 409 2629 706 
Q 2900 1003 2900 1516 
L 2900 3500 
L 3475 3500 
L 3475 0 
L 2900 0 
L 2900 538 
Q 2691 219 2414 64 
Q 2138 -91 1772 -91 
Q 1169 -91 856 284 
Q 544 659 544 1381 
z
M 1991 3584 
L 1991 3584 
z
" transform="scale(0.015625)"/>
        <path id="DejaVuSans-74" d="M 1172 4494 
L 1172 3500 
L 2356 3500 
L 2356 3053 
L 1172 3053 
L 1172 1153 
Q 1172 725 1289 603 
Q 1406 481 1766 481 
L 2356 481 
L 2356 0 
L 1766 0 
Q 1100 0 847 248 
Q 594 497 594 1153 
L 594 3053 
L 172 3053 
L 172 3500 
L 594 3500 
L 594 4494 
L 1172 4494 
z
" transform="scale(0.015625)"/>
        <path id="DejaVuSans-65" d="M 3597 1894 
L 3597 1613 
L 953 1613 
Q 991 1019 1311 708 
Q 1631 397 2203 397 
Q 2534 397 2845 478 
Q 3156 559 3463 722 
L 3463 178 
Q 3153 47 2828 -22 
Q 2503 -91 2169 -91 
Q 1331 -91 842 396 
Q 353 884 353 1716 
Q 353 2575 817 3079 
Q 1281 3584 2069 3584 
Q 2775 3584 3186 3129 
Q 3597 2675 3597 1894 
z
M 3022 2063 
Q 3016 2534 2758 2815 
Q 2500 3097 2075 3097 
Q 1594 3097 1305 2825 
Q 1016 2553 972 2059 
L 3022 2063 
z
" transform="scale(0.015625)"/>
        <path id="DejaVuSans-5f" d="M 3263 -1063 
L 3263 -1509 
L -63 -1509 
L -63 -1063 
L 3263 -1063 
z
" transform="scale(0.015625)"/>
        <path id="DejaVuSans-4c" d="M 628 4666 
L 1259 4666 
L 1259 531 
L 3531 531 
L 3531 0 
L 628 0 
L 628 4666 
z
" transform="scale(0.015625)"/>
        <path id="DejaVuSans-33" d="M 2597 2516 
Q 3050 2419 3304 2112 
Q 3559 1806 3559 1356 
Q 3559 666 3084 287 
Q 2609 -91 1734 -91 
Q 1441 -91 1130 -33 
Q 819 25 488 141 
L 488 750 
Q 750 597 1062 519 
Q 1375 441 1716 441 
Q 2309 441 2620 675 
Q 2931 909 2931 1356 
Q 2931 1769 2642 2001 
Q 2353 2234 1838 2234 
L 1294 2234 
L 1294 2753 
L 1863 2753 
Q 2328 2753 2575 2939 
Q 2822 3125 2822 3475 
Q 2822 3834 2567 4026 
Q 2313 4219 1838 4219 
Q 1578 4219 1281 4162 
Q 984 4106 628 3988 
L 628 4550 
Q 988 4650 1302 4700 
Q 1616 4750 1894 4750 
Q 2613 4750 3031 4423 
Q 3450 4097 3450 3541 
Q 3450 3153 3228 2886 
Q 3006 2619 2597 2516 
z
" transform="scale(0.015625)"/>
       </defs>
       <use xlink:href="#DejaVuSans-61"/>
       <use xlink:href="#DejaVuSans-6d" x="61.279297"/>
       <use xlink:href="#DejaVuSans-70" x="158.691406"/>
       <use xlink:href="#DejaVuSans-75" x="222.167969"/>
       <use xlink:href="#DejaVuSans-74" x="285.546875"/>
       <use xlink:href="#DejaVuSans-61" x="324.755859"/>
       <use xlink:href="#DejaVuSans-74" x="386.035156"/>
       <use xlink:href="#DejaVuSans-65" x="425.244141"/>
       <use xlink:href="#DejaVuSans-5f" x="486.767578"/>
       <use xlink:href="#DejaVuSans-4c" x="536.767578"/>
       <use xlink:href="#DejaVuSans-33" x="592.480469"/>
      </g>
     </g>
    </g>
    <g id="xtick_2">
     <g id="line2d_2">
      <g>
       <use xlink:href="#m572adaadc2" x="162.066364" y="291.709924" style="stroke: #000000; stroke-width: 0.8"/>
      </g>
     </g>
     <g id="text_2">
      <!-- amputate_R2 -->
      <g transform="translate(140.173122 351.325297) rotate(-45) scale(0.1 -0.1)">
       <defs>
        <path id="DejaVuSans-52" d="M 2841 2188 
Q 3044 2119 3236 1894 
Q 3428 1669 3622 1275 
L 4263 0 
L 3584 0 
L 2988 1197 
Q 2756 1666 2539 1819 
Q 2322 1972 1947 1972 
L 1259 1972 
L 1259 0 
L 628 0 
L 628 4666 
L 2053 4666 
Q 2853 4666 3247 4331 
Q 3641 3997 3641 3322 
Q 3641 2881 3436 2590 
Q 3231 2300 2841 2188 
z
M 1259 4147 
L 1259 2491 
L 2053 2491 
Q 2509 2491 2742 2702 
Q 2975 2913 2975 3322 
Q 2975 3731 2742 3939 
Q 2509 4147 2053 4147 
L 1259 4147 
z
" transform="scale(0.015625)"/>
        <path id="DejaVuSans-32" d="M 1228 531 
L 3431 531 
L 3431 0 
L 469 0 
L 469 531 
Q 828 903 1448 1529 
Q 2069 2156 2228 2338 
Q 2531 2678 2651 2914 
Q 2772 3150 2772 3378 
Q 2772 3750 2511 3984 
Q 2250 4219 1831 4219 
Q 1534 4219 1204 4116 
Q 875 4013 500 3803 
L 500 4441 
Q 881 4594 1212 4672 
Q 1544 4750 1819 4750 
Q 2544 4750 2975 4387 
Q 3406 4025 3406 3419 
Q 3406 3131 3298 2873 
Q 3191 2616 2906 2266 
Q 2828 2175 2409 1742 
Q 1991 1309 1228 531 
z
" transform="scale(0.015625)"/>
       </defs>
       <use xlink:href="#DejaVuSans-61"/>
       <use xlink:href="#DejaVuSans-6d" x="61.279297"/>
       <use xlink:href="#DejaVuSans-70" x="158.691406"/>
       <use xlink:href="#DejaVuSans-75" x="222.167969"/>
       <use xlink:href="#DejaVuSans-74" x="285.546875"/>
       <use xlink:href="#DejaVuSans-61" x="324.755859"/>
       <use xlink:href="#DejaVuSans-74" x="386.035156"/>
       <use xlink:href="#DejaVuSans-65" x="425.244141"/>
       <use xlink:href="#DejaVuSans-5f" x="486.767578"/>
       <use xlink:href="#DejaVuSans-52" x="536.767578"/>
       <use xlink:href="#DejaVuSans-32" x="606.25"/>
      </g>
     </g>
    </g>
    <g id="xtick_3">
     <g id="line2d_3">
      <g>
       <use xlink:href="#m572adaadc2" x="234.817273" y="291.709924" style="stroke: #000000; stroke-width: 0.8"/>
      </g>
     </g>
     <g id="text_3">
      <!-- amputate_R2_L2 -->
      <g transform="translate(206.936826 363.299709) rotate(-45) scale(0.1 -0.1)">
       <use xlink:href="#DejaVuSans-61"/>
       <use xlink:href="#DejaVuSans-6d" x="61.279297"/>
       <use xlink:href="#DejaVuSans-70" x="158.691406"/>
       <use xlink:href="#DejaVuSans-75" x="222.167969"/>
       <use xlink:href="#DejaVuSans-74" x="285.546875"/>
       <use xlink:href="#DejaVuSans-61" x="324.755859"/>
       <use xlink:href="#DejaVuSans-74" x="386.035156"/>
       <use xlink:href="#DejaVuSans-65" x="425.244141"/>
       <use xlink:href="#DejaVuSans-5f" x="486.767578"/>
       <use xlink:href="#DejaVuSans-52" x="536.767578"/>
       <use xlink:href="#DejaVuSans-32" x="606.25"/>
       <use xlink:href="#DejaVuSans-5f" x="669.873047"/>
       <use xlink:href="#DejaVuSans-4c" x="719.873047"/>
       <use xlink:href="#DejaVuSans-32" x="775.585938"/>
      </g>
     </g>
    </g>
    <g id="xtick_4">
     <g id="line2d_4">
      <g>
       <use xlink:href="#m572adaadc2" x="307.568182" y="291.709924" style="stroke: #000000; stroke-width: 0.8"/>
      </g>
     </g>
     <g id="text_4">
      <!-- amputate_R3_L3 -->
      <g transform="translate(279.687735 363.299709) rotate(-45) scale(0.1 -0.1)">
       <use xlink:href="#DejaVuSans-61"/>
       <use xlink:href="#DejaVuSans-6d" x="61.279297"/>
       <use xlink:href="#DejaVuSans-70" x="158.691406"/>
       <use xlink:href="#DejaVuSans-75" x="222.167969"/>
       <use xlink:href="#DejaVuSans-74" x="285.546875"/>
       <use xlink:href="#DejaVuSans-61" x="324.755859"/>
       <use xlink:href="#DejaVuSans-74" x="386.035156"/>
       <use xlink:href="#DejaVuSans-65" x="425.244141"/>
       <use xlink:href="#DejaVuSans-5f" x="486.767578"/>
       <use xlink:href="#DejaVuSans-52" x="536.767578"/>
       <use xlink:href="#DejaVuSans-33" x="606.25"/>
       <use xlink:href="#DejaVuSans-5f" x="669.873047"/>
       <use xlink:href="#DejaVuSans-4c" x="719.873047"/>
       <use xlink:href="#DejaVuSans-33" x="775.585938"/>
      </g>
     </g>
    </g>
    <g id="xtick_5">
     <g id="line2d_5">
      <g>
       <use xlink:href="#m572adaadc2" x="380.319091" y="291.709924" style="stroke: #000000; stroke-width: 0.8"/>
      </g>
     </g>
     <g id="text_5">
      <!-- flat -->
      <g transform="translate(376.490771 315.641817) rotate(-45) scale(0.1 -0.1)">
       <defs>
        <path id="DejaVuSans-66" d="M 2375 4863 
L 2375 4384 
L 1825 4384 
Q 1516 4384 1395 4259 
Q 1275 4134 1275 3809 
L 1275 3500 
L 2222 3500 
L 2222 3053 
L 1275 3053 
L 1275 0 
L 697 0 
L 697 3053 
L 147 3053 
L 147 3500 
L 697 3500 
L 697 3744 
Q 697 4328 969 4595 
Q 1241 4863 1831 4863 
L 2375 4863 
z
" transform="scale(0.015625)"/>
        <path id="DejaVuSans-6c" d="M 603 4863 
L 1178 4863 
L 1178 0 
L 603 0 
L 603 4863 
z
" transform="scale(0.015625)"/>
       </defs>
       <use xlink:href="#DejaVuSans-66"/>
       <use xlink:href="#DejaVuSans-6c" x="35.205078"/>
       <use xlink:href="#DejaVuSans-61" x="62.988281"/>
       <use xlink:href="#DejaVuSans-74" x="124.267578"/>
      </g>
     </g>
    </g>
    <g id="xtick_6">
     <g id="line2d_6">
      <g>
       <use xlink:href="#m572adaadc2" x="453.07" y="291.709924" style="stroke: #000000; stroke-width: 0.8"/>
      </g>
     </g>
     <g id="text_6">
      <!-- predefined_amputate_L3 -->
      <g transform="translate(410.85683 392.214852) rotate(-45) scale(0.1 -0.1)">
       <defs>
        <path id="DejaVuSans-72" d="M 2631 2963 
Q 2534 3019 2420 3045 
Q 2306 3072 2169 3072 
Q 1681 3072 1420 2755 
Q 1159 2438 1159 1844 
L 1159 0 
L 581 0 
L 581 3500 
L 1159 3500 
L 1159 2956 
Q 1341 3275 1631 3429 
Q 1922 3584 2338 3584 
Q 2397 3584 2469 3576 
Q 2541 3569 2628 3553 
L 2631 2963 
z
" transform="scale(0.015625)"/>
        <path id="DejaVuSans-64" d="M 2906 2969 
L 2906 4863 
L 3481 4863 
L 3481 0 
L 2906 0 
L 2906 525 
Q 2725 213 2448 61 
Q 2172 -91 1784 -91 
Q 1150 -91 751 415 
Q 353 922 353 1747 
Q 353 2572 751 3078 
Q 1150 3584 1784 3584 
Q 2172 3584 2448 3432 
Q 2725 3281 2906 2969 
z
M 947 1747 
Q 947 1113 1208 752 
Q 1469 391 1925 391 
Q 2381 391 2643 752 
Q 2906 1113 2906 1747 
Q 2906 2381 2643 2742 
Q 2381 3103 1925 3103 
Q 1469 3103 1208 2742 
Q 947 2381 947 1747 
z
" transform="scale(0.015625)"/>
        <path id="DejaVuSans-69" d="M 603 3500 
L 1178 3500 
L 1178 0 
L 603 0 
L 603 3500 
z
M 603 4863 
L 1178 4863 
L 1178 4134 
L 603 4134 
L 603 4863 
z
" transform="scale(0.015625)"/>
        <path id="DejaVuSans-6e" d="M 3513 2113 
L 3513 0 
L 2938 0 
L 2938 2094 
Q 2938 2591 2744 2837 
Q 2550 3084 2163 3084 
Q 1697 3084 1428 2787 
Q 1159 2491 1159 1978 
L 1159 0 
L 581 0 
L 581 3500 
L 1159 3500 
L 1159 2956 
Q 1366 3272 1645 3428 
Q 1925 3584 2291 3584 
Q 2894 3584 3203 3211 
Q 3513 2838 3513 2113 
z
" transform="scale(0.015625)"/>
       </defs>
       <use xlink:href="#DejaVuSans-70"/>
       <use xlink:href="#DejaVuSans-72" x="63.476562"/>
       <use xlink:href="#DejaVuSans-65" x="102.339844"/>
       <use xlink:href="#DejaVuSans-64" x="163.863281"/>
       <use xlink:href="#DejaVuSans-65" x="227.339844"/>
       <use xlink:href="#DejaVuSans-66" x="288.863281"/>
       <use xlink:href="#DejaVuSans-69" x="324.068359"/>
       <use xlink:href="#DejaVuSans-6e" x="351.851562"/>
       <use xlink:href="#DejaVuSans-65" x="415.230469"/>
       <use xlink:href="#DejaVuSans-64" x="476.753906"/>
       <use xlink:href="#DejaVuSans-5f" x="540.230469"/>
       <use xlink:href="#DejaVuSans-61" x="590.230469"/>
       <use xlink:href="#DejaVuSans-6d" x="651.509766"/>
       <use xlink:href="#DejaVuSans-70" x="748.921875"/>
       <use xlink:href="#DejaVuSans-75" x="812.398438"/>
       <use xlink:href="#DejaVuSans-74" x="875.777344"/>
       <use xlink:href="#DejaVuSans-61" x="914.986328"/>
       <use xlink:href="#DejaVuSans-74" x="976.265625"/>
       <use xlink:href="#DejaVuSans-65" x="1015.474609"/>
       <use xlink:href="#DejaVuSans-5f" x="1076.998047"/>
       <use xlink:href="#DejaVuSans-4c" x="1126.998047"/>
       <use xlink:href="#DejaVuSans-33" x="1182.710938"/>
      </g>
     </g>
    </g>
    <g id="xtick_7">
     <g id="line2d_7">
      <g>
       <use xlink:href="#m572adaadc2" x="525.820909" y="291.709924" style="stroke: #000000; stroke-width: 0.8"/>
      </g>
     </g>
     <g id="text_7">
      <!-- predefined_amputate_R2 -->
      <g transform="translate(483.121051 393.188229) rotate(-45) scale(0.1 -0.1)">
       <use xlink:href="#DejaVuSans-70"/>
       <use xlink:href="#DejaVuSans-72" x="63.476562"/>
       <use xlink:href="#DejaVuSans-65" x="102.339844"/>
       <use xlink:href="#DejaVuSans-64" x="163.863281"/>
       <use xlink:href="#DejaVuSans-65" x="227.339844"/>
       <use xlink:href="#DejaVuSans-66" x="288.863281"/>
       <use xlink:href="#DejaVuSans-69" x="324.068359"/>
       <use xlink:href="#DejaVuSans-6e" x="351.851562"/>
       <use xlink:href="#DejaVuSans-65" x="415.230469"/>
       <use xlink:href="#DejaVuSans-64" x="476.753906"/>
       <use xlink:href="#DejaVuSans-5f" x="540.230469"/>
       <use xlink:href="#DejaVuSans-61" x="590.230469"/>
       <use xlink:href="#DejaVuSans-6d" x="651.509766"/>
       <use xlink:href="#DejaVuSans-70" x="748.921875"/>
       <use xlink:href="#DejaVuSans-75" x="812.398438"/>
       <use xlink:href="#DejaVuSans-74" x="875.777344"/>
       <use xlink:href="#DejaVuSans-61" x="914.986328"/>
       <use xlink:href="#DejaVuSans-74" x="976.265625"/>
       <use xlink:href="#DejaVuSans-65" x="1015.474609"/>
       <use xlink:href="#DejaVuSans-5f" x="1076.998047"/>
       <use xlink:href="#DejaVuSans-52" x="1126.998047"/>
       <use xlink:href="#DejaVuSans-32" x="1196.480469"/>
      </g>
     </g>
    </g>
    <g id="xtick_8">
     <g id="line2d_8">
      <g>
       <use xlink:href="#m572adaadc2" x="598.571818" y="291.709924" style="stroke: #000000; stroke-width: 0.8"/>
      </g>
     </g>
     <g id="text_8">
      <!-- predefined_amputate_R3_L3 -->
      <g transform="translate(549.884754 405.16264) rotate(-45) scale(0.1 -0.1)">
       <use xlink:href="#DejaVuSans-70"/>
       <use xlink:href="#DejaVuSans-72" x="63.476562"/>
       <use xlink:href="#DejaVuSans-65" x="102.339844"/>
       <use xlink:href="#DejaVuSans-64" x="163.863281"/>
       <use xlink:href="#DejaVuSans-65" x="227.339844"/>
       <use xlink:href="#DejaVuSans-66" x="288.863281"/>
       <use xlink:href="#DejaVuSans-69" x="324.068359"/>
       <use xlink:href="#DejaVuSans-6e" x="351.851562"/>
       <use xlink:href="#DejaVuSans-65" x="415.230469"/>
       <use xlink:href="#DejaVuSans-64" x="476.753906"/>
       <use xlink:href="#DejaVuSans-5f" x="540.230469"/>
       <use xlink:href="#DejaVuSans-61" x="590.230469"/>
       <use xlink:href="#DejaVuSans-6d" x="651.509766"/>
       <use xlink:href="#DejaVuSans-70" x="748.921875"/>
       <use xlink:href="#DejaVuSans-75" x="812.398438"/>
       <use xlink:href="#DejaVuSans-74" x="875.777344"/>
       <use xlink:href="#DejaVuSans-61" x="914.986328"/>
       <use xlink:href="#DejaVuSans-74" x="976.265625"/>
       <use xlink:href="#DejaVuSans-65" x="1015.474609"/>
       <use xlink:href="#DejaVuSans-5f" x="1076.998047"/>
       <use xlink:href="#DejaVuSans-52" x="1126.998047"/>
       <use xlink:href="#DejaVuSans-33" x="1196.480469"/>
       <use xlink:href="#DejaVuSans-5f" x="1260.103516"/>
       <use xlink:href="#DejaVuSans-4c" x="1310.103516"/>
       <use xlink:href="#DejaVuSans-33" x="1365.816406"/>
      </g>
     </g>
    </g>
    <g id="xtick_9">
     <g id="line2d_9">
      <g>
       <use xlink:href="#m572adaadc2" x="671.322727" y="291.709924" style="stroke: #000000; stroke-width: 0.8"/>
      </g>
     </g>
     <g id="text_9">
      <!-- predefined_flat -->
      <g transform="translate(646.527034 357.379899) rotate(-45) scale(0.1 -0.1)">
       <use xlink:href="#DejaVuSans-70"/>
       <use xlink:href="#DejaVuSans-72" x="63.476562"/>
       <use xlink:href="#DejaVuSans-65" x="102.339844"/>
       <use xlink:href="#DejaVuSans-64" x="163.863281"/>
       <use xlink:href="#DejaVuSans-65" x="227.339844"/>
       <use xlink:href="#DejaVuSans-66" x="288.863281"/>
       <use xlink:href="#DejaVuSans-69" x="324.068359"/>
       <use xlink:href="#DejaVuSans-6e" x="351.851562"/>
       <use xlink:href="#DejaVuSans-65" x="415.230469"/>
       <use xlink:href="#DejaVuSans-64" x="476.753906"/>
       <use xlink:href="#DejaVuSans-5f" x="540.230469"/>
       <use xlink:href="#DejaVuSans-66" x="590.230469"/>
       <use xlink:href="#DejaVuSans-6c" x="625.435547"/>
       <use xlink:href="#DejaVuSans-61" x="653.21875"/>
       <use xlink:href="#DejaVuSans-74" x="714.498047"/>
      </g>
     </g>
    </g>
    <g id="xtick_10">
     <g id="line2d_10">
      <g>
       <use xlink:href="#m572adaadc2" x="744.073636" y="291.709924" style="stroke: #000000; stroke-width: 0.8"/>
      </g>
     </g>
     <g id="text_10">
      <!-- predefined_terrain -->
      <g transform="translate(713.261458 369.412868) rotate(-45) scale(0.1 -0.1)">
       <use xlink:href="#DejaVuSans-70"/>
       <use xlink:href="#DejaVuSans-72" x="63.476562"/>
       <use xlink:href="#DejaVuSans-65" x="102.339844"/>
       <use xlink:href="#DejaVuSans-64" x="163.863281"/>
       <use xlink:href="#DejaVuSans-65" x="227.339844"/>
       <use xlink:href="#DejaVuSans-66" x="288.863281"/>
       <use xlink:href="#DejaVuSans-69" x="324.068359"/>
       <use xlink:href="#DejaVuSans-6e" x="351.851562"/>
       <use xlink:href="#DejaVuSans-65" x="415.230469"/>
       <use xlink:href="#DejaVuSans-64" x="476.753906"/>
       <use xlink:href="#DejaVuSans-5f" x="540.230469"/>
       <use xlink:href="#DejaVuSans-74" x="590.230469"/>
       <use xlink:href="#DejaVuSans-65" x="629.439453"/>
       <use xlink:href="#DejaVuSans-72" x="690.962891"/>
       <use xlink:href="#DejaVuSans-72" x="730.326172"/>
       <use xlink:href="#DejaVuSans-61" x="771.439453"/>
       <use xlink:href="#DejaVuSans-69" x="832.71875"/>
       <use xlink:href="#DejaVuSans-6e" x="860.501953"/>
      </g>
     </g>
    </g>
    <g id="xtick_11">
     <g id="line2d_11">
      <g>
       <use xlink:href="#m572adaadc2" x="816.824545" y="291.709924" style="stroke: #000000; stroke-width: 0.8"/>
      </g>
     </g>
     <g id="text_11">
      <!-- terrain -->
      <g transform="translate(806.979741 327.674785) rotate(-45) scale(0.1 -0.1)">
       <use xlink:href="#DejaVuSans-74"/>
       <use xlink:href="#DejaVuSans-65" x="39.208984"/>
       <use xlink:href="#DejaVuSans-72" x="100.732422"/>
       <use xlink:href="#DejaVuSans-72" x="140.095703"/>
       <use xlink:href="#DejaVuSans-61" x="181.208984"/>
       <use xlink:href="#DejaVuSans-69" x="242.488281"/>
       <use xlink:href="#DejaVuSans-6e" x="270.271484"/>
      </g>
     </g>
    </g>
    <g id="text_12">
     <!-- Terrain -->
     <g transform="translate(436.144219 418.428303) scale(0.1 -0.1)">
      <defs>
       <path id="DejaVuSans-54" d="M -19 4666 
L 3928 4666 
L 3928 4134 
L 2272 4134 
L 2272 0 
L 1638 0 
L 1638 4134 
L -19 4134 
L -19 4666 
z
" transform="scale(0.015625)"/>
      </defs>
      <use xlink:href="#DejaVuSans-54"/>
      <use xlink:href="#DejaVuSans-65" x="44.083984"/>
      <use xlink:href="#DejaVuSans-72" x="105.607422"/>
      <use xlink:href="#DejaVuSans-72" x="144.970703"/>
      <use xlink:href="#DejaVuSans-61" x="186.083984"/>
      <use xlink:href="#DejaVuSans-69" x="247.363281"/>
      <use xlink:href="#DejaVuSans-6e" x="275.146484"/>
     </g>
    </g>
   </g>
   <g id="matplotlib.axis_2">
    <g id="ytick_1">
     <g id="line2d_12">
      <defs>
       <path id="maedaf03df3" d="M 0 0 
L -3.5 0 
" style="stroke: #000000; stroke-width: 0.8"/>
      </defs>
      <g>
       <use xlink:href="#maedaf03df3" x="52.94" y="281.288267" style="stroke: #000000; stroke-width: 0.8"/>
      </g>
     </g>
     <g id="text_13">
      <!-- −25 -->
      <g transform="translate(24.835313 285.087486) scale(0.1 -0.1)">
       <defs>
        <path id="DejaVuSans-2212" d="M 678 2272 
L 4684 2272 
L 4684 1741 
L 678 1741 
L 678 2272 
z
" transform="scale(0.015625)"/>
        <path id="DejaVuSans-35" d="M 691 4666 
L 3169 4666 
L 3169 4134 
L 1269 4134 
L 1269 2991 
Q 1406 3038 1543 3061 
Q 1681 3084 1819 3084 
Q 2600 3084 3056 2656 
Q 3513 2228 3513 1497 
Q 3513 744 3044 326 
Q 2575 -91 1722 -91 
Q 1428 -91 1123 -41 
Q 819 9 494 109 
L 494 744 
Q 775 591 1075 516 
Q 1375 441 1709 441 
Q 2250 441 2565 725 
Q 2881 1009 2881 1497 
Q 2881 1984 2565 2268 
Q 2250 2553 1709 2553 
Q 1456 2553 1204 2497 
Q 953 2441 691 2322 
L 691 4666 
z
" transform="scale(0.015625)"/>
       </defs>
       <use xlink:href="#DejaVuSans-2212"/>
       <use xlink:href="#DejaVuSans-32" x="83.789062"/>
       <use xlink:href="#DejaVuSans-35" x="147.412109"/>
      </g>
     </g>
    </g>
    <g id="ytick_2">
     <g id="line2d_13">
      <g>
       <use xlink:href="#maedaf03df3" x="52.94" y="246.32781" style="stroke: #000000; stroke-width: 0.8"/>
      </g>
     </g>
     <g id="text_14">
      <!-- 0 -->
      <g transform="translate(39.5775 250.127029) scale(0.1 -0.1)">
       <defs>
        <path id="DejaVuSans-30" d="M 2034 4250 
Q 1547 4250 1301 3770 
Q 1056 3291 1056 2328 
Q 1056 1369 1301 889 
Q 1547 409 2034 409 
Q 2525 409 2770 889 
Q 3016 1369 3016 2328 
Q 3016 3291 2770 3770 
Q 2525 4250 2034 4250 
z
M 2034 4750 
Q 2819 4750 3233 4129 
Q 3647 3509 3647 2328 
Q 3647 1150 3233 529 
Q 2819 -91 2034 -91 
Q 1250 -91 836 529 
Q 422 1150 422 2328 
Q 422 3509 836 4129 
Q 1250 4750 2034 4750 
z
" transform="scale(0.015625)"/>
       </defs>
       <use xlink:href="#DejaVuSans-30"/>
      </g>
     </g>
    </g>
    <g id="ytick_3">
     <g id="line2d_14">
      <g>
       <use xlink:href="#maedaf03df3" x="52.94" y="211.367353" style="stroke: #000000; stroke-width: 0.8"/>
      </g>
     </g>
     <g id="text_15">
      <!-- 25 -->
      <g transform="translate(33.215 215.166572) scale(0.1 -0.1)">
       <use xlink:href="#DejaVuSans-32"/>
       <use xlink:href="#DejaVuSans-35" x="63.623047"/>
      </g>
     </g>
    </g>
    <g id="ytick_4">
     <g id="line2d_15">
      <g>
       <use xlink:href="#maedaf03df3" x="52.94" y="176.406896" style="stroke: #000000; stroke-width: 0.8"/>
      </g>
     </g>
     <g id="text_16">
      <!-- 50 -->
      <g transform="translate(33.215 180.206115) scale(0.1 -0.1)">
       <use xlink:href="#DejaVuSans-35"/>
       <use xlink:href="#DejaVuSans-30" x="63.623047"/>
      </g>
     </g>
    </g>
    <g id="ytick_5">
     <g id="line2d_16">
      <g>
       <use xlink:href="#maedaf03df3" x="52.94" y="141.446439" style="stroke: #000000; stroke-width: 0.8"/>
      </g>
     </g>
     <g id="text_17">
      <!-- 75 -->
      <g transform="translate(33.215 145.245658) scale(0.1 -0.1)">
       <defs>
        <path id="DejaVuSans-37" d="M 525 4666 
L 3525 4666 
L 3525 4397 
L 1831 0 
L 1172 0 
L 2766 4134 
L 525 4134 
L 525 4666 
z
" transform="scale(0.015625)"/>
       </defs>
       <use xlink:href="#DejaVuSans-37"/>
       <use xlink:href="#DejaVuSans-35" x="63.623047"/>
      </g>
     </g>
    </g>
    <g id="ytick_6">
     <g id="line2d_17">
      <g>
       <use xlink:href="#maedaf03df3" x="52.94" y="106.485982" style="stroke: #000000; stroke-width: 0.8"/>
      </g>
     </g>
     <g id="text_18">
      <!-- 100 -->
      <g transform="translate(26.8525 110.285201) scale(0.1 -0.1)">
       <defs>
        <path id="DejaVuSans-31" d="M 794 531 
L 1825 531 
L 1825 4091 
L 703 3866 
L 703 4441 
L 1819 4666 
L 2450 4666 
L 2450 531 
L 3481 531 
L 3481 0 
L 794 0 
L 794 531 
z
" transform="scale(0.015625)"/>
       </defs>
       <use xlink:href="#DejaVuSans-31"/>
       <use xlink:href="#DejaVuSans-30" x="63.623047"/>
       <use xlink:href="#DejaVuSans-30" x="127.246094"/>
      </g>
     </g>
    </g>
    <g id="ytick_7">
     <g id="line2d_18">
      <g>
       <use xlink:href="#maedaf03df3" x="52.94" y="71.525526" style="stroke: #000000; stroke-width: 0.8"/>
      </g>
     </g>
     <g id="text_19">
      <!-- 125 -->
      <g transform="translate(26.8525 75.324744) scale(0.1 -0.1)">
       <use xlink:href="#DejaVuSans-31"/>
       <use xlink:href="#DejaVuSans-32" x="63.623047"/>
       <use xlink:href="#DejaVuSans-35" x="127.246094"/>
      </g>
     </g>
    </g>
    <g id="text_20">
     <!-- Velocity % of Flat -->
     <g transform="translate(18.755625 207.577149) rotate(-90) scale(0.1 -0.1)">
      <defs>
       <path id="DejaVuSans-56" d="M 1831 0 
L 50 4666 
L 709 4666 
L 2188 738 
L 3669 4666 
L 4325 4666 
L 2547 0 
L 1831 0 
z
" transform="scale(0.015625)"/>
       <path id="DejaVuSans-6f" d="M 1959 3097 
Q 1497 3097 1228 2736 
Q 959 2375 959 1747 
Q 959 1119 1226 758 
Q 1494 397 1959 397 
Q 2419 397 2687 759 
Q 2956 1122 2956 1747 
Q 2956 2369 2687 2733 
Q 2419 3097 1959 3097 
z
M 1959 3584 
Q 2709 3584 3137 3096 
Q 3566 2609 3566 1747 
Q 3566 888 3137 398 
Q 2709 -91 1959 -91 
Q 1206 -91 779 398 
Q 353 888 353 1747 
Q 353 2609 779 3096 
Q 1206 3584 1959 3584 
z
" transform="scale(0.015625)"/>
       <path id="DejaVuSans-63" d="M 3122 3366 
L 3122 2828 
Q 2878 2963 2633 3030 
Q 2388 3097 2138 3097 
Q 1578 3097 1268 2742 
Q 959 2388 959 1747 
Q 959 1106 1268 751 
Q 1578 397 2138 397 
Q 2388 397 2633 464 
Q 2878 531 3122 666 
L 3122 134 
Q 2881 22 2623 -34 
Q 2366 -91 2075 -91 
Q 1284 -91 818 406 
Q 353 903 353 1747 
Q 353 2603 823 3093 
Q 1294 3584 2113 3584 
Q 2378 3584 2631 3529 
Q 2884 3475 3122 3366 
z
" transform="scale(0.015625)"/>
       <path id="DejaVuSans-79" d="M 2059 -325 
Q 1816 -950 1584 -1140 
Q 1353 -1331 966 -1331 
L 506 -1331 
L 506 -850 
L 844 -850 
Q 1081 -850 1212 -737 
Q 1344 -625 1503 -206 
L 1606 56 
L 191 3500 
L 800 3500 
L 1894 763 
L 2988 3500 
L 3597 3500 
L 2059 -325 
z
" transform="scale(0.015625)"/>
       <path id="DejaVuSans-20" transform="scale(0.015625)"/>
       <path id="DejaVuSans-25" d="M 4653 2053 
Q 4381 2053 4226 1822 
Q 4072 1591 4072 1178 
Q 4072 772 4226 539 
Q 4381 306 4653 306 
Q 4919 306 5073 539 
Q 5228 772 5228 1178 
Q 5228 1588 5073 1820 
Q 4919 2053 4653 2053 
z
M 4653 2450 
Q 5147 2450 5437 2106 
Q 5728 1763 5728 1178 
Q 5728 594 5436 251 
Q 5144 -91 4653 -91 
Q 4153 -91 3862 251 
Q 3572 594 3572 1178 
Q 3572 1766 3864 2108 
Q 4156 2450 4653 2450 
z
M 1428 4353 
Q 1159 4353 1004 4120 
Q 850 3888 850 3481 
Q 850 3069 1003 2837 
Q 1156 2606 1428 2606 
Q 1700 2606 1854 2837 
Q 2009 3069 2009 3481 
Q 2009 3884 1853 4118 
Q 1697 4353 1428 4353 
z
M 4250 4750 
L 4750 4750 
L 1831 -91 
L 1331 -91 
L 4250 4750 
z
M 1428 4750 
Q 1922 4750 2215 4408 
Q 2509 4066 2509 3481 
Q 2509 2891 2217 2550 
Q 1925 2209 1428 2209 
Q 931 2209 642 2551 
Q 353 2894 353 3481 
Q 353 4063 643 4406 
Q 934 4750 1428 4750 
z
" transform="scale(0.015625)"/>
       <path id="DejaVuSans-46" d="M 628 4666 
L 3309 4666 
L 3309 4134 
L 1259 4134 
L 1259 2759 
L 3109 2759 
L 3109 2228 
L 1259 2228 
L 1259 0 
L 628 0 
L 628 4666 
z
" transform="scale(0.015625)"/>
      </defs>
      <use xlink:href="#DejaVuSans-56"/>
      <use xlink:href="#DejaVuSans-65" x="60.658203"/>
      <use xlink:href="#DejaVuSans-6c" x="122.181641"/>
      <use xlink:href="#DejaVuSans-6f" x="149.964844"/>
      <use xlink:href="#DejaVuSans-63" x="211.146484"/>
      <use xlink:href="#DejaVuSans-69" x="266.126953"/>
      <use xlink:href="#DejaVuSans-74" x="293.910156"/>
      <use xlink:href="#DejaVuSans-79" x="333.119141"/>
      <use xlink:href="#DejaVuSans-20" x="392.298828"/>
      <use xlink:href="#DejaVuSans-25" x="424.085938"/>
      <use xlink:href="#DejaVuSans-20" x="519.105469"/>
      <use xlink:href="#DejaVuSans-6f" x="550.892578"/>
      <use xlink:href="#DejaVuSans-66" x="612.074219"/>
      <use xlink:href="#DejaVuSans-20" x="647.279297"/>
      <use xlink:href="#DejaVuSans-46" x="679.066406"/>
      <use xlink:href="#DejaVuSans-6c" x="736.585938"/>
      <use xlink:href="#DejaVuSans-61" x="764.369141"/>
      <use xlink:href="#DejaVuSans-74" x="825.648438"/>
     </g>
    </g>
   </g>
   <g id="patch_3">
    <path d="M 71.127727 193.433121 
L 107.503182 193.433121 
L 107.503182 149.02743 
L 71.127727 149.02743 
L 71.127727 193.433121 
z
" clip-path="url(#p60a0401f2d)" style="fill: #87ceeb; stroke: #000000; stroke-linejoin: miter"/>
   </g>
   <g id="line2d_19">
    <path d="M 89.315455 193.433121 
L 89.315455 209.232068 
" clip-path="url(#p60a0401f2d)" style="fill: none; stroke: #1f77b4; stroke-linecap: square"/>
   </g>
   <g id="line2d_20">
    <path d="M 89.315455 149.02743 
L 89.315455 147.377629 
" clip-path="url(#p60a0401f2d)" style="fill: none; stroke: #1f77b4; stroke-linecap: square"/>
   </g>
   <g id="line2d_21">
    <path d="M 80.221591 209.232068 
L 98.409318 209.232068 
" clip-path="url(#p60a0401f2d)" style="fill: none; stroke: #000000; stroke-linecap: square"/>
   </g>
   <g id="line2d_22">
    <path d="M 80.221591 147.377629 
L 98.409318 147.377629 
" clip-path="url(#p60a0401f2d)" style="fill: none; stroke: #000000; stroke-linecap: square"/>
   </g>
   <g id="line2d_23"/>
   <g id="patch_4">
    <path d="M 143.878636 183.063885 
L 180.254091 183.063885 
L 180.254091 160.520556 
L 143.878636 160.520556 
L 143.878636 183.063885 
z
" clip-path="url(#p60a0401f2d)" style="fill: #87ceeb; stroke: #000000; stroke-linejoin: miter"/>
   </g>
   <g id="line2d_24">
    <path d="M 162.066364 183.063885 
L 162.066364 192.452763 
" clip-path="url(#p60a0401f2d)" style="fill: none; stroke: #1f77b4; stroke-linecap: square"/>
   </g>
   <g id="line2d_25">
    <path d="M 162.066364 160.520556 
L 162.066364 127.363564 
" clip-path="url(#p60a0401f2d)" style="fill: none; stroke: #1f77b4; stroke-linecap: square"/>
   </g>
   <g id="line2d_26">
    <path d="M 152.9725 192.452763 
L 171.160227 192.452763 
" clip-path="url(#p60a0401f2d)" style="fill: none; stroke: #000000; stroke-linecap: square"/>
   </g>
   <g id="line2d_27">
    <path d="M 152.9725 127.363564 
L 171.160227 127.363564 
" clip-path="url(#p60a0401f2d)" style="fill: none; stroke: #000000; stroke-linecap: square"/>
   </g>
   <g id="line2d_28"/>
   <g id="patch_5">
    <path d="M 216.629545 238.132186 
L 253.005 238.132186 
L 253.005 201.877463 
L 216.629545 201.877463 
L 216.629545 238.132186 
z
" clip-path="url(#p60a0401f2d)" style="fill: #87ceeb; stroke: #000000; stroke-linejoin: miter"/>
   </g>
   <g id="line2d_29">
    <path d="M 234.817273 238.132186 
L 234.817273 253.347969 
" clip-path="url(#p60a0401f2d)" style="fill: none; stroke: #1f77b4; stroke-linecap: square"/>
   </g>
   <g id="line2d_30">
    <path d="M 234.817273 201.877463 
L 234.817273 189.145639 
" clip-path="url(#p60a0401f2d)" style="fill: none; stroke: #1f77b4; stroke-linecap: square"/>
   </g>
   <g id="line2d_31">
    <path d="M 225.723409 253.347969 
L 243.911136 253.347969 
" clip-path="url(#p60a0401f2d)" style="fill: none; stroke: #000000; stroke-linecap: square"/>
   </g>
   <g id="line2d_32">
    <path d="M 225.723409 189.145639 
L 243.911136 189.145639 
" clip-path="url(#p60a0401f2d)" style="fill: none; stroke: #000000; stroke-linecap: square"/>
   </g>
   <g id="line2d_33"/>
   <g id="patch_6">
    <path d="M 289.380455 197.87401 
L 325.755909 197.87401 
L 325.755909 185.306569 
L 289.380455 185.306569 
L 289.380455 197.87401 
z
" clip-path="url(#p60a0401f2d)" style="fill: #87ceeb; stroke: #000000; stroke-linejoin: miter"/>
   </g>
   <g id="line2d_34">
    <path d="M 307.568182 197.87401 
L 307.568182 205.077227 
" clip-path="url(#p60a0401f2d)" style="fill: none; stroke: #1f77b4; stroke-linecap: square"/>
   </g>
   <g id="line2d_35">
    <path d="M 307.568182 185.306569 
L 307.568182 175.266041 
" clip-path="url(#p60a0401f2d)" style="fill: none; stroke: #1f77b4; stroke-linecap: square"/>
   </g>
   <g id="line2d_36">
    <path d="M 298.474318 205.077227 
L 316.662045 205.077227 
" clip-path="url(#p60a0401f2d)" style="fill: none; stroke: #000000; stroke-linecap: square"/>
   </g>
   <g id="line2d_37">
    <path d="M 298.474318 175.266041 
L 316.662045 175.266041 
" clip-path="url(#p60a0401f2d)" style="fill: none; stroke: #000000; stroke-linecap: square"/>
   </g>
   <g id="line2d_38"/>
   <g id="patch_7">
    <path d="M 362.131364 127.582365 
L 398.506818 127.582365 
L 398.506818 79.294919 
L 362.131364 79.294919 
L 362.131364 127.582365 
z
" clip-path="url(#p60a0401f2d)" style="fill: #87ceeb; stroke: #000000; stroke-linejoin: miter"/>
   </g>
   <g id="line2d_39">
    <path d="M 380.319091 127.582365 
L 380.319091 172.949354 
" clip-path="url(#p60a0401f2d)" style="fill: none; stroke: #1f77b4; stroke-linecap: square"/>
   </g>
   <g id="line2d_40">
    <path d="M 380.319091 79.294919 
L 380.319091 48.539542 
" clip-path="url(#p60a0401f2d)" style="fill: none; stroke: #1f77b4; stroke-linecap: square"/>
   </g>
   <g id="line2d_41">
    <path d="M 371.225227 172.949354 
L 389.412955 172.949354 
" clip-path="url(#p60a0401f2d)" style="fill: none; stroke: #000000; stroke-linecap: square"/>
   </g>
   <g id="line2d_42">
    <path d="M 371.225227 48.539542 
L 389.412955 48.539542 
" clip-path="url(#p60a0401f2d)" style="fill: none; stroke: #000000; stroke-linecap: square"/>
   </g>
   <g id="line2d_43"/>
   <g id="patch_8">
    <path d="M 434.882273 199.774501 
L 471.257727 199.774501 
L 471.257727 195.659217 
L 434.882273 195.659217 
L 434.882273 199.774501 
z
" clip-path="url(#p60a0401f2d)" style="fill: #87ceeb; stroke: #000000; stroke-linejoin: miter"/>
   </g>
   <g id="line2d_44">
    <path d="M 453.07 199.774501 
L 453.07 199.774501 
" clip-path="url(#p60a0401f2d)" style="fill: none; stroke: #1f77b4; stroke-linecap: square"/>
   </g>
   <g id="line2d_45">
    <path d="M 453.07 195.659217 
L 453.07 194.665746 
" clip-path="url(#p60a0401f2d)" style="fill: none; stroke: #1f77b4; stroke-linecap: square"/>
   </g>
   <g id="line2d_46">
    <path d="M 443.976136 199.774501 
L 462.163864 199.774501 
" clip-path="url(#p60a0401f2d)" style="fill: none; stroke: #000000; stroke-linecap: square"/>
   </g>
   <g id="line2d_47">
    <path d="M 443.976136 194.665746 
L 462.163864 194.665746 
" clip-path="url(#p60a0401f2d)" style="fill: none; stroke: #000000; stroke-linecap: square"/>
   </g>
   <g id="line2d_48">
    <defs>
     <path id="mf637ec8ae3" d="M 0 3 
C 0.795609 3 1.55874 2.683901 2.12132 2.12132 
C 2.683901 1.55874 3 0.795609 3 0 
C 3 -0.795609 2.683901 -1.55874 2.12132 -2.12132 
C 1.55874 -2.683901 0.795609 -3 0 -3 
C -0.795609 -3 -1.55874 -2.683901 -2.12132 -2.12132 
C -2.683901 -1.55874 -3 -0.795609 -3 0 
C -3 0.795609 -2.683901 1.55874 -2.12132 2.12132 
C -1.55874 2.683901 -0.795609 3 0 3 
z
" style="stroke: #000000"/>
    </defs>
    <g clip-path="url(#p60a0401f2d)">
     <use xlink:href="#mf637ec8ae3" x="453.07" y="207.000483" style="fill-opacity: 0; stroke: #000000"/>
    </g>
   </g>
   <g id="patch_9">
    <path d="M 507.633182 191.335154 
L 544.008636 191.335154 
L 544.008636 188.383175 
L 507.633182 188.383175 
L 507.633182 191.335154 
z
" clip-path="url(#p60a0401f2d)" style="fill: #87ceeb; stroke: #000000; stroke-linejoin: miter"/>
   </g>
   <g id="line2d_49">
    <path d="M 525.820909 191.335154 
L 525.820909 192.604916 
" clip-path="url(#p60a0401f2d)" style="fill: none; stroke: #1f77b4; stroke-linecap: square"/>
   </g>
   <g id="line2d_50">
    <path d="M 525.820909 188.383175 
L 525.820909 184.309178 
" clip-path="url(#p60a0401f2d)" style="fill: none; stroke: #1f77b4; stroke-linecap: square"/>
   </g>
   <g id="line2d_51">
    <path d="M 516.727045 192.604916 
L 534.914773 192.604916 
" clip-path="url(#p60a0401f2d)" style="fill: none; stroke: #000000; stroke-linecap: square"/>
   </g>
   <g id="line2d_52">
    <path d="M 516.727045 184.309178 
L 534.914773 184.309178 
" clip-path="url(#p60a0401f2d)" style="fill: none; stroke: #000000; stroke-linecap: square"/>
   </g>
   <g id="line2d_53"/>
   <g id="patch_10">
    <path d="M 580.384091 238.299175 
L 616.759545 238.299175 
L 616.759545 231.512877 
L 580.384091 231.512877 
L 580.384091 238.299175 
z
" clip-path="url(#p60a0401f2d)" style="fill: #87ceeb; stroke: #000000; stroke-linejoin: miter"/>
   </g>
   <g id="line2d_54">
    <path d="M 598.571818 238.299175 
L 598.571818 248.104547 
" clip-path="url(#p60a0401f2d)" style="fill: none; stroke: #1f77b4; stroke-linecap: square"/>
   </g>
   <g id="line2d_55">
    <path d="M 598.571818 231.512877 
L 598.571818 227.267439 
" clip-path="url(#p60a0401f2d)" style="fill: none; stroke: #1f77b4; stroke-linecap: square"/>
   </g>
   <g id="line2d_56">
    <path d="M 589.477955 248.104547 
L 607.665682 248.104547 
" clip-path="url(#p60a0401f2d)" style="fill: none; stroke: #000000; stroke-linecap: square"/>
   </g>
   <g id="line2d_57">
    <path d="M 589.477955 227.267439 
L 607.665682 227.267439 
" clip-path="url(#p60a0401f2d)" style="fill: none; stroke: #000000; stroke-linecap: square"/>
   </g>
   <g id="line2d_58"/>
   <g id="patch_11">
    <path d="M 653.135 117.144284 
L 689.510455 117.144284 
L 689.510455 97.21099 
L 653.135 97.21099 
L 653.135 117.144284 
z
" clip-path="url(#p60a0401f2d)" style="fill: #87ceeb; stroke: #000000; stroke-linejoin: miter"/>
   </g>
   <g id="line2d_59">
    <path d="M 671.322727 117.144284 
L 671.322727 122.173702 
" clip-path="url(#p60a0401f2d)" style="fill: none; stroke: #1f77b4; stroke-linecap: square"/>
   </g>
   <g id="line2d_60">
    <path d="M 671.322727 97.21099 
L 671.322727 88.031645 
" clip-path="url(#p60a0401f2d)" style="fill: none; stroke: #1f77b4; stroke-linecap: square"/>
   </g>
   <g id="line2d_61">
    <path d="M 662.228864 122.173702 
L 680.416591 122.173702 
" clip-path="url(#p60a0401f2d)" style="fill: none; stroke: #000000; stroke-linecap: square"/>
   </g>
   <g id="line2d_62">
    <path d="M 662.228864 88.031645 
L 680.416591 88.031645 
" clip-path="url(#p60a0401f2d)" style="fill: none; stroke: #000000; stroke-linecap: square"/>
   </g>
   <g id="line2d_63"/>
   <g id="patch_12">
    <path d="M 725.885909 246.721889 
L 762.261364 246.721889 
L 762.261364 223.482096 
L 725.885909 223.482096 
L 725.885909 246.721889 
z
" clip-path="url(#p60a0401f2d)" style="fill: #87ceeb; stroke: #000000; stroke-linejoin: miter"/>
   </g>
   <g id="line2d_64">
    <path d="M 744.073636 246.721889 
L 744.073636 280.130382 
" clip-path="url(#p60a0401f2d)" style="fill: none; stroke: #1f77b4; stroke-linecap: square"/>
   </g>
   <g id="line2d_65">
    <path d="M 744.073636 223.482096 
L 744.073636 218.747894 
" clip-path="url(#p60a0401f2d)" style="fill: none; stroke: #1f77b4; stroke-linecap: square"/>
   </g>
   <g id="line2d_66">
    <path d="M 734.979773 280.130382 
L 753.1675 280.130382 
" clip-path="url(#p60a0401f2d)" style="fill: none; stroke: #000000; stroke-linecap: square"/>
   </g>
   <g id="line2d_67">
    <path d="M 734.979773 218.747894 
L 753.1675 218.747894 
" clip-path="url(#p60a0401f2d)" style="fill: none; stroke: #000000; stroke-linecap: square"/>
   </g>
   <g id="line2d_68"/>
   <g id="patch_13">
    <path d="M 798.636818 167.082508 
L 835.012273 167.082508 
L 835.012273 134.91665 
L 798.636818 134.91665 
L 798.636818 167.082508 
z
" clip-path="url(#p60a0401f2d)" style="fill: #87ceeb; stroke: #000000; stroke-linejoin: miter"/>
   </g>
   <g id="line2d_69">
    <path d="M 816.824545 167.082508 
L 816.824545 170.981438 
" clip-path="url(#p60a0401f2d)" style="fill: none; stroke: #1f77b4; stroke-linecap: square"/>
   </g>
   <g id="line2d_70">
    <path d="M 816.824545 134.91665 
L 816.824545 131.589959 
" clip-path="url(#p60a0401f2d)" style="fill: none; stroke: #1f77b4; stroke-linecap: square"/>
   </g>
   <g id="line2d_71">
    <path d="M 807.730682 170.981438 
L 825.918409 170.981438 
" clip-path="url(#p60a0401f2d)" style="fill: none; stroke: #000000; stroke-linecap: square"/>
   </g>
   <g id="line2d_72">
    <path d="M 807.730682 131.589959 
L 825.918409 131.589959 
" clip-path="url(#p60a0401f2d)" style="fill: none; stroke: #000000; stroke-linecap: square"/>
   </g>
   <g id="line2d_73"/>
   <g id="line2d_74">
    <path d="M 71.127727 172.218687 
L 107.503182 172.218687 
" clip-path="url(#p60a0401f2d)" style="fill: none; stroke: #2ca02c"/>
   </g>
   <g id="line2d_75">
    <path d="M 143.878636 163.907843 
L 180.254091 163.907843 
" clip-path="url(#p60a0401f2d)" style="fill: none; stroke: #2ca02c"/>
   </g>
   <g id="line2d_76">
    <path d="M 216.629545 224.399562 
L 253.005 224.399562 
" clip-path="url(#p60a0401f2d)" style="fill: none; stroke: #2ca02c"/>
   </g>
   <g id="line2d_77">
    <path d="M 289.380455 195.952585 
L 325.755909 195.952585 
" clip-path="url(#p60a0401f2d)" style="fill: none; stroke: #2ca02c"/>
   </g>
   <g id="line2d_78">
    <path d="M 362.131364 120.633227 
L 398.506818 120.633227 
" clip-path="url(#p60a0401f2d)" style="fill: none; stroke: #2ca02c"/>
   </g>
   <g id="line2d_79">
    <path d="M 434.882273 196.678107 
L 471.257727 196.678107 
" clip-path="url(#p60a0401f2d)" style="fill: none; stroke: #2ca02c"/>
   </g>
   <g id="line2d_80">
    <path d="M 507.633182 190.326537 
L 544.008636 190.326537 
" clip-path="url(#p60a0401f2d)" style="fill: none; stroke: #2ca02c"/>
   </g>
   <g id="line2d_81">
    <path d="M 580.384091 233.97937 
L 616.759545 233.97937 
" clip-path="url(#p60a0401f2d)" style="fill: none; stroke: #2ca02c"/>
   </g>
   <g id="line2d_82">
    <path d="M 653.135 107.869291 
L 689.510455 107.869291 
" clip-path="url(#p60a0401f2d)" style="fill: none; stroke: #2ca02c"/>
   </g>
   <g id="line2d_83">
    <path d="M 725.885909 224.874855 
L 762.261364 224.874855 
" clip-path="url(#p60a0401f2d)" style="fill: none; stroke: #2ca02c"/>
   </g>
   <g id="line2d_84">
    <path d="M 798.636818 159.750844 
L 835.012273 159.750844 
" clip-path="url(#p60a0401f2d)" style="fill: none; stroke: #2ca02c"/>
   </g>
   <g id="patch_14">
    <path d="M 52.94 291.709924 
L 52.94 36.96 
" style="fill: none; stroke: #000000; stroke-width: 0.8; stroke-linejoin: miter; stroke-linecap: square"/>
   </g>
   <g id="patch_15">
    <path d="M 853.2 291.709924 
L 853.2 36.96 
" style="fill: none; stroke: #000000; stroke-width: 0.8; stroke-linejoin: miter; stroke-linecap: square"/>
   </g>
   <g id="patch_16">
    <path d="M 52.94 291.709924 
L 853.2 291.709924 
" style="fill: none; stroke: #000000; stroke-width: 0.8; stroke-linejoin: miter; stroke-linecap: square"/>
   </g>
   <g id="patch_17">
    <path d="M 52.94 36.96 
L 853.2 36.96 
" style="fill: none; stroke: #000000; stroke-width: 0.8; stroke-linejoin: miter; stroke-linecap: square"/>
   </g>
   <g id="text_21">
    <!-- Box Plot of Velocity % of Flat by Terrain -->
    <g transform="translate(335.730625 30.96) scale(0.12 -0.12)">
     <defs>
      <path id="DejaVuSans-42" d="M 1259 2228 
L 1259 519 
L 2272 519 
Q 2781 519 3026 730 
Q 3272 941 3272 1375 
Q 3272 1813 3026 2020 
Q 2781 2228 2272 2228 
L 1259 2228 
z
M 1259 4147 
L 1259 2741 
L 2194 2741 
Q 2656 2741 2882 2914 
Q 3109 3088 3109 3444 
Q 3109 3797 2882 3972 
Q 2656 4147 2194 4147 
L 1259 4147 
z
M 628 4666 
L 2241 4666 
Q 2963 4666 3353 4366 
Q 3744 4066 3744 3513 
Q 3744 3084 3544 2831 
Q 3344 2578 2956 2516 
Q 3422 2416 3680 2098 
Q 3938 1781 3938 1306 
Q 3938 681 3513 340 
Q 3088 0 2303 0 
L 628 0 
L 628 4666 
z
" transform="scale(0.015625)"/>
      <path id="DejaVuSans-78" d="M 3513 3500 
L 2247 1797 
L 3578 0 
L 2900 0 
L 1881 1375 
L 863 0 
L 184 0 
L 1544 1831 
L 300 3500 
L 978 3500 
L 1906 2253 
L 2834 3500 
L 3513 3500 
z
" transform="scale(0.015625)"/>
      <path id="DejaVuSans-50" d="M 1259 4147 
L 1259 2394 
L 2053 2394 
Q 2494 2394 2734 2622 
Q 2975 2850 2975 3272 
Q 2975 3691 2734 3919 
Q 2494 4147 2053 4147 
L 1259 4147 
z
M 628 4666 
L 2053 4666 
Q 2838 4666 3239 4311 
Q 3641 3956 3641 3272 
Q 3641 2581 3239 2228 
Q 2838 1875 2053 1875 
L 1259 1875 
L 1259 0 
L 628 0 
L 628 4666 
z
" transform="scale(0.015625)"/>
      <path id="DejaVuSans-62" d="M 3116 1747 
Q 3116 2381 2855 2742 
Q 2594 3103 2138 3103 
Q 1681 3103 1420 2742 
Q 1159 2381 1159 1747 
Q 1159 1113 1420 752 
Q 1681 391 2138 391 
Q 2594 391 2855 752 
Q 3116 1113 3116 1747 
z
M 1159 2969 
Q 1341 3281 1617 3432 
Q 1894 3584 2278 3584 
Q 2916 3584 3314 3078 
Q 3713 2572 3713 1747 
Q 3713 922 3314 415 
Q 2916 -91 2278 -91 
Q 1894 -91 1617 61 
Q 1341 213 1159 525 
L 1159 0 
L 581 0 
L 581 4863 
L 1159 4863 
L 1159 2969 
z
" transform="scale(0.015625)"/>
     </defs>
     <use xlink:href="#DejaVuSans-42"/>
     <use xlink:href="#DejaVuSans-6f" x="68.603516"/>
     <use xlink:href="#DejaVuSans-78" x="126.660156"/>
     <use xlink:href="#DejaVuSans-20" x="185.839844"/>
     <use xlink:href="#DejaVuSans-50" x="217.626953"/>
     <use xlink:href="#DejaVuSans-6c" x="277.929688"/>
     <use xlink:href="#DejaVuSans-6f" x="305.712891"/>
     <use xlink:href="#DejaVuSans-74" x="366.894531"/>
     <use xlink:href="#DejaVuSans-20" x="406.103516"/>
     <use xlink:href="#DejaVuSans-6f" x="437.890625"/>
     <use xlink:href="#DejaVuSans-66" x="499.072266"/>
     <use xlink:href="#DejaVuSans-20" x="534.277344"/>
     <use xlink:href="#DejaVuSans-56" x="566.064453"/>
     <use xlink:href="#DejaVuSans-65" x="626.722656"/>
     <use xlink:href="#DejaVuSans-6c" x="688.246094"/>
     <use xlink:href="#DejaVuSans-6f" x="716.029297"/>
     <use xlink:href="#DejaVuSans-63" x="777.210938"/>
     <use xlink:href="#DejaVuSans-69" x="832.191406"/>
     <use xlink:href="#DejaVuSans-74" x="859.974609"/>
     <use xlink:href="#DejaVuSans-79" x="899.183594"/>
     <use xlink:href="#DejaVuSans-20" x="958.363281"/>
     <use xlink:href="#DejaVuSans-25" x="990.150391"/>
     <use xlink:href="#DejaVuSans-20" x="1085.169922"/>
     <use xlink:href="#DejaVuSans-6f" x="1116.957031"/>
     <use xlink:href="#DejaVuSans-66" x="1178.138672"/>
     <use xlink:href="#DejaVuSans-20" x="1213.34375"/>
     <use xlink:href="#DejaVuSans-46" x="1245.130859"/>
     <use xlink:href="#DejaVuSans-6c" x="1302.650391"/>
     <use xlink:href="#DejaVuSans-61" x="1330.433594"/>
     <use xlink:href="#DejaVuSans-74" x="1391.712891"/>
     <use xlink:href="#DejaVuSans-20" x="1430.921875"/>
     <use xlink:href="#DejaVuSans-62" x="1462.708984"/>
     <use xlink:href="#DejaVuSans-79" x="1526.185547"/>
     <use xlink:href="#DejaVuSans-20" x="1585.365234"/>
     <use xlink:href="#DejaVuSans-54" x="1617.152344"/>
     <use xlink:href="#DejaVuSans-65" x="1661.236328"/>
     <use xlink:href="#DejaVuSans-72" x="1722.759766"/>
     <use xlink:href="#DejaVuSans-72" x="1762.123047"/>
     <use xlink:href="#DejaVuSans-61" x="1803.236328"/>
     <use xlink:href="#DejaVuSans-69" x="1864.515625"/>
     <use xlink:href="#DejaVuSans-6e" x="1892.298828"/>
    </g>
   </g>
  </g>
 </g>
 <defs>
  <clipPath id="p60a0401f2d">
   <rect x="52.94" y="36.96" width="800.26" height="254.749924"/>
  </clipPath>
 </defs>
</svg>
